<?xml version="1.0" standalone="no"?>
<!DOCTYPE svg PUBLIC "-//W3C//DTD SVG 20010904//EN"
 "http://www.w3.org/TR/2001/REC-SVG-20010904/DTD/svg10.dtd">
<svg version="1.0" xmlns="http://www.w3.org/2000/svg"
 width="250.000000pt" height="250.000000pt" viewBox="0 0 250.000000 250.000000"
 preserveAspectRatio="xMidYMid meet">
<metadata>
Created by potrace 1.11, written by Peter Selinger 2001-2013
</metadata>
<g transform="translate(0.000000,250.000000) scale(0.100000,-0.100000)"
fill="#000000" stroke="none">
<path d="M1829 2227 c-87 -26 -155 -64 -214 -118 l-42 -38 -38 39 c-43 44
-136 93 -210 111 -76 18 -1281 19 -1306 1 -18 -13 -19 -38 -19 -566 l0 -552
165 -183 c91 -101 165 -187 165 -191 0 -8 -52 -69 -141 -165 -25 -27 -79 -86
-118 -130 l-73 -80 279 -6 c255 -5 286 -8 382 -32 57 -14 133 -29 170 -33 36
-3 68 -8 71 -9 31 -19 741 -27 953 -12 377 27 575 86 627 187 18 36 20 58 20
275 0 301 -4 311 -132 374 l-57 28 48 22 c26 11 66 37 90 57 l42 36 -3 279 -3
278 -29 30 c-17 17 -38 31 -48 31 -27 0 -22 12 27 72 25 30 45 64 45 75 0 25
-46 89 -90 126 -48 41 -138 84 -209 100 -101 24 -262 21 -352 -6z"/>
</g>
</svg>
