<svg xmlns="http://www.w3.org/2000/svg" width="38.705" height="26.489" viewBox="0 0 38.705 26.489"><g transform="translate(-973.597 64.062)"><path d="M982.117-45.262l3.255-4.878h-1.28l-3.306,4.878Z" fill="#b3b3b3"/><path d="M984.133-45.262l3.255-4.878h-1.28L982.8-45.262Z" fill="#b3b3b3"/><path d="M987.536-48.988l-.5.739h1.223l.493-.739h-1.216Z" fill="#b3b3b3"/><path d="M986.266-45.262l1.541-2.31h-1.23l-1.566,2.31h1.255Z" fill="#b3b3b3"/><path d="M996.21-45.262h1.253l1.358-2.139a.373.373,0,0,0-.022-.5c-.148-.216-.563-.345-1.284-.345h-3.027l-2.025,2.987H993.8l1.571-2.356h1.913c.505,0,.3.217.3.217Z" fill="#b3b3b3"/><path d="M999.594-47.551c-.155.215-.52.794-1.005,1.481s.176.808,1.035.808h3.444l.356-.58h-3.13c-.563,0-.546-.206-.451-.348s.55-.786.786-1.125.382-.3.82-.3l3.062,0,.455-.642h-3.616C999.924-48.249,999.748-47.766,999.594-47.551Z" fill="#b3b3b3"/><path d="M1005.586-46.5h2.905c.76,0,.936-.116,1.074-.314.076-.11.355-.541.587-.9s-.012-.53-.283-.53h-2.992c-1.426,0-1.6.483-1.757.7s-.519.794-1.005,1.481.177.808,1.035.808h3.444l.357-.58h-3.131c-.562,0-.545-.206-.451-.348C1005.4-46.241,1005.485-46.359,1005.586-46.5Zm.569-.812c.236-.339.382-.3.82-.3l1.91,0c-.2.384-.286.526-.475.526h-2.417Z" fill="#b3b3b3"/><path d="M991.918-47.008h-2.905c-.76,0-.936.116-1.073.314-.077.11-.356.541-.588.9s.012.53.283.53h2.993c1.425,0,1.6-.483,1.756-.7s.52-.8,1.005-1.482-.176-.807-1.035-.807H988.91l-.356.58h3.13c.563,0,.546.206.451.348C992.1-47.27,992.019-47.153,991.918-47.008Zm-.569.812c-.236.339-.382.3-.82.3l-1.91,0c.2-.385.286-.526.476-.526h2.416Z" fill="#b3b3b3"/><path d="M980.208-47.008H977.3c-.76,0-.936.116-1.073.314-.077.11-.355.541-.588.9s.013.53.283.53h2.993c1.426,0,1.6-.483,1.756-.7s.52-.8,1.005-1.482-.176-.807-1.035-.807H977.2l-.356.58h3.13c.563,0,.546.206.451.348C980.391-47.27,980.309-47.153,980.208-47.008Zm-.569.812c-.236.339-.382.3-.82.3l-1.91,0c.2-.385.286-.526.476-.526H979.8Z" fill="#b3b3b3"/><path d="M994.352-48.505h.729a1.081,1.081,0,0,0-.011-.143c-.09-.522-.187-.29-.341-.651a1.5,1.5,0,0,0-.567-.695c-.3-.245-.309-.619-.535-.644s-.277.128-.277.128a2.118,2.118,0,0,0-.676-.045,1.647,1.647,0,0,0-.747.226s-.02-.258-.316-.181-.3.451-.76,1.024a1.319,1.319,0,0,0-.393.981h1.9c.612,0,1.2.051,1.4.425a.554.554,0,0,1,.032.411Z" fill="gray"/><path d="M1003.857-47.351h-.457l.678.888.208-.3Z" fill="gray"/><path d="M1005.571-44.507l.167-.283-.159-.216h-.39Z" fill="gray"/><path d="M987.553-44.458l-1,1.5h.415l.424-.631H988.6l-.419.631h.415l1.008-1.5h-.428l-.4.6h-1.2l.4-.6Z" fill="gray"/><path d="M991.329-42.957h.786c.225,0,.328-.078.5-.316s.479-.719.58-.861.1-.338-.283-.338h-1.226c-.225,0-.328.077-.5.315s-.479.72-.58.861-.1.339.284.339Zm-.255-.444s.382-.578.463-.69.166-.142.355-.142h.755c.225,0,.082.2.082.2s-.381.579-.463.69-.165.142-.354.142h-.756C990.932-43.2,991.074-43.4,991.074-43.4Z" fill="gray"/><path d="M994.611-42.957h1.47l.159-.24h-1.363c-.224,0-.081-.2-.081-.2s.381-.578.462-.69.166-.142.355-.142h1.314l.158-.239H995.41c-.226,0-.329.077-.5.315s-.479.72-.579.861S994.228-42.957,994.611-42.957Z" fill="gray"/><path d="M1004.487-44.472H1003c-.225,0-.328.077-.5.315s-.479.72-.58.861-.1.339.284.339h1.469l.159-.24h-1.362c-.225,0-.082-.2-.082-.2l.139-.21h1.182l.161-.216h-1.2c.078-.117.15-.223.18-.264.081-.112.166-.142.354-.142h1.314l.159-.239Z" fill="gray"/><path d="M998.987-44.458l-1,1.5h.415l.427-.636.739.636H1000l-.761-.733,1.873-.768h-.605l-1.486.588.395-.588Z" fill="gray"/><path d="M1006.572-42.957l.421-.629h.312c.4,0,.435-.058.547-.209s.442-.677.442-.677h-.471l-.267.465c-.071.122-.113.173-.261.173h-.795c-.21,0-.171-.064-.061-.212s.3-.426.3-.426h-.486l-.428.606c-.084.119-.126.28.4.28h.347l-.417.629Z" fill="gray"/><path d="M987.734-42.742l.391-.59h-.591l-.189.282C987.452-42.949,987.593-42.857,987.734-42.742Z" fill="gray"/><path d="M992.059-43.49c.046-.062.2-.3.328-.486h-.495c-.121,0-.127.008-.148.036-.045.062-.2.3-.327.486h.495C992.032-43.454,992.039-43.462,992.059-43.49Z" fill="gray"/><path d="M990.095-42.677s1.967,2.434,7.146,2.434,7.432-2.434,7.432-2.434h-.347s-2.358,1.842-7.06,1.842-6.78-1.842-6.78-1.842Z" fill="gray"/><path d="M996.995-54.832l0,0-.735-.813c-1.076-.087-2.18-.135-3.308-.135a39.959,39.959,0,0,0-4.994.314,1.744,1.744,0,0,1,.146,1.406,41.235,41.235,0,0,1,4.848-.286c1.408,0,2.774.073,4.089.2a3.288,3.288,0,0,1,.026-.609Z" fill="gray"/><path d="M984.584-53.153a2.8,2.8,0,0,0,.164.333,1.268,1.268,0,0,1,.1,1.065,1.439,1.439,0,0,0,.146.867,1.539,1.539,0,0,0-.206.491h1.064L984.8-48.821q0,.083-.012.171l1.184-1.747h1.686a2.172,2.172,0,0,1-.221-.821,14.558,14.558,0,0,0-.141-1.533,1.121,1.121,0,0,1,.055-.481,1.044,1.044,0,0,0-.017-.339,1.2,1.2,0,0,0,.133-.171,1.854,1.854,0,0,0,.1-.227c0-.011.006-.022.007-.032h.005a1.281,1.281,0,0,0-.329-1.474.891.891,0,0,0-.472-.1,1.181,1.181,0,0,0,.2-.185.2.2,0,0,0,.007-.024.046.046,0,0,1,0-.021.477.477,0,0,0-.157-.457c-.2-.125-.511-.061-1.121.154a3.073,3.073,0,0,0-1.224.923.361.361,0,0,0-.053.259,4.2,4.2,0,0,1-.026.854A3.57,3.57,0,0,0,984.584-53.153Z" fill="gray"/><path d="M1000.225-55.111a.5.5,0,0,1,.108.208l0,.007a.538.538,0,0,1,.016.131s.281.012.389.487a2.31,2.31,0,0,1,.029.688c6.037,1.24,10.2,3.868,10.2,6.912,0,3.685-6.106,6.763-14.246,7.5.008-.22.027-.512.066-.816-4.908-.132-6.816-2.423-6.9-2.523l-.338-.418h.794l-.014-.023a.467.467,0,0,1,.059-.487c.04-.056.111-.165.194-.29.128-.195.282-.429.388-.574a.8.8,0,0,1,.709-.421h1.226a.557.557,0,0,1,.552.257.467.467,0,0,1-.06.487c-.039.055-.111.165-.194.29-.128.195-.282.428-.387.573a.8.8,0,0,1-.71.421h-1.233a11.243,11.243,0,0,0,6.273,1.607l.144-.237a2.333,2.333,0,0,0,.318-1.027v0c.023-.184.041-.546.045-.648.06-.388.387-.521.473-.8a1.183,1.183,0,0,1,.509-.638l.057-.044.148-.222.058-.081a.689.689,0,0,0,.1-.242c-.393-.039-.646-.133-.781-.393a.749.749,0,0,1,.153-.787c.294-.415.545-.794.728-1.071.122-.184.217-.326.279-.412.012-.016.023-.035.036-.054a1.3,1.3,0,0,1,.591-.524c0-.034,0-.067,0-.1-.071-.728.219-1.005.2-1.636a13.869,13.869,0,0,1,0-1.513l2.306,3.022h.489l-2.733-3.72a2.7,2.7,0,0,0-.066-.739,4.939,4.939,0,0,0,.145-.709h0a1.045,1.045,0,0,0-.13-.768.33.33,0,0,0-.058-.047l-.012-.01h0l-.005,0-.018-.006a.444.444,0,0,0-.049-.012l-.013,0a.393.393,0,0,0-.07,0h-.016a.27.27,0,0,0-.093.023s.124-.5-.49-.477a.657.657,0,0,0-.089-.245l0-.008c-.008-.012-.018-.024-.027-.036l-.01-.013h0l0,0a.463.463,0,0,0-.051-.047l-.013-.011a.332.332,0,0,0-.408-.016s.014-.406-.257-.528-.489.007-.655.341a.356.356,0,0,0-.016.039l-5.924-8.064-4.193-.49-.38,1.134,4.3.193,5.064,6.637,1,1.309,0,.031h0a5.233,5.233,0,0,0-.029.678h0c0,.076,0,.152.006.226v.007c0,.074.008.146.014.216v.005a2.883,2.883,0,0,0,.059.391,2.476,2.476,0,0,1,0,1.423,22.726,22.726,0,0,1-.56,2.635,1.605,1.605,0,0,0-.11.671h.41c.8,0,1.285.149,1.5.455h0a.622.622,0,0,1,.026.786L997.6-45.006h-1.865l1.519-2.355h-1.149a3.038,3.038,0,0,0-.929.87,3,3,0,0,1-.906.983l-.335.5h-1.96l.27-.4a2.54,2.54,0,0,1-1.621.4h-2.993a.628.628,0,0,1-.573-.291.6.6,0,0,1,.075-.634c.225-.351.512-.8.592-.91.2-.286.471-.4,1.057-.419l1.857,0h1.141l.094-.136a1.236,1.236,0,0,0-.194-.013h-3.589l.329-.534c.015-.024,0-.045-.028-.045h-1.845l.849-1.252h.316c-.026-.22.031-.469.018-.776a1.181,1.181,0,0,0-.018-.151l-2.389,3.581.1.194.017.03.991-1.463h1.847L986.4-45.006h-.255l.005.018c.181.636.284.756.542.928a.65.65,0,0,1,.17.176l.551-.831h1.047l-.4.6h.584l.4-.6h1.047L988.737-42.7h-.957a1.262,1.262,0,0,1,.426.642c.18.653-.043.73.043,1.572a3.314,3.314,0,0,1-.1,1.2c-7.622-.9-13.22-3.866-13.22-7.4,0-2.857,3.672-5.349,9.117-6.669a3.155,3.155,0,0,1-.06-.943,1.792,1.792,0,0,0,0-.455c-6.193,1.518-10.383,4.554-10.383,8.067,0,5.029,8.665,9.1,19.353,9.1s19.352-4.076,19.352-9.1C1012.3-50.495,1007.3-53.758,1000.225-55.111Zm-6.107,11.667c.04-.056.111-.165.194-.29.128-.195.282-.429.388-.574a.8.8,0,0,1,.71-.421h2.153l-.5.753h-1.451c-.121,0-.127.008-.148.036-.045.062-.2.3-.327.486h1.58l-.5.753h-1.608c-.347,0-.492-.139-.552-.256A.467.467,0,0,1,994.118-43.444Z" fill="gray"/></g></svg>