<svg xmlns="http://www.w3.org/2000/svg" width="27.57" height="26.447" viewBox="0 0 27.57 26.447"><g transform="translate(-899.88 64.062)"><path d="M899.88-49.97l6.458,4.639.595-.575s-.268-.241.133-.642A3.7,3.7,0,0,0,908-47.731c.208-.488,1.057-.842,1.057-.842l2.1-3.356s-.18-.391,0-.572a6.455,6.455,0,0,1,.712-.521,4.77,4.77,0,0,1,1.063-2.306,5.119,5.119,0,0,1,2.076-.973s-.331-1.725.752-1.745,1.354.542,1.263,1.434c0,0,.823-.652,1.374-.09l.916-3.777s-2.1,1.083-2.447,1.27-.561.2-.936-.495-2.192-4.358-2.192-4.358-2.233,4.265-2.434,4.606-.488.534-1.036.187-2.246-1.217-2.246-1.217,1.4,6.1,1.571,6.705-.007.689-.187.789-.354.174-.682-.16-2.995-3.276-2.995-3.276-.558,1.345-.668,1.636-.447.416-1.073.281-3.324-.762-3.324-.762.887,2.869,1.061,3.544.127.936-.508,1.184S899.88-49.97,899.88-49.97Z" fill="#b3b3b3"/><path d="M905.138-42.343s.461-1.013.7-1.444a.885.885,0,0,1,.842-.351s-.331-.11.772-1.073,1.885-1.373,2.016-1.825S910.5-47.7,910.5-47.7l.491-.531.411-.05a1.673,1.673,0,0,1,.381-.592,1.328,1.328,0,0,1,.361-.16s.722-.832.933-1,.381-.08.34.762a13.245,13.245,0,0,1-1.082,2.708c-.131.491-.051.421-.412.772a2.562,2.562,0,0,0-.691,1.073,3.047,3.047,0,0,0-.061.671s.351-.24.411-.16.171.231.361-.08,2.106-2.186,2.287-2.457.04-.592.351-.882a6.086,6.086,0,0,0,1.053-1.524,8.188,8.188,0,0,0,.411-1.2s.461.411.611.562.512-.06.4.341-.361,3.489-.541,4.522-.251,1,.08,1a3.115,3.115,0,0,0,.993-.09c.07-.081.411-.712.331-.793s-1.063.281-1.063.281.551-4.412.581-4.853.627-.406.652-.687-.25-.276-.2-.426.225-.266.115-.416-.456-.1-.456-.1a1.975,1.975,0,0,0,.115-.541,4.015,4.015,0,0,0,.005-.772l3.9-4.135s.548,1.21.742,1.645.508.428.929.341,3.483-.816,3.483-.816-.956,3.209-1.123,3.663-.154.736.154.943a12.828,12.828,0,0,0,1.692.648s-5.249,3.811-5.744,4.212-.735.434-.387,1.283.882,2.193.882,2.193S914.51-44,913.665-43.957,905.138-42.343,905.138-42.343Z" fill="#b3b3b3"/><path d="M913.686-42.639s-.451.116-.611.166-.01.5.1.551a3.785,3.785,0,0,0,1.063,0c.1-.045.165-.426.13-.476A4.907,4.907,0,0,0,913.686-42.639Z" fill="gray"/><path d="M903.49-39.622l-.6.755s-.1-.28-.815-.28-1.237.12-1.237.514.615.542,1.2.5a1.38,1.38,0,0,0,.889-.381l.662.668a4.869,4.869,0,0,1-1.792.227c-1.29,0-1.912-.367-1.912-1.052s.9-1.073,1.919-1.073A10.569,10.569,0,0,1,903.49-39.622Z" fill="gray"/><path d="M906.9-37.617h1.283s-1-1.41-1.143-1.691a.384.384,0,0,1,0-.434h-1.56a.384.384,0,0,1,0,.434c-.14.281-1.143,1.691-1.143,1.691h1.283a.349.349,0,0,1-.086-.434l0-.007h1.446l0,.007A.348.348,0,0,1,906.9-37.617Zm-1.178-.782c.165-.3.375-.662.493-.875.014-.025.03-.049.045-.072q.024.034.045.072c.118.213.328.58.493.875Z" fill="gray"/><path d="M916.729-37.617h1.283s-1-1.41-1.143-1.691a.384.384,0,0,1,0-.434h-1.56a.384.384,0,0,1,0,.434c-.14.281-1.143,1.691-1.143,1.691h1.283a.35.35,0,0,1-.087-.434l0-.007h1.446l0,.007A.35.35,0,0,1,916.729-37.617Zm-1.178-.782c.165-.3.375-.662.493-.875q.021-.038.045-.072.024.034.045.072c.118.213.328.58.493.875Z" fill="gray"/><path d="M926.034-37.617h1.284s-1-1.41-1.143-1.691a.382.382,0,0,1,0-.434h-1.561a.382.382,0,0,1,0,.434c-.14.281-1.143,1.691-1.143,1.691h1.284a.348.348,0,0,1-.087-.434l0-.007h1.447l0,.007A.348.348,0,0,1,926.034-37.617Zm-1.177-.782c.165-.3.375-.662.493-.875q.021-.038.045-.072c.015.023.03.047.044.072.118.213.329.58.493.875Z" fill="gray"/><path d="M912.9-37.984v-1.5c0-.2.24-.254.24-.254h-1.3c.267,0,.267.307.267.307v.948c-.428-.34-1.2-.958-1.277-1.035-.1-.107.094-.22.094-.22H909.3c.268,0,.268.307.268.307v1.457a.362.362,0,0,1-.315.361H910.6c-.181,0-.241-.2-.241-.367v-.971l1.651,1.338h1.123C912.956-37.617,912.9-37.817,912.9-37.984Z" fill="gray"/><path d="M921.046-39.742H919.1c.267,0,.267.307.267.307v1.457a.361.361,0,0,1-.314.361h.874v0h1.5a1.139,1.139,0,0,0,1.274-1.054C922.7-39.415,921.854-39.742,921.046-39.742Zm-.025,1.641h-.862v-1.088h.852c.346,0,.717.142.717.52A.641.641,0,0,1,921.021-38.1Z" fill="gray"/></g></svg>