<svg xmlns="http://www.w3.org/2000/svg" width="26.445" height="26.444" viewBox="0 0 26.445 26.444"><g transform="translate(-1105.074 64.061)"><path d="M1125.286-51.212s.7-.646.7-1.154-.063-.493-.246-.257a1.546,1.546,0,0,1-.625.377c-.215-.251-.635.237-.635.237a.737.737,0,0,0-.876.294,1.05,1.05,0,0,0-1.081.366c-.225-.335-.509-.231-.713-.051a1.011,1.011,0,0,1-.4.219c-.179-1.206-.609-1.17-.609-1.17s-.152-1.542-.362-1.684-.776.09-.776.09-.164-.851-.3-.9-.141.158-.141.158-.153-.536-.3-.614-.3.195-.3.195-.12-1.338-.262-1.359-.21.225-.21.225a5.218,5.218,0,0,0-.761-1.6c-.692-1.133-.692-1.05-.53-.189a8.12,8.12,0,0,1,.121,1.694c-.462-.241-.314.179-.209.578a1.017,1.017,0,0,1-.011.645s-.462-.445-.457-.33-.021.219-.194.513a.564.564,0,0,0-.005.562c-.451.157-.325.939-.325.939s-.457-.357-.53-.4-.143-.025-.363.347a.8.8,0,0,0,.006.761.371.371,0,0,0-.216.315,2.346,2.346,0,0,0,.111.561c-.431-.027-.263.719-.263.719-.3.068-.128,1.016-.128,1.016a6.917,6.917,0,0,0-1.4-.677c-.106.078.027.406.027.406a5.289,5.289,0,0,0-.992-.59c-.168-.005-.141.271-.141.271-.59-.861-1.342-1.113-1.287-.945s.574,1.457.574,1.457-.306-.111-.228.083a6.547,6.547,0,0,0,.575.8s-.461-.082-.271.225a1.743,1.743,0,0,0,.487.495,1.385,1.385,0,0,0,.1.41c.072.11.512.566.512.566h-.558a5.207,5.207,0,0,0,.755.992c.48.5,1.142.606,1.149.8s-.252.417-.252.417l.725.3v.369l1.179.032-.07.558s1.142-.182,1.787-.354,1.023-.173,1.109.15a4.652,4.652,0,0,1-.094,1.259h.4a3.408,3.408,0,0,1-.008-.951c.078-.358.094-.5.85-.479s1.726.2,1.858.136a.1.1,0,0,0,.036-.172,2.073,2.073,0,0,0,1.433-.588c.335-.389.545-.314.435-.482s-.456-.147-.456-.147c.545-.709,1.117-.74,1.122-.9s-.1-.147-.1-.147c1.07-.677.95-1.116.719-1.107s-.3-.293-.3-.293.483-.383.54-.54-.189-.179-.189-.179.488-.2.577-.456-.189-.2-.151-.468.482-.709.566-.934A.4.4,0,0,0,1125.286-51.212Zm-1.907.947c-.3.291-.6.588-.881.9-.079.087-.158.177-.237.266.131.018.265.03.4.037a4.371,4.371,0,0,0,.5,0,2.489,2.489,0,0,0,.493-.074,1.211,1.211,0,0,0,.449-.211,1.23,1.23,0,0,1-.443.232,2.523,2.523,0,0,1-.495.1,4.071,4.071,0,0,1-.506.022q-.231,0-.465-.024-.264.3-.525.6-.419.484-.834.974a4.577,4.577,0,0,0,.621.123,4.308,4.308,0,0,0,.77.032,3.394,3.394,0,0,0,.761-.134,2.672,2.672,0,0,0,.7-.342,2.7,2.7,0,0,1-.682.384,3.419,3.419,0,0,1-.768.18,4.446,4.446,0,0,1-.791.012,4.407,4.407,0,0,1-.732-.111q-.758.894-1.508,1.79c.182.038.369.069.554.092a6.812,6.812,0,0,0,.741.049,5.589,5.589,0,0,0,.743-.04,4.49,4.49,0,0,0,.732-.152,4.772,4.772,0,0,1-.724.195,5.722,5.722,0,0,1-.749.086,7.044,7.044,0,0,1-.755-.006,6.527,6.527,0,0,1-.664-.077l-.57.683a.673.673,0,0,0-.04.06.667.667,0,0,0-.041.08c-.007.019-.013.04-.018.058-.029.15-.037.32-.07.308s-.05-.1-.063-.219-.076-.11-.079-.3c-.473-.358-.939-.726-1.4-1.1a3.2,3.2,0,0,1-.506.285,2.73,2.73,0,0,1-.632.2,1.813,1.813,0,0,1-.657,0,1.575,1.575,0,0,1-.6-.252,1.537,1.537,0,0,0,.6.209,1.779,1.779,0,0,0,.634-.042,2.563,2.563,0,0,0,.591-.231,3.092,3.092,0,0,0,.427-.273c-.063-.053-.127-.1-.191-.155-.426-.35-.847-.7-1.259-1.071a3.625,3.625,0,0,1-.643.106,1.785,1.785,0,0,1-.358-.007.7.7,0,0,1-.331-.12.692.692,0,0,0,.334.1,1.636,1.636,0,0,0,.35-.013,3.538,3.538,0,0,0,.575-.129c-.122-.11-.243-.218-.362-.329-.158-.147-.313-.3-.467-.446a5.024,5.024,0,0,1-.733.08,2.648,2.648,0,0,1-.388-.018.948.948,0,0,1-.369-.111.972.972,0,0,0,.371.09,2.346,2.346,0,0,0,.384-.006,4.657,4.657,0,0,0,.662-.107c-.089-.085-.177-.172-.266-.258q-.4-.39-.812-.767-.82-.759-1.671-1.484.873.7,1.715,1.435.422.366.836.743c.277.252.547.507.827.75.418.366.848.717,1.283,1.062-.012-.075-.026-.151-.041-.225a4.312,4.312,0,0,0-.115-.447,2.4,2.4,0,0,0-.173-.425,1.1,1.1,0,0,0-.282-.361,1.116,1.116,0,0,1,.32.339,2.5,2.5,0,0,1,.218.417,4.351,4.351,0,0,1,.16.444c.041.135.077.27.108.41.084.064.166.131.251.195q.792.611,1.6,1.193c-.008-.387-.018-.776-.03-1.164a1.767,1.767,0,0,1-.347-.107,1.975,1.975,0,0,1-.385-.212c-.061-.039-.115-.088-.172-.133s-.1-.1-.15-.158a1.794,1.794,0,0,1-.239-.355,1.732,1.732,0,0,0,.271.325,1.553,1.553,0,0,0,.16.135,1.824,1.824,0,0,0,.177.113,1.907,1.907,0,0,0,.382.16,1.717,1.717,0,0,0,.3.062q-.019-.593-.047-1.183h0l-1.569-1.087-.73-.5a2.623,2.623,0,0,1-.468.024,2.716,2.716,0,0,1-.477-.058,1.957,1.957,0,0,1-.453-.161,1.564,1.564,0,0,1-.387-.279,1.562,1.562,0,0,0,.393.27,2.094,2.094,0,0,0,.451.149,2.786,2.786,0,0,0,.473.046,2.849,2.849,0,0,0,.414-.027l-.021-.015c-.27-.18-.539-.363-.818-.528.231.123.455.258.679.393a5.447,5.447,0,0,0-.193-.806,2.526,2.526,0,0,0-.164-.4.89.89,0,0,0-.269-.338.891.891,0,0,1,.279.332,2.717,2.717,0,0,1,.175.4,5.424,5.424,0,0,1,.221.843l.113.068.83.51.594.372c-.029-.081-.06-.161-.095-.24a2.977,2.977,0,0,0-.19-.362,2.354,2.354,0,0,0-.243-.328,1.821,1.821,0,0,0-.31-.271,1.822,1.822,0,0,1,.325.256,2.328,2.328,0,0,1,.265.319,3.294,3.294,0,0,1,.213.357,3.329,3.329,0,0,1,.149.341l.8.5c-.027-.53-.058-1.06-.1-1.588-.276-.167-.545-.339-.811-.522-.135-.093-.27-.191-.4-.3a2.268,2.268,0,0,1-.189-.166.773.773,0,0,1-.155-.207c-.154-.293-.3-.589-.438-.886l-.424-.89.463.871c.156.289.311.579.476.861a.676.676,0,0,0,.146.18c.06.053.123.1.189.15.13.1.267.186.4.273.234.146.474.285.716.42-.017-.18-.036-.36-.059-.54-.082-.585-.142-1.175-.19-1.763-.132-.158-.269-.314-.41-.464-.073-.076-.146-.153-.222-.225a1.2,1.2,0,0,0-.249-.195,1.259,1.259,0,0,1,.263.179c.082.066.161.138.239.21.125.117.247.237.368.36-.024-.293-.045-.585-.064-.878-.008-.113-.015-.225-.021-.338a6.516,6.516,0,0,1-.416-.638,3.005,3.005,0,0,1-.312-.709,3.041,3.041,0,0,0,.331.7,6.747,6.747,0,0,0,.391.57q-.074-1.184-.118-2.366.068,1.1.16,2.2a3.945,3.945,0,0,0,.256-.569,1.985,1.985,0,0,0,.129-.669,2.031,2.031,0,0,1-.108.677,4.06,4.06,0,0,1-.267.635l0,0c.013.167.028.333.043.5.029.322.059.643.093.962.1-.187.213-.373.33-.553.074-.108.147-.216.231-.319a.911.911,0,0,1,.292-.261.892.892,0,0,0-.274.273c-.077.107-.144.218-.21.331-.128.22-.245.448-.352.679.06.553.129,1.1.219,1.651,0,.017.005.033.007.05.176-.165.345-.342.507-.523a8.512,8.512,0,0,0,.55-.679,6.678,6.678,0,0,0,.462-.743,4.1,4.1,0,0,0,.313-.817,4.045,4.045,0,0,1-.273.836,6.483,6.483,0,0,1-.429.773,8.486,8.486,0,0,1-.521.716,8.444,8.444,0,0,1-.579.65c.081.6.138,1.206.185,1.811q.6-.572,1.209-1.136l.389-.356c0-.163.012-.325.029-.486a4.34,4.34,0,0,1,.073-.481,2.408,2.408,0,0,1,.14-.466,1.032,1.032,0,0,1,.27-.4,1.016,1.016,0,0,0-.249.407,2.385,2.385,0,0,0-.118.467,4.969,4.969,0,0,0-.057.879l.211-.194c.232-.207.463-.415.707-.607-.22.19-.427.394-.634.6a1.87,1.87,0,0,0,.393-.054.983.983,0,0,0,.4-.195,2.184,2.184,0,0,0,.312-.332c.094-.12.183-.245.265-.374a4.515,4.515,0,0,1-.256.38,2.215,2.215,0,0,1-.306.342,1.014,1.014,0,0,1-.409.212,2.046,2.046,0,0,1-.448.067c-.219.218-.436.437-.653.658-.154.156-.305.315-.459.472a1.932,1.932,0,0,1,.269-.069,1.483,1.483,0,0,1,.281-.025,1.313,1.313,0,0,1,.28.031,1.364,1.364,0,0,0-.278-.009,1.378,1.378,0,0,0-.273.045,1.914,1.914,0,0,0-.261.09c-.053.024-.1.051-.155.078-.219.227-.44.452-.658.68.012.161.024.321.035.482.009.119.015.237.023.354a3.355,3.355,0,0,0,.306-.153,3.122,3.122,0,0,0,.417-.279,2.408,2.408,0,0,0,.357-.356,1.649,1.649,0,0,0,.242-.444,1.725,1.725,0,0,1-.206.47,2.486,2.486,0,0,1-.334.4,3.19,3.19,0,0,1-.407.326,3.677,3.677,0,0,1-.363.219q.055.891.094,1.783.758-.858,1.516-1.716c.042-.151.09-.3.143-.444a4.843,4.843,0,0,1,.2-.474,3.635,3.635,0,0,1,.254-.446,2.045,2.045,0,0,1,.335-.384,2.552,2.552,0,0,0-.508.864,5,5,0,0,0-.154.479q-.02.072-.036.144.68-.76,1.366-1.519.424-.468.858-.927c.291-.306.6-.6.909-.879.625-.566,1.271-1.106,1.931-1.629C1124.619-51.4,1123.988-50.845,1123.379-50.265Z" fill="#b3b3b3"/><path d="M1118.3-64.061a13.223,13.223,0,0,0-13.223,13.222A13.222,13.222,0,0,0,1118.3-37.617a13.222,13.222,0,0,0,13.222-13.222A13.222,13.222,0,0,0,1118.3-64.061Zm0,25.972a12.75,12.75,0,0,1-12.75-12.75,12.75,12.75,0,0,1,12.75-12.75,12.75,12.75,0,0,1,12.75,12.75A12.75,12.75,0,0,1,1118.3-38.089Z" fill="gray"/><path d="M1118.3-60.148a9.308,9.308,0,0,0-9.308,9.309,9.308,9.308,0,0,0,9.308,9.308,9.308,9.308,0,0,0,9.307-9.308A9.308,9.308,0,0,0,1118.3-60.148Zm0,18.165a8.856,8.856,0,0,1-8.857-8.856A8.857,8.857,0,0,1,1118.3-59.7a8.856,8.856,0,0,1,8.856,8.857A8.856,8.856,0,0,1,1118.3-41.983Z" fill="gray"/><path d="M1107.244-47.414a.479.479,0,0,0-.337.669.48.48,0,0,0,.687.3l1.07-.384A.481.481,0,0,0,1109-47.5a.479.479,0,0,0-.686-.3Zm1.466.021c.037.1.005.186-.141.239l-1.11.4c-.146.052-.224.007-.261-.093s0-.186.141-.239l1.111-.4C1108.6-47.539,1108.674-47.495,1108.71-47.393Z" fill="#b3b3b3"/><path d="M1108.575-48.912l-1.556.269v-.006l1.487-.671-.06-.345-2.132.369.052.3,1.276-.221v.006l-1.22.546.073.42,2.132-.369Z" fill="#b3b3b3"/><path d="M1106.539-50.579l1.855-.03-.006-.341-1.854.03-.005-.354-.309,0,.017,1.05.309,0Z" fill="#b3b3b3"/><path d="M1108.454-52l-.41-.122.056-.382h.427l.049-.337-2.192.039-.066.457,2.091.657Zm-.695-.2-1.037-.3v-.006l1.08,0Z" fill="#b3b3b3"/><path d="M1108.823-53.747l-.883-.285.036-.113c.049-.147.128-.183.319-.121l.376.123a.649.649,0,0,0,.263.051l.106-.329a.638.638,0,0,1-.261-.045l-.361-.118c-.233-.075-.4-.071-.505.075l-.006,0c-.012-.162-.126-.273-.337-.343l-.126-.042a.436.436,0,0,0-.629.328l-.155.478,2.058.668Zm-1.177-.381-.588-.191.048-.147c.038-.115.118-.144.265-.1l.159.051c.164.054.194.144.155.266Z" fill="#b3b3b3"/><rect width="0.34" height="2.165" transform="translate(1107.361 -55.958) rotate(-64.057)" fill="#b3b3b3"/><path d="M1109.348-56.2a.48.48,0,0,0,.739-.126.48.48,0,0,0-.164-.731l-.946-.633a.479.479,0,0,0-.739.125.481.481,0,0,0,.165.732Zm-.578-1.22.982.658c.127.085.139.174.078.264s-.146.114-.275.028l-.98-.657c-.129-.087-.14-.176-.079-.266S1108.642-57.511,1108.77-57.424Z" fill="#b3b3b3"/><path d="M1111.684-58.218l-.637-.737.276-.239.637.737.257-.222-1.415-1.637-.257.222.576.666-.275.239-.576-.666-.257.222L1111.427-58Z" fill="#b3b3b3"/><path d="M1112.488-59.507a.481.481,0,0,0,.723.2.479.479,0,0,0,.161-.732l-.586-.975a.48.48,0,0,0-.723-.2.48.48,0,0,0-.162.732Zm-.266-1.44c.093-.057.182-.042.261.091l.609,1.012c.08.132.052.217-.04.273s-.182.04-.261-.092l-.61-1.011C1112.1-60.806,1112.13-60.892,1112.222-60.947Z" fill="#b3b3b3"/><path d="M1114.692-60.036a.469.469,0,0,0,.271-.679l-.112-.283-.3.117.122.307c.052.132.009.209-.086.246s-.178.011-.231-.121l-.443-1.124c-.052-.132-.01-.212.084-.249s.18-.008.233.124l.091.233.3-.119-.083-.211a.467.467,0,0,0-.661-.311.468.468,0,0,0-.271.678l.426,1.081A.468.468,0,0,0,1114.692-60.036Z" fill="#b3b3b3"/><path d="M1116.092-60.5l-.141-.675.077-.3.479.885.347-.074-.682-1.256.234-.86-.332.069-.237.981-.187-.893-.332.069.442,2.119Z" fill="#b3b3b3"/><path d="M1118.375-60.757l-.014-.309-.587.024-.027-.665.467-.018-.013-.309-.467.02-.023-.572.587-.024-.012-.309-.927.039.089,2.161Z" fill="#b3b3b3"/><path d="M1119.319-60.7l.338.042.109-.915.557-1.186-.329-.039-.324.762-.007,0-.136-.816-.359-.044.26,1.283Z" fill="#b3b3b3"/><path d="M1121.992-60.49l.358.146,0-.006-.1.42.315.129.488-2.137-.427-.174-1.14,1.873.291.118Zm.688-1.193.006,0-.262,1.048-.284-.114Z" fill="#b3b3b3"/><path d="M1124.171-59.468a.831.831,0,0,0,.043-.786c-.087-.282-.088-.416-.006-.551s.161-.144.254-.087.114.138.033.27l-.058.1.274.168.046-.075a.466.466,0,0,0-.136-.723.473.473,0,0,0-.714.193.837.837,0,0,0-.031.771c.088.283.086.416-.007.569-.084.137-.171.149-.263.092s-.121-.14-.041-.272l.077-.126-.273-.168-.065.1a.47.47,0,0,0,.143.726A.48.48,0,0,0,1124.171-59.468Z" fill="#b3b3b3"/><path d="M1125.025-58.957l-.244-.211-.081.095a.469.469,0,0,0,.026.738.479.479,0,0,0,.747-.082.833.833,0,0,0,.168-.769c-.042-.294-.021-.426.082-.546s.182-.117.263-.045.092.155-.009.272l-.073.084.245.21.057-.068a.466.466,0,0,0-.02-.735.473.473,0,0,0-.735.078.835.835,0,0,0-.153.756c.042.293.019.424-.1.56s-.193.119-.275.05-.1-.158,0-.275Z" fill="#b3b3b3"/><path d="M1125.869-57.178a.481.481,0,0,0,.749.047l.871-.731a.48.48,0,0,0,.086-.744.479.479,0,0,0-.748-.048l-.872.731A.48.48,0,0,0,1125.869-57.178Zm.287-.471.905-.758c.119-.1.207-.085.277,0s.068.172-.05.271l-.9.758c-.119.1-.207.086-.277,0S1126.037-57.55,1126.156-57.649Z" fill="#b3b3b3"/><path d="M1126.822-55.827a.467.467,0,0,0,.712.162l.264-.154-.164-.278-.285.168c-.122.072-.2.042-.257-.047s-.038-.174.085-.246l1.042-.613c.122-.072.208-.042.259.045s.036.177-.087.249l-.216.126.163.277.2-.115a.47.47,0,0,0,.2-.7.47.47,0,0,0-.713-.162l-1,.59A.468.468,0,0,0,1126.822-55.827Z" fill="#b3b3b3"/><rect width="2.164" height="0.34" transform="matrix(0.923, -0.386, 0.386, 0.923, 1127.374, -54.814)" fill="#b3b3b3"/><path d="M1127.81-53.624l.425-.048.1.374.006,0-.4.17.087.328,2-.891-.117-.444-2.182.208Zm1.791-.212v.006l-.995.419-.078-.3Z" fill="#b3b3b3"/><path d="M1129.972-52.276l-1.844.2.037.339,1.844-.2.038.353.308-.033-.113-1.044-.308.033Z" fill="#b3b3b3"/><rect width="0.339" height="2.164" transform="translate(1128.195 -50.429) rotate(-88.733)" fill="#b3b3b3"/><path d="M1128.663-49.667a.481.481,0,0,0-.62.424.479.479,0,0,0,.454.6l1.123.183a.479.479,0,0,0,.619-.421.479.479,0,0,0-.453-.6Zm1.033.871-1.166-.191c-.152-.024-.2-.1-.181-.207s.085-.165.238-.139l1.165.189c.153.025.2.1.183.208S1129.849-48.772,1129.7-48.8Z" fill="#b3b3b3"/><path d="M1127.731-47.8l1.492.519,0,0-1.626-.132-.115.33,2.045.71.1-.287-1.224-.425,0-.006,1.333.113.14-.4-2.044-.711Z" fill="#b3b3b3"/><path d="M1115.954-41.411a.549.549,0,0,0-.722.462l-.312,1.262a.551.551,0,0,0,.423.746.549.549,0,0,0,.723-.462l.311-1.264A.546.546,0,0,0,1115.954-41.411Zm-.271,1.939c-.042.171-.134.217-.254.187s-.18-.112-.137-.285l.323-1.31c.042-.171.134-.218.254-.189s.18.114.138.285Z" fill="#b3b3b3"/><path d="M1118.568-41.1l.016,1.007-.417.008-.016-1.007-.389.006.041,2.473.389-.006-.018-1.114.416-.006.019,1.112.389-.006-.041-2.473Z" fill="#b3b3b3"/><path d="M1120.527-41.344l.238,2.5.349-.092-.054-.486.427-.111v-.008l.192.458.377-.1-1.018-2.29Zm.492,1.581-.146-1.225.007,0,.478,1.139Z" fill="#b3b3b3"/><path d="M1112.3-42.171c-.273,0-.341.241-.446.409s.094.346.541.657.666.288.749.215a1.513,1.513,0,0,0,.183-.266l.009-.014a.357.357,0,0,0-.106-.463A2.546,2.546,0,0,0,1112.3-42.171Z" fill="gray"/><path d="M1124.472-42.171a2.53,2.53,0,0,0-.93.538.355.355,0,0,0-.106.463l.008.014a1.569,1.569,0,0,0,.183.266c.084.073.3.094.751-.215s.645-.489.54-.657S1124.745-42.171,1124.472-42.171Z" fill="gray"/></g></svg>