<svg xmlns="http://www.w3.org/2000/svg" width="37.512" height="26.304" viewBox="0 0 37.512 26.304"><g transform="translate(-1062.962 64.061)"><path d="M1090.533-45.822h-1.251v.171h0c.019,0,.851,0,.851.673v1.933h-2.916v-1.933c0-.669.833-.673.851-.673h0v-.171h-2.854v.171h0c.018,0,.851,0,.851.673v4.564c0,.449-.32.741-.852.741v.16h2.854v-.16c-.532,0-.851-.292-.851-.741v-2.2h2.916v2.2c0,.449-.319.741-.851.741v.16h2.854v-.16c-.532,0-.851-.292-.851-.741v-4.564c0-.669.833-.673.851-.673h0v-.171h-1.6Z" fill="gray"/><path d="M1100.461-39.665a.847.847,0,0,1-.751-.441c-.232-.464-1.669-4.625-1.76-4.9a.919.919,0,0,1-.057-.532l.187-.213-.027-.068-.793.157s-2.138,5.16-2.312,5.547-.331.441-.468.441h-.236v.156h1.883v-.152h-.6c-.238,0-.339-.2-.236-.475.049-.133.3-.8.6-1.582h2.161c.326.916.617,1.727.645,1.783,0,0,.085.274-.261.274h-.358v.152h2.394v-.152Zm-4.467-2.318c.293-.757.613-1.566.827-2.06.057-.131.115-.251.173-.361h.108s.441,1.245.859,2.421Z" fill="gray"/><path d="M1082.688-44.847l.023-.067.24-.706.092-.27h-.717l-.01.03-.02.062-.155.478h0l-.194.6-1.2,3.717-1.6-4.888h-.935l-1.71,4.941-1.383-4.941h-1.452l.2.686.1.349.173.6.016.056.016.054,1.41,4.85h.927l1.718-4.8,1.7,4.8h.882l1.626-4.791h0l.113-.333.121-.356Z" fill="gray"/><path d="M1073.437-43.972a1.35,1.35,0,0,0,.291-.6l-.358-1.233a.315.315,0,0,1,.049-.274.314.314,0,0,1,.249-.124h.8a1.724,1.724,0,0,0,.259-.493,3.585,3.585,0,0,1,1-1.6,11.37,11.37,0,0,0,1.312-2.356,5.59,5.59,0,0,1,1.333-1.269,4.723,4.723,0,0,0-1.282,1.487,10.258,10.258,0,0,1-1.252,2.295,3.915,3.915,0,0,0-.957,1.536,2.357,2.357,0,0,1-.185.4h.255a5.011,5.011,0,0,1,1-1.7c.649-.638,1-2.016,1.47-2.513s1.114-1.206,1.114-1.206a9.8,9.8,0,0,0,1.075,2.422c.689,1.034,1.2.872,1.5,1.916a4.143,4.143,0,0,0,.753,1.816l.167-.516a.308.308,0,0,1,.3-.215h.385c-.02-.055-.039-.11-.058-.168a19.537,19.537,0,0,0-.586-2.072c-.194-.269-.152-.243-.068-.353s.239.046.422.544c.146.4.254,1.24.513,2.049h.108a.31.31,0,0,1,.24.115c-.036-.112-.069-.231-.1-.359-.236-1.087-.373-2.083-.928-2.509a8.9,8.9,0,0,0-.3-2.82c-.388-1.018-.821-1.125-.737-1.565a3.926,3.926,0,0,0,.631-2.828,3.173,3.173,0,0,0-1.84-2.509,12.73,12.73,0,0,1-1.209-.41,1.563,1.563,0,0,1-.328-.265,1.726,1.726,0,0,1-.439-.784c-.035-.137-.067-.283-.1-.43-.063-.287-.127-.577-.2-.817l-.014-.041-.016-.045c-.089-.246-.2-.423-.343-.453a.538.538,0,0,0-.11-.012c-.247,0-.412.178-.668.178a.611.611,0,0,1-.157-.022,2.288,2.288,0,0,0-.465-.117.437.437,0,0,0-.3.148,2.5,2.5,0,0,0,0,2.812,5.23,5.23,0,0,0-1.381,3.773c-.071,2.645.253,2.9.253,2.9a.621.621,0,0,0-.461.679,1.154,1.154,0,0,0,.507.842,4.716,4.716,0,0,1-1.07,2.085c-.443.555-1.505,1.9-2.519,3.19l-.027.034-.025.033-.257.326-.274.348-.028.035-.026.034c-.914,1.16-1.655,2.1-1.655,2.1l-3.2-.533.471,1.179h.4v.342c0,.232.456.42,1.019.42s1.018-.188,1.018-.42v-.342h.6l1.77-2.1.03-.036.031-.036.3-.355.278-.33.028-.033.029-.034,2.014-2.39a1.929,1.929,0,0,1-.253,1.239c-.38.814-.558,1.224-.34,1.685s.36.517.416.71.056.4.158.4h0c.106,0,.2-.512.2-.512a1.083,1.083,0,0,0,.242-.231l-.125-.429A.887.887,0,0,1,1073.437-43.972Zm8.167-11.815c.257.8-.157,1.438-2.3,2.261.207-.082,1.59-.658,1.948-1.417a1.79,1.79,0,0,0-.456-1.961c-.373-.457-.426-.533-.418-.586A4.558,4.558,0,0,1,1081.6-55.787Zm-2.383,1.513c.254-.217,1.094-1.1,1.011-1.49a.512.512,0,0,0-.5-.392c-.085-.008-.038-.125.118-.178a.2.2,0,0,1,.134.021.374.374,0,0,1,.046-.021c.156-.057.59.3.567.8a3.341,3.341,0,0,1-1.061,1.581c-.187.1-.356.046-.176-.146l0,0C1079.152-54,1078.966-54.058,1079.221-54.274Zm-.053,2.28a.207.207,0,0,1,.054.078.2.2,0,0,1,.136.023c.106.059.347,1.024.788,1.839a7.377,7.377,0,0,0,.979,1.469l.005.012a3.336,3.336,0,0,1-.375-.292,3.527,3.527,0,0,0,.263.317,3.836,3.836,0,0,1-1.13-1.176,14.8,14.8,0,0,1-.927-2.128C1078.9-52.023,1079.057-52.055,1079.168-51.994Zm-3.369-9.6c.051-.076.167-.056.365.036a.776.776,0,0,0,.664.05c.283-.1.44-.147.542-.035a1.108,1.108,0,0,1,.094.265l.013.046.011.041c.171.624.452,1.882.576,2.212,0,0-.289-.654-.588-1.495-.086-.243-.146-.431-.194-.575l-.012-.038-.015-.043c-.1-.289-.147-.364-.306-.337a1.849,1.849,0,0,1-.785.132C1075.85-61.4,1075.748-61.516,1075.8-61.592Zm-1.086,6.187a8.045,8.045,0,0,1,1.3-3.232.215.215,0,0,1,.231-.01c.122-.073.369,0,.206.188a6.942,6.942,0,0,0-1.3,3.125,5.953,5.953,0,0,0,.244,2.772c.046.138-.1.168-.183.056a.531.531,0,0,1-.04-.079l.01.023c.046.138-.1.168-.183.056A5.751,5.751,0,0,1,1074.713-55.4Zm.174,7.161c.354-.416.8-.7.968-1.1s.278-.963.425-.963c0,0,.109-.006.136.131.085-.019.2.064.176.229a5.566,5.566,0,0,1-.907,1.576c-.327.309-.408.3-.4.177s.453-.544.717-1.043l.005-.012a4.3,4.3,0,0,1-.659.888,3.209,3.209,0,0,0-.811,1.333c-.111.319-.167.405-.223.162A2.346,2.346,0,0,1,1074.887-48.244Zm-6.5,6.337a.348.348,0,0,1-.028.042.335.335,0,0,1-.033.043,1.458,1.458,0,0,1-.938.257,1.461,1.461,0,0,1-.939-.257.25.25,0,0,1-.032-.043.347.347,0,0,1-.029-.042.2.2,0,0,1-.019-.078c0-.232.456-.42,1.019-.42s1.018.188,1.018.42A.187.187,0,0,1,1068.385-41.907Z" fill="#b3b3b3"/><path d="M1084.044-44.264c-.031-.529-.42-.919-.693-1.624a.289.289,0,0,1-.014.1l-.11.325c.391.82.58.893.518,1.309a1.5,1.5,0,0,1-.429.871.082.082,0,0,1-.075-.013.1.1,0,0,1-.039-.117.149.149,0,0,1,.009-.019s.434-.589.285-1.038a5.792,5.792,0,0,0-.352-.75l-.548,1.616a1.151,1.151,0,0,0,.414.506s-.008.38.236.472a.129.129,0,0,0,.046.009c.094,0,.136-.129.154-.261l.005-.042,0-.043c.007-.106,0-.2,0-.2A1.431,1.431,0,0,0,1084.044-44.264Z" fill="gray"/><path d="M1070.951-43.839a3.69,3.69,0,0,1,.323,1.505,3.735,3.735,0,0,1-3.735,3.734,3.735,3.735,0,0,1-3.735-3.734,3.735,3.735,0,0,1,3.735-3.735,3.709,3.709,0,0,1,2.689,1.158l.534-.668a4.558,4.558,0,0,0-3.223-1.332,4.577,4.577,0,0,0-4.577,4.577,4.577,4.577,0,0,0,4.577,4.577,4.577,4.577,0,0,0,4.577-4.577,4.556,4.556,0,0,0-.572-2.21Z" fill="gray"/><path d="M1077.9-61.539l.032.091c.068.211.125.456.179.7a2.186,2.186,0,0,0,.857-.435,1.551,1.551,0,0,1,1.294-.345,4.862,4.862,0,0,1-1.127-2.5.042.042,0,0,0-.047-.035.042.042,0,0,0-.038.044,3.391,3.391,0,0,1-1.18,2.4Q1077.886-61.576,1077.9-61.539Z" fill="gray"/><path d="M1082.394-60.051a.551.551,0,0,0,.072-.169c0-.013.005-.027.007-.04s0-.018.005-.027,0-.011,0-.017a.258.258,0,0,0-.042-.172.206.206,0,0,1-.128,0c-.033-.007-.085.038-.16.1l-.045.033-.042.029a.784.784,0,0,1-.472.139c-.425-.015-1.273-.813-1.714-.866a1.6,1.6,0,0,0-1.151.486,1.758,1.758,0,0,1-.482.268c.019.06.039.121.061.184a2.717,2.717,0,0,0,.493-.3,1.523,1.523,0,0,1,1.212-.38c.62.069,1.078.778,1.532.833a1.254,1.254,0,0,0,.813-.29l.044-.029c.016-.011.028-.016.029-.011l-.007.015a.206.206,0,0,1-.022.035,1.057,1.057,0,0,1-.865.371c-.592-.015-.858-.669-1.36-.8a1.563,1.563,0,0,0-1.357.355,2.821,2.821,0,0,1-.486.274l.038.1c.006.016.014.029.02.045a3.481,3.481,0,0,1,1.272-.685c.566-.084,1.212.772,1.725.844a1.111,1.111,0,0,0,.893-.3C1082.332-60.061,1082.369-60.066,1082.394-60.051Z" fill="gray"/><path d="M1079.814-61.366a1.881,1.881,0,0,0-1.023.532,1.214,1.214,0,0,1-.627.278c.012.044.025.091.04.14a1.447,1.447,0,0,0,.595-.323,1.634,1.634,0,0,1,1.243-.441c.631.023,1.147.775,1.539.8a1.162,1.162,0,0,0,.252-.009.55.55,0,0,0,.079-.016c.025-.007.048-.015.07-.023a1.035,1.035,0,0,0,.237-.148c.134-.1.159-.084.214.016a.1.1,0,0,0,.046-.135c-.054-.145-.184-.126-.332,0a.9.9,0,0,1-.36.2.442.442,0,0,1-.09.012.43.43,0,0,1-.283-.093l-.107-.082c-.076-.058-.167-.128-.269-.2l-.14-.1c-.11-.073-.226-.146-.345-.209-.044-.024-.089-.047-.135-.068A1.1,1.1,0,0,0,1079.814-61.366Z" fill="gray"/><path d="M1081.132-59.116c-.764-.122-1.117-.829-1.691-.753a1.444,1.444,0,0,0-.789.388l.03.032a1.46,1.46,0,0,1,.626-.295c.458-.087.631.149.954.377s.388.429,1.03.414a1.128,1.128,0,0,0,1.015-.635.208.208,0,0,0-.008-.151,1.661,1.661,0,0,1-.752.258c-.5.053-1.3-.825-1.825-.827a2.721,2.721,0,0,0-1.244.6,1.479,1.479,0,0,0,.121.17,2.03,2.03,0,0,1,1.127-.581c.521-.015.711.521,1.342.749a1.361,1.361,0,0,0,1.151-.124A1.069,1.069,0,0,1,1081.132-59.116Z" fill="gray"/><path d="M1091.148-52.412a3.671,3.671,0,0,1,1.246-2.643.043.043,0,0,0,.01-.054.042.042,0,0,0-.053-.018c-.024.009-2.36.944-3.453.007a2.839,2.839,0,0,1-.925-2.341.045.045,0,0,0-.015-.039.046.046,0,0,0-.041-.008l-4.12,1.313,1.291-4.1a.043.043,0,0,0-.01-.042.044.044,0,0,0-.042-.012,6.53,6.53,0,0,1-2.352.079c0,.01-.005.036-.006.043s-.006.036-.01.055a.791.791,0,0,1-.1.23.2.2,0,0,1-.1.084.276.276,0,0,1,.021.037.413.413,0,0,1,.014.3,1.343,1.343,0,0,1-1.206.776h-.069a1.2,1.2,0,0,1-.919-.323c-.052-.043-.1-.086-.167-.13s-.12-.089-.174-.131a.661.661,0,0,0-.621-.211,1.257,1.257,0,0,0-.506.23c.041.028.066.043.066.043a1.5,1.5,0,0,0,.479.174,4.211,4.211,0,0,1,.709.226,3.416,3.416,0,0,1,1.962,2.657,3.244,3.244,0,0,1-.453,2.546,1.59,1.59,0,0,0-.177.363c-.025.131.012.2.179.438a4.231,4.231,0,0,1,.549,1.016,8.625,8.625,0,0,1,.314,2.8,4.021,4.021,0,0,1,.831,2.142c.028.137.057.276.087.416a3.41,3.41,0,0,0,.092.339.2.2,0,0,1,0,.131.187.187,0,0,1,.046.065,5.58,5.58,0,0,0,.342.7,2.274,2.274,0,0,1,.362.976,1.549,1.549,0,0,1-.584,1.2c0,.035,0,.077-.005.122l-.008.072h2.127v-2.1c0-.358-.518-.362-.54-.362a.31.31,0,0,1-.311-.31v-.171a.315.315,0,0,1,.091-.221.313.313,0,0,1,.22-.091h2.794l4.562-4.076a.045.045,0,0,0,.014-.04.043.043,0,0,0-.028-.032A2.272,2.272,0,0,1,1091.148-52.412Zm.147,2.426-2.987,2.744a.145.145,0,0,1-.1.039.149.149,0,0,1-.108-.048.146.146,0,0,1-.038-.1.144.144,0,0,1,.047-.1l2.846-2.615a2.571,2.571,0,0,1-1.089-1.5,2.7,2.7,0,0,1,.684-2.227.146.146,0,0,1,.206-.025.148.148,0,0,1,.055.1.145.145,0,0,1-.03.108,2.428,2.428,0,0,0-.629,1.985,2.4,2.4,0,0,0,1.112,1.414.143.143,0,0,1,.076.111A.144.144,0,0,1,1091.3-49.986Z" fill="gray"/></g></svg>