<?xml version="1.0" encoding="utf-8"?>
<!-- Generator: Adobe Illustrator 25.1.0, SVG Export Plug-In . SVG Version: 6.00 Build 0)  -->
<svg version="1.1" id="Layer_1" xmlns="http://www.w3.org/2000/svg" xmlns:xlink="http://www.w3.org/1999/xlink" x="0px" y="0px"
	 viewBox="0 0 300 300" style="enable-background:new 0 0 300 300;" xml:space="preserve">
<style type="text/css">
	.st0{fill:#FFFFFF;}
	.st1{fill:#D6202A;}
</style>
<g>
	<circle class="st0" cx="150" cy="150" r="131.8"/>
	<path class="st1" d="M150,19.7c34.8,0,67.5,13.6,92.1,38.2s38.2,57.3,38.2,92.1s-13.6,67.5-38.2,92.1s-57.3,38.2-92.1,38.2
		c-34.8,0-67.5-13.6-92.1-38.2c-24.6-24.6-38.2-57.3-38.2-92.1s13.6-67.5,38.2-92.1C82.5,33.3,115.2,19.7,150,19.7 M150,16.7
		C76.4,16.7,16.7,76.4,16.7,150S76.4,283.3,150,283.3S283.3,223.6,283.3,150S223.6,16.7,150,16.7L150,16.7z"/>
</g>
<g>
	<g>
		<path class="st1" d="M89.8,109.9L89.8,109.9c1.8,0,3.3,1.5,3.3,3.3v6.7c0,1.8-1.5,3.3-3.3,3.3l0,0c-1.8,0-3.3-1.5-3.3-3.3v-6.7
			C86.5,111.4,88,109.9,89.8,109.9z"/>
		<path class="st1" d="M61.4,121.6L61.4,121.6c1.3-1.3,3.4-1.3,4.7,0l4.7,4.7c1.3,1.3,1.3,3.4,0,4.7l0,0c-1.3,1.3-3.4,1.3-4.7,0
			l-4.7-4.7C60.1,125,60.1,122.9,61.4,121.6z"/>
		<path class="st1" d="M49.7,146.7h10c1.8,0,3.3,1.5,3.3,3.3l0,0c0,1.8-1.5,3.3-3.3,3.3h-10c-1.8,0-3.3-1.5-3.3-3.3l0,0
			C46.4,148.2,47.9,146.7,49.7,146.7z"/>
		<path class="st1" d="M61.4,173.6l4.7-4.7c1.3-1.3,3.4-1.3,4.7,0l0,0c1.3,1.3,1.3,3.4,0,4.7l-4.7,4.7c-1.3,1.3-3.4,1.3-4.7,0l0,0
			C60.1,177,60.1,174.9,61.4,173.6z"/>
		<path class="st1" d="M89.8,176.7L89.8,176.7c1.8,0,3.3,1.5,3.3,3.3v6.7c0,1.8-1.5,3.3-3.3,3.3l0,0c-1.8,0-3.3-1.5-3.3-3.3V180
			C86.5,178.2,88,176.7,89.8,176.7z"/>
		<path class="st1" d="M252.5,146.7h-4c-0.9,0-1.4-1-0.9-1.7l1.5-2.2c0.3-0.5,0.2-1.2-0.3-1.5l-3.8-2.5c-0.5-0.3-1.2-0.2-1.5,0.3
			l-4.8,7.2c-0.2,0.3-0.5,0.5-0.9,0.5h-6.6c-0.6,0-1.1-0.5-1.1-1.1V139c0-0.4,0.2-0.7,0.5-0.9l7.2-4.8c0.5-0.3,0.6-1,0.3-1.5
			l-2.5-3.8c-0.3-0.5-1-0.6-1.5-0.3l-2.2,1.5c-0.7,0.5-1.7,0-1.7-0.9v-4c0-0.6-0.5-1.1-1.1-1.1h-4.5c-0.6,0-1.1,0.5-1.1,1.1v4
			c0,0.9-1,1.4-1.7,0.9l-2.2-1.5c-0.5-0.3-1.2-0.2-1.5,0.3l-2.5,3.8c-0.3,0.5-0.2,1.2,0.3,1.5l7.2,4.8c0.3,0.2,0.5,0.5,0.5,0.9v6.6
			c0,0.6-0.5,1.1-1.1,1.1h-6.6c-0.4,0-0.7-0.2-0.9-0.5l-4.8-7.2c-0.3-0.5-1-0.6-1.5-0.3l-3.8,2.5c-0.5,0.3-0.6,1-0.3,1.5l1.5,2.2
			c0.5,0.7,0,1.7-0.9,1.7h-4c-0.6,0-1.1,0.5-1.1,1.1v4.5c0,0.6,0.5,1.1,1.1,1.1h4c0.9,0,1.4,1,0.9,1.7l-1.5,2.2
			c-0.3,0.5-0.2,1.2,0.3,1.5l3.8,2.5c0.5,0.3,1.2,0.2,1.5-0.3l4.8-7.2c0.2-0.3,0.5-0.5,0.9-0.5h6.6c0.6,0,1.1,0.5,1.1,1.1v6.6
			c0,0.4-0.2,0.7-0.5,0.9l-7.2,4.8c-0.5,0.3-0.6,1-0.3,1.5l2.5,3.8c0.3,0.5,1,0.6,1.5,0.3l2.2-1.5c0.7-0.5,1.7,0,1.7,0.9v4
			c0,0.6,0.5,1.1,1.1,1.1h4.5c0.6,0,1.1-0.5,1.1-1.1v-4c0-0.9,1-1.4,1.7-0.9l2.2,1.5c0.5,0.3,1.2,0.2,1.5-0.3l2.5-3.8
			c0.3-0.5,0.2-1.2-0.3-1.5l-7.2-4.8c-0.3-0.2-0.5-0.5-0.5-0.9v-6.6c0-0.6,0.5-1.1,1.1-1.1h6.6c0.4,0,0.7,0.2,0.9,0.5l4.8,7.2
			c0.3,0.5,1,0.6,1.5,0.3l3.8-2.5c0.5-0.3,0.6-1,0.3-1.5l-1.5-2.2c-0.5-0.7,0-1.7,0.9-1.7h4c0.6,0,1.1-0.5,1.1-1.1v-4.5
			C253.6,147.1,253.1,146.7,252.5,146.7z"/>
		<path class="st1" d="M193.5,150c0-24-19.5-43.5-43.5-43.5c-20.8,0-38.1,14.6-42.4,34.1c-3.4-6.4-10.1-10.7-17.7-10.7
			c-11.1,0-20.1,9-20.1,20.1s9,20.1,20.1,20.1c7.7,0,14.4-4.4,17.7-10.7c4.3,19.5,21.7,34.1,42.4,34.1
			C174,193.5,193.5,174,193.5,150z M89.8,163.4c-7.4,0-13.4-6-13.4-13.4s6-13.4,13.4-13.4s13.4,6,13.4,13.4
			C103.2,157.4,97.2,163.4,89.8,163.4z M139.9,173.4H160c-2.6,8.3-6.5,13.4-10.1,13.4S142.6,181.7,139.9,173.4L139.9,173.4z
			 M113.4,153.3H130c0.2,4.7,0.6,9.2,1.4,13.4h-14.1C115.2,162.6,113.8,158.1,113.4,153.3z M150,113.2c3.6,0,7.4,5.1,10.1,13.4H140
			C142.6,118.3,146.4,113.2,150,113.2z M161.8,133.3c0.8,4,1.4,8.5,1.5,13.4h-26.6c0.2-4.8,0.7-9.3,1.5-13.4H161.8z M186.6,146.7
			H170c-0.2-4.7-0.6-9.2-1.4-13.4h14.1C184.8,137.4,186.2,141.9,186.6,146.7L186.6,146.7z M186.6,153.3c-0.4,4.8-1.8,9.3-3.9,13.4
			h-14.1c0.8-4.1,1.2-8.6,1.4-13.4H186.6z M130,146.7h-16.6c0.4-4.8,1.8-9.3,3.9-13.4h14.1C130.6,137.4,130.2,141.9,130,146.7
			L130,146.7z M136.7,153.3h26.6c-0.2,4.8-0.7,9.3-1.5,13.4h-23.5C137.4,162.7,136.9,158.2,136.7,153.3L136.7,153.3z M162.4,184.6
			c1.8-3.1,3.4-6.8,4.7-11.2h11.3C174.2,178.4,168.7,182.3,162.4,184.6z M178.3,126.6H167c-1.2-4.3-2.8-8.1-4.7-11.2
			C168.7,117.7,174.2,121.6,178.3,126.6z M137.6,115.4c-1.8,3.1-3.4,6.8-4.7,11.2h-11.3C125.8,121.6,131.3,117.7,137.6,115.4
			L137.6,115.4z M121.7,173.4H133c1.2,4.3,2.8,8.1,4.7,11.2C131.3,182.3,125.8,178.4,121.7,173.4L121.7,173.4z"/>
		<path class="st1" d="M126.6,93.2h46.3c8.8,0,16.5-6.6,17.2-15.3c0.9-10.6-8.3-19.5-18.8-18c-3.8-8.2-12-13.5-21.2-13.5
			c-9.3,0-17.4,5.3-21.2,13.5c-12.2-1.8-22.4,10.3-17.7,22.8C113.5,89.1,119.8,93.2,126.6,93.2L126.6,93.2z M126.6,66.4
			c1,0,2,0.2,3.2,0.6l1.5,0.5c0.9,0.3,2-0.2,2.3-1.2l0.3-1.1c2.1-6.9,8.4-12,15.6-12.2c7.6-0.2,14.2,4.6,16.4,11.8l0.5,1.5
			c0.3,1,1.3,1.5,2.3,1.2l1.5-0.5c3.3-1.1,5.6-0.6,8.4,1.2c2.8,1.7,4.7,4.7,4.8,7.9c0.2,5.7-4.4,10.4-10,10.4H127
			c-5.3,0-10-4-10.4-9.3C116.2,71.3,120.8,66.4,126.6,66.4L126.6,66.4z"/>
		<path class="st1" d="M153.3,231.4v-1.2c0-16.6-13.5-30.1-30.1-30.1h-3.3v23.4c0,15.5,11.7,28.2,26.7,29.9v0.2h3.3h3.3h23.4
			c16.6,0,30.1-13.5,30.1-30.1v-3.3h-30.1C167.3,220.2,158.9,224.6,153.3,231.4z M126.6,223.5V207c11.3,1.6,20.1,11.4,20.1,23.2
			v16.5C135.3,245.1,126.6,235.3,126.6,223.5z M176.7,247h-23.2c1.6-11.3,11.4-20.1,23.2-20.1h23.2C198.3,238.2,188.5,247,176.7,247
			z"/>
		<path class="st1" d="M67.5,186.5L67.5,186.5c-1.7,0.8-2.5,2.8-1.7,4.5c9.6,19.6,26.1,35.6,46.1,44.5c1.7,0.8,3.8,0,4.5-1.8l0,0
			c0.7-1.7-0.1-3.5-1.7-4.3c-18.6-8.3-33.9-23.1-42.9-41.4C71,186.4,69.1,185.8,67.5,186.5z"/>
		<path class="st1" d="M210.1,217.2L210.1,217.2c1.3,1.4,3.5,1.5,4.8,0.2c8.7-8.4,15.8-18.5,20.7-29.5c0.8-1.7,0-3.8-1.8-4.5l0,0
			c-1.7-0.7-3.6,0.1-4.3,1.7c-4.5,10.3-11.1,19.7-19.2,27.5C209,213.9,208.9,215.9,210.1,217.2z"/>
		<path class="st1" d="M235.6,112.1c-7.2-16.2-19-30.2-33.8-40.1c-1.6-1.1-3.7-0.6-4.7,1c-0.9,1.5-0.5,3.5,1,4.5
			c13.8,9.2,24.9,22.4,31.6,37.5c0,0,0,0,0,0.1c1,2.2,2.8,1.9,3.7,1.6l0.4-0.2C235.6,115.9,236.4,113.8,235.6,112.1z"/>
		<path class="st1" d="M102.5,77.2c2.4-1.3,1.3-3.6,1-4.2l-0.1-0.2c-1-1.6-3.1-2.1-4.7-1C84.5,81,73.2,93.8,65.8,109
			c-0.8,1.7-0.1,3.8,1.6,4.6c1.6,0.7,3.6,0,4.3-1.6C78.6,98,89,86.2,102,77.5C102.1,77.4,102.2,77.3,102.5,77.2z"/>
	</g>
</g>
</svg>
