<?xml version="1.0" encoding="utf-8"?>
<!-- Generator: Adobe Illustrator 25.1.0, SVG Export Plug-In . SVG Version: 6.00 Build 0)  -->
<svg version="1.1" id="Layer_1" xmlns="http://www.w3.org/2000/svg" xmlns:xlink="http://www.w3.org/1999/xlink" x="0px" y="0px"
	 viewBox="0 0 300 300" style="enable-background:new 0 0 300 300;" xml:space="preserve">
<style type="text/css">
	.st0{fill:#FFFFFF;}
	.st1{fill:#D6202A;}
</style>
<g>
	<circle class="st0" cx="150" cy="150" r="131.8"/>
	<path class="st1" d="M150,19.7c34.8,0,67.5,13.6,92.1,38.2s38.2,57.3,38.2,92.1s-13.6,67.5-38.2,92.1s-57.3,38.2-92.1,38.2
		c-34.8,0-67.5-13.6-92.1-38.2c-24.6-24.6-38.2-57.3-38.2-92.1s13.6-67.5,38.2-92.1C82.5,33.3,115.2,19.7,150,19.7 M150,16.7
		C76.4,16.7,16.7,76.4,16.7,150S76.4,283.3,150,283.3S283.3,223.6,283.3,150S223.6,16.7,150,16.7L150,16.7z"/>
</g>
<g>
	<g>
		<path class="st1" d="M220,99.7l3.7-25.4c0.2-1.4-0.2-2.8-1.1-3.8s-2.2-1.6-3.6-1.6h-25.3c-2.2,0-4.1,1.5-4.6,3.7l-5.1,22L220,99.7
			z"/>
		<path class="st1" d="M218.6,109.1l-36.8-5.3L179,116l37.8,5.4L218.6,109.1z"/>
		<path class="st1" d="M176.5,125.2c-2.1,5.9-6,13.8-11.2,14.8c-19.6,3.9-72.5-7.2-73-7.3c-0.2,0-0.3-0.1-0.5-0.1
			c-4.9-0.5-9.7,1.2-13.1,4.8s-4.9,8.5-4.1,13.4l0,0l4.9,27.9H138c7.9,0,14.2,6.4,14.2,14.2v14.8h26.3c0.3,0,0.5,0,0.8-0.1
			c14.8-2.5,26.5-14.2,29-29v-0.1l7.1-47.9L176.5,125.2z"/>
		<path class="st1" d="M138,188.3H66.4c-2.6,0-4.7,2.1-4.7,4.7v33.2c0,2.6,2.1,4.7,4.7,4.7H138c2.6,0,4.7-2.1,4.7-4.7V193
			C142.7,190.4,140.6,188.3,138,188.3z"/>
	</g>
</g>
</svg>
