<?xml version="1.0" encoding="utf-8"?>
<!-- Generator: Adobe Illustrator 25.1.0, SVG Export Plug-In . SVG Version: 6.00 Build 0)  -->
<svg version="1.1" id="Layer_1" xmlns="http://www.w3.org/2000/svg" xmlns:xlink="http://www.w3.org/1999/xlink" x="0px" y="0px"
	 viewBox="0 0 300 300" style="enable-background:new 0 0 300 300;" xml:space="preserve">
<style type="text/css">
	.st0{fill:#FFFFFF;}
	.st1{fill:#D6202A;}
</style>
<g>
	<circle class="st0" cx="150" cy="150" r="131.8"/>
	<path class="st1" d="M150,19.7c34.8,0,67.5,13.6,92.1,38.2s38.2,57.3,38.2,92.1s-13.6,67.5-38.2,92.1s-57.3,38.2-92.1,38.2
		c-34.8,0-67.5-13.6-92.1-38.2c-24.6-24.6-38.2-57.3-38.2-92.1s13.6-67.5,38.2-92.1C82.5,33.3,115.2,19.7,150,19.7 M150,16.7
		C76.4,16.7,16.7,76.4,16.7,150S76.4,283.3,150,283.3S283.3,223.6,283.3,150S223.6,16.7,150,16.7L150,16.7z"/>
</g>
<g>
	<path class="st0" d="M141.6,93.2c1.6,0,2.9-1.3,2.9-2.9s-1.3-2.9-2.9-2.9h-2.8c-1.6,0-2.9,1.3-2.9,2.9s1.3,2.9,2.9,2.9H141.6z"/>
	<path class="st0" d="M150,93.2h2.8c1.6,0,2.9-1.3,2.9-2.9s-1.3-2.9-2.9-2.9H150c-1.6,0-2.9,1.3-2.9,2.9l0,0
		C147.1,91.9,148.4,93.2,150,93.2z"/>
	<g>
		<path class="st1" d="M216.6,229.5c-7.2,0.3-14.3-1.6-20.3-5.6v7c0,5.6,9.1,10.1,20.3,10.1s20.3-4.5,20.3-10.1v-7
			C230.8,227.8,223.7,229.8,216.6,229.5z"/>
		<ellipse class="st1" cx="216.6" cy="213.5" rx="20.3" ry="10.1"/>
		<path class="st1" d="M184,137.6l16,9.6l47.2-88.5c-4.4-4.6-9-9-14-13l-49.5,91.7C183.9,137.6,183.9,137.6,184,137.6z"/>
		<path class="st1" d="M71.1,213.1l-1.7,5.8c-0.8,2.7-0.9,5.6-0.3,8.4c1.7,8,8.8,13.8,17,13.8H92l11.6-40.6H87.8
			C80,200.5,73.2,205.6,71.1,213.1z"/>
		<path class="st1" d="M159.5,182.3l-4.6,8.6c-2.9,5.9-9,9.6-15.6,9.6H124L112.3,241h26.9c6.6,0,12.6-3.7,15.6-9.6l21.1-39.3
			c0,0-0.1,0-0.1-0.1L159.5,182.3z"/>
		<path class="st1" d="M197.2,152.3l-16.1-9.7l-18.8,34.6c0,0,0.1,0,0.1,0.1l16.3,9.8l18.6-34.6
			C197.3,152.4,197.2,152.3,197.2,152.3z"/>
		<g>
			<path class="st1" d="M89,165.1l5.6,14c0.1,0.3,0.2,0.7,0.2,1.1h20.1l-5.4-13.4c-0.1-0.3-0.2-0.7-0.2-1.1v-2.9H89V165.1z"/>
			<rect x="89" y="139.6" class="st1" width="20.3" height="17.4"/>
			<path class="st1" d="M109.3,125.1c0-0.3,0-0.6,0.1-0.9l4.5-13.6H94l-5,15v8.2h20.3V125.1z"/>
			<path class="st1" d="M88.8,180.2l-5.4-13.4c-0.1-0.3-0.2-0.7-0.2-1.1v-2.9H62.9v2.9l8.7,14.5H88.8z"/>
			<path class="st1" d="M83.2,125.1c0-0.3,0-0.6,0.1-0.9l4.5-13.6H65.5l-0.6,1.8c-1.3,5.1-2,10.3-2,15.6v5.8h20.3V125.1z"/>
			<rect x="62.9" y="139.6" class="st1" width="20.3" height="17.4"/>
			<path class="st1" d="M115.1,165.1l5.6,14c0.1,0.3,0.2,0.7,0.2,1.1h8.7l5.8-9.7v-15.3l-20.3,6.8
				C115.1,162,115.1,165.1,115.1,165.1z"/>
			<polygon class="st1" points="135.4,110.6 120.1,110.6 115.1,125.6 115.1,132.7 135.4,125.9 			"/>
			<path class="st1" d="M141.2,107.7v53.9l31.9-45.2V91.9c-7.1-9.8-17-17.2-28.5-21.1c-30.6-11.2-64.7,3.8-77.1,34h70.7
				C139.9,104.8,141.2,106.1,141.2,107.7z M147.1,90.3c0-1.6,1.3-2.9,2.9-2.9h2.8c1.6,0,2.9,1.3,2.9,2.9s-1.3,2.9-2.9,2.9H150
				C148.4,93.2,147.1,91.9,147.1,90.3L147.1,90.3z M135.8,90.3c0-1.6,1.3-2.9,2.9-2.9h2.8c1.6,0,2.9,1.3,2.9,2.9s-1.3,2.9-2.9,2.9
				h-2.8C137.1,93.2,135.8,91.9,135.8,90.3z"/>
			<polygon class="st1" points="135.4,132 115.1,138.8 115.1,155.9 135.4,149.1 			"/>
		</g>
	</g>
</g>
</svg>
