<?xml version="1.0" encoding="utf-8"?>
<!-- Generator: Adobe Illustrator 25.1.0, SVG Export Plug-In . SVG Version: 6.00 Build 0)  -->
<svg version="1.1" id="Layer_1" xmlns="http://www.w3.org/2000/svg" xmlns:xlink="http://www.w3.org/1999/xlink" x="0px" y="0px"
	 viewBox="0 0 300 300" style="enable-background:new 0 0 300 300;" xml:space="preserve">
<style type="text/css">
	.st0{fill:#FFFFFF;}
	.st1{fill:#D6202A;}
</style>
<g>
	<circle class="st0" cx="150" cy="150" r="131.8"/>
	<path class="st1" d="M150,19.7c34.8,0,67.5,13.6,92.1,38.2s38.2,57.3,38.2,92.1s-13.6,67.5-38.2,92.1s-57.3,38.2-92.1,38.2
		c-34.8,0-67.5-13.6-92.1-38.2c-24.6-24.6-38.2-57.3-38.2-92.1s13.6-67.5,38.2-92.1C82.5,33.3,115.2,19.7,150,19.7 M150,16.7
		C76.4,16.7,16.7,76.4,16.7,150S76.4,283.3,150,283.3S283.3,223.6,283.3,150S223.6,16.7,150,16.7L150,16.7z"/>
</g>
<g>
	<g>
		<path class="st1" d="M133,129.4c2.4,0.6,4.6,0.3,6.7-0.8l19.5-9.8c4.8-2.4,6.8-8.3,4.4-13.1c-2.3-4.7-8.3-6.7-13.1-4.4l-16.3,8.2
			l-35.6-8.9c-2.8-0.7-6.1,0-8.4,1.8c-2.4,1.9-3.8,4.7-3.8,7.7v69.1c0,3.7,2.1,7.1,5.4,8.7c3.2,1.6,7.3,1.3,10.2-0.9l30.8-23.1
			l13.8,20.7c3,4.5,9.1,5.7,13.6,2.7s5.7-9.1,2.7-13.6l-19.5-29.3c-1.6-2.4-4.1-3.8-7.4-4.3c-0.2,0-0.4,0-0.7,0c0,0,0,0-0.1,0
			c-2.1,0-4.1,0.7-5.8,2L106,159.7v-37L133,129.4z"/>
		<path class="st1" d="M115.8,76c0,8.1-6.6,14.7-14.7,14.7S86.5,84.1,86.5,76s6.6-14.7,14.7-14.7S115.8,67.9,115.8,76z"/>
		<path class="st1" d="M140.4,77.7c0,0,54.4,104,61.7,117.8c7.3,13.9,3.6,20.9-9.3,27.6l-28.9,15.1c-1.7,0.9-3.8,0.2-4.7-1.5
			l-3.3-6.3c-0.9-1.7-0.2-3.8,1.5-4.7l31.6-16.5c6.3-3.3,12-6.6,4.7-20.5S136.6,79.6,136.6,79.6l-2-0.1c-0.8,0-1.5-0.6-1.7-1.4
			l-1-4.9c-0.2-0.8,0.2-1.6,0.9-1.9l1.8-0.9c0.9-0.5,2-0.1,2.4,0.8L140.4,77.7z"/>
		<g>
			<path class="st1" d="M155.5,222.3l7.7-4H96.3v-9.8h78.5v3.7l12.3-6.4c2.9-1.5,4.9-2.7,5.7-4.4c0.9-2.1,0-5.8-2.6-10.8l-0.9-1.7
				H71.5c-2.7,0-4.9,2.2-4.9,4.9v9.8c0,2.7,2.2,4.9,4.9,4.9h15v9.8h-15c-2.7,0-4.9,2.2-4.9,4.9s2.2,4.9,4.9,4.9h80.1
				C151.8,225.7,153.2,223.5,155.5,222.3z"/>
			<path class="st1" d="M222.2,161.1c-1.9-1.9-5-1.9-6.9,0s-1.9,5,0,6.9c5.3,5.3,8.3,12.6,8.3,20.1v1.7c0,1.4-0.2,2.7-0.4,4h-17.5
				c1.9,3.6,3.1,6.8,3.6,9.8h10.6c-2.8,5-7,9-12,11.6c-2.2,4.2-6.4,7.8-13.3,11.4l-2.8,1.5h3.3c21.1,0,38.2-17.2,38.2-38.2v-1.7
				C233.4,178.1,229.3,168.2,222.2,161.1z"/>
		</g>
		<path class="st1" d="M96,194.6c0,0-11.2-69.8-12.4-75.6c-0.5-2.8-2.9-4-5.2-4.4c-2.5-0.5-4.8,1.4-4.8,3.9v72.2c0,2.2,1.8,4,4,4H96
			"/>
		<path class="st1" d="M128.1,189c0,0,31.7-17.9,37.2-21.3c5.5-3.5,11.3-4.1,23.9,21.3l-4.6,8.9L129,196L128.1,189z"/>
	</g>
</g>
</svg>
