<?xml version="1.0" encoding="utf-8"?>
<!-- Generator: Adobe Illustrator 25.1.0, SVG Export Plug-In . SVG Version: 6.00 Build 0)  -->
<svg version="1.1" id="Layer_1" xmlns="http://www.w3.org/2000/svg" xmlns:xlink="http://www.w3.org/1999/xlink" x="0px" y="0px"
	 viewBox="0 0 300 300" style="enable-background:new 0 0 300 300;" xml:space="preserve">
<style type="text/css">
	.st0{fill:#D6202A;}
	.st1{fill:#FFFFFF;}
</style>
<g>
	<circle class="st0" cx="150" cy="150" r="133.3"/>
	<g>
		<path class="st1" d="M143,98.5l-37.1-74.4c-4,1.4-7.9,3-11.7,4.7l41.8,83.7L143,98.5z"/>
		<path class="st1" d="M236.7,153.6h-66.2l-6.5-13l-7,14l12.8,25.7c3.1,6.2,10.7,10.9,17.7,10.9h49.2c8.1,0,14.6-6.6,14.6-14.6v-8.4
			C251.4,160.2,244.8,153.6,236.7,153.6z"/>
		<path class="st1" d="M63.3,153.6c-8.1,0-14.6,6.6-14.6,14.6v8.4c0,8.1,6.6,14.6,14.6,14.6h49.2c7,0,14.6-4.7,17.7-10.9l75.6-151.4
			c-3.8-1.8-7.7-3.3-11.7-4.7l-64.7,129.5H63.3z"/>
		<path class="st1" d="M77.8,239.1v1.2v0.2h20.6l0.4-5.1c-2.2,0.5-4.7,0.8-10,0.8c-1.9,0-3.7,0-5.3-0.2h-0.3c0-1.2-0.1-2.3-0.1-5.7
			v-0.2l0.1-11v-0.2c0-1.8,0-4,0.1-6.6c0-1.8,0.1-3,0.1-3.8v-0.2l-5.6,0l0.1,27.9v0.3V239.1z"/>
		<path class="st1" d="M123.4,230.1c0-6-4.9-10.8-11.1-10.8c-6.4,0-11.4,4.8-11.4,11s4.8,10.6,11.2,10.6
			C118.5,241,123.4,236.4,123.4,230.1z M112.1,237.1c-3.8,0-6.7-3-6.7-6.8c0-3.9,2.9-6.7,6.7-6.7c3.8,0,6.5,2.8,6.5,6.6
			C118.6,234.1,116,237.1,112.1,237.1z"/>
		<path class="st1" d="M146.1,232v-4c0-5.4-2.8-8.5-7.8-8.5c-3.1,0-6.5,0.9-10,2.7l-0.2,0.2c0.3,1.4,0.5,2.5,0.5,6.5v0.1l-0.2,11.6
			h5c-0.2-1-0.3-2.1-0.3-4.4v0l0.2-11.4c1.3-0.7,2.6-1,3.9-1c3.2,0,4.3,1.3,4.3,5.3v0l-0.2,11.4h5l0-8.3V232z"/>
		<path class="st1" d="M170.8,230.2l0.2-14.8v-0.2c0-0.2,0.1-1.5,0.1-4.1c0-1,0-2,0-3.3v-0.2l-5.3,0.4v0.2c0,1.1,0,2.4,0.2,4.1
			c0.1,3,0.2,6,0.2,6.7l0,1.9c-1.9-1-3.5-1.4-5.2-1.4c-5.8,0-10.4,4.9-10.4,11c0,6.1,4.5,10.6,10.4,10.6c1.8,0,2.5-0.2,5.5-1.2
			c1.8-0.7,2.6-0.8,4.6-0.8h0.2c-0.5-2-0.7-3.7-0.7-8.7V230.2z M166.2,233.7v0.3c0,1.8-1.9,2.9-4.7,2.9c-3.3,0-6-3.1-6-7
			c0-3.8,2.4-6.5,6-6.5c1.8,0,3.5,0.8,4.8,2.1L166.2,233.7z"/>
		<polygon class="st1" points="171.2,207.5 171.2,207.5 171.2,207.5 		"/>
		<path class="st1" d="M198.8,230.1c0-6-4.9-10.8-11.1-10.8c-6.4,0-11.4,4.8-11.4,11S181,241,187.5,241
			C193.8,241,198.8,236.4,198.8,230.1z M187.5,237.1c-3.8,0-6.7-3-6.7-6.8c0-3.9,2.9-6.7,6.7-6.7c3.8,0,6.5,2.8,6.5,6.6
			C194,234.1,191.3,237.1,187.5,237.1z"/>
		<path class="st1" d="M221.4,232v-4c0-5.4-2.8-8.5-7.8-8.5c-3.1,0-6.5,0.9-10,2.7l-0.2,0.2c0.3,1.4,0.5,2.5,0.5,6.5v0.1l-0.2,11.6
			h5c-0.2-1-0.3-2.1-0.3-4.4v0l0.2-11.4c1.3-0.7,2.6-1,3.9-1c3.2,0,4.3,1.3,4.3,5.3v0l-0.2,11.4h5l0-8.3V232z"/>
		<path class="st1" d="M103.9,248c1.2,0,2.6,0.6,3.3,1.5l1-1.4c-1-0.9-2.8-1.5-4.3-1.5c-3.2,0-5.9,2.6-5.9,5.8
			c0,3.3,2.6,5.8,5.9,5.8c1.5,0,3.2-0.6,4.3-1.5l-1.2-1.2c-0.8,0.9-1.9,1.4-3.1,1.4c-0.8,0-1.7-0.3-2.4-0.8c-1.3-0.8-1.9-2-1.9-3.6
			C99.7,249.9,101.5,248,103.9,248z"/>
		<path class="st1" d="M125.5,254.8L125.5,254.8l-3.5-7.5l-0.1-0.1l-0.4-0.9c-0.2-0.5-0.3-0.5-0.4-0.5c-0.1,0-0.1,0.1-0.2,0.3
			l-0.1,0.4v0l-5,11.4h1.7l1.7-3.8h4.2l1.7,3.8h2v0l-0.7-1.4L125.5,254.8z M119.9,252.7l1.4-3.4l1.5,3.4H119.9z"/>
		<path class="st1" d="M143.2,249.9v0.1l0,2.9v1.6v0.1l-7.2-7.9c-0.3-0.2-0.4-0.3-0.4-0.3c-0.2,0-0.3,0.2-0.3,0.7v0v7.6v0.1l0,1.9
			v1.3v0h1.7c0,0,0,0,0-0.1c0-0.1,0-0.6,0-1.5l0-2v0V250c0,0.1,0.1,0.1,0.1,0.1c0.1,0.1,0.4,0.4,0.9,1l1.5,1.6l0,0.1l3.4,3.8l0,0.1
			l0.7,0.8l0.7,0.8c0.1,0.1,0.2,0.2,0.3,0.2c0.1,0,0.1-0.1,0.1-0.3v-0.1V258v-11.1l-1.7-0.1L143.2,249.9z"/>
		<path class="st1" d="M162.5,254.8L162.5,254.8l-3.5-7.5l0-0.1l-0.4-0.9c-0.2-0.5-0.3-0.5-0.4-0.5s-0.1,0.1-0.2,0.3l-0.1,0.4v0
			l-5,11.4h1.7l1.7-3.8h4.2l1.7,3.8h1.9v0l-0.7-1.4L162.5,254.8z M156.9,252.7l1.5-3.4l1.5,3.4H156.9z"/>
		<path class="st1" d="M174.6,246.8c-0.7,0-1.5,0.1-2.3,0.2v0c0,0.2,0,0.5,0,0.8c0,0.4,0,0.7,0,0.8v0.1v7.6v0c0,0.6,0,1.4-0.1,1.6
			h0.1c0.2,0,0.4,0,0.9,0h1c1.4,0,2.7-0.2,3.6-0.6c1.8-0.8,3-2.9,3-5.3C180.8,248.8,178.5,246.8,174.6,246.8z M174.9,256.6
			c-0.4,0-0.5,0-0.9-0.1v-8.2h0c0.3,0,0.5,0,0.8,0c2.8,0,4.4,1.4,4.4,4C179.2,254.7,177.4,256.6,174.9,256.6z"/>
		<path class="st1" d="M197.8,254.8L197.8,254.8l-3.5-7.5l-0.1-0.1l-0.4-0.9c-0.2-0.5-0.3-0.5-0.4-0.5c-0.1,0-0.1,0.1-0.2,0.3
			l-0.1,0.4l0,0l-5,11.4h1.7l1.7-3.8h4.2l1.7,3.8h2v0l-0.7-1.4L197.8,254.8z M192.1,252.7l1.5-3.4l1.5,3.4H192.1z"/>
	</g>
</g>
</svg>
