<?xml version="1.0" encoding="utf-8"?>
<!-- Generator: Adobe Illustrator 25.1.0, SVG Export Plug-In . SVG Version: 6.00 Build 0)  -->
<svg version="1.1" id="Layer_1" xmlns="http://www.w3.org/2000/svg" xmlns:xlink="http://www.w3.org/1999/xlink" x="0px" y="0px"
	 viewBox="0 0 300 300" style="enable-background:new 0 0 300 300;" xml:space="preserve">
<style type="text/css">
	.st0{fill:#D6202A;}
	.st1{fill:#FFFFFF;}
</style>
<g>
	<circle class="st0" cx="150" cy="150" r="133.3"/>
	<g>
		<path class="st1" d="M131.7,128.8c0.5-0.3,1-0.5,1.5-0.8c0.5-0.2,0.9-0.5,1.4-0.7c0.6-0.2,1.1-0.5,1.7-0.7c0.5-0.2,1-0.4,1.5-0.5
			c0.6-0.2,1.3-0.4,1.9-0.6c0.5-0.1,1-0.3,1.5-0.4c0.7-0.2,1.4-0.3,2.1-0.4c0.5-0.1,1-0.2,1.5-0.3c0.8-0.1,1.7-0.2,2.5-0.3
			c0.4,0,0.8-0.1,1.3-0.1c1.3-0.1,2.6-0.1,3.9-0.1c1,0,2,0,3.1,0.1c0.3,0,0.6,0,0.9,0.1c0.8,0.1,1.5,0.1,2.3,0.2
			c0.2,0,0.4,0,0.5,0.1L165,112l-6.5-3l-3.5,6.9h-31.5l-7.9,15.7v0h11.5c0.2-0.2,0.4-0.3,0.6-0.4c0.4-0.3,0.8-0.6,1.2-0.9
			c0.4-0.3,0.9-0.6,1.4-0.9C130.8,129.3,131.2,129,131.7,128.8z"/>
		<path class="st1" d="M129,156.7v4.5c0,5.6,10.1,9.8,23.6,9.8c13.5,0,23.6-4.2,23.6-9.8v-4.6c-5.8,4.1-14.2,6.5-23.6,6.5
			C143.2,163.2,134.8,160.8,129,156.7z"/>
		<path class="st1" d="M160.9,132.6c-2.7-0.5-5.5-0.8-8.3-0.8c-8.8,0-16.9,2.6-21.1,6.7c-1.7,1.6-2.5,3.3-2.5,5.1
			c0,0.7,0.1,1.4,0.4,2.1c2,4.7,10.7,9.7,23.2,9.7c12.2,0,21-4.9,23.1-9.5c0.3-0.8,0.5-1.5,0.5-2.3c0-0.6-0.1-1.3-0.4-2
			c-1.2-3.2-5.2-6.1-10.8-7.9C163.6,133.2,162.3,132.8,160.9,132.6z"/>
		<path class="st1" d="M233.3,91.4h-24.6v-9.2c0-7.1-5.8-12.9-12.9-12.9h-92.3c-7.1,0-12.9,5.8-12.9,12.9v9.2h-24
			c-3.1,0-5.5,2.5-5.5,5.5c0,45.6,24.2,75.7,49,82.9c8.2,8.2,17.5,14.1,24.9,18v19h-1.8c-11.2,0-20.3,9.1-20.3,20.3v3.7
			c0,3.1,2.5,5.5,5.5,5.5h62.8c3.1,0,5.5-2.5,5.5-5.5v-3.7c0-11.2-9.1-20.3-20.3-20.3h-1.8v-19c7.3-3.9,16.6-9.7,24.8-17.9
			c25.1-6.8,49.6-36.8,49.6-83.1C238.9,93.8,236.4,91.4,233.3,91.4z M72.3,102.4h18.3v33.3c0.1,8.4,1.8,15.9,4.7,22.7
			C83.2,146.8,73.6,127.5,72.3,102.4z M167.5,126.1c7.9,2.6,13.7,7.2,15.7,12.7c0.6,1.6,0.9,3.1,0.9,4.7v17.7
			c0,10.6-12.6,17.7-31.5,17.7c-18.8,0-31.5-7.1-31.5-17.7v-17.7c0-1.3,0.2-2.7,0.6-3.9H103l15.7-31.5h31.5l1.2-2.5l0,0l1.7-3.5
			l1.7-3.4l0,0l7.8-15.6l7,3.5L162,102l6.3,2.8l9.9-21.6l7.2,3.3l-11.3,24.7l-6.8,14.9C167.3,126.1,167.4,126.1,167.5,126.1z
			 M203.8,159.3c3.1-6.9,5-14.8,5-23.6v-33.2h18.9C226.4,128.2,216.4,147.9,203.8,159.3z"/>
	</g>
</g>
</svg>
