<?xml version="1.0" encoding="utf-8"?>
<!-- Generator: Adobe Illustrator 25.1.0, SVG Export Plug-In . SVG Version: 6.00 Build 0)  -->
<svg version="1.1" id="Layer_1" xmlns="http://www.w3.org/2000/svg" xmlns:xlink="http://www.w3.org/1999/xlink" x="0px" y="0px"
	 viewBox="0 0 246 157" style="enable-background:new 0 0 246 157;" xml:space="preserve">
<style type="text/css">
	.st0{clip-path:url(#SVGID_2_);}
	.st1{clip-path:url(#SVGID_4_);fill:#FEC252;}
	.st2{fill:#FFD067;}
	.st3{fill:#FEC252;}
	.st4{fill:#FFE07E;}
	.st5{fill:#E8AE4C;}
	.st6{fill:#FFDDB0;}
	.st7{fill:#49658E;}
	.st8{fill:#435C83;}
	.st9{fill:#393B3D;}
	.st10{fill:#FCCAA5;}
	.st11{fill:#F3C495;}
	.st12{fill:#F3CDA0;}
	.st13{fill:#F3B073;}
	.st14{fill:#44322A;}
	.st15{fill:#1C1D1E;}
	.st16{fill:#2E2F30;}
	.st17{fill:#DAE1EA;}
	.st18{opacity:0.1;fill:#435C83;}
	.st19{fill:#E4EAEE;}
	.st20{fill:#C0C6CC;}
	.st21{opacity:0.15;clip-path:url(#SVGID_2_);fill:none;}
</style>
<g>
	<defs>
		<rect id="SVGID_1_" x="-0.1" y="-0.1" width="246.1" height="157.2"/>
	</defs>
	<clipPath id="SVGID_2_">
		<use xlink:href="#SVGID_1_"  style="overflow:visible;"/>
	</clipPath>
	<g class="st0">
		<g>
			<g>
				<defs>
					<rect id="SVGID_3_" x="4.8" y="67.3" width="110.1" height="110.1"/>
				</defs>
				<clipPath id="SVGID_4_">
					<use xlink:href="#SVGID_3_"  style="overflow:visible;"/>
				</clipPath>
				<path class="st1" d="M69.5,126.1c-0.9,0-1.8-0.3-2.5-0.9c-0.9-0.8-1.5-1.9-1.5-3.1V80.8c0-2.2,1.8-4,4-4h38.7
					c2.1,0,4,0.9,5.3,2.6c1.3,1.6,1.7,3.7,1.2,5.7l-4.6,17.6c-2.4,9.4-9.7,16.6-19.1,19c-0.1,0-0.1,0-0.2,0L70.3,126
					C70,126,69.8,126.1,69.5,126.1L69.5,126.1z M73.5,84.7v32.6l15.7-3.2c6.5-1.7,11.6-6.8,13.3-13.3l4.2-16.1H73.5z M73.5,84.7"/>
				<path class="st1" d="M50.2,126.1c-0.3,0-0.5,0-0.8-0.1l-20.5-4.2c-0.1,0-0.1,0-0.2,0c-9.4-2.4-16.7-9.7-19.1-19L5,85.1
					c-0.5-2-0.1-4.1,1.2-5.7c1.3-1.6,3.2-2.6,5.3-2.6h38.7c2.2,0,4,1.8,4,4v41.4c0,1.2-0.5,2.3-1.5,3.1
					C52,125.8,51.1,126.1,50.2,126.1L50.2,126.1z M30.5,114.1l15.7,3.2V84.7H13.1l4.2,16.1C18.9,107.3,24,112.4,30.5,114.1
					L30.5,114.1z M30.5,114.1"/>
			</g>
			<path class="st2" d="M73.4,156.2c-10.3-3.4-17.4-13.9-17.8-26.1c0.4-1.9,0.6-3.9,0.6-5.9v-13.4h-2.9v13.4
				c0,12.5-8.3,23.5-20.3,27v8.1h42.8V157L73.4,156.2z M73.4,156.2"/>
			<path class="st3" d="M84.2,150.5c-10.5-3-17.8-12.7-17.8-23.7v-16h-13v13.4c0,2-0.2,4-0.6,5.9c0.4,12.1,7.5,22.7,17.8,26.1
				L73,157v2.3h13.7v-8.1L84.2,150.5z M84.2,150.5"/>
			<path class="st4" d="M78.9,151.1H28.4c-2,0-3.6,1.6-3.6,3.6v17.9h57.6v-17.9C82.5,152.7,80.9,151.1,78.9,151.1L78.9,151.1z
				 M78.9,151.1"/>
			<path class="st2" d="M91.3,151.1H77c2,0,3.6,1.6,3.6,3.6v17.9h14.3v-17.9C94.9,152.7,93.3,151.1,91.3,151.1L91.3,151.1z
				 M91.3,151.1"/>
			<path class="st4" d="M77.8,92.3v-20H30.2v19.3c0,15.9,8.6,30.5,22.4,38.2c1,0.6,2.1,1,3.2,1.3C69.4,122.9,77.8,108.2,77.8,92.3
				L77.8,92.3z M77.8,92.3"/>
			<path class="st2" d="M75.2,72.3v19.3c0,15.9-8.6,30.5-22.4,38.2c0,0-0.1,0-0.1,0.1c4.5,2.5,9.9,2.4,14.4-0.1
				c13.8-7.7,22.4-22.3,22.4-38.2V72.3H75.2z M75.2,72.3"/>
			<path class="st2" d="M89.6,175.5v-2.2c0-2.2-1.8-4-4-4h-64c-2.2,0-4,1.8-4,4c0,2.2,1.8,4,4,4h66.1L89.6,175.5z M89.6,175.5"/>
			<path class="st3" d="M98.1,169.3H83.8c2.2,0,4,1.8,4,4v4h10.4c2.2,0,4-1.8,4-4C102,171.1,100.3,169.3,98.1,169.3L98.1,169.3z
				 M98.1,169.3"/>
			<path class="st2" d="M85.6,72.1v-3.2l-3.1-1.5h-55c-2.6,0-4.7,2.1-4.7,4.7c0,2.6,2.1,4.7,4.7,4.7h53.3
				C83.5,76.8,85.6,74.7,85.6,72.1L85.6,72.1z M85.6,72.1"/>
			<path class="st3" d="M92.1,67.4h-9.6v4.7c0,2.6-2.1,4.7-4.7,4.7h14.3c2.6,0,4.7-2.1,4.7-4.7C96.8,69.5,94.7,67.4,92.1,67.4
				L92.1,67.4z M92.1,67.4"/>
			<path class="st5" d="M80.6,162.3H39.1c-0.9,0-1.7-0.8-1.7-1.7s0.8-1.7,1.7-1.7h41.5c0.9,0,1.7,0.8,1.7,1.7S81.5,162.3,80.6,162.3
				L80.6,162.3z M80.6,162.3"/>
			<path class="st5" d="M61.1,88.3l2.5,6.8c0.2,0.5,0.7,0.9,1.2,0.9l7.2,0.3c1.3,0,1.8,1.7,0.8,2.4l-5.7,4.5
				c-0.4,0.3-0.6,0.9-0.5,1.5l2,7c0.4,1.2-1,2.2-2.1,1.5l-6-4c-0.5-0.3-1.1-0.3-1.5,0l-6,4c-1.1,0.7-2.4-0.3-2.1-1.5l2-7
				c0.2-0.5,0-1.1-0.5-1.5l-5.7-4.5c-1-0.8-0.5-2.4,0.8-2.4l7.2-0.3c0.6,0,1-0.4,1.2-0.9l2.5-6.8C59,87.1,60.7,87.1,61.1,88.3
				L61.1,88.3z M61.1,88.3"/>
		</g>
		<path class="st6" d="M124.9,110.5h-4.8c-2.4,0-4.8-0.3-7.1-1c-0.2-0.1-0.4-0.1-0.6-0.2c-0.3-0.1-0.6-0.2-0.9-0.3
			c-1.7-0.6-3.3-1.4-4.8-2.3v10.2l5.5,7.7l0.8,1.2l9.5,13.2l15.8-22.1v-10.2C134.3,109.2,129.6,110.5,124.9,110.5z"/>
		<path class="st7" d="M174.5,127.3c0.3,0.2,0.6,0.4,0.8,0.6C175.1,127.7,174.8,127.5,174.5,127.3z"/>
		<path class="st7" d="M182.1,139.3c0.1,0.3,0.1,0.6,0.1,1C182.2,140,182.2,139.6,182.1,139.3z"/>
		<path class="st7" d="M180.4,134.2c0.1,0.2,0.2,0.5,0.3,0.7C180.6,134.6,180.5,134.4,180.4,134.2z"/>
		<path class="st7" d="M179.2,132.2c0.2,0.3,0.4,0.5,0.5,0.8C179.6,132.7,179.4,132.4,179.2,132.2z"/>
		<path class="st7" d="M179.8,133.2c0.1,0.2,0.3,0.5,0.4,0.7C180.1,133.6,180,133.4,179.8,133.2z"/>
		<path class="st7" d="M181.9,138.2c0.1,0.3,0.2,0.7,0.2,1C182,138.9,182,138.6,181.9,138.2z"/>
		<path class="st7" d="M181.6,137.2c0.1,0.3,0.2,0.6,0.2,0.8C181.8,137.8,181.7,137.5,181.6,137.2z"/>
		<path class="st7" d="M175.4,128c0.3,0.2,0.5,0.4,0.8,0.7C175.9,128.4,175.6,128.2,175.4,128z"/>
		<path class="st7" d="M181.2,136.1c0.1,0.3,0.2,0.6,0.3,0.9C181.4,136.7,181.3,136.4,181.2,136.1z"/>
		<path class="st7" d="M180.8,135.1c0.1,0.3,0.3,0.6,0.4,1C181.1,135.7,180.9,135.4,180.8,135.1z"/>
		<path class="st7" d="M177.1,129.6c0.2,0.2,0.4,0.4,0.6,0.6C177.5,130,177.3,129.8,177.1,129.6z"/>
		<path class="st7" d="M182.3,140.6c0,0.3,0.1,0.5,0.1,0.8C182.3,141.1,182.3,140.8,182.3,140.6z"/>
		<path class="st7" d="M176.4,128.8c0.2,0.2,0.3,0.3,0.5,0.5C176.7,129.2,176.5,129,176.4,128.8z"/>
		<path class="st7" d="M182.4,142.7c0-0.3,0-0.7,0-1C182.4,142,182.4,142.3,182.4,142.7z"/>
		<path class="st7" d="M178.6,131.4c0.1,0.2,0.3,0.3,0.4,0.5C178.9,131.7,178.8,131.5,178.6,131.4z"/>
		<path class="st7" d="M177.9,130.5c0.2,0.2,0.3,0.4,0.5,0.6C178.2,130.9,178.1,130.7,177.9,130.5z"/>
		<path class="st7" d="M166.2,124l-19.6-2.8l0,0l0,0l-4.5,24l-0.6,3.2l-6.3-3.2l-9.5-4.7v4.7v25.2h-6.3v-25.2v-4.7l-9.5,4.7
			l-6.3,3.2l-0.6-3.2l-4.5-24l0,0l0,0L78.9,124c-9.3,1.3-16.2,9.3-16.2,18.7v21.4h15.8h6.3h3.2v31.5h17.9
			c27.1-14.6,49.8-31,68.7-68.3C172.1,125.6,169.2,124.4,166.2,124z M116.2,160.9h-6.3v-6.3h6.3V160.9z"/>
		<path class="st8" d="M174.4,127.3C174.4,127.3,174.4,127.3,174.4,127.3C174.5,127.3,174.5,127.3,174.4,127.3
			C174.5,127.3,174.5,127.3,174.4,127.3z"/>
		<path class="st8" d="M182.3,141.3c0,0.1,0,0.2,0,0.3C182.4,141.5,182.4,141.4,182.3,141.3z"/>
		<path class="st8" d="M182.2,140.3c0,0.1,0,0.2,0,0.3C182.3,140.5,182.3,140.4,182.2,140.3z"/>
		<path class="st8" d="M182.1,139.3C182.1,139.3,182.1,139.3,182.1,139.3C182.1,139.3,182.1,139.3,182.1,139.3z"/>
		<path class="st8" d="M181.5,137c0,0.1,0,0.1,0.1,0.2C181.6,137.2,181.6,137.1,181.5,137z"/>
		<path class="st8" d="M177.7,130.2c0.1,0.1,0.2,0.2,0.2,0.3C177.9,130.4,177.8,130.3,177.7,130.2z"/>
		<path class="st8" d="M176.9,129.3c0.1,0.1,0.2,0.2,0.3,0.3C177,129.5,177,129.4,176.9,129.3z"/>
		<path class="st8" d="M175.3,127.9C175.4,128,175.4,128,175.3,127.9C175.4,128,175.4,128,175.3,127.9z"/>
		<path class="st8" d="M181.8,138.1c0,0.1,0,0.1,0,0.2C181.9,138.2,181.8,138.1,181.8,138.1z"/>
		<path class="st8" d="M178.4,131c0.1,0.1,0.2,0.2,0.2,0.3C178.6,131.3,178.5,131.2,178.4,131z"/>
		<path class="st8" d="M176.1,128.6c0.1,0.1,0.2,0.1,0.2,0.2C176.3,128.8,176.2,128.7,176.1,128.6z"/>
		<path class="st8" d="M181.2,136C181.2,136.1,181.2,136.1,181.2,136C181.2,136.1,181.2,136.1,181.2,136z"/>
		<path class="st8" d="M180.7,134.9c0,0.1,0.1,0.1,0.1,0.2C180.8,135,180.7,134.9,180.7,134.9z"/>
		<path class="st8" d="M179,131.9c0.1,0.1,0.1,0.2,0.2,0.3C179.2,132.1,179.1,132,179,131.9z"/>
		<path class="st8" d="M180.2,133.9c0,0.1,0.1,0.2,0.1,0.3C180.3,134.1,180.3,134,180.2,133.9z"/>
		<path class="st8" d="M179.7,133c0,0.1,0.1,0.1,0.1,0.2C179.8,133.1,179.8,133.1,179.7,133z"/>
		<polygon class="st9" points="122.5,138.9 119.4,140.5 119.4,145.2 119.4,170.4 125.7,170.4 125.7,145.2 125.7,140.5 		"/>
		<rect x="109.9" y="154.6" class="st9" width="6.3" height="6.3"/>
		<polygon class="st10" points="84.7,164.1 78.4,164.1 62.7,164.1 62.7,195.6 87.9,195.6 87.9,164.1 		"/>
		<rect x="157.2" y="164.1" class="st10" width="25.2" height="31.5"/>
		<path class="st11" d="M124.9,104.2h-2.8h-2c-2.4,0-4.8-0.4-7.1-1c-0.3-0.1-0.6-0.2-0.9-0.3c-0.5-0.2-0.9-0.3-1.4-0.5
			c-1.4-0.6-2.8-1.3-4.1-2.1v6.3c1.5,1,3.1,1.7,4.8,2.3c0.3,0.1,0.6,0.2,0.9,0.3c0.2,0.1,0.4,0.1,0.6,0.2c2.3,0.7,4.7,1,7.1,1h4.8
			c4.7,0,9.4-1.3,13.4-3.9v-6.3C134.4,102.8,129.8,104.2,124.9,104.2z"/>
		<path class="st11" d="M94.2,54.5c-0.2-0.2-0.5-0.4-0.7-0.7h-2.3H91c-5.2,0-9.5,4.2-9.5,9.5c0,5.2,4.2,9.5,9.5,9.5h3.2V61.8V54.5z"
			/>
		<path class="st11" d="M152,54.7c-0.4,0.3-0.8,0.6-1.1,0.8v5.3v11.9h3.2c5.2,0,9.5-4.2,9.5-9.5c0-5.2-4.2-9.5-9.5-9.5h-1.1
			C152.7,54.1,152.4,54.4,152,54.7z"/>
		<path class="st10" d="M113.1,61.2c0,0.2,0,0.3,0,0.5L113.1,61.2C113.1,61.2,113.1,61.2,113.1,61.2z"/>
		<path class="st6" d="M133.4,65c-0.6-0.6-1.1-1.4-1.3-2.3c-0.1-0.5-0.1-0.9-0.1-1.4c-6.3-0.9-12.6-0.9-18.9-0.2v0.5
			c0,1.8-1,3.3-2.4,4.1c-0.7,0.4-1.5,0.6-2.3,0.6c-0.5,0-0.9-0.1-1.4-0.2c-1.6-0.5-2.9-1.9-3.3-3.6l-3,0.5c-2.3,0.4-4.6-0.1-6.6-1.3
			v10.9c0,4.2,0.5,8.4,1.5,12.4c0.9,3.5,2.5,6.7,4.6,9.5c1.8,2.3,4,4.2,6.4,5.8c1.3,0.8,2.7,1.5,4.1,2.1c0.4,0.2,0.9,0.3,1.4,0.5
			c0.3,0.1,0.6,0.2,0.9,0.3c2.3,0.7,4.6,1,7.1,1h2c3.7-2.6,6.7-5.8,9.1-9.5c3.6-5.5,5.6-12.1,5.6-18.9v-9.5
			C135.6,66.4,134.3,66,133.4,65z M117.5,84.7h-4.4v-2.9v-3.4h3.4h1c4.6,0,9.1-0.7,13.4-2.3l2.2,5.9
			C128.1,83.9,122.8,84.8,117.5,84.7z"/>
		<path class="st12" d="M144.3,56.8l-5.4-0.9l-2-0.3l-1.2-0.2c-0.6-0.1-1.2-0.2-1.8-0.3c-0.2,0-0.4-0.1-0.6-0.1
			c-0.4-0.1-0.8-0.1-1.2-0.2c-0.2,0-0.5-0.1-0.7-0.1c-0.4,0-0.8-0.1-1.3-0.1c-0.2,0-0.4,0-0.6-0.1c-0.6,0-1.1-0.1-1.7-0.1
			c-4.9-0.3-9.8-0.1-14.7,0.5c-0.8,0.1-1.5,0.2-2.3,0.3l-0.6,0.1l-4.3,0.7l-3.8,0.6c-2.9,0.5-5.8-0.4-8-2.4v7.3
			c2,1.2,4.3,1.7,6.6,1.3l3-0.5c-0.1-0.3-0.1-0.6-0.1-0.9c0-1.8,1-3.3,2.4-4.1c0.7-0.4,1.5-0.6,2.3-0.6c0.7,0,1.4,0.2,2,0.4
			c1.5,0.7,2.6,2.1,2.7,3.8c0,0,0,0,0,0c6.3-0.7,12.6-0.7,18.9,0.2c0-0.5,0.1-1,0.3-1.5c0.7-1.8,2.5-2.9,4.4-2.9c0.1,0,0.1,0,0.2,0
			c0.3,0,0.6,0,0.9,0.1c2.1,0.5,3.7,2.4,3.7,4.6c0,0.4-0.1,0.8-0.2,1.2c-0.4,1.4-1.4,2.6-2.8,3.2c-0.5,0.2-1.1,0.3-1.6,0.3v9.5
			c0,6.8-2,13.4-5.6,18.9c-2.4,3.7-5.5,6.9-9.1,9.5h2.8c4.9,0,9.5-1.4,13.4-3.9c5.4-3.4,9.5-8.7,11.1-15.2c1-4.1,1.5-8.2,1.5-12.4
			V60.8v-5.3C148.9,56.7,146.6,57.2,144.3,56.8z"/>
		<path class="st13" d="M130.9,76.2c-4.3,1.6-8.8,2.3-13.4,2.3h-1h-3.4v3.4v2.9h4.4c5.3,0,10.6-0.9,15.6-2.7L130.9,76.2z"/>
		<path class="st14" d="M113.1,61.2c-0.2-1.7-1.3-3.1-2.7-3.8c-0.6-0.3-1.3-0.4-2-0.4c-0.8,0-1.6,0.2-2.3,0.6
			c-1.4,0.8-2.4,2.4-2.4,4.1c0,0.3,0,0.6,0.1,0.9c0.3,1.7,1.6,3.1,3.3,3.6c0.4,0.1,0.9,0.2,1.4,0.2c0.8,0,1.6-0.2,2.3-0.6
			c1.4-0.8,2.4-2.4,2.4-4.1C113.1,61.5,113.1,61.3,113.1,61.2z"/>
		<path class="st14" d="M137.8,57.1c-0.3-0.1-0.6-0.1-0.9-0.1c-0.1,0-0.1,0-0.2,0c-1.9,0-3.6,1.2-4.4,2.9c-0.2,0.5-0.3,1-0.3,1.5
			c0,0.5,0,0.9,0.1,1.4c0.2,0.8,0.6,1.6,1.3,2.3c0.9,0.9,2.2,1.4,3.5,1.4c0.6,0,1.1-0.1,1.6-0.3c1.4-0.6,2.4-1.8,2.8-3.2
			c0.1-0.4,0.2-0.8,0.2-1.2C141.4,59.4,139.9,57.6,137.8,57.1z"/>
		<polygon class="st15" points="146.6,121.2 146.6,121.2 138.3,116.8 122.5,138.9 125.7,140.5 135.1,145.2 141.4,148.3 142,145.2 
			146.6,121.2 		"/>
		<polygon class="st15" points="113.1,125.6 112.3,124.5 106.8,116.8 98.5,121.2 98.5,121.2 98.5,121.2 103,145.2 103.6,148.3 
			109.9,145.2 119.4,140.5 122.5,138.9 		"/>
		<path class="st7" d="M95,43.9c0,0.1,0,0.2-0.1,0.3C95,44.1,95,44,95,43.9L95,43.9z"/>
		<path class="st7" d="M131.3,54.8c0.2,0,0.5,0.1,0.7,0.1C131.8,54.8,131.6,54.8,131.3,54.8z"/>
		<path class="st7" d="M133.2,55c0.2,0,0.4,0.1,0.6,0.1C133.7,55.1,133.4,55.1,133.2,55z"/>
		<path class="st7" d="M129.5,54.6c0.2,0,0.4,0,0.6,0.1C129.9,54.7,129.7,54.6,129.5,54.6z"/>
		<path class="st16" d="M143.7,43.9h-0.4h-0.1h-6.9h-23.1h0h-3.3h-5.2h-2.8h0h-0.6H95c0,0.1,0,0.2-0.1,0.3c0-0.1,0-0.2,0.1-0.3h-3.3
			c-1.3,3.2-0.7,6.8,1.4,9.5c0.1,0.1,0.2,0.3,0.4,0.4c0.2,0.2,0.4,0.5,0.7,0.7c2.1,1.9,5.1,2.8,8,2.4l3.8-0.6l4.3-0.7l0.6-0.1
			c0.8-0.1,1.5-0.2,2.3-0.3c4.9-0.7,9.8-0.8,14.7-0.5c-0.1,0-0.1,0-0.2,0c3.4-1.4,6.5-3.1,9.3-4.9c2.5-1.7,4.7-3.5,6.6-5.5l0,0l0,0
			C143.5,44,143.6,43.9,143.7,43.9z"/>
		<polygon class="st7" points="143.4,44.1 143.4,44.1 143.3,43.9 143.3,43.9 		"/>
		<path class="st8" d="M132,54.9c0.4,0,0.8,0.1,1.2,0.2C132.8,55,132.4,54.9,132,54.9z"/>
		<path class="st8" d="M130.1,54.7c0.4,0,0.8,0.1,1.3,0.1C130.9,54.7,130.5,54.7,130.1,54.7z"/>
		<path class="st8" d="M133.9,55.1c0.6,0.1,1.2,0.2,1.8,0.3C135.1,55.3,134.5,55.2,133.9,55.1z"/>
		<path class="st8" d="M127.8,54.5c0.6,0,1.1,0.1,1.7,0.1C128.9,54.6,128.4,54.5,127.8,54.5z"/>
		<path class="st15" d="M154.7,43.9H151h-0.9h0h-6.4c-0.1,0.1-0.1,0.1-0.2,0.2c0,0,0,0,0,0c-1.9,2-4.1,3.8-6.6,5.5
			c-2.8,1.8-5.9,3.5-9.3,4.9c0.1,0,0.1,0,0.2,0c0.6,0,1.1,0.1,1.7,0.1c0.2,0,0.4,0,0.6,0.1c0.4,0,0.8,0.1,1.3,0.1
			c0.2,0,0.5,0.1,0.7,0.1c0.4,0,0.8,0.1,1.2,0.2c0.2,0,0.4,0.1,0.6,0.1c0.6,0.1,1.2,0.2,1.8,0.3l1.2,0.2l2,0.3l5.4,0.9
			c2.3,0.4,4.6-0.1,6.6-1.3c0.4-0.2,0.8-0.5,1.1-0.8c0.3-0.3,0.6-0.6,0.9-0.9c1.6-1.7,2.5-4,2.5-6.4C155.4,46.2,155.2,45,154.7,43.9
			z"/>
		<g>
			<rect x="109.9" y="154.6" class="st9" width="6.3" height="6.3"/>
			<path class="st17" d="M71.9,126.4c-5.6,3.3-9.2,9.4-9.2,16.2v21.4h9.2V126.4z"/>
			<path class="st15" d="M78.9,124c-2.6,0.4-4.9,1.2-7,2.5v37.6h6.5h2.7v-40.4L78.9,124z"/>
			<polygon class="st17" points="81.1,123.6 81.1,164.1 84.7,164.1 87.9,164.1 87.9,195.6 90.3,195.6 90.3,122.3 			"/>
			<polygon class="st15" points="98.5,121.2 98.5,121.2 98.5,121.2 90.3,122.3 90.3,195.6 99.5,195.6 99.5,126.5 			"/>
			<polygon class="st17" points="103.6,148.3 103,145.2 99.5,126.5 99.5,195.6 105.7,195.6 108.7,195.6 108.7,145.8 			"/>
			<path class="st15" d="M109.9,145.2l-1.2,0.6v49.8h9.2v-54.4L109.9,145.2z M109.9,160.9v-6.3h6.3v6.3H109.9z"/>
			<polygon class="st17" points="125.7,140.5 125.7,145.2 125.7,170.4 119.4,170.4 119.4,145.2 119.4,140.5 117.9,141.2 
				117.9,195.6 127.1,195.6 127.1,141.2 			"/>
			<polygon class="st15" points="135.1,145.2 127.1,141.2 127.1,195.6 136.3,195.6 136.3,145.8 			"/>
			<polygon class="st17" points="142,145.2 141.4,148.3 136.3,145.8 136.3,195.6 145.6,195.6 145.6,126.5 			"/>
			<polygon class="st15" points="146.6,121.2 146.6,121.2 146.6,121.2 145.6,126.5 145.6,195.6 154.8,195.6 154.8,122.3 			"/>
			<polygon class="st17" points="154.8,122.3 154.8,195.6 157.2,195.6 157.2,164.1 164,164.1 164,123.6 			"/>
			<path class="st17" d="M182.3,141.3c0-0.3,0-0.5-0.1-0.8c0-0.1,0-0.2,0-0.3c0-0.3-0.1-0.6-0.1-1c0,0,0,0,0-0.1
				c-0.1-0.3-0.1-0.7-0.2-1c0-0.1,0-0.1,0-0.2c-0.1-0.3-0.1-0.6-0.2-0.8c0-0.1,0-0.1-0.1-0.2c-0.1-0.3-0.2-0.6-0.3-0.9c0,0,0,0,0,0
				c-0.1-0.3-0.3-0.6-0.4-1c0-0.1-0.1-0.1-0.1-0.2c-0.1-0.2-0.2-0.5-0.3-0.7c0-0.1-0.1-0.2-0.1-0.3c-0.1-0.2-0.3-0.5-0.4-0.7
				c0-0.1-0.1-0.1-0.1-0.2c-0.2-0.3-0.3-0.5-0.5-0.8c-0.1-0.1-0.1-0.2-0.2-0.3c-0.1-0.2-0.2-0.3-0.4-0.5c-0.1-0.1-0.2-0.2-0.2-0.3
				c-0.1-0.2-0.3-0.4-0.5-0.6c-0.1-0.1-0.2-0.2-0.2-0.3c-0.2-0.2-0.4-0.4-0.6-0.6c-0.1-0.1-0.2-0.2-0.3-0.3
				c-0.2-0.2-0.3-0.3-0.5-0.5c-0.1-0.1-0.2-0.1-0.2-0.2c-0.3-0.2-0.5-0.5-0.8-0.7c0,0,0,0,0,0c-0.3-0.2-0.6-0.4-0.8-0.6
				c0,0,0,0-0.1,0c-0.4-0.3-0.8-0.6-1.3-0.8v37.6h9.2v-21.4c0-0.3,0-0.7,0-1C182.4,141.5,182.4,141.4,182.3,141.3z"/>
			<path class="st15" d="M164,123.6v40.4h9.2v-37.6c-2.1-1.3-4.5-2.1-7-2.5L164,123.6z"/>
		</g>
		<rect x="62.7" y="163.4" class="st15" width="25.2" height="4.6"/>
		<rect x="157.2" y="163.4" class="st15" width="25.2" height="4.6"/>
		<path class="st18" d="M182.3,141.3c0-0.3,0-0.5-0.1-0.8c0-0.1,0-0.2,0-0.3c0-0.3-0.1-0.6-0.1-1c0,0,0,0,0-0.1
			c-0.1-0.3-0.1-0.7-0.2-1c0-0.1,0-0.1,0-0.2c-0.1-0.3-0.1-0.6-0.2-0.8c0-0.1,0-0.1-0.1-0.2c-0.1-0.3-0.2-0.6-0.3-0.9c0,0,0,0,0,0
			c-0.1-0.3-0.3-0.6-0.4-1c0-0.1-0.1-0.1-0.1-0.2c-0.1-0.2-0.2-0.5-0.3-0.7c0-0.1-0.1-0.2-0.1-0.3c-0.1-0.2-0.3-0.5-0.4-0.7
			c0-0.1-0.1-0.1-0.1-0.2c-0.2-0.3-0.3-0.5-0.5-0.8c-0.1-0.1-0.1-0.2-0.2-0.3c-0.1-0.2-0.2-0.3-0.4-0.5c-0.1-0.1-0.2-0.2-0.2-0.3
			c-0.1-0.2-0.3-0.4-0.5-0.6c-0.1-0.1-0.2-0.2-0.2-0.3c-0.2-0.2-0.4-0.4-0.6-0.6c-0.1-0.1-0.2-0.2-0.3-0.3c-0.2-0.2-0.3-0.3-0.5-0.5
			c-0.1-0.1-0.2-0.1-0.2-0.2c-0.3-0.2-0.5-0.5-0.8-0.7c0,0,0,0,0,0c-0.3-0.2-0.6-0.4-0.8-0.6c0,0,0,0-0.1,0
			c-18.9,37.3-41.6,53.8-68.7,68.3h51.4v-31.5h25.2v-21.4c0-0.3,0-0.7,0-1C182.4,141.5,182.4,141.4,182.3,141.3z"/>
		<g>
			<path class="st19" d="M144.1,14.3c-0.4-0.2-0.8-0.4-1.3-0.6c-0.3-0.1-0.7-0.3-1-0.4c-1.9-0.6-3.9-1-6-1h-25.2
				c-10.4,0-18.9,8.5-18.9,18.9v12.6H95h0h6.2h0.6h0h2.8h5.2h3.3h0h9.8C135.8,36.1,141.8,21.5,144.1,14.3z"/>
			<path class="st20" d="M143.3,43.9L143.3,43.9h0.4h6.4h0h0.9h3.8v-3.8v-8.8c0-7.3-4.2-13.8-10.6-17c-2.3,7.2-8.3,21.8-21.3,29.6
				h13.3H143.3z"/>
		</g>
	</g>
	<rect x="-0.1" y="12.6" class="st21" width="246.1" height="182.7"/>
</g>
</svg>
