<svg id="ARROW" xmlns="http://www.w3.org/2000/svg" width="34.047" height="34.047" viewBox="0 0 34.047 34.047">
  <defs>
    <style>
      .cls-1 {
        fill: #d71d24;
      }

      .cls-2 {
        fill: #fff;
      }
    </style>
  </defs>
  <circle id="Ellipse_5" data-name="Ellipse 5" class="cls-1" cx="17.024" cy="17.024" r="17.024" transform="translate(0)"/>
  <path id="Path_414" data-name="Path 414" class="cls-2" d="M1500.246,4348l.005-.006-.046-.043a2.53,2.53,0,0,0-.209-.2l-3.141-2.964-2.628-2.628a1.508,1.508,0,0,0-2.13,0l-2.628,2.628-3.141,2.964a2.547,2.547,0,0,0-.209.2l-.046.043.006.006a2.571,2.571,0,0,0,3.731,3.534h0l.011-.011.013-.013.749-.749v6.19a2.578,2.578,0,1,0,5.156,0v-6.19l.749.749.013.013.011.011h0a2.571,2.571,0,0,0,3.732-3.534Z" transform="translate(-1475.862 -4333.607)"/>
</svg>
