<?xml version="1.0" encoding="utf-8"?>
<!-- Generator: Adobe Illustrator 25.1.0, SVG Export Plug-In . SVG Version: 6.00 Build 0)  -->
<svg version="1.1" id="Layer_1" xmlns="http://www.w3.org/2000/svg" xmlns:xlink="http://www.w3.org/1999/xlink" x="0px" y="0px"
	 viewBox="0 0 246 157" style="enable-background:new 0 0 246 157;" xml:space="preserve">
<style type="text/css">
	.st0{clip-path:url(#SVGID_2_);}
	.st1{clip-path:url(#SVGID_4_);fill:#FFE07E;}
	.st2{clip-path:url(#SVGID_4_);fill:#FFD067;}
	.st3{clip-path:url(#SVGID_4_);fill:#E8AE4C;}
	.st4{fill:#FFE07E;}
	.st5{fill:#FFD067;}
	.st6{fill:#E8AE4C;}
	.st7{fill:#FCCAA5;}
	.st8{fill:#BFBFBD;}
	.st9{fill:#96583B;}
	.st10{fill:#904E2E;}
	.st11{fill:#E0E0DE;}
	.st12{fill:#FBB784;}
	.st13{fill:#F8A469;}
	.st14{fill:#3F4E63;}
	.st15{fill:#38465A;}
	.st16{fill:#23303D;}
	.st17{fill:#4E5E73;}
	.st18{fill:#FCC194;}
	.st19{fill:#93683B;}
	.st20{fill:#7F542A;}
	.st21{fill:#7B442B;}
	.st22{fill:#E6A42E;}
	.st23{opacity:0.15;clip-path:url(#SVGID_2_);fill:none;}
</style>
<g>
	<defs>
		<rect id="SVGID_1_" x="-0.1" y="-0.1" width="246.1" height="157.2"/>
	</defs>
	<clipPath id="SVGID_2_">
		<use xlink:href="#SVGID_1_"  style="overflow:visible;"/>
	</clipPath>
	<g class="st0">
		<g>
			<defs>
				<rect id="SVGID_3_" x="14.4" y="53" width="81.1" height="103.2"/>
			</defs>
			<clipPath id="SVGID_4_">
				<use xlink:href="#SVGID_3_"  style="overflow:visible;"/>
			</clipPath>
			<path class="st1" d="M35.1,144.8l14.4-34.7l-11.5-4.8l-16.6,40c-0.7,1.7,0.9,3.4,2.6,2.9l9.4-2.9c0.3-0.1,0.5-0.1,0.8-0.1
				L35.1,144.8z M35.1,144.8"/>
			<path class="st2" d="M48.8,109.9l-14.7,35.4c0.7,0.1,1.4,0.5,1.7,1.1l4.6,8.7c0.9,1.6,3.2,1.5,3.9-0.2l16.6-40L48.8,109.9z
				 M48.8,109.9"/>
			<path class="st1" d="M61.4,109.7l-12.4,5.2l16.6,40c0.7,1.7,3,1.8,3.9,0.2l4.6-8.7c0.1-0.3,0.3-0.5,0.6-0.7l1.1-1.4L61.4,109.7z
				 M61.4,109.7"/>
			<path class="st2" d="M88.5,145.3l-16.6-40l-12.1,5l14.6,35.4c0.5-0.4,1.3-0.6,2-0.4l9.4,2.9C87.7,148.7,89.2,147,88.5,145.3
				L88.5,145.3z M88.5,145.3"/>
			<path class="st3" d="M59.1,54.5c1.7,1.4,4,1.8,6.1,1.1c3-0.9,6.2,0.3,7.8,3c1.1,1.9,3.1,3.1,5.3,3.3c3.1,0.2,5.6,2.5,6.1,5.6
				c0.4,2.2,1.8,4,3.8,5c2.8,1.3,4.4,4.4,3.7,7.4c-0.5,2.2,0.2,4.4,1.7,6c2.1,2.2,2.5,5.7,0.8,8.3c-1.2,1.9-1.4,4.2-0.6,6.2
				c1.2,2.9,0.2,6.2-2.3,8c-1.8,1.3-2.8,3.4-2.8,5.6c0.1,3.1-2,5.9-5,6.6c-2.1,0.6-3.9,2.1-4.6,4.2c-1.1,2.9-4,4.7-7.1,4.4
				c-2.2-0.3-4.4,0.6-5.8,2.3c-2,2.3-5.4,3-8.2,1.5c-2-1-4.3-1-6.3,0c-2.7,1.5-6.1,0.8-8.2-1.5c-1.5-1.7-3.6-2.5-5.8-2.3
				c-3.1,0.4-6-1.5-7.1-4.4c-0.7-2.1-2.5-3.7-4.6-4.2c-3-0.8-5.1-3.5-5-6.6c0.1-2.2-1-4.3-2.8-5.6c-2.5-1.8-3.5-5.1-2.3-8
				c0.8-2,0.6-4.4-0.6-6.2c-1.7-2.6-1.4-6,0.8-8.3c1.5-1.6,2.2-3.8,1.7-6c-0.6-3,0.9-6.1,3.7-7.4c2-0.9,3.4-2.8,3.8-5
				c0.5-3.1,3-5.4,6.1-5.6c2.2-0.2,4.2-1.4,5.3-3.3c1.6-2.7,4.8-3.9,7.8-3c2.1,0.7,4.4,0.2,6.1-1.1C53.2,52.6,56.7,52.6,59.1,54.5
				L59.1,54.5z M59.1,54.5"/>
		</g>
		<path class="st4" d="M73.2,93.5c0-13.6-8.8-25.2-21-29.4c-15,1.4-26.7,14-26.7,29.4c0,15.4,11.7,28,26.7,29.4
			C64.4,118.7,73.2,107.1,73.2,93.5L73.2,93.5z M73.2,93.5"/>
		<path class="st5" d="M54.9,63.9c-2.3,0-4.5,0.3-6.6,0.7c13.1,3,22.9,14.7,22.9,28.8c0,14-9.8,25.8-22.9,28.8
			c2.1,0.5,4.3,0.7,6.6,0.7c16.3,0,29.5-13.2,29.5-29.5C84.5,77.2,71.2,63.9,54.9,63.9L54.9,63.9z M54.9,63.9"/>
		<path class="st6" d="M52.4,89.1l-2-0.1c0,0,0,0,0,0l-4.7-0.2c-0.3,0-0.6-0.2-0.7-0.5l-2.3-6.3c-0.3-0.7-1.2-0.7-1.5,0l-2.3,6.3
			c-0.1,0.3-0.4,0.5-0.7,0.5l-6.7,0.2c-0.7,0-1,1-0.5,1.4l5.3,4.1c0.3,0.2,0.4,0.5,0.3,0.8l-1.8,6.5c-0.2,0.7,0.6,1.3,1.2,0.9
			l5.6-3.8c0.3-0.2,0.6-0.2,0.9,0l5.3,3.5c0,0,0,0,0,0l0.3,0.2c0,0,0.1,0.1,0.1,0.1c0,0,0,0,0,0c0,0,0.1,0,0.1,0c0,0,0,0,0,0
			c0.1,0,0.1,0,0.2,0c0,0,0,0,0,0c0,0,0.1,0,0.1,0c0,0,0,0,0,0c0,0,0,0,0,0c0.3-0.1,0.6-0.4,0.6-0.8c0,0,0,0,0,0c0,0,0,0,0,0
			c0,0,0-0.1,0-0.1l-0.3-1.2c0,0,0,0,0,0l-1.5-5.3c-0.1-0.3,0-0.6,0.3-0.8l4.3-3.3c0,0,0,0,0,0l1-0.8C53.5,90.1,53.2,89.2,52.4,89.1
			z"/>
		<g>
			<path class="st7" d="M109,101.3V80.6h29.6v20.7l8.9,8.9l-23.7,62.2l-23.7-62.2L109,101.3z M109,101.3"/>
			<path class="st8" d="M147.4,110.2l-23.7,62.2l-23.7-62.2l8.9-8.9l14.8,14.8l14.8-14.8L147.4,110.2z M147.4,110.2"/>
			<path class="st8" d="M100.1,110.2l23.7,62.2l23.7-62.2l-8.9-8.9l-14.8,14.8L109,101.3L100.1,110.2z M100.1,110.2"/>
			<path class="st9" d="M129.7,110.2v62.2h-11.8v-62.2l5.9,5.9L129.7,110.2z M129.7,110.2"/>
			<path class="st10" d="M129.7,145.4v26.9h-11.8v-16.4C121.9,152.6,125.8,149.1,129.7,145.4L129.7,145.4z M129.7,145.4"/>
			<path class="st11" d="M123.8,116.1l-14.8,17.3l-8.8-23.2l8.9-8.9L123.8,116.1z M123.8,116.1"/>
			<path class="st11" d="M147.4,110.2l-8.8,23.2l-14.8-17.3l14.8-14.8L147.4,110.2z M147.4,110.2"/>
			<path class="st12" d="M138.6,93.8v-7.3H109v7.3C117.9,99.8,129.6,99.8,138.6,93.8L138.6,93.8z M138.6,93.8"/>
			<path class="st13" d="M120.4,71.7"/>
			<path class="st14" d="M180,130.6v56.5H67.5v-56.5c0-6.8,4.6-12.7,11.2-14.4l12.5-3.1l8.9-3l23.7,62.2l23.7-62.2l8.9,3l12.5,3.1
				C175.4,117.9,180,123.8,180,130.6L180,130.6z M180,130.6"/>
			<path class="st15" d="M180,131.6v55.6h-80C127.2,179.3,160,163.4,180,131.6L180,131.6z M180,131.6"/>
			<rect x="120.8" y="172.3" class="st16" width="5.9" height="14.8"/>
			<rect x="109" y="175.3" class="st16" width="5.9" height="5.9"/>
			<rect x="85.3" y="160.5" class="st16" width="5.9" height="26.6"/>
			<rect x="156.3" y="160.5" class="st16" width="5.9" height="26.6"/>
			<path class="st17" d="M91.2,113.1l-3,29.6h11.8l-3,11.8l26.6,17.8l-23.7-62.2L91.2,113.1z M91.2,113.1"/>
			<g>
				<path class="st17" d="M156.3,113.1l3,29.6h-11.8l3,11.8l-26.6,17.8l23.7-62.2L156.3,113.1z M156.3,113.1"/>
			</g>
		</g>
		<rect x="91.2" y="34.5" class="st9" width="65.1" height="26.6"/>
		<path class="st7" d="M117.7,90.7c-11.4-0.1-20.6-9.3-20.6-20.7V43.3c0-14.4,11.4-26.2,25.8-26.6c0.3,0,0.6,0,0.9,0
			c14.7,0,26.6,11.9,26.6,26.6l0,0V70c0,11.4-9.3,20.7-20.7,20.7"/>
		<path class="st7" d="M150.4,43.3"/>
		<path class="st18" d="M117.7,90.7c11.6-5.3,19-16.9,19-29.6V43.3c0-10.6-5.2-20.5-13.8-26.6c0.3,0,0.6,0,0.9,0
			c14.7,0,26.6,11.9,26.6,26.6l0,0V70c0,11.4-9.3,20.7-20.7,20.7"/>
		<path class="st18" d="M150.4,43.3"/>
		<path class="st13" d="M121.1,72.9h-6.3V67h6.3c3.6,0,7.2-0.5,10.6-1.6l1.7,5.7C129.5,72.3,125.3,72.9,121.1,72.9L121.1,72.9z
			 M121.1,72.9"/>
		<path class="st19" d="M141.5,16.7v8.9h-29.6c-5.2,0-9.8,3.6-11,8.6l-1.6,6.5c-1.3,5.1-5.8,8.6-11,8.6v-18c0-3.7,1-7.3,2.9-10.5
			c3.7-6.2,10.4-9.9,17.6-9.9h23.2C136,10.8,139.7,13.1,141.5,16.7L141.5,16.7z M141.5,16.7"/>
		<path class="st20" d="M141.5,16.7v8.9l8.9,20.7h5.9V25.7c0-2-0.6-3.9-1.7-5.6c-2.5-3.8-7.2-5.4-11.5-3.9L141.5,16.7z M141.5,16.7"
			/>
		<path class="st12" d="M153.4,46.3h-3v17.8h3c4.9,0,8.9-4,8.9-8.9S158.3,46.3,153.4,46.3L153.4,46.3z M153.4,46.3"/>
		<path class="st12" d="M94.3,46.3h-0.1c-4.9,0-8.9,4-8.9,8.9s4,8.9,8.9,8.9h3V46.3H94.3z M94.3,46.3"/>
		<path class="st21" d="M110.4,43.3c-1.8,0-3.4,1.1-4.1,2.7c-0.7,1.7-0.3,3.6,1,4.8c1.3,1.3,3.2,1.6,4.8,1c1.7-0.7,2.7-2.3,2.7-4.1
			C114.9,45.3,112.9,43.3,110.4,43.3L110.4,43.3z M110.4,43.3"/>
		<path class="st21" d="M137.1,43.3c-1.8,0-3.4,1.1-4.1,2.7c-0.7,1.7-0.3,3.6,1,4.8c1.3,1.3,3.2,1.6,4.8,1c1.7-0.7,2.7-2.3,2.7-4.1
			C141.5,45.3,139.5,43.3,137.1,43.3L137.1,43.3z M137.1,43.3"/>
		<path class="st20" d="M141.5,16.7c-1.8-3.6-5.5-5.9-9.6-5.9h-12c4.2,3.8,8.6,8.8,11.9,14.8h9.7V16.7z M141.5,16.7"/>
		<g>
			<path class="st6" d="M70.7,87.6l-2-5.5c-0.3-0.7-1.2-0.7-1.5,0l-2.3,6.3c-0.1,0.3-0.4,0.5-0.7,0.5l-6.7,0.2c-0.7,0-1,1-0.5,1.4
				l5.3,4.1c0.3,0.2,0.4,0.5,0.3,0.8l-1.8,6.5c-0.2,0.7,0.6,1.3,1.2,0.9l5.6-3.8c0.3-0.2,0.6-0.2,0.9,0l2.1,1.4
				c0.6-2.3,0.9-4.6,0.9-7.1C71.3,91.5,71.1,89.5,70.7,87.6z"/>
			<path class="st5" d="M54.9,63.9c-2.3,0-4.5,0.3-6.6,0.7c11.3,2.6,20.1,11.6,22.4,22.9l0.3,0.8c0.1,0.3,0.4,0.5,0.7,0.5l4.7,0.2
				c0,0,0,0,0,0l2,0.1c0.7,0,1,1,0.5,1.4l-1,0.8c0,0,0,0,0,0l-4.3,3.3c-0.3,0.2-0.4,0.5-0.3,0.8l1.5,5.3c0,0,0,0,0,0l0.3,1.2
				c0,0,0,0.1,0,0.1c0,0,0,0,0,0c0,0,0,0,0,0c0,0.4-0.2,0.7-0.6,0.8c0,0,0,0,0,0c0,0,0,0,0,0c0,0-0.1,0-0.1,0c0,0,0,0,0,0
				c0,0-0.1,0-0.2,0c0,0,0,0,0,0c0,0-0.1,0-0.1,0c0,0,0,0,0,0c-0.1,0-0.1,0-0.1-0.1l-0.3-0.2c0,0,0,0,0,0l-3.2-2.2
				c-2.7,10.8-11.2,19.2-22.1,21.7c2.1,0.5,4.3,0.7,6.6,0.7c16.3,0,29.5-13.2,29.5-29.5C84.5,77.2,71.2,63.9,54.9,63.9z"/>
			<path class="st22" d="M73.6,102.7l0.3,0.2c0,0,0.1,0.1,0.1,0.1c0,0,0,0,0,0c0,0,0.1,0,0.1,0c0,0,0,0,0,0c0.1,0,0.1,0,0.2,0
				c0,0,0,0,0,0c0,0,0.1,0,0.1,0c0,0,0,0,0,0c0,0,0,0,0,0c0.3-0.1,0.6-0.4,0.6-0.8c0,0,0,0,0,0c0,0,0,0,0,0c0,0,0-0.1,0-0.1
				l-0.3-1.2c0,0,0,0,0,0l-1.5-5.3c-0.1-0.3,0-0.6,0.3-0.8l4.3-3.3c0,0,0,0,0,0l1-0.8c0.6-0.5,0.3-1.4-0.5-1.4l-2-0.1c0,0,0,0,0,0
				l-4.7-0.2c-0.3,0-0.6-0.2-0.7-0.5l-0.3-0.8c0.4,1.9,0.6,3.8,0.6,5.8c0,2.4-0.3,4.8-0.9,7.1L73.6,102.7
				C73.6,102.7,73.6,102.7,73.6,102.7z"/>
		</g>
	</g>
	<rect x="-0.1" y="12.5" class="st23" width="246.1" height="182.7"/>
</g>
</svg>
