<?xml version="1.0" encoding="utf-8"?>
<!-- Generator: Adobe Illustrator 25.1.0, SVG Export Plug-In . SVG Version: 6.00 Build 0)  -->
<svg version="1.1" id="Layer_1" xmlns="http://www.w3.org/2000/svg" xmlns:xlink="http://www.w3.org/1999/xlink" x="0px" y="0px"
	 viewBox="0 0 1000 1000" style="enable-background:new 0 0 1000 1000;" xml:space="preserve">
<style type="text/css">
	.st0{fill:#D71F29;}
</style>
<g>
	<polygon class="st0" points="525.7,621.4 525.7,516.6 436.3,621.4 	"/>
	<path class="st0" d="M869,96.5H131c-1.8,0-3.2-1.4-3.2-3.2V55.5c0-1.8,1.4-3.2,3.2-3.2H869c1.8,0,3.2,1.4,3.2,3.2v37.8
		C872.3,95.1,870.8,96.5,869,96.5z"/>
	<g>
		<path class="st0" d="M566.3,138.5l-66.9,140.1l-65.8,0V138.4l39.4,0v106.4l48.7-106.4L566.3,138.5z"/>
		<path class="st0" d="M872.3,245.7v33.1l-132,0l0-140.2l38,0v107.1L872.3,245.7z"/>
		<path class="st0" d="M419.6,173.8v51.6l-110.9,0v9c-0.1,2.2,0.1,4.1,0.6,5.7c1.2,3.7,3.8,5.5,8.5,5.5l101.8,0v33.1l-110.1,0
			c-20.6,0-33.1-6.5-37.5-19.4c-1.2-3.6-1.3-9.2-1.3-16.7l0-93.2c0.1-7.3,5.1-10.9,15-10.9l103.2,0c14.8,0,24.2,6.1,28.4,18.3
			C418.9,161.4,419.7,167,419.6,173.8z M381,180.7c0-0.7-0.1-1.5-0.4-2.3c-1.5-4.5-5.2-6.8-10.9-6.8l-49.2,0c-4.2,0-7.1,0.3-8.7,0.9
			c-2.1,0.9-3.1,2.7-3,5.2v14.6l72.4,0L381,180.7z"/>
		<path class="st0" d="M724.7,173.8v51.6l-110.9,0v9c-0.1,2.2,0.1,4.1,0.6,5.7c1.2,3.7,3.8,5.5,8.5,5.5l101.8,0v33.1l-110.1,0
			c-20.6,0-33.1-6.5-37.5-19.4c-1.2-3.6-1.3-9.2-1.3-16.7l0-93.2c0.1-7.3,5.1-10.9,15-10.9l103.2,0c14.8,0,24.2,6.1,28.4,18.3
			C723.9,161.4,724.7,167,724.7,173.8z M686,180.7c0-0.7-0.1-1.5-0.4-2.3c-1.5-4.5-5.2-6.8-10.9-6.8l-49.2,0c-4.2,0-7.1,0.3-8.7,0.9
			c-2.1,0.9-3.1,2.7-3,5.2v14.6l72.4,0L686,180.7z"/>
		<path class="st0" d="M259.7,245.7v33.1l-132,0l0-140.2l38,0v107.1L259.7,245.7z"/>
	</g>
	<g>
		<path class="st0" d="M244.1,320.7H140.1c-6.8,0-12.4,5.5-12.4,12.4v421.6c0,4.7,2.6,9,6.8,11.1l103.9,52.2c8.2,4.1,18-1.8,18-11.1
			V333.1C256.5,326.2,250.9,320.7,244.1,320.7z"/>
		<path class="st0" d="M669.5,320.7h-339c-7.7,0-14,6.3-14,14v513.9c0,5.3,3,10.1,7.7,12.5l169.5,85.2c4,2,8.6,2,12.6,0L675.8,861
			c4.7-2.4,7.7-7.2,7.7-12.5V334.7C683.5,326.9,677.2,320.7,669.5,320.7z M596.4,695.5V740c0,7.7-6.3,14-14,14h-42.6
			c-7.7,0-14-6.3-14-14v-44.5c0-7.7-6.3-14-14-14H372.5c-6.5,0-12.2-4.5-13.7-10.9l-7.9-34.6c-1-4.3,0.1-8.9,3-12.3l175.7-203.6
			c2.7-3.1,6.5-4.9,10.6-4.9h42c7.7,0,14,6.3,14,14v178.1c0,7.7,6.3,14,14,14h17.2c7.7,0,14,6.3,14,14v32.1c0,7.7-6.3,14-14,14
			h-17.2C602.6,681.5,596.4,687.7,596.4,695.5z"/>
		<path class="st0" d="M743.5,333.1v473.8c0,9.2,9.7,15.2,18,11.1l103.9-52.2c4.2-2.1,6.8-6.4,6.8-11.1V333.1
			c0-6.8-5.5-12.4-12.4-12.4H755.9C749.1,320.7,743.5,326.2,743.5,333.1z"/>
	</g>
</g>
</svg>
