<?xml version="1.0" encoding="utf-8"?>
<!-- Generator: Adobe Illustrator 25.1.0, SVG Export Plug-In . SVG Version: 6.00 Build 0)  -->
<svg version="1.1" id="Layer_1" xmlns="http://www.w3.org/2000/svg" xmlns:xlink="http://www.w3.org/1999/xlink" x="0px" y="0px"
	 viewBox="0 0 1000 1000" style="enable-background:new 0 0 1000 1000;" xml:space="preserve">
<style type="text/css">
	.st0{fill:#D71F29;}
</style>
<g>
	<path class="st0" d="M869,96.5H131c-1.8,0-3.2-1.4-3.2-3.2V55.5c0-1.8,1.4-3.2,3.2-3.2H869c1.8,0,3.2,1.4,3.2,3.2v37.8
		C872.3,95.1,870.8,96.5,869,96.5z"/>
	<g>
		<path class="st0" d="M566.3,138.5l-66.9,140.1l-65.8,0V138.4l39.4,0v106.4l48.7-106.4L566.3,138.5z"/>
		<path class="st0" d="M872.3,245.7v33.1l-132,0l0-140.2l38,0v107.1L872.3,245.7z"/>
		<path class="st0" d="M419.6,173.8v51.6l-110.9,0v9c-0.1,2.2,0.1,4.1,0.6,5.7c1.2,3.7,3.8,5.5,8.5,5.5l101.8,0v33.1l-110.1,0
			c-20.6,0-33.1-6.5-37.5-19.4c-1.2-3.6-1.3-9.2-1.3-16.7l0-93.2c0.1-7.3,5.1-10.9,15-10.9l103.2,0c14.8,0,24.2,6.1,28.4,18.3
			C418.9,161.4,419.7,167,419.6,173.8z M381,180.7c0-0.7-0.1-1.5-0.4-2.3c-1.5-4.5-5.2-6.8-10.9-6.8l-49.2,0c-4.2,0-7.1,0.3-8.7,0.9
			c-2.1,0.9-3.1,2.7-3,5.2v14.6l72.4,0L381,180.7z"/>
		<path class="st0" d="M724.7,173.8v51.6l-110.9,0v9c-0.1,2.2,0.1,4.1,0.6,5.7c1.2,3.7,3.8,5.5,8.5,5.5l101.8,0v33.1l-110.1,0
			c-20.6,0-33.1-6.5-37.5-19.4c-1.2-3.6-1.3-9.2-1.3-16.7l0-93.2c0.1-7.3,5.1-10.9,15-10.9l103.2,0c14.8,0,24.2,6.1,28.4,18.3
			C723.9,161.4,724.7,167,724.7,173.8z M686,180.7c0-0.7-0.1-1.5-0.4-2.3c-1.5-4.5-5.2-6.8-10.9-6.8l-49.2,0c-4.2,0-7.1,0.3-8.7,0.9
			c-2.1,0.9-3.1,2.7-3,5.2v14.6l72.4,0L686,180.7z"/>
		<path class="st0" d="M259.7,245.7v33.1l-132,0l0-140.2l38,0v107.1L259.7,245.7z"/>
	</g>
	<g>
		<path class="st0" d="M244.1,320.7H140.1c-6.8,0-12.4,5.5-12.4,12.4v421.6c0,4.7,2.6,9,6.8,11.1l103.9,52.2c8.2,4.1,18-1.8,18-11.1
			V333.1C256.5,326.2,250.9,320.7,244.1,320.7z"/>
		<path class="st0" d="M669.5,320.7h-339c-7.7,0-14,6.3-14,14v513.9c0,5.3,3,10.1,7.7,12.5l169.5,85.2c4,2,8.6,2,12.6,0L675.8,861
			c4.7-2.4,7.7-7.2,7.7-12.5V334.7C683.5,326.9,677.2,320.7,669.5,320.7z M588.4,728.3c-11.1,10.1-24.6,17.9-40.5,23.3
			c-15.9,5.4-33.5,8.2-52.7,8.2c-27.2,0-50.9-4.5-71.1-13.4c-15.9-7-30.7-16.2-44.2-27.4c-6-5-6.8-13.9-1.8-19.8l26.9-32
			c4.9-5.8,13.5-6.6,19.5-1.9c9.3,7.4,18.7,13.4,28,18.1c12.8,6.4,26.7,9.6,41.8,9.6c17.3,0,31-4,41.1-12.1
			c10.1-8,15.1-19.8,15.1-35.3c0-14.8-5.4-26.3-16.1-34.3c-10.7-8.1-25.2-12.1-43.5-12.1c-10.6,0-20.6,1.2-30,3.6
			c-6.9,1.8-13.4,3.8-19.6,6.2c-4.2,1.6-9,1.1-12.8-1.4l-29.9-19.8c-4.2-2.8-6.5-7.5-6.2-12.5l8.4-144.6c0.4-7.4,6.6-13.2,14-13.2
			h179.8c7.7,0,14,6.3,14,14v36.9c0,7.7-6.3,14-14,14H478c-7.4,0-13.5,5.7-14,13.1l-1.8,26.7c-0.6,9.1,7.5,16.3,16.4,14.7
			c0.8-0.1,1.7-0.3,2.5-0.4c6.7-1.1,14.7-1.7,24-1.7c16.7,0,32.1,2.1,46.4,6.2c14.3,4.2,26.8,10.6,37.4,19.2
			c10.6,8.6,19,19.8,25.2,33.4c6.1,13.6,9.2,30,9.2,49.3c0,17.9-3.1,34.1-9.2,48.5C608.2,706,599.6,718.2,588.4,728.3z"/>
		<path class="st0" d="M743.5,333.1v473.8c0,9.2,9.7,15.2,18,11.1l103.9-52.2c4.2-2.1,6.8-6.4,6.8-11.1V333.1
			c0-6.8-5.5-12.4-12.4-12.4H755.9C749.1,320.7,743.5,326.2,743.5,333.1z"/>
	</g>
</g>
</svg>
