<?xml version="1.0" encoding="utf-8"?>
<!-- Generator: Adobe Illustrator 25.1.0, SVG Export Plug-In . SVG Version: 6.00 Build 0)  -->
<svg version="1.1" id="Layer_1" xmlns="http://www.w3.org/2000/svg" xmlns:xlink="http://www.w3.org/1999/xlink" x="0px" y="0px"
	 viewBox="0 0 1000 1000" style="enable-background:new 0 0 1000 1000;" xml:space="preserve">
<style type="text/css">
	.st0{fill:#D71F29;}
</style>
<path class="st0" d="M869,95.8H130.9c-1.8,0-3.2-1.4-3.2-3.2V54.8c0-1.8,1.4-3.2,3.2-3.2H869c1.8,0,3.2,1.4,3.2,3.2v37.8
	C872.2,94.4,870.7,95.8,869,95.8z"/>
<g>
	<path class="st0" d="M669.4,319.9h-339c-7.7,0-14,6.3-14,14v513.9c0,5.3,3,10.1,7.7,12.5l169.5,85.2c4,2,8.6,2,12.6,0l169.5-85.2
		c4.7-2.4,7.7-7.2,7.7-12.5V333.9C683.4,326.2,677.1,319.9,669.4,319.9z M484.1,739.3V507.4c0-9.1-8.5-15.8-17.4-13.6l-27.8,6.8
		c-7.5,1.8-15-2.7-16.9-10.2l-8.6-34c-1.8-7.3,2.4-14.7,9.6-16.9l81.8-24.4c1.3-0.4,2.7-0.6,4-0.6h34.4c7.7,0,14,6.3,14,14v310.8
		c0,7.7-6.3,14-14,14h-45C490.3,753.3,484.1,747,484.1,739.3z"/>
	<path class="st0" d="M244,319.9H140.1c-6.8,0-12.4,5.5-12.4,12.4v421.6c0,4.7,2.6,9,6.8,11.1l103.9,52.2c8.2,4.1,18-1.8,18-11.1
		V332.3C256.4,325.5,250.8,319.9,244,319.9z"/>
	<path class="st0" d="M743.5,332.3v473.8c0,9.2,9.7,15.2,18,11.1L865.4,765c4.2-2.1,6.8-6.4,6.8-11.1V332.3
		c0-6.8-5.5-12.4-12.4-12.4H755.9C749,319.9,743.5,325.5,743.5,332.3z"/>
</g>
<g>
	<path class="st0" d="M566.2,137.8L499.3,278l-65.8,0V137.8l39.4,0v106.4l48.7-106.4L566.2,137.8z"/>
	<path class="st0" d="M872.2,245v33.1l-132,0l0-140.2l38,0V245L872.2,245z"/>
	<path class="st0" d="M419.6,173.2v51.6l-110.9,0v9c-0.1,2.2,0.1,4.1,0.6,5.7c1.2,3.7,3.8,5.5,8.5,5.5l101.8,0V278l-110.1,0
		c-20.6,0-33.1-6.5-37.5-19.4c-1.2-3.6-1.3-9.2-1.3-16.7l0-93.2c0.1-7.3,5.1-10.9,15-10.9l103.2,0c14.8,0,24.2,6.1,28.4,18.3
		C418.8,160.7,419.6,166.4,419.6,173.2z M380.9,180c0-0.7-0.1-1.5-0.4-2.3c-1.5-4.5-5.2-6.8-10.9-6.8l-49.2,0
		c-4.2,0-7.1,0.3-8.7,0.9c-2.1,0.9-3.1,2.7-3,5.2v14.6l72.4,0L380.9,180z"/>
	<path class="st0" d="M724.6,173.2v51.6l-110.9,0v9c-0.1,2.2,0.1,4.1,0.6,5.7c1.2,3.7,3.8,5.5,8.5,5.5l101.8,0V278l-110.1,0
		c-20.6,0-33.1-6.5-37.5-19.4c-1.2-3.6-1.3-9.2-1.3-16.7l0-93.2c0.1-7.3,5.1-10.9,15-10.9l103.2,0c14.8,0,24.2,6.1,28.4,18.3
		C723.8,160.7,724.6,166.4,724.6,173.2z M685.9,180c0-0.7-0.1-1.5-0.4-2.3c-1.5-4.5-5.2-6.8-10.9-6.8l-49.2,0
		c-4.2,0-7.1,0.3-8.7,0.9c-2.1,0.9-3.1,2.7-3,5.2v14.6l72.4,0L685.9,180z"/>
	<path class="st0" d="M259.6,245v33.1l-132,0l0-140.2l38,0V245L259.6,245z"/>
</g>
</svg>
