<?xml version="1.0" encoding="utf-8"?>
<!-- Generator: Adobe Illustrator 25.1.0, SVG Export Plug-In . SVG Version: 6.00 Build 0)  -->
<svg version="1.1" id="Layer_1" xmlns="http://www.w3.org/2000/svg" xmlns:xlink="http://www.w3.org/1999/xlink" x="0px" y="0px"
	 viewBox="0 0 1000 1000" style="enable-background:new 0 0 1000 1000;" xml:space="preserve">
<style type="text/css">
	.st0{fill:#D71F29;}
</style>
<g>
	<path class="st0" d="M869,96.5H131c-1.8,0-3.2-1.4-3.2-3.2V55.5c0-1.8,1.4-3.2,3.2-3.2H869c1.8,0,3.2,1.4,3.2,3.2v37.8
		C872.3,95.1,870.8,96.5,869,96.5z"/>
	<g>
		<path class="st0" d="M566.3,138.5l-66.9,140.1l-65.8,0V138.4l39.4,0v106.4l48.7-106.4L566.3,138.5z"/>
		<path class="st0" d="M872.3,245.7v33.1l-132,0l0-140.2l38,0v107.1L872.3,245.7z"/>
		<path class="st0" d="M419.6,173.8v51.6l-110.9,0v9c-0.1,2.2,0.1,4.1,0.6,5.7c1.2,3.7,3.8,5.5,8.5,5.5l101.8,0v33.1l-110.1,0
			c-20.6,0-33.1-6.5-37.5-19.4c-1.2-3.6-1.3-9.2-1.3-16.7l0-93.2c0.1-7.3,5.1-10.9,15-10.9l103.2,0c14.8,0,24.2,6.1,28.4,18.3
			C418.9,161.4,419.7,167,419.6,173.8z M381,180.7c0-0.7-0.1-1.5-0.4-2.3c-1.5-4.5-5.2-6.8-10.9-6.8l-49.2,0c-4.2,0-7.1,0.3-8.7,0.9
			c-2.1,0.9-3.1,2.7-3,5.2v14.6l72.4,0L381,180.7z"/>
		<path class="st0" d="M724.7,173.8v51.6l-110.9,0v9c-0.1,2.2,0.1,4.1,0.6,5.7c1.2,3.7,3.8,5.5,8.5,5.5l101.8,0v33.1l-110.1,0
			c-20.6,0-33.1-6.5-37.5-19.4c-1.2-3.6-1.3-9.2-1.3-16.7l0-93.2c0.1-7.3,5.1-10.9,15-10.9l103.2,0c14.8,0,24.2,6.1,28.4,18.3
			C723.9,161.4,724.7,167,724.7,173.8z M686,180.7c0-0.7-0.1-1.5-0.4-2.3c-1.5-4.5-5.2-6.8-10.9-6.8l-49.2,0c-4.2,0-7.1,0.3-8.7,0.9
			c-2.1,0.9-3.1,2.7-3,5.2v14.6l72.4,0L686,180.7z"/>
		<path class="st0" d="M259.7,245.7v33.1l-132,0l0-140.2l38,0v107.1L259.7,245.7z"/>
	</g>
	<g>
		<path class="st0" d="M244.1,320.7H140.1c-6.8,0-12.4,5.5-12.4,12.4v421.6c0,4.7,2.6,9,6.8,11.1l103.9,52.2c8.2,4.1,18-1.8,18-11.1
			V333.1C256.5,326.2,250.9,320.7,244.1,320.7z"/>
		<path class="st0" d="M669.5,320.7h-339c-7.7,0-14,6.3-14,14v513.9c0,5.3,3,10.1,7.7,12.5l169.5,85.2c4,2,8.6,2,12.6,0L675.8,861
			c4.7-2.4,7.7-7.2,7.7-12.5V334.7C683.5,326.9,677.2,320.7,669.5,320.7z M373.9,740v-37.9c0-4.2,1.9-8.2,5.1-10.8l106.8-87.4
			c10.6-8.6,19.5-16.4,26.9-23.3c7.4-6.9,13.4-13.4,18-19.7c4.6-6.2,8-12.3,10.1-18.2c2.1-5.9,3.1-12.4,3.1-19.4
			c0-14.4-4.2-25.3-12.5-32.6c-8.3-7.4-19.2-11-32.7-11c-13.1,0-24.8,3.7-34.8,11.1c-7.7,5.6-16.1,13.6-25.3,23.9
			c-4.9,5.6-13.4,6.3-19.3,1.6l-30.6-24.6c-6-4.9-7-13.7-2.1-19.7c5.5-6.8,11.1-13.1,16.6-18.8c8.5-8.7,17.6-16.1,27.4-22
			c9.8-6,20.6-10.5,32.4-13.6c11.8-3.1,25.3-4.6,40.4-4.6c17.9,0,34,2.5,48.3,7.4c14.2,5,26.4,12,36.5,21.1
			c10.1,9.1,17.8,20.1,23.1,32.9c5.3,12.8,7.9,27.1,7.9,42.8c0,14.1-1.8,26.7-5.5,37.7c-3.7,11.1-9.1,21.5-16.3,31.5
			c-7.2,9.9-16.4,19.8-27.6,29.6c-11.2,9.8-24.2,20.4-38.9,32L508.7,665c-10.6,8.2-4.8,25.1,8.6,25.1h91.5c7.7,0,14,6.3,14,14V740
			c0,7.7-6.3,14-14,14H387.9C380.1,754,373.9,747.8,373.9,740z"/>
		<path class="st0" d="M743.5,333.1v473.8c0,9.2,9.7,15.2,18,11.1l103.9-52.2c4.2-2.1,6.8-6.4,6.8-11.1V333.1
			c0-6.8-5.5-12.4-12.4-12.4H755.9C749.1,320.7,743.5,326.2,743.5,333.1z"/>
	</g>
</g>
</svg>
