<?xml version="1.0" encoding="utf-8"?>
<!-- Generator: Adobe Illustrator 25.1.0, SVG Export Plug-In . SVG Version: 6.00 Build 0)  -->
<svg version="1.1" id="Layer_1" xmlns="http://www.w3.org/2000/svg" xmlns:xlink="http://www.w3.org/1999/xlink" x="0px" y="0px"
	 viewBox="0 0 1000 1000" style="enable-background:new 0 0 1000 1000;" xml:space="preserve">
<style type="text/css">
	.st0{fill:#D71F29;}
</style>
<g>
	<path class="st0" d="M543.4,610.8c-10.4-9.3-24.8-13.9-43.2-13.9s-32.6,4.6-42.7,13.7c-10.1,9.1-15.2,20.9-15.2,35.3
		c0,14.7,5.2,26.8,15.7,36.3c10.4,9.5,24.9,14.2,43.2,14.2c18.3,0,32.6-4.6,42.7-13.9c10.1-9.3,15.2-21.3,15.2-36
		C559.1,632,553.9,620.1,543.4,610.8z"/>
	<path class="st0" d="M869,96.5H131c-1.8,0-3.2-1.4-3.2-3.2V55.5c0-1.8,1.4-3.2,3.2-3.2H869c1.8,0,3.2,1.4,3.2,3.2v37.8
		C872.3,95.1,870.8,96.5,869,96.5z"/>
	<g>
		<path class="st0" d="M566.3,138.5l-66.9,140.1l-65.8,0V138.4l39.4,0v106.4l48.7-106.4L566.3,138.5z"/>
		<path class="st0" d="M872.3,245.7v33.1l-132,0l0-140.2l38,0v107.1L872.3,245.7z"/>
		<path class="st0" d="M419.6,173.8v51.6l-110.9,0v9c-0.1,2.2,0.1,4.1,0.6,5.7c1.2,3.7,3.8,5.5,8.5,5.5l101.8,0v33.1l-110.1,0
			c-20.6,0-33.1-6.5-37.5-19.4c-1.2-3.6-1.3-9.2-1.3-16.7l0-93.2c0.1-7.3,5.1-10.9,15-10.9l103.2,0c14.8,0,24.2,6.1,28.4,18.3
			C418.9,161.4,419.7,167,419.6,173.8z M381,180.7c0-0.7-0.1-1.5-0.4-2.3c-1.5-4.5-5.2-6.8-10.9-6.8l-49.2,0c-4.2,0-7.1,0.3-8.7,0.9
			c-2.1,0.9-3.1,2.7-3,5.2v14.6l72.4,0L381,180.7z"/>
		<path class="st0" d="M724.7,173.8v51.6l-110.9,0v9c-0.1,2.2,0.1,4.1,0.6,5.7c1.2,3.7,3.8,5.5,8.5,5.5l101.8,0v33.1l-110.1,0
			c-20.6,0-33.1-6.5-37.5-19.4c-1.2-3.6-1.3-9.2-1.3-16.7l0-93.2c0.1-7.3,5.1-10.9,15-10.9l103.2,0c14.8,0,24.2,6.1,28.4,18.3
			C723.9,161.4,724.7,167,724.7,173.8z M686,180.7c0-0.7-0.1-1.5-0.4-2.3c-1.5-4.5-5.2-6.8-10.9-6.8l-49.2,0c-4.2,0-7.1,0.3-8.7,0.9
			c-2.1,0.9-3.1,2.7-3,5.2v14.6l72.4,0L686,180.7z"/>
		<path class="st0" d="M259.7,245.7v33.1l-132,0l0-140.2l38,0v107.1L259.7,245.7z"/>
	</g>
	<g>
		<path class="st0" d="M244.1,320.7H140.1c-6.8,0-12.4,5.5-12.4,12.4v421.6c0,4.7,2.6,9,6.8,11.1l103.9,52.2c8.2,4.1,18-1.8,18-11.1
			V333.1C256.5,326.2,250.9,320.7,244.1,320.7z"/>
		<path class="st0" d="M669.5,320.7h-339c-7.7,0-14,6.3-14,14v513.9c0,5.3,3,10.1,7.7,12.5l169.5,85.2c4,2,8.6,2,12.6,0L675.8,861
			c4.7-2.4,7.7-7.2,7.7-12.5V334.7C683.5,326.9,677.2,320.7,669.5,320.7z M595.4,727.4c-11.4,10.4-24.9,18.4-40.6,24
			c-15.7,5.6-32.7,8.4-50.9,8.4c-22.1,0-40.8-3.1-56.2-9.1c-15.4-6.1-29-15.1-40.8-26.9c-12.2-12.2-21.9-28.1-29.1-47.8
			c-7.2-19.7-10.8-46.4-10.8-80c0-25.9,3-50.1,8.9-72.6c5.9-22.4,15-41.9,27.1-58.4c12.2-16.5,27.6-29.5,46.1-38.9
			c18.6-9.4,40.4-14.2,65.4-14.2c11.5,0,22.1,0.8,31.7,2.4c9.6,1.6,18.6,4,26.9,7.2c8.3,3.2,16.3,7.1,24,11.7
			c3.8,2.3,7.6,4.7,11.3,7.3c6.4,4.4,8,13.1,3.6,19.5l-23.1,33.9c-4.4,6.4-13.1,8-19.5,3.6c-1.5-1-3-2-4.5-3
			c-5.1-3.4-10.4-6.2-15.9-8.4c-5.5-2.2-11.2-4-17.3-5.3c-6.1-1.3-12.7-1.9-19.7-1.9c-10.6,0-19.8,2-27.6,6
			c-7.9,4-14.6,9.5-20.2,16.4c-5.6,6.9-10,15.2-13.2,24.9c0,0.1-0.1,0.2-0.1,0.3c-3.8,11.4,7.9,21.9,18.9,17.1c1-0.4,2-0.9,3.1-1.3
			c10.7-4.5,24.4-6.7,41.1-6.7c16.7,0,32.2,2.3,46.6,7c14.4,4.6,26.9,11.5,37.5,20.4c10.6,9,18.9,20.2,25,33.6
			c6.1,13.5,9.1,29,9.1,46.6c0,17.3-3.3,33.1-9.8,47.3C615.7,704.6,606.8,717,595.4,727.4z"/>
		<path class="st0" d="M743.5,333.1v473.8c0,9.2,9.7,15.2,18,11.1l103.9-52.2c4.2-2.1,6.8-6.4,6.8-11.1V333.1
			c0-6.8-5.5-12.4-12.4-12.4H755.9C749.1,320.7,743.5,326.2,743.5,333.1z"/>
	</g>
</g>
</svg>
