<?xml version="1.0" encoding="utf-8"?>
<!-- Generator: Adobe Illustrator 25.1.0, SVG Export Plug-In . SVG Version: 6.00 Build 0)  -->
<svg version="1.1" id="Layer_1" xmlns="http://www.w3.org/2000/svg" xmlns:xlink="http://www.w3.org/1999/xlink" x="0px" y="0px"
	 viewBox="0 0 1562.1 679.9" style="enable-background:new 0 0 1562.1 679.9;" xml:space="preserve">
<style type="text/css">
	.st0{fill:none;}
	.st1{fill:#FFFFFF;}
	.st2{fill:#D61F29;}
</style>
<g>
	<path class="st0" d="M1448.4,430.4c0.3,0.1,0.6,0.2,0.9,0.3C1449,430.6,1448.7,430.5,1448.4,430.4z"/>
	<path class="st0" d="M1451,431.4c0.9,0.4,1.7,0.7,2.5,1.1C1452.7,432.2,1451.9,431.8,1451,431.4z"/>
	<path class="st0" d="M93.4,203.5L93.4,203.5l-0.1-98.9h506.9v98.9h0v-98.9H93.3v99.3c0,0,0.1,0,0.1,0V203.5z"/>
	<path d="M1491.6,238.5v-28.4c0-3.7-3-6.6-6.6-6.6h-105.6v0.1h-74.5h-121.6h-53.4h-121.6H895h-74.7h-53.4H645.4h-22.3V82.3H70.5
		v148.3v14.6v162.9l1.1,0.2h-1.1l184.6,83l-184.6,83h966.3c16,6.7,36.3,10.5,56,13.5c41.9,6.4,97.2,9.9,155.8,9.9
		c58.6,0,114-3.5,155.8-9.9c42.1-6.4,87.1-16.2,87.1-51.5V447c0-18.5-12.3-30-30.1-37.7c1.6-1.3,2.4-2.1,2.4-2.1l-0.1,0
		c0.5-0.4,1.1-0.8,1.6-1.2c8.2-6.7,14.8-15.1,19.3-24.9l0,0c4.5-9.7,6.8-20.7,6.8-32.6V348c0-10.8-1.9-20.4-5.5-28.8
		c-3.8-8.6-9.4-16.1-16.7-22.4c-2.5-2.1-5.2-4.1-8-6l24.9-35.2C1489.7,250.6,1491.6,244.6,1491.6,238.5z M1176.2,230.6
		c0-2.3,1.9-4.1,4.2-4.1h124.2c2.3,0,4.2,1.9,4.2,4.1V256c0,2.3-1.9,4.1-4.2,4.1h-86c-2.3,0-4.2,1.9-4.2,4.1V291
		c0,2.3,1.9,4.1,4.2,4.1h74.6c2.3,0,4.2,1.9,4.2,4.1v25.5c0,2.3-1.9,4.1-4.2,4.1h-74.6c-2.3,0-4.2,1.9-4.2,4.1V361
		c0,2.3,1.9,4.1,4.2,4.1h87.2c2.3,0,4.2,1.9,4.2,4.1v25.5c0,2.3-1.9,4.1-4.2,4.1h-125.5c-2.3,0-4.2-1.9-4.2-4.1V230.6z M997.4,230.6
		c0-2.3,1.9-4.1,4.2-4.1h124.2c2.3,0,4.2,1.9,4.2,4.1V256c0,2.3-1.9,4.1-4.2,4.1h-86c-2.3,0-4.2,1.9-4.2,4.1V291
		c0,2.3,1.9,4.1,4.2,4.1h74.6c2.3,0,4.2,1.9,4.2,4.1v25.5c0,2.3-1.9,4.1-4.2,4.1h-74.6c-2.3,0-4.2,1.9-4.2,4.1V361
		c0,2.3,1.9,4.1,4.2,4.1h87.2c2.3,0,4.2,1.9,4.2,4.1v25.5c0,2.3-1.9,4.1-4.2,4.1h-125.5c-2.3,0-4.2-1.9-4.2-4.1V230.6z M805.2,230.6
		c0-2.3,1.9-4.1,4.2-4.1h76.3c21,0,37.3,5,49,15c11.7,10,17.5,24,17.5,41.9v0.5c0,14-3.5,25.3-10.5,34.1c-6,7.5-13.6,13.4-22.7,17.5
		c-2.4,1.1-3.2,4-1.7,6.1l35.6,50.9c1.9,2.8-0.1,6.5-3.5,6.5h-35c-1.4,0-2.7-0.7-3.5-1.8l-35.3-51.5c-0.8-1.1-2.1-1.8-3.5-1.8h-24
		c-2.3,0-4.2,1.9-4.2,4.1v46.9c0,2.3-1.9,4.1-4.2,4.1h-30.3c-2.3,0-4.2-1.9-4.2-4.1V230.6z M626.4,230.6c0-2.3,1.9-4.1,4.2-4.1
		h124.2c2.3,0,4.2,1.9,4.2,4.1V256c0,2.3-1.9,4.1-4.2,4.1h-86c-2.3,0-4.2,1.9-4.2,4.1V291c0,2.3,1.9,4.1,4.2,4.1h74.6
		c2.3,0,4.2,1.9,4.2,4.1v25.5c0,2.3-1.9,4.1-4.2,4.1h-74.6c-2.3,0-4.2,1.9-4.2,4.1V361c0,2.3,1.9,4.1,4.2,4.1h87.2
		c2.3,0,4.2,1.9,4.2,4.1v25.5c0,2.3-1.9,4.1-4.2,4.1H630.6c-2.3,0-4.2-1.9-4.2-4.1V230.6z M93.3,104.6h506.9v98.9h0v0H93.4v0.4
		c0,0-0.1,0-0.1,0V104.6z M494.1,297.9h75.6c2.3,0,4.2,1.9,4.2,4.1v26c0,2.3-1.9,4.1-4.2,4.1h-75.6c-2.3,0-4.2,1.9-4.2,4.1v58.5
		c0,2.3-1.9,4.1-4.2,4.1h-30.3c-2.3,0-4.2-1.9-4.2-4.1V230.6c0-2.3,1.9-4.1,4.2-4.1h125.8c2.3,0,4.2,1.9,4.2,4.1v26
		c0,2.3-1.9,4.1-4.2,4.1h-87c-2.3,0-4.2,1.9-4.2,4.1v28.9C489.9,296,491.8,297.9,494.1,297.9z M314.8,295.2h74.6
		c2.3,0,4.2,1.9,4.2,4.1v25.5c0,2.3-1.9,4.1-4.2,4.1h-74.6c-2.3,0-4.2,1.9-4.2,4.1V361c0,2.3,1.9,4.1,4.2,4.1h87.2
		c2.3,0,4.2,1.9,4.2,4.1v25.5c0,2.3-1.9,4.1-4.2,4.1H276.6c-2.3,0-4.2-1.9-4.2-4.1V230.6c0-2.3,1.9-4.1,4.2-4.1h124.2
		c2.3,0,4.2,1.9,4.2,4.1V256c0,2.3-1.9,4.1-4.2,4.1h-86c-2.3,0-4.2,1.9-4.2,4.1V291C310.6,293.3,312.5,295.2,314.8,295.2z
		 M160.6,343.7h-25c-2,0-3.6,1.6-3.6,3.5v48.1c0,1.9-1.6,3.5-3.6,3.5H96.9c-2,0-3.6-1.6-3.6-3.5V229.9c0-1.9,1.6-3.5,3.6-3.5h77
		c21,0,37.3,5,49,15c11.7,10,17.5,24,17.5,41.9v0.5c0,14-3.5,25.3-10.4,34.1c-6.1,7.7-13.9,13.6-23.3,17.7c-2,0.9-2.7,3.4-1.5,5.2
		l36.7,52.5c1.6,2.3-0.1,5.5-3,5.5h-36.6c-1.2,0-2.3-0.6-3-1.6l-35.6-52C163,344.2,161.8,343.7,160.6,343.7z M1467.1,447v89.2
		c0,2.8,0,8.1-13.6,14.4c-13.8,6.4-34.4,10.1-52.7,12.9c-40.7,6.2-94.7,9.6-152.1,9.6c-57.4,0-111.5-3.4-152.1-9.6
		c-17.1-2.6-36.4-6-50.2-11.8l-4.5-1.9h-4.9H184.5l80.7-36.3l49.6-22.3L265.2,469l-80.7-36.3h853.9h4.7l4.4-1.8
		c13.8-5.5,32.5-8.8,49-11.3c40.7-6.2,94.7-9.6,152.1-9.6c57.4,0,111.5,3.4,152.1,9.6c16.2,2.5,34.1,5.6,47.6,10.8
		c0.3,0.1,0.6,0.2,0.9,0.3c0.6,0.2,1.2,0.5,1.7,0.7c0.9,0.4,1.7,0.7,2.5,1.1C1467.1,438.8,1467.1,444.1,1467.1,447z M1461.3,248.8
		l-15.9,23c-1.1,1.6-3.3,2-4.9,0.9c-6.7-4.4-13.4-7.9-19.8-10.6c-7.4-3.1-14.9-4.6-22.3-4.6c-7.4,0-13,1.4-16.7,4.3
		c-3.7,2.9-5.6,6.5-5.6,10.8v0.5c0,2.8,0.5,5.2,1.6,7.3c1.1,2.1,3,3.9,5.8,5.6c2.8,1.7,6.7,3.2,11.5,4.7c4.9,1.5,11,3.2,18.5,5.2
		c8.8,2.3,16.6,4.9,23.5,7.8c6.9,2.9,12.7,6.4,17.4,10.4c4.7,4,8.3,8.8,10.7,14.2c2.4,5.4,3.6,12,3.6,19.6v0.5
		c0,8.6-1.6,16.2-4.7,22.9c-3.1,6.7-7.5,12.3-13,16.8c-5.6,4.5-12.2,8-20,10.4c-7.7,2.4-16.3,3.6-25.7,3.6
		c-13.2,0-26.2-2.3-38.9-6.8c-11.6-4.2-22.3-10.4-32-18.6c-1.5-1.3-1.6-3.5-0.4-5l18-21.6c1.2-1.5,3.4-1.7,5-0.5
		c7.1,5.4,14.3,9.8,21.7,13.2c8.3,3.8,17.5,5.7,27.4,5.7c7.9,0,14.1-1.4,18.4-4.3c4.4-2.9,6.6-6.9,6.6-12v-0.5
		c0-2.5-0.5-4.7-1.4-6.6c-0.9-1.9-2.7-3.7-5.2-5.3c-2.6-1.6-6.1-3.3-10.7-5c-4.6-1.6-10.5-3.4-17.7-5.2c-8.8-2.1-16.7-4.5-23.8-7.2
		c-7.1-2.6-13.2-5.9-18.1-9.8c-5-3.9-8.8-8.7-11.5-14.5c-2.7-5.8-4.1-13-4.1-21.5v-0.5c0-7.9,1.5-15.1,4.4-21.4
		c3-6.4,7.1-11.8,12.4-16.5c5.3-4.6,11.7-8.2,19.1-10.6c7.4-2.5,15.6-3.7,24.5-3.7c12.7,0,24.4,1.9,35,5.7
		c9.6,3.4,18.5,8.2,26.6,14.3C1462,245.1,1462.3,247.2,1461.3,248.8z"/>
	<path d="M201.1,285.3c0-8.2-2.7-14.4-8.1-18.5c-5.4-4.1-12.8-6.2-22.4-6.2h-34.9c-2,0-3.6,1.6-3.6,3.5v42.5c0,1.9,1.6,3.5,3.6,3.5
		h35.7c9.6,0,16.9-2.2,22-6.6c5.1-4.4,7.7-10.3,7.7-17.7V285.3z"/>
	<path d="M848.2,310.2h35.1c9.6,0,16.9-2.2,22-6.6c5.1-4.4,7.7-10.4,7.7-17.7v-0.5c0-8.2-2.7-14.4-8.1-18.5
		c-5.4-4.1-12.8-6.2-22.4-6.2h-34.3c-2.3,0-4.2,1.9-4.2,4.1v41.2C844,308.3,845.9,310.2,848.2,310.2z"/>
	<path class="st1" d="M93.3,104.6v98.9h0.1v0h4.1h88.8h112.5h121.6h53.4h123h3.3v-98.9H93.3z M158.7,184.3c0,1.5-1.3,2.6-2.8,2.6
		h-45.1c-1.6,0-2.8-1.2-2.8-2.6v-61.3c0-1.5,1.3-2.6,2.8-2.6h9.9c1.6,0,2.8,1.2,2.8,2.6V171c0,1.5,1.3,2.6,2.8,2.6h29.5
		c1.6,0,2.8,1.2,2.8,2.6V184.3z M246.3,153.6c0,4.8-0.9,9.2-2.8,13.4c-1.9,4.2-4.5,7.8-7.8,10.9c-3.3,3.1-7.3,5.6-11.9,7.4
		c-4.6,1.8-9.6,2.7-15.1,2.7c-5.4,0-10.4-0.9-15-2.7c-4.6-1.8-8.5-4.2-11.8-7.3c-3.3-3.1-5.9-6.7-7.8-10.8
		c-1.8-4.2-2.8-8.6-2.8-13.4v-0.2c0-4.8,0.9-9.2,2.8-13.4c1.9-4.2,4.5-7.8,7.8-10.9c3.3-3.1,7.3-5.6,11.9-7.4
		c4.6-1.8,9.6-2.7,15.1-2.7c5.4,0,10.4,0.9,15,2.7c4.6,1.8,8.5,4.3,11.8,7.3c3.3,3.1,5.9,6.7,7.8,10.8c1.8,4.2,2.8,8.6,2.8,13.4
		V153.6z M326.8,184.3c0,1.5-1.3,2.6-2.8,2.6h-9c-0.9,0-1.7-0.4-2.2-1l-28.3-35c-1.6-2-5.1-0.9-5.1,1.6v31.8c0,1.5-1.3,2.6-2.8,2.6
		h-9.7c-1.6,0-2.8-1.2-2.8-2.6v-61.3c0-1.5,1.3-2.6,2.8-2.6H277c0.9,0,1.7,0.4,2.2,1l27.1,33.7c1.6,2,5.1,0.9,5.1-1.6v-30.5
		c0-1.5,1.3-2.6,2.8-2.6h9.7c1.6,0,2.8,1.2,2.8,2.6V184.3z M412.7,153.6c0,4.7-0.9,9.1-2.7,13.1c-1.8,4.1-4.4,7.6-7.7,10.6
		c-3.3,3-7.3,5.3-11.9,7c-4.6,1.7-9.7,2.6-15.2,2.6h-24.7c-1.6,0-2.8-1.2-2.8-2.6v-61.3c0-1.5,1.3-2.6,2.8-2.6h24.7
		c5.5,0,10.6,0.8,15.2,2.5c4.6,1.7,8.6,4,11.9,7c3.3,3,5.9,6.5,7.7,10.5c1.8,4,2.7,8.4,2.7,13.1V153.6z M502.4,153.6
		c0,4.8-0.9,9.2-2.8,13.4c-1.9,4.2-4.5,7.8-7.8,10.9c-3.3,3.1-7.3,5.6-11.9,7.4c-4.6,1.8-9.6,2.7-15.1,2.7c-5.4,0-10.4-0.9-15-2.7
		c-4.6-1.8-8.5-4.2-11.8-7.3c-3.3-3.1-5.9-6.7-7.8-10.8c-1.8-4.2-2.8-8.6-2.8-13.4v-0.2c0-4.8,0.9-9.2,2.8-13.4
		c1.9-4.2,4.5-7.8,7.8-10.9c3.3-3.1,7.3-5.6,11.9-7.4c4.6-1.8,9.6-2.7,15.1-2.7c5.4,0,10.4,0.9,15,2.7c4.6,1.8,8.5,4.3,11.8,7.3
		c3.3,3.1,5.9,6.7,7.8,10.8c1.8,4.2,2.8,8.6,2.8,13.4V153.6z M582.9,184.3c0,1.5-1.3,2.6-2.8,2.6h-9c-0.9,0-1.7-0.4-2.2-1l-28.3-35
		c-1.6-2-5.1-0.9-5.1,1.6v31.8c0,1.5-1.3,2.6-2.8,2.6H523c-1.6,0-2.8-1.2-2.8-2.6v-61.3c0-1.5,1.3-2.6,2.8-2.6h10.1
		c0.9,0,1.7,0.4,2.2,1l27.1,33.7c1.6,2,5.1,0.9,5.1-1.6v-30.5c0-1.5,1.3-2.6,2.8-2.6h9.7c1.6,0,2.8,1.2,2.8,2.6V184.3z"/>
	<path class="st1" d="M480.2,138.9c-1.9-1.9-4.2-3.4-6.8-4.5c-2.6-1.1-5.5-1.7-8.6-1.7c-3.2,0-6,0.5-8.6,1.6
		c-2.6,1.1-4.8,2.6-6.6,4.5c-1.8,1.9-3.3,4.1-4.3,6.6c-1,2.5-1.6,5.2-1.6,8v0.2c0,2.9,0.5,5.6,1.6,8.1c1,2.5,2.5,4.8,4.4,6.7
		c1.9,1.9,4.2,3.4,6.8,4.5c2.6,1.1,5.5,1.7,8.6,1.7c3.1,0,5.9-0.5,8.6-1.6c2.6-1.1,4.9-2.6,6.7-4.5c1.8-1.9,3.3-4.1,4.3-6.6
		c1-2.5,1.6-5.2,1.6-8v-0.2c0-2.9-0.5-5.5-1.6-8.1C483.6,143,482.1,140.8,480.2,138.9z"/>
	<path class="st1" d="M224.1,138.9c-1.9-1.9-4.2-3.4-6.8-4.5c-2.6-1.1-5.5-1.7-8.6-1.7c-3.2,0-6,0.5-8.6,1.6
		c-2.6,1.1-4.8,2.6-6.6,4.5c-1.8,1.9-3.3,4.1-4.3,6.6c-1,2.5-1.6,5.2-1.6,8v0.2c0,2.9,0.5,5.6,1.6,8.1c1,2.5,2.5,4.8,4.4,6.7
		c1.9,1.9,4.2,3.4,6.8,4.5c2.6,1.1,5.5,1.7,8.6,1.7c3.1,0,5.9-0.5,8.6-1.6c2.6-1.1,4.9-2.6,6.7-4.5c1.8-1.9,3.3-4.1,4.3-6.6
		c1-2.5,1.6-5.2,1.6-8v-0.2c0-2.9-0.5-5.5-1.6-8.1C227.5,143,226,140.8,224.1,138.9z"/>
	<path class="st1" d="M390.6,139.1c-1.8-1.8-4.1-3.2-6.7-4.1c-2.6-1-5.5-1.5-8.7-1.5h-9.2c-1.6,0-2.8,1.2-2.8,2.6V171
		c0,1.5,1.3,2.6,2.8,2.6h9.2c3.2,0,6-0.5,8.7-1.4c2.6-1,4.9-2.3,6.7-4.1c1.8-1.8,3.3-3.9,4.3-6.3c1-2.4,1.6-5.1,1.6-8.1v-0.2
		c0-2.9-0.5-5.6-1.6-8.1C393.9,143,392.4,140.9,390.6,139.1z"/>
	<polygon class="st1" points="473.9,203.5 420.5,203.5 298.9,203.5 186.4,203.5 97.6,203.5 93.4,203.5 93.4,203.5 600.3,203.5 
		600.3,203.5 596.9,203.5 	"/>
	<path d="M155.9,173.7h-29.5c-1.6,0-2.8-1.2-2.8-2.6v-48.1c0-1.5-1.3-2.6-2.8-2.6h-9.9c-1.6,0-2.8,1.2-2.8,2.6v61.3
		c0,1.5,1.3,2.6,2.8,2.6h45.1c1.6,0,2.8-1.2,2.8-2.6v-7.9C158.7,174.9,157.5,173.7,155.9,173.7z"/>
	<path d="M235.8,129.2c-3.3-3.1-7.3-5.5-11.8-7.3c-4.6-1.8-9.6-2.7-15-2.7c-5.4,0-10.5,0.9-15.1,2.7c-4.6,1.8-8.6,4.3-11.9,7.4
		c-3.3,3.1-5.9,6.8-7.8,10.9c-1.9,4.2-2.8,8.6-2.8,13.4v0.2c0,4.8,0.9,9.2,2.8,13.4c1.8,4.2,4.4,7.8,7.8,10.8
		c3.3,3.1,7.3,5.5,11.8,7.3c4.6,1.8,9.6,2.7,15,2.7c5.4,0,10.5-0.9,15.1-2.7c4.6-1.8,8.6-4.3,11.9-7.4c3.3-3.1,5.9-6.8,7.8-10.9
		c1.9-4.2,2.8-8.6,2.8-13.4v-0.2c0-4.8-0.9-9.2-2.8-13.4C241.7,135.9,239.1,132.3,235.8,129.2z M230.1,153.8c0,2.9-0.5,5.5-1.6,8
		c-1,2.5-2.5,4.7-4.3,6.6c-1.8,1.9-4.1,3.4-6.7,4.5c-2.6,1.1-5.5,1.6-8.6,1.6c-3.2,0-6-0.6-8.6-1.7c-2.6-1.1-4.8-2.6-6.8-4.5
		c-1.9-1.9-3.4-4.1-4.4-6.7c-1-2.5-1.6-5.2-1.6-8.1v-0.2c0-2.9,0.5-5.5,1.6-8c1-2.5,2.5-4.7,4.3-6.6c1.8-1.9,4.1-3.4,6.6-4.5
		c2.6-1.1,5.5-1.6,8.6-1.6c3.1,0,5.9,0.6,8.6,1.7c2.6,1.1,4.9,2.6,6.8,4.5c1.9,1.9,3.4,4.1,4.4,6.7c1,2.5,1.6,5.2,1.6,8.1V153.8z"/>
	<path d="M324,120.3h-9.7c-1.6,0-2.8,1.2-2.8,2.6v30.5c0,2.5-3.4,3.6-5.1,1.6l-27.1-33.7c-0.5-0.7-1.4-1-2.2-1h-10.1
		c-1.6,0-2.8,1.2-2.8,2.6v61.3c0,1.5,1.3,2.6,2.8,2.6h9.7c1.6,0,2.8-1.2,2.8-2.6v-31.8c0-2.5,3.4-3.6,5.1-1.6l28.3,35
		c0.5,0.7,1.4,1,2.2,1h9c1.6,0,2.8-1.2,2.8-2.6v-61.3C326.8,121.5,325.5,120.3,324,120.3z"/>
	<path d="M402.3,129.8c-3.3-3-7.3-5.3-11.9-7c-4.6-1.7-9.7-2.5-15.2-2.5h-24.7c-1.6,0-2.8,1.2-2.8,2.6v61.3c0,1.5,1.3,2.6,2.8,2.6
		h24.7c5.5,0,10.6-0.9,15.2-2.6c4.6-1.7,8.6-4.1,11.9-7c3.3-3,5.9-6.5,7.7-10.6c1.8-4.1,2.7-8.4,2.7-13.1v-0.2
		c0-4.7-0.9-9.1-2.7-13.1C408.2,136.3,405.6,132.8,402.3,129.8z M396.5,153.8c0,3-0.5,5.7-1.6,8.1c-1,2.4-2.5,4.5-4.3,6.3
		c-1.8,1.8-4.1,3.1-6.7,4.1c-2.6,1-5.5,1.4-8.7,1.4h-9.2c-1.6,0-2.8-1.2-2.8-2.6v-34.9c0-1.5,1.3-2.6,2.8-2.6h9.2
		c3.2,0,6,0.5,8.7,1.5c2.6,1,4.9,2.4,6.7,4.1c1.8,1.8,3.3,3.9,4.3,6.4c1,2.5,1.6,5.2,1.6,8.1V153.8z"/>
	<path d="M491.9,129.2c-3.3-3.1-7.3-5.5-11.8-7.3c-4.6-1.8-9.6-2.7-15-2.7c-5.4,0-10.5,0.9-15.1,2.7c-4.6,1.8-8.6,4.3-11.9,7.4
		c-3.3,3.1-5.9,6.8-7.8,10.9c-1.9,4.2-2.8,8.6-2.8,13.4v0.2c0,4.8,0.9,9.2,2.8,13.4c1.8,4.2,4.4,7.8,7.8,10.8
		c3.3,3.1,7.3,5.5,11.8,7.3c4.6,1.8,9.6,2.7,15,2.7c5.4,0,10.5-0.9,15.1-2.7c4.6-1.8,8.6-4.3,11.9-7.4c3.3-3.1,5.9-6.8,7.8-10.9
		c1.9-4.2,2.8-8.6,2.8-13.4v-0.2c0-4.8-0.9-9.2-2.8-13.4C497.8,135.9,495.2,132.3,491.9,129.2z M486.2,153.8c0,2.9-0.5,5.5-1.6,8
		c-1,2.5-2.5,4.7-4.3,6.6c-1.8,1.9-4.1,3.4-6.7,4.5c-2.6,1.1-5.5,1.6-8.6,1.6c-3.2,0-6-0.6-8.6-1.7c-2.6-1.1-4.8-2.6-6.8-4.5
		c-1.9-1.9-3.4-4.1-4.4-6.7c-1-2.5-1.6-5.2-1.6-8.1v-0.2c0-2.9,0.5-5.5,1.6-8c1-2.5,2.5-4.7,4.3-6.6c1.8-1.9,4.1-3.4,6.6-4.5
		c2.6-1.1,5.5-1.6,8.6-1.6c3.1,0,5.9,0.6,8.6,1.7c2.6,1.1,4.9,2.6,6.8,4.5c1.9,1.9,3.4,4.1,4.4,6.7c1,2.5,1.6,5.2,1.6,8.1V153.8z"/>
	<path d="M580.1,120.3h-9.7c-1.6,0-2.8,1.2-2.8,2.6v30.5c0,2.5-3.4,3.6-5.1,1.6l-27.1-33.7c-0.5-0.7-1.4-1-2.2-1H523
		c-1.6,0-2.8,1.2-2.8,2.6v61.3c0,1.5,1.3,2.6,2.8,2.6h9.7c1.6,0,2.8-1.2,2.8-2.6v-31.8c0-2.5,3.4-3.6,5.1-1.6l28.3,35
		c0.5,0.7,1.4,1,2.2,1h9c1.6,0,2.8-1.2,2.8-2.6v-61.3C582.9,121.5,581.6,120.3,580.1,120.3z"/>
	<path class="st2" d="M998.2,473.2c-2.2-1.8-5.1-2.7-8.9-2.7h-11.5v21h11.8c3.7,0,6.7-1,8.7-3c2.1-2,3.1-4.5,3.1-7.4V481
		C1001.4,477.6,1000.3,475,998.2,473.2z"/>
	<path class="st2" d="M763.9,473c-2.1-1.6-4.9-2.5-8.6-2.5h-14.8v19.7h15.1c3.7,0,6.5-0.9,8.5-2.6c2-1.8,3-4.1,3-7.1v-0.2
		C767,477.1,765.9,474.7,763.9,473z"/>
	<path class="st2" d="M847.2,476.1c-1.8-2-4-3.5-6.5-4.7c-2.5-1.1-5.3-1.7-8.2-1.7c-3,0-5.8,0.6-8.3,1.7c-2.5,1.1-4.6,2.6-6.4,4.6
		c-1.8,2-3.2,4.2-4.2,6.8c-1,2.6-1.5,5.3-1.5,8.3v0.2c0,2.9,0.5,5.7,1.5,8.3c1,2.6,2.4,4.9,4.3,6.9c1.8,2,4,3.5,6.5,4.7
		c2.5,1.1,5.2,1.7,8.3,1.7c3,0,5.7-0.6,8.2-1.7c2.5-1.1,4.7-2.6,6.4-4.6c1.8-2,3.2-4.2,4.2-6.8c1-2.6,1.5-5.3,1.5-8.3v-0.2
		c0-2.9-0.5-5.7-1.5-8.3C850.4,480.3,849,478,847.2,476.1z"/>
	<path class="st2" d="M1449.3,430.7c0.6,0.2,1.2,0.5,1.7,0.7C1450.4,431.2,1449.8,431,1449.3,430.7z"/>
	<path class="st2" d="M1453.5,432.5c-0.8-0.4-1.7-0.8-2.5-1.1c-0.6-0.2-1.1-0.5-1.7-0.7c-0.3-0.1-0.6-0.2-0.9-0.3
		c-1.3-0.5-2.6-1-4-1.4c-0.1,0-0.1,0-0.2-0.1c-12.9-4.3-28.9-7.1-43.4-9.3c-40.7-6.2-94.7-9.6-152.1-9.6
		c-57.4,0-111.5,3.4-152.1,9.6c-16.5,2.5-35.2,5.8-49,11.3l-4.4,1.8h-4.7H184.5l80.7,36.3l49.6,22.3l-49.6,22.3l-80.7,36.3h852.3
		h4.9l4.5,1.9c13.8,5.8,33.1,9.2,50.2,11.8c40.7,6.2,94.7,9.6,152.1,9.6c57.4,0,111.5-3.4,152.1-9.6c18.3-2.8,38.9-6.5,52.7-12.9
		c13.6-6.3,13.6-11.6,13.6-14.4V447C1467.1,444.1,1467.1,438.8,1453.5,432.5z M408.7,522.5l-25.7-12.3l-25.7,12.3l10.1-25.1
		l-18.2-14.9l24-0.1l9.7-23.9l9.7,23.9l24,0.1l-18.2,14.9L408.7,522.5z M507,522.5l-25.7-12.3l-25.7,12.3l10.1-25.1l-18.2-14.9
		l24-0.1l9.7-23.9l9.7,23.9l24,0.1l-18.2,14.9L507,522.5z M605.2,522.5l-25.7-12.3l-25.7,12.3l10.1-25.1l-18.2-14.9l24-0.1l9.7-23.9
		l9.7,23.9l24,0.1l-18.2,14.9L605.2,522.5z M707.3,515.9c-3.5,3-7.6,5.6-12.5,7.7c-4.8,2.1-10.3,3.2-16.5,3.2
		c-5.3,0-10.1-0.9-14.5-2.6c-4.4-1.8-8.1-4.2-11.2-7.4c-3.1-3.1-5.6-6.9-7.3-11.2c-1.7-4.3-2.6-9-2.6-14.1v-0.2
		c0-4.9,0.9-9.5,2.7-13.8c1.8-4.3,4.2-8,7.4-11.3s6.9-5.8,11.2-7.7c4.3-1.9,9.1-2.8,14.2-2.8c3,0,5.8,0.2,8.3,0.6
		c2.5,0.4,4.8,1,6.9,1.8c2.1,0.8,4.1,1.8,6,2.9c1.9,1.2,3.7,2.5,5.4,4l-9.4,11.5c-1.3-1.1-2.6-2.1-3.9-2.9c-1.3-0.9-2.6-1.6-4-2.2
		c-1.4-0.6-2.9-1-4.5-1.4c-1.6-0.3-3.4-0.5-5.3-0.5c-2.7,0-5.2,0.6-7.6,1.7c-2.4,1.1-4.4,2.7-6.2,4.6s-3.2,4.2-4.2,6.8
		c-1,2.6-1.5,5.4-1.5,8.3v0.2c0,3.1,0.5,6,1.5,8.7c1,2.7,2.4,5,4.3,6.9c1.8,2,4,3.5,6.5,4.6c2.5,1.1,5.2,1.6,8.3,1.6
		c5.6,0,10.2-1.4,14.1-4.1v-9.9h-15v-13h29.5V515.9z M766.7,525.6l-14.5-22h-11.7v22h-14.9V457h31c8.1,0,14.4,2,18.9,6
		c4.5,4,6.7,9.6,6.7,16.7v0.2c0,5.6-1.3,10.1-4,13.6c-2.7,3.5-6.2,6.1-10.5,7.7l16.6,24.5H766.7z M868.5,491.3
		c0,4.9-0.9,9.5-2.7,13.8c-1.8,4.3-4.3,8-7.5,11.3c-3.2,3.2-7,5.8-11.4,7.7c-4.4,1.9-9.3,2.8-14.5,2.8c-5.2,0-10-0.9-14.4-2.8
		c-4.4-1.9-8.2-4.4-11.4-7.6c-3.2-3.2-5.7-6.9-7.5-11.2c-1.8-4.3-2.7-8.9-2.7-13.8v-0.2c0-4.9,0.9-9.5,2.7-13.8
		c1.8-4.3,4.3-8,7.5-11.3c3.2-3.2,7-5.8,11.4-7.7c4.4-1.9,9.3-2.8,14.5-2.8c5.2,0,10,0.9,14.4,2.8c4.4,1.9,8.2,4.4,11.4,7.6
		c3.2,3.2,5.7,6.9,7.5,11.2c1.8,4.3,2.7,8.9,2.7,13.8V491.3z M943.7,495.7c0,5.2-0.7,9.8-2.1,13.6c-1.4,3.9-3.4,7.1-6,9.7
		c-2.6,2.6-5.7,4.5-9.4,5.8c-3.7,1.3-7.8,1.9-12.3,1.9c-9.1,0-16.3-2.6-21.5-7.7c-5.2-5.1-7.8-12.7-7.8-22.9V457h14.9v38.8
		c0,5.6,1.3,9.9,3.9,12.7c2.6,2.8,6.2,4.3,10.8,4.3c4.6,0,8.2-1.4,10.8-4.1c2.6-2.7,3.9-6.9,3.9-12.4V457h14.9V495.7z M1016.5,480.9
		c0,4-0.7,7.5-2.1,10.5c-1.4,3-3.4,5.5-5.9,7.6c-2.5,2-5.4,3.5-8.7,4.6c-3.3,1-6.9,1.5-10.7,1.5h-11.3v20.6h-14.9V457h27.7
		c4.1,0,7.7,0.6,10.9,1.7s5.9,2.8,8.1,4.9c2.2,2.1,3.9,4.6,5.1,7.5c1.2,2.9,1.8,6.1,1.8,9.7V480.9z M1449.9,527.4
		c0,8-7.5,17.2-62.8,24.7c-37,5-86.2,7.7-138.4,7.7c-52.2,0-101.4-2.7-138.4-7.7c-55.3-7.5-62.8-16.7-62.8-24.7v-71.7
		c0-8,7.5-17.2,62.8-24.7c3.2-0.4,6.4-0.8,9.8-1.2c35.7-4.2,80.9-6.5,128.6-6.5c47.8,0,92.9,2.3,128.6,6.5c3.3,0.4,6.6,0.8,9.8,1.2
		c55.3,7.5,62.8,16.7,62.8,24.7V527.4z"/>
	<path class="st1" d="M677.8,499.1h15v9.9c-3.8,2.8-8.5,4.1-14.1,4.1c-3,0-5.8-0.5-8.3-1.6c-2.5-1.1-4.7-2.6-6.5-4.6
		c-1.8-2-3.3-4.3-4.3-6.9c-1-2.7-1.5-5.6-1.5-8.7v-0.2c0-2.9,0.5-5.7,1.5-8.3c1-2.6,2.4-4.9,4.2-6.8s3.8-3.5,6.2-4.6
		c2.4-1.1,4.9-1.7,7.6-1.7c1.9,0,3.7,0.2,5.3,0.5c1.6,0.3,3.1,0.8,4.5,1.4c1.4,0.6,2.7,1.3,4,2.2c1.3,0.9,2.6,1.8,3.9,2.9l9.4-11.5
		c-1.7-1.5-3.6-2.8-5.4-4c-1.9-1.2-3.9-2.2-6-2.9c-2.1-0.8-4.4-1.4-6.9-1.8c-2.5-0.4-5.3-0.6-8.3-0.6c-5.2,0-9.9,0.9-14.2,2.8
		c-4.3,1.9-8.1,4.4-11.2,7.7s-5.6,7-7.4,11.3c-1.8,4.3-2.7,8.9-2.7,13.8v0.2c0,5.1,0.9,9.8,2.6,14.1c1.7,4.3,4.2,8,7.3,11.2
		c3.1,3.1,6.9,5.6,11.2,7.4c4.4,1.8,9.2,2.6,14.5,2.6c6.2,0,11.7-1.1,16.5-3.2c4.8-2.1,9-4.7,12.5-7.7v-29.8h-29.5V499.1z"/>
	<path class="st1" d="M778.1,493.4c2.7-3.5,4-8,4-13.6v-0.2c0-7.1-2.2-12.7-6.7-16.7c-4.5-4-10.8-6-18.9-6h-31v68.7h14.9v-22h11.7
		l14.5,22h17.4l-16.6-24.5C771.9,499.5,775.4,496.9,778.1,493.4z M767,480.6c0,2.9-1,5.3-3,7.1c-2,1.8-4.8,2.6-8.5,2.6h-15.1v-19.7
		h14.8c3.7,0,6.6,0.8,8.6,2.5c2.1,1.6,3.1,4.1,3.1,7.4V480.6z"/>
	<path class="st1" d="M858.4,466.1c-3.2-3.2-7-5.7-11.4-7.6c-4.4-1.9-9.2-2.8-14.4-2.8c-5.2,0-10.1,0.9-14.5,2.8
		c-4.4,1.9-8.2,4.4-11.4,7.7c-3.2,3.2-5.7,7-7.5,11.3c-1.8,4.3-2.7,8.9-2.7,13.8v0.2c0,4.9,0.9,9.5,2.7,13.8c1.8,4.3,4.3,8,7.5,11.2
		c3.2,3.2,7,5.7,11.4,7.6c4.4,1.9,9.2,2.8,14.4,2.8c5.2,0,10.1-0.9,14.5-2.8c4.4-1.9,8.2-4.4,11.4-7.7c3.2-3.2,5.7-7,7.5-11.3
		c1.8-4.3,2.7-8.9,2.7-13.8v-0.2c0-4.9-0.9-9.5-2.7-13.8C864.1,473,861.6,469.3,858.4,466.1z M852.9,491.5c0,2.9-0.5,5.7-1.5,8.3
		c-1,2.6-2.4,4.9-4.2,6.8c-1.8,2-3.9,3.5-6.4,4.6c-2.5,1.1-5.3,1.7-8.2,1.7c-3,0-5.8-0.6-8.3-1.7c-2.5-1.1-4.7-2.7-6.5-4.7
		c-1.8-2-3.3-4.3-4.3-6.9c-1-2.6-1.5-5.4-1.5-8.3v-0.2c0-2.9,0.5-5.7,1.5-8.3c1-2.6,2.4-4.9,4.2-6.8c1.8-2,3.9-3.5,6.4-4.6
		c2.5-1.1,5.2-1.7,8.3-1.7c3,0,5.7,0.6,8.2,1.7c2.5,1.1,4.7,2.7,6.5,4.7c1.8,2,3.3,4.3,4.3,6.9c1,2.6,1.5,5.4,1.5,8.3V491.5z"/>
	<path class="st1" d="M928.8,496.3c0,5.5-1.3,9.6-3.9,12.4c-2.6,2.7-6.2,4.1-10.8,4.1c-4.6,0-8.2-1.4-10.8-4.3
		c-2.6-2.8-3.9-7.1-3.9-12.7V457h-14.9v39.2c0,10.1,2.6,17.8,7.8,22.9c5.2,5.1,12.4,7.7,21.5,7.7c4.5,0,8.6-0.6,12.3-1.9
		c3.7-1.3,6.8-3.2,9.4-5.8c2.6-2.6,4.6-5.8,6-9.7c1.4-3.9,2.1-8.4,2.1-13.6V457h-14.9V496.3z"/>
	<path class="st1" d="M1009.6,463.5c-2.2-2.1-4.9-3.7-8.1-4.9s-6.8-1.7-10.9-1.7h-27.7v68.7h14.9V505h11.3c3.8,0,7.4-0.5,10.7-1.5
		c3.3-1,6.2-2.5,8.7-4.6c2.5-2,4.4-4.5,5.9-7.6c1.4-3,2.1-6.5,2.1-10.5v-0.2c0-3.5-0.6-6.8-1.8-9.7
		C1013.5,468.1,1011.8,465.6,1009.6,463.5z M1001.4,481.2c0,2.9-1,5.4-3.1,7.4c-2.1,2-5,3-8.7,3h-11.8v-21h11.5
		c3.7,0,6.7,0.9,8.9,2.7c2.2,1.8,3.2,4.3,3.2,7.7V481.2z"/>
	<polygon class="st1" points="589.3,482.4 579.5,458.5 569.8,482.4 545.8,482.5 563.9,497.4 553.9,522.5 579.5,510.2 605.2,522.5 
		595.1,497.4 613.3,482.5 	"/>
	<polygon class="st1" points="491,482.4 481.3,458.5 471.6,482.4 447.5,482.5 465.7,497.4 455.6,522.5 481.3,510.2 507,522.5 
		496.9,497.4 515.1,482.5 	"/>
	<polygon class="st1" points="392.8,482.4 383.1,458.5 373.3,482.4 349.3,482.5 367.5,497.4 357.4,522.5 383.1,510.2 408.7,522.5 
		398.7,497.4 416.8,482.5 	"/>
	<path d="M1387.1,431.1c-3.2-0.4-6.4-0.8-9.8-1.2c-35.7-4.2-80.9-6.5-128.6-6.5c-47.8,0-92.9,2.3-128.6,6.5
		c-3.3,0.4-6.6,0.8-9.8,1.2c-55.3,7.5-62.8,16.7-62.8,24.7v71.7c0,8,7.5,17.2,62.8,24.7c37,5,86.2,7.7,138.4,7.7
		c52.2,0,101.4-2.7,138.4-7.7c55.3-7.5,62.8-16.7,62.8-24.7v-71.7C1449.9,447.7,1442.4,438.5,1387.1,431.1z M1239.3,472
		c-67.1,0-123.9-3.9-143.7-9.3c27.1,2.4,67.9,3.9,113.5,3.9c81.5,0,147.6-4.8,147.6-10.7c0-5.5-57.7-10.1-131.8-10.7
		c4.8,0,9.6-0.1,14.4-0.1c83.5,0,151.2,6,151.2,13.4C1390.5,466,1322.8,472,1239.3,472z M1354.1,526.9c0,0-18.4,1.8-31.1,2.4
		c-12.8,0.6,12.9-2.2,17.3-10.7c4.5-8.5,3-28.3,2.1-29.3c-1-1-10.6-2.1-10.6-2.1s17.6-1.4,22.4-1.8V526.9z M1413.6,517.5
		c0,0-17.2,4.6-43.9,7.6l0-41.5c0,0,27.2-3.3,43.9-7.7V517.5z"/>
	<path class="st1" d="M1369.7,525.2c26.7-3,43.9-7.6,43.9-7.6V476c-16.7,4.4-43.9,7.7-43.9,7.7L1369.7,525.2z"/>
	<path class="st1" d="M1342.3,489.3c1,1,2.4,20.7-2.1,29.3c-4.5,8.5-30.1,11.3-17.3,10.7c12.8-0.6,31.1-2.4,31.1-2.4v-41.5
		c-4.8,0.5-22.4,1.8-22.4,1.8S1341.3,488.4,1342.3,489.3z"/>
	<path class="st1" d="M1356.6,455.9c0,5.9-66.1,10.7-147.6,10.7c-45.6,0-86.4-1.5-113.5-3.9c19.8,5.4,76.6,9.3,143.7,9.3
		c83.5,0,151.2-6,151.2-13.4c0-7.4-67.7-13.4-151.2-13.4c-4.9,0-9.7,0-14.4,0.1C1298.9,445.8,1356.6,450.3,1356.6,455.9z"/>
	<path class="st1" d="M202.2,398.8h36.6c2.9,0,4.6-3.2,3-5.5l-36.7-52.5c-1.3-1.8-0.6-4.3,1.5-5.2c9.4-4.1,17.2-10,23.3-17.7
		c7-8.8,10.4-20.2,10.4-34.1v-0.5c0-17.9-5.8-31.9-17.5-41.9c-11.7-10-28-15-49-15h-77c-2,0-3.6,1.6-3.6,3.5v165.4
		c0,1.9,1.6,3.5,3.6,3.5h31.6c2,0,3.6-1.6,3.6-3.5v-48.1c0-1.9,1.6-3.5,3.6-3.5h25c1.2,0,2.3,0.6,3,1.6l35.6,52
		C199.9,398.2,201,398.8,202.2,398.8z M193.4,303.5c-5.1,4.4-12.5,6.6-22,6.6h-35.7c-2,0-3.6-1.6-3.6-3.5v-42.5
		c0-1.9,1.6-3.5,3.6-3.5h34.9c9.6,0,17,2.1,22.4,6.2c5.4,4.1,8.1,10.3,8.1,18.5v0.5C201.1,293.2,198.5,299.1,193.4,303.5z"/>
	<path class="st1" d="M314.8,260.2h86c2.3,0,4.2-1.9,4.2-4.1v-25.5c0-2.3-1.9-4.1-4.2-4.1H276.6c-2.3,0-4.2,1.9-4.2,4.1v164.2
		c0,2.3,1.9,4.1,4.2,4.1h125.5c2.3,0,4.2-1.9,4.2-4.1v-25.5c0-2.3-1.9-4.1-4.2-4.1h-87.2c-2.3,0-4.2-1.9-4.2-4.1v-27.9
		c0-2.3,1.9-4.1,4.2-4.1h74.6c2.3,0,4.2-1.9,4.2-4.1v-25.5c0-2.3-1.9-4.1-4.2-4.1h-74.6c-2.3,0-4.2-1.9-4.2-4.1v-26.7
		C310.6,262,312.5,260.2,314.8,260.2z"/>
	<path class="st1" d="M494.1,260.7h87c2.3,0,4.2-1.9,4.2-4.1v-26c0-2.3-1.9-4.1-4.2-4.1H455.4c-2.3,0-4.2,1.9-4.2,4.1v164.2
		c0,2.3,1.9,4.1,4.2,4.1h30.3c2.3,0,4.2-1.9,4.2-4.1v-58.5c0-2.3,1.9-4.1,4.2-4.1h75.6c2.3,0,4.2-1.9,4.2-4.1v-26
		c0-2.3-1.9-4.1-4.2-4.1h-75.6c-2.3,0-4.2-1.9-4.2-4.1v-28.9C489.9,262.5,491.8,260.7,494.1,260.7z"/>
	<path class="st1" d="M630.6,398.9h125.5c2.3,0,4.2-1.9,4.2-4.1v-25.5c0-2.3-1.9-4.1-4.2-4.1h-87.2c-2.3,0-4.2-1.9-4.2-4.1v-27.9
		c0-2.3,1.9-4.1,4.2-4.1h74.6c2.3,0,4.2-1.9,4.2-4.1v-25.5c0-2.3-1.9-4.1-4.2-4.1h-74.6c-2.3,0-4.2-1.9-4.2-4.1v-26.7
		c0-2.3,1.9-4.1,4.2-4.1h86c2.3,0,4.2-1.9,4.2-4.1v-25.5c0-2.3-1.9-4.1-4.2-4.1H630.6c-2.3,0-4.2,1.9-4.2,4.1v164.2
		C626.4,397,628.3,398.9,630.6,398.9z"/>
	<path class="st1" d="M809.5,398.9h30.3c2.3,0,4.2-1.9,4.2-4.1v-46.9c0-2.3,1.9-4.1,4.2-4.1h24c1.4,0,2.7,0.7,3.5,1.8l35.3,51.5
		c0.8,1.1,2.1,1.8,3.5,1.8h35c3.4,0,5.4-3.7,3.5-6.5l-35.6-50.9c-1.5-2.1-0.7-5,1.7-6.1c9.1-4.1,16.7-9.9,22.7-17.5
		c7-8.8,10.5-20.2,10.5-34.1v-0.5c0-17.9-5.8-31.9-17.5-41.9c-11.7-10-28-15-49-15h-76.3c-2.3,0-4.2,1.9-4.2,4.1v164.2
		C805.2,397,807.1,398.9,809.5,398.9z M844,264.8c0-2.3,1.9-4.1,4.2-4.1h34.3c9.6,0,17,2.1,22.4,6.2c5.4,4.1,8.1,10.3,8.1,18.5v0.5
		c0,7.4-2.6,13.3-7.7,17.7c-5.1,4.4-12.5,6.6-22,6.6h-35.1c-2.3,0-4.2-1.9-4.2-4.1V264.8z"/>
	<path class="st1" d="M1001.6,398.9h125.5c2.3,0,4.2-1.9,4.2-4.1v-25.5c0-2.3-1.9-4.1-4.2-4.1h-87.2c-2.3,0-4.2-1.9-4.2-4.1v-27.9
		c0-2.3,1.9-4.1,4.2-4.1h74.6c2.3,0,4.2-1.9,4.2-4.1v-25.5c0-2.3-1.9-4.1-4.2-4.1h-74.6c-2.3,0-4.2-1.9-4.2-4.1v-26.7
		c0-2.3,1.9-4.1,4.2-4.1h86c2.3,0,4.2-1.9,4.2-4.1v-25.5c0-2.3-1.9-4.1-4.2-4.1h-124.2c-2.3,0-4.2,1.9-4.2,4.1v164.2
		C997.4,397,999.3,398.9,1001.6,398.9z"/>
	<path class="st1" d="M1180.4,398.9h125.5c2.3,0,4.2-1.9,4.2-4.1v-25.5c0-2.3-1.9-4.1-4.2-4.1h-87.2c-2.3,0-4.2-1.9-4.2-4.1v-27.9
		c0-2.3,1.9-4.1,4.2-4.1h74.6c2.3,0,4.2-1.9,4.2-4.1v-25.5c0-2.3-1.9-4.1-4.2-4.1h-74.6c-2.3,0-4.2-1.9-4.2-4.1v-26.7
		c0-2.3,1.9-4.1,4.2-4.1h86c2.3,0,4.2-1.9,4.2-4.1v-25.5c0-2.3-1.9-4.1-4.2-4.1h-124.2c-2.3,0-4.2,1.9-4.2,4.1v164.2
		C1176.2,397,1178.1,398.9,1180.4,398.9z"/>
	<path class="st1" d="M1460.5,243.9c-8.2-6.1-17.1-10.8-26.6-14.3c-10.6-3.8-22.3-5.7-35-5.7c-8.9,0-17.1,1.2-24.5,3.7
		c-7.4,2.5-13.8,6-19.1,10.6c-5.3,4.6-9.5,10.1-12.4,16.5c-3,6.4-4.4,13.5-4.4,21.4v0.5c0,8.6,1.4,15.8,4.1,21.5
		c2.7,5.8,6.6,10.6,11.5,14.5c5,3.9,11,7.1,18.1,9.8c7.1,2.6,15.1,5,23.8,7.2c7.3,1.8,13.2,3.6,17.7,5.2c4.6,1.7,8.1,3.3,10.7,5
		c2.6,1.7,4.3,3.4,5.2,5.3c0.9,1.9,1.4,4.1,1.4,6.6v0.5c0,5.1-2.2,9.1-6.6,12c-4.4,2.9-10.5,4.3-18.4,4.3c-9.9,0-19-1.9-27.4-5.7
		c-7.4-3.4-14.6-7.8-21.7-13.2c-1.5-1.2-3.7-1-5,0.5l-18,21.6c-1.3,1.5-1.1,3.8,0.4,5c9.7,8.2,20.4,14.4,32,18.6
		c12.7,4.5,25.7,6.8,38.9,6.8c9.4,0,18-1.2,25.7-3.6c7.7-2.4,14.4-5.9,20-10.4c5.6-4.5,9.9-10.2,13-16.8c3.1-6.7,4.7-14.3,4.7-22.9
		V348c0-7.6-1.2-14.1-3.6-19.6c-2.4-5.4-6-10.2-10.7-14.2c-4.7-4-10.5-7.5-17.4-10.4c-6.9-2.9-14.7-5.5-23.5-7.8
		c-7.5-2-13.6-3.7-18.5-5.2c-4.9-1.5-8.7-3.1-11.5-4.7c-2.8-1.6-4.8-3.5-5.8-5.6c-1.1-2.1-1.6-4.5-1.6-7.3v-0.5
		c0-4.3,1.9-7.9,5.6-10.8c3.7-2.9,9.3-4.3,16.7-4.3c7.4,0,14.9,1.5,22.3,4.6c6.5,2.7,13.1,6.2,19.8,10.6c1.6,1.1,3.8,0.7,4.9-0.9
		l15.9-23C1462.3,247.2,1462,245.1,1460.5,243.9z"/>
</g>
</svg>
