<?xml version="1.0" encoding="utf-8"?>
<!-- Generator: Adobe Illustrator 25.1.0, SVG Export Plug-In . SVG Version: 6.00 Build 0)  -->
<svg version="1.1" id="Layer_1" xmlns="http://www.w3.org/2000/svg" xmlns:xlink="http://www.w3.org/1999/xlink" x="0px" y="0px"
	 viewBox="0 0 300 300" style="enable-background:new 0 0 300 300;" xml:space="preserve">
<style type="text/css">
	.st0{fill:#D71F29;}
</style>
<g>
	<path class="st0" d="M65.3,218.9l69.8-49.2l12.7,7.1c0,0-4.8,10.3-4.8,18.6s7.9,16.5,11.1,16.4s14.9-35.1,14.8-38.5
		c-0.1-3.4-1.1-7.9-16.1-18.4c-15-10.4-19.6-16.1-27.6-13.3c-7.9,2.7-22,8.6-25.9,13.8S65.3,218.9,65.3,218.9z"/>
	<path class="st0" d="M134.9,176.9c0,0-59.7,41.2-68.6,47.8s-10.8,16.6-8,20.7s8.1,6.4,21.2-0.6c13.1-7,31.1-18.5,34.6-20.8
		c3.6-2.4,5.6-1.8,6.4-0.2c0.8,1.6,0.3,2.7-3.7,5.3c-4,2.6-25.4,15.4-31.4,19.3c-6,3.9-8.2,10-5,15.5c3.2,5.6,9.7,3.7,16.3,0
		s31-18.5,33.6-20.2c2.6-1.7,4.1-1.2,4.8,0.1c0.6,1.3,0.9,3-1.7,4.9c-2.6,1.9-28.1,17.7-32.8,20.4c-4.7,2.6-2.7,8.3,1.8,11.7
		c4.6,3.4,10.1,5.6,21.6-1.8c11.5-7.4,22.3-15.1,24.9-16.6s5-1.5,5.6-0.2s0.8,3.2-1.7,4.9c-2.5,1.7-24,15.9-26.4,17.4
		s-3.2,4.1,0,6.4s6.1,4.3,13.1,1.8s5.9-3.5,5.7-6.4c-0.3-2.9-1.2-9.3,5.3-12.7c6.6-3.4,11.6-0.7,12.3-1.2c0.6-0.5-1.9-8.4,3.2-12.3
		c5.1-3.9,8.1-4.2,10.8-4.2c2.7,0,2.3,0,2.2-1.7c-0.1-1.7-0.5-6.3,3.9-10.1c4.3-3.9,10.2-6.4,14.7-4.8c4.5,1.6,4.5,3.4,5.7,2.6
		c1.2-0.8,1.5-7.4,7.4-10.1c5.9-2.7,11.7-2,15.3,1.8c3.6,3.8,3.8,3.9,4.7,5c0.9,1.1,2.7,1.3,5.6-0.6c2.9-2,5.7-3.5,4.7-5.9
		c-0.9-2.4-34.6-64.5-37.7-70.3c-3-5.8-3.6-6.4-16.1-10.1c-12.5-3.7-39.1-9-40.7-9.3c-1.6-0.3-3.1-0.1,6.5,6.6s16.6,13.9,18.5,16.4
		c1.9,2.5,2.6,6.6,1.6,12.1s-10.1,29.1-13.4,34.8s-5.8,6.1-10.4,2s-8.5-9-9.7-15.6c-1.2-6.6,3.1-17.2,3.5-18s0.5-1.3-0.9-2.1
		s-4.2-2.2-4.7-2.4C136.8,175.6,136.4,175.8,134.9,176.9z"/>
	<path class="st0" d="M150.9,291.6c0,0,3.3,3.6,5,5.4c1.7,1.9,6.1,3.6,10.2,0.4s4.1-7.4,1.6-11.2c-2.4-3.8-6.4-9.7-10.5-9.3
		c-4,0.5-7.3,5.7-7.6,8.6S149.6,290.1,150.9,291.6z"/>
	<path class="st0" d="M167.7,274.2c0,0,5.4,7.4,8,10.1c2.6,2.7,7.6,4.5,11.6,0.8c3.9-3.7,4.3-7.2,0.3-12.2c-4-5-5.6-7.4-7.9-10
		c-2.2-2.6-6.4-2.5-10.2,0.6C165.7,266.6,166.2,271.8,167.7,274.2z"/>
	<path class="st0" d="M183.9,256.7c0,0,8.7,12.1,11,15.3c2.3,3.2,7.3,4.1,12.7,0s4.6-8.2,1.5-12.8c-3.2-4.7-5.9-7.9-8-11.1
		s-7.6-4.9-13.2-0.7C182.3,251.5,182.3,254.5,183.9,256.7z"/>
	<path class="st0" d="M208.6,247.1c0,0,5.8,8.3,8,11.5c2.2,3.2,6.7,1.7,10.2-1.3c3.5-3,5-8.5,1.7-12.3c-3.3-3.7-4.6-4.8-7.1-7.3
		c-2.5-2.4-6.2-3.9-10.3,0C207.1,241.7,207.1,245,208.6,247.1z"/>
	<path class="st0" d="M54.1,128.8L6.8,219.6l40.4,21.8l47.8-90L54.1,128.8z M37.3,221.2c-3.7,0-6.6-3-6.6-6.6c0-3.7,3-6.6,6.6-6.6
		c3.7,0,6.6,3,6.6,6.6C43.9,218.2,40.9,221.2,37.3,221.2z"/>
	<path class="st0" d="M204.9,151.4l47.8,90l40.4-21.8l-47.3-90.9L204.9,151.4z M256.1,214.6c0-3.7,3-6.6,6.6-6.6
		c3.7,0,6.6,3,6.6,6.6c0,3.7-3,6.6-6.6,6.6C259.1,221.2,256.1,218.2,256.1,214.6z"/>
</g>
</svg>
