<?xml version="1.0" encoding="utf-8"?>
<!-- Generator: Adobe Illustrator 25.1.0, SVG Export Plug-In . SVG Version: 6.00 Build 0)  -->
<svg version="1.1" id="Layer_1" xmlns="http://www.w3.org/2000/svg" xmlns:xlink="http://www.w3.org/1999/xlink" x="0px" y="0px"
	 viewBox="0 0 300 300" style="enable-background:new 0 0 300 300;" xml:space="preserve">
<style type="text/css">
	.st0{fill:#D71F29;}
</style>
<path class="st0" d="M244.8,264.6c-0.6-0.2-1.2-0.3-1.8-0.5c-0.8-0.2-1.4-1.3-1.8-2.3c8.8-6,15.4-16.2,15.4-25.1v-8.1
	c0-10-3.2-18.5-9.3-24.6c-5.5-5.4-12.8-8.5-20.7-8.6c0,0-0.1,0-0.1,0c-7.9,0.1-15.3,3.2-20.7,8.6c-6.1,6.1-9.3,14.6-9.3,24.6v8.1
	c0,8.9,6.6,19.2,15.4,25.1c-0.5,1.1-1.1,2.1-1.9,2.3c-0.6,0.2-1.2,0.3-1.8,0.5c-3,0.8-6.3,1.7-9.4,3l-23.9-24.1
	c3.8-4.8,6.1-10.8,6.1-17.4c0-14.5-11-26.4-25.2-28v-23.2h32.4c3.1,0,5.6-2.5,5.6-5.5v-7c0-16.2-13-19.7-22.4-22.2
	c-0.6-0.2-1.2-0.3-1.7-0.5c-0.8-0.2-1.4-1.3-1.9-2.3c8.8-6,15.4-16.2,15.4-25.1v-8.1c0-10-3.2-18.5-9.3-24.6
	c-5.5-5.4-12.8-8.5-20.7-8.6c0,0-0.1,0-0.1,0c-7.9,0.1-15.3,3.2-20.7,8.6c-6.1,6.1-9.3,14.6-9.3,24.6v8.1c0,8.9,6.6,19.2,15.4,25.1
	c-0.5,1.1-1.1,2.1-1.9,2.3c-0.6,0.2-1.1,0.3-1.7,0.5c-9.5,2.5-22.4,5.9-22.4,22.2v7c0,3,2.5,5.5,5.6,5.5h31v23.2
	c-13.9,1.8-24.7,13.6-24.7,27.9c0,6.6,2.3,12.6,6.1,17.4L107,267.2c-4.5-3.5-10.3-5-15.2-6.3c-0.6-0.2-1.2-0.3-1.8-0.5
	c-0.8-0.2-1.4-1.3-1.8-2.3c8.8-6,15.4-16.2,15.4-25.1v-8.1c0-10-3.2-18.5-9.3-24.6c-5.5-5.4-12.8-8.5-20.7-8.6c0,0-0.1,0-0.1,0
	c-7.9,0.1-15.3,3.2-20.7,8.6c-6.1,6.1-9.3,14.6-9.3,24.6v8.1c0,8.9,6.6,19.2,15.4,25.1c-0.5,1.1-1.1,2.1-1.8,2.3
	c-0.6,0.2-1.2,0.3-1.8,0.5c-9.5,2.5-22.4,6-22.4,22.2v7c0,3,2.5,5.5,5.6,5.5h27.2c1.9,0,3.4-1.5,3.4-3.3c0-1.8-1.5-3.3-3.4-3.3H39.7
	V283c0-9,4.9-12,13.2-14.6l15.2,8.9c2,1.2,3.7,1.9,5.4,1.9s3.5-0.6,5.4-1.9l15.2-8.9c8.3,2.5,13.2,5.6,13.2,14.6v5.8H80.6
	c-1.9,0-3.4,1.5-3.4,3.3c0,1.8,1.5,3.3,3.4,3.3h28c3.1,0,5.6-2.5,5.6-5.5v-7c0-4.5-1-8-2.6-10.8l23.6-24c4.8,3.7,10.9,6,17.5,6
	c6.6,0,12.6-2.2,17.5-6l22.7,22.8c-4,3.2-6.9,8-6.9,15.6v7c0,3,2.5,5.5,5.6,5.5h27.9c1.9,0,3.4-1.5,3.4-3.3s-1.5-3.3-3.4-3.3h-26.6
	v-5.8c0-9,4.9-12,13.2-14.6l15.2,8.9c2,1.2,3.7,1.9,5.4,1.9c1.7,0,3.5-0.6,5.4-1.9l15.2-8.9c8.3,2.5,13.2,5.6,13.2,14.6v5.8h-25.5
	c-1.9,0-3.4,1.5-3.4,3.3c0,1.8,1.5,3.3,3.4,3.3h26.8c3.1,0,5.6-2.5,5.6-5.5v-7C267.2,270.5,254.2,267.1,244.8,264.6z M50.3,232.9
	v-5.2c4.6-1.1,7-3.5,8.7-5.2c1.7-1.7,1.9-1.9,3.6-1.5c1.4,0.4,2.6,0.7,3.6,0.9c3.4,0.9,5.3,1.4,7.3,1.4c2.1,0,3.9-0.5,7.3-1.4
	c1-0.3,2.2-0.6,3.6-0.9c1.7-0.4,1.9-0.2,3.6,1.5c1.7,1.7,4.1,4.1,8.7,5.2v5.2c0,8.4-8.3,18.9-17.8,22.4c-4,1.5-6.9,1.5-10.9,0
	C58.6,251.8,50.3,241.3,50.3,232.9z M75.3,271.6c0,0-0.1,0.1-0.1,0.1c-1.7,1.1-1.8,1.1-3.5,0c0,0-0.1-0.1-0.1-0.1l-10.3-6
	c1.7-1.2,2.8-2.8,3.5-4.4c0.2,0.1,0.5,0.2,0.7,0.3c2.8,1,5.4,1.5,7.9,1.5c2.5,0,5.1-0.5,7.9-1.5c0.2-0.1,0.5-0.2,0.7-0.3
	c0.7,1.5,1.8,3.2,3.5,4.4L75.3,271.6z M140.1,224.8c1.2-1.4,3.4-1.5,4.8-0.3l3.7,3.1l9.7-11.5c1.2-1.4,3.4-1.6,4.8-0.5
	c1.5,1.2,1.7,3.3,0.5,4.7l-11.9,14.2c-0.6,0.7-1.4,1.1-2.4,1.2c-0.1,0-0.2,0-0.3,0c-0.8,0-1.6-0.3-2.2-0.8l-6.3-5.3
	C139,228.4,138.8,226.2,140.1,224.8z M129.8,112.4v-5.2c4.6-1.1,7-3.5,8.7-5.2c1.7-1.7,1.9-1.9,3.6-1.5c1.4,0.3,2.5,0.7,3.5,0.9
	c3.4,0.9,5.3,1.4,7.4,1.4c2.1,0,4-0.5,7.4-1.4c1-0.3,2.1-0.6,3.5-0.9c1.7-0.4,1.9-0.2,3.6,1.5c1.7,1.7,4.1,4.1,8.7,5.2v5.2
	c0,8.3-8.5,18.9-17.8,22.4c-4,1.5-6.9,1.5-10.9,0C138.3,131.3,129.8,120.7,129.8,112.4z M165.2,145.1l-10.3,6c0,0-0.1,0.1-0.1,0.1
	c-1.7,1.1-1.8,1.1-3.4,0c0,0-0.1-0.1-0.1-0.1l-10.3-6c1.7-1.2,2.8-2.9,3.5-4.4c0.2,0.1,0.5,0.2,0.7,0.3c2.8,1,5.3,1.6,7.9,1.6
	c2.5,0,5.1-0.5,7.9-1.6c0.2-0.1,0.5-0.2,0.7-0.3C162.4,142.2,163.5,143.9,165.2,145.1z M119.2,168.2v-5.8c0-9,4.9-12,13.2-14.5
	l15.2,8.9c2,1.2,3.7,1.9,5.4,1.9c1.7,0,3.5-0.6,5.4-1.9l15.2-8.9c8.3,2.5,13.2,5.6,13.2,14.6v5.8H119.2z M203.3,236.7L203.3,236.7
	l0-5.2c4.6-1.1,7-3.5,8.7-5.2c1.7-1.7,1.9-1.9,3.6-1.5c1.4,0.4,2.6,0.7,3.6,0.9c3.4,0.9,5.3,1.4,7.3,1.4c2.1,0,3.9-0.5,7.3-1.4
	c1-0.3,2.2-0.6,3.6-0.9c1.7-0.4,1.9-0.2,3.6,1.5c1.7,1.7,4.1,4.1,8.7,5.2v5.2c0,8.4-8.3,18.9-17.8,22.4c-4,1.5-6.9,1.5-10.9,0
	C211.6,255.6,203.3,245.1,203.3,236.7z M228.4,275.4c0,0-0.1,0-0.1,0.1c-1.7,1.1-1.8,1.1-3.5,0c0,0-0.1-0.1-0.1-0.1l-10.3-6
	c1.7-1.2,2.8-2.9,3.5-4.4c0.2,0.1,0.5,0.2,0.7,0.3c2.8,1,5.3,1.5,7.9,1.5c2.5,0,5.1-0.5,7.9-1.5c0.2-0.1,0.5-0.2,0.7-0.3
	c0.7,1.5,1.8,3.2,3.5,4.4L228.4,275.4z"/>
</svg>
