<?xml version="1.0" encoding="utf-8"?>
<!-- Generator: Adobe Illustrator 25.1.0, SVG Export Plug-In . SVG Version: 6.00 Build 0)  -->
<svg version="1.1" id="Layer_1" xmlns="http://www.w3.org/2000/svg" xmlns:xlink="http://www.w3.org/1999/xlink" x="0px" y="0px"
	 viewBox="0 0 246 157" style="enable-background:new 0 0 246 157;" xml:space="preserve">
<style type="text/css">
	.st0{clip-path:url(#SVGID_2_);fill:#7B442B;}
	.st1{clip-path:url(#SVGID_2_);fill:#753C20;}
	.st2{clip-path:url(#SVGID_2_);fill:#5B4434;}
	.st3{clip-path:url(#SVGID_2_);}
	.st4{fill:#211815;}
	.st5{clip-path:url(#SVGID_2_);fill:#443129;}
	.st6{clip-path:url(#SVGID_2_);fill:#28201D;}
	.st7{clip-path:url(#SVGID_2_);fill:#FCCAA5;}
	.st8{clip-path:url(#SVGID_2_);fill:#FCC194;}
	.st9{fill:#FFE07E;}
	.st10{fill:#FFD067;}
	.st11{fill:#F4FBFE;}
	.st12{fill:#E5F5FD;}
	.st13{fill:#B9CAE8;}
	.st14{fill:#CDE1F4;}
	.st15{fill:#C1D8F0;}
	.st16{fill:#4C81AB;}
	.st17{fill:#417194;}
	.st18{fill:#385E7E;}
	.st19{fill:#E28086;}
	.st20{fill:#80614C;}
	.st21{fill:#BFBFBD;}
	.st22{fill:#96583B;}
	.st23{fill:#904E2E;}
	.st24{fill:#E0E0DE;}
	.st25{fill:#5B4434;}
	.st26{fill:#FCCAA5;}
	.st27{fill:#FCC194;}
	.st28{fill:#3F4E63;}
	.st29{fill:#38465A;}
	.st30{fill:#23303D;}
	.st31{fill:#4E5E73;}
	.st32{clip-path:url(#SVGID_2_);fill:#674F3E;}
	.st33{clip-path:url(#SVGID_2_);fill:#423024;}
	.st34{clip-path:url(#SVGID_2_);fill:#80614C;}
	.st35{opacity:0.15;clip-path:url(#SVGID_4_);fill:none;}
	.st36{opacity:0.15;clip-path:url(#SVGID_2_);fill:none;}
</style>
<g>
	<defs>
		<rect id="SVGID_1_" x="-0.1" y="-0.1" width="246.1" height="157.2"/>
	</defs>
	<clipPath id="SVGID_2_">
		<use xlink:href="#SVGID_1_"  style="overflow:visible;"/>
	</clipPath>
	<path class="st0" d="M125.9,18.5c0.1,0.1,0.1,0.1,0.2,0.2C126,18.6,126,18.6,125.9,18.5z"/>
	<path class="st0" d="M128.8,21.5c0.1,0.1,0.2,0.2,0.3,0.3C129,21.7,128.9,21.6,128.8,21.5z"/>
	<path class="st0" d="M126.8,19.4c0.1,0.1,0.2,0.2,0.2,0.2C127,19.6,126.9,19.5,126.8,19.4z"/>
	<path class="st0" d="M124.7,17.5c0.1,0.1,0.1,0.1,0.2,0.2C124.9,17.6,124.8,17.6,124.7,17.5z"/>
	<path class="st0" d="M127.9,20.5c0,0,0.1,0.1,0.1,0.1C128,20.6,128,20.6,127.9,20.5z"/>
	<path class="st0" d="M122.9,16.1c-0.1-0.1-0.2-0.2-0.3-0.2l0,0C122.7,15.9,122.8,16,122.9,16.1z"/>
	<path class="st0" d="M123.6,16.6c0.1,0.1,0.2,0.2,0.4,0.3C123.9,16.8,123.8,16.7,123.6,16.6z"/>
	<path class="st1" d="M126.1,18.7c0.2,0.2,0.5,0.5,0.7,0.7C126.6,19.2,126.4,18.9,126.1,18.7z"/>
	<path class="st1" d="M122.9,16.1c0.2,0.2,0.5,0.3,0.7,0.5C123.4,16.4,123.2,16.3,122.9,16.1z"/>
	<path class="st1" d="M128.1,20.7c0.2,0.3,0.5,0.5,0.7,0.8C128.5,21.2,128.3,20.9,128.1,20.7z"/>
	<path class="st1" d="M127.1,19.6c0.3,0.3,0.6,0.6,0.9,0.9C127.7,20.2,127.4,19.9,127.1,19.6z"/>
	<path class="st1" d="M124,16.9c0.3,0.2,0.5,0.4,0.7,0.6C124.5,17.3,124.3,17.1,124,16.9z"/>
	<path class="st1" d="M125,17.7c0.3,0.3,0.6,0.5,0.9,0.8C125.6,18.2,125.3,17.9,125,17.7z"/>
	<path class="st2" d="M152.8,63.6c5,0,9.1-4.1,9.1-9.1c0-2.4-1-4.7-2.7-6.5c-1.7-1.7-4-2.7-6.5-2.7h-3v18.3H152.8z"/>
	<path class="st2" d="M91.9,45.4c-5,0-9.1,4.1-9.1,9.1c0,5,4.1,9.1,9.1,9.1h3V45.4H91.9z"/>
	<g class="st3">
		
			<ellipse transform="matrix(0.3827 -0.9239 0.9239 0.3827 20.0981 131.8107)" class="st4" cx="108.7" cy="50.9" rx="4.6" ry="4.6"/>
		<path class="st4" d="M136.8,46.4c-0.2,0-0.5-0.1-0.8-0.1c-2.5,0-4.6,2-4.6,4.6c0,2.5,2,4.6,4.6,4.6c0.3,0,0.5,0,0.8-0.1
			c2.2-0.4,3.8-2.2,3.8-4.5S139,46.7,136.8,46.4z"/>
	</g>
	<path class="st5" d="M131.2,24.6c-0.1-0.1-0.2-0.3-0.3-0.4c-0.1-0.2-0.3-0.4-0.4-0.6c-0.2-0.3-0.4-0.6-0.6-0.9
		c-0.1-0.1-0.2-0.2-0.3-0.3c-0.2-0.2-0.3-0.4-0.5-0.6c-0.1-0.1-0.2-0.2-0.3-0.3c-0.2-0.3-0.5-0.5-0.7-0.8c0,0-0.1-0.1-0.1-0.1
		c-0.3-0.3-0.6-0.6-0.9-0.9c-0.1-0.1-0.2-0.2-0.2-0.2c-0.2-0.2-0.5-0.5-0.7-0.7c-0.1-0.1-0.1-0.1-0.2-0.2c-0.3-0.3-0.6-0.6-0.9-0.8
		c-0.1-0.1-0.1-0.1-0.2-0.2c-0.2-0.2-0.5-0.4-0.7-0.6c-0.1-0.1-0.2-0.2-0.4-0.3c-0.2-0.2-0.5-0.3-0.7-0.5c-0.1-0.1-0.2-0.2-0.3-0.2
		c-1.5-1.1-3.1-2-4.8-2.8c-4.7,0.5-9.3,1.6-13.7,3.4c-2.8,1.5-5.1,3.8-6.6,6.6c-1.7,3.1-2.6,6.6-2.5,10.1v10.1v2.1
		c4.6-5.5,8.3-11.7,11.1-18.3c5.2,1.9,10.8,2.9,16.3,2.9c3.8,0,7.5-0.5,11.1-1.3C132.8,27.3,132,25.9,131.2,24.6z"/>
	<path class="st0" d="M130.5,23.7c0.1,0.2,0.3,0.4,0.4,0.6C130.8,24,130.6,23.8,130.5,23.7z"/>
	<path class="st0" d="M133.5,28.7c-0.7-1.4-1.5-2.8-2.4-4.1C132,25.9,132.8,27.3,133.5,28.7C133.5,28.7,133.5,28.7,133.5,28.7z"/>
	<path class="st0" d="M129.6,22.4c0.1,0.1,0.2,0.2,0.3,0.3C129.8,22.7,129.7,22.6,129.6,22.4z"/>
	<path class="st1" d="M129.9,22.8c0.2,0.3,0.4,0.6,0.6,0.9C130.3,23.4,130.1,23.1,129.9,22.8z"/>
	<path class="st1" d="M129.1,21.8c0.2,0.2,0.4,0.4,0.5,0.6C129.4,22.2,129.2,22,129.1,21.8z"/>
	<path class="st1" d="M130.9,24.2c0.1,0.1,0.2,0.3,0.3,0.4C131.1,24.5,131,24.3,130.9,24.2z"/>
	<path class="st6" d="M140.6,16.5c-5.8-2.4-12-3.7-18.3-3.7c-1.5,0-3.1,0.1-4.6,0.2c1.7,0.8,3.3,1.8,4.8,2.8
		c0.1,0.1,0.2,0.2,0.3,0.2c0.2,0.2,0.5,0.3,0.7,0.5c0.1,0.1,0.2,0.2,0.4,0.3c0.3,0.2,0.5,0.4,0.7,0.6c0.1,0.1,0.1,0.1,0.2,0.2
		c0.3,0.3,0.6,0.5,0.9,0.8c0.1,0.1,0.1,0.1,0.2,0.2c0.2,0.2,0.5,0.5,0.7,0.7c0.1,0.1,0.2,0.2,0.2,0.2c0.3,0.3,0.6,0.6,0.9,0.9
		c0,0,0.1,0.1,0.1,0.1c0.2,0.3,0.5,0.5,0.7,0.8c0.1,0.1,0.2,0.2,0.3,0.3c0.2,0.2,0.4,0.4,0.5,0.6c0.1,0.1,0.2,0.2,0.3,0.3
		c0.2,0.3,0.4,0.6,0.6,0.9c0.1,0.2,0.3,0.4,0.4,0.6c0.1,0.1,0.2,0.3,0.3,0.4c0.9,1.3,1.7,2.7,2.4,4.1c1.8-0.4,3.5-1,5.2-1.6h0
		c2.8,6.6,6.5,12.7,11.1,18.3v-2.1V33.2C149.8,25.7,146,19.3,140.6,16.5z"/>
	<path class="st7" d="M149.6,71.1c-0.1,0.5-0.1,0.9-0.2,1.4C149.4,72,149.5,71.5,149.6,71.1z"/>
	<path class="st7" d="M149.3,72.6c-0.9,4.8-3,9.2-6.2,12.9C146.2,81.9,148.4,77.5,149.3,72.6z"/>
	<path class="st7" d="M143.1,85.6c-0.3,0.4-0.7,0.8-1.1,1.2C142.4,86.4,142.7,86,143.1,85.6z"/>
	<path class="st7" d="M137.6,90.4L137.6,90.4c1.6-1,3.1-2.3,4.4-3.6c-1.1,1.2-2.4,2.2-3.7,3.2C138,90.1,137.8,90.2,137.6,90.4z"/>
	<path class="st7" d="M116.3,94.3c-0.4-0.1-0.8-0.2-1.2-0.3C115.5,94.1,115.9,94.2,116.3,94.3z"/>
	<path class="st7" d="M118.1,94.7c-0.5-0.1-1-0.2-1.5-0.3C117.1,94.5,117.6,94.6,118.1,94.7z"/>
	<path class="st7" d="M114.7,93.9c-0.4-0.1-0.8-0.2-1.2-0.4C114,93.7,114.4,93.8,114.7,93.9z"/>
	<path class="st7" d="M121.2,95c-0.3,0-0.7,0-1-0.1C120.5,94.9,120.8,95,121.2,95z"/>
	<path class="st7" d="M126.3,94.7c4.2-0.6,8-2.1,11.3-4.3v0C134.2,92.7,130.3,94.2,126.3,94.7z"/>
	<path class="st7" d="M119.7,94.9c-0.5-0.1-1-0.1-1.5-0.2C118.7,94.8,119.2,94.8,119.7,94.9z"/>
	<path class="st7" d="M124.4,94.9c-0.3,0-0.7,0-1,0.1C123.7,95,124,95,124.4,94.9z"/>
	<path class="st7" d="M122.4,95c0.1,0,0.2,0,0.3,0c-0.3,0-0.6,0-0.9,0C122,95,122.2,95,122.4,95z"/>
	<path class="st7" d="M126.1,94.7c-0.4,0.1-0.9,0.1-1.3,0.2C125.2,94.9,125.7,94.8,126.1,94.7z"/>
	<path class="st8" d="M142,86.7C142,86.7,142,86.7,142,86.7C142,86.7,142,86.7,142,86.7z"/>
	<path class="st8" d="M143.1,85.5C143.1,85.5,143.1,85.5,143.1,85.5C143.1,85.5,143.1,85.5,143.1,85.5z"/>
	<path class="st8" d="M149.6,70.8c0,0.1,0,0.2,0,0.3C149.6,71,149.6,70.9,149.6,70.8z"/>
	<path class="st8" d="M149.3,72.4c0,0,0,0.1,0,0.1C149.3,72.5,149.3,72.5,149.3,72.4z"/>
	<path class="st8" d="M115.1,94c-0.1,0-0.2-0.1-0.4-0.1C114.9,94,115,94,115.1,94z"/>
	<path class="st8" d="M126.3,94.7c0,0-0.1,0-0.1,0C126.2,94.7,126.2,94.7,126.3,94.7z"/>
	<path class="st8" d="M113.4,93.5c0.1,0,0.2,0,0.2,0.1C113.5,93.5,113.4,93.5,113.4,93.5C113.4,93.5,113.4,93.5,113.4,93.5z"/>
	<path class="st8" d="M123.3,95c-0.2,0-0.4,0-0.6,0C122.9,95,123.1,95,123.3,95z"/>
	<path class="st8" d="M124.8,94.9c-0.1,0-0.3,0-0.4,0C124.5,94.9,124.6,94.9,124.8,94.9z"/>
	<path class="st8" d="M118.2,94.7C118.1,94.7,118.1,94.7,118.2,94.7C118.1,94.7,118.1,94.7,118.2,94.7z"/>
	<path class="st8" d="M121.8,95c-0.2,0-0.4,0-0.6,0C121.4,95,121.6,95,121.8,95z"/>
	<path class="st8" d="M116.6,94.4c-0.1,0-0.2-0.1-0.3-0.1C116.4,94.3,116.5,94.4,116.6,94.4z"/>
	<path class="st8" d="M120.2,94.9c-0.2,0-0.3,0-0.5,0C119.8,94.9,120,94.9,120.2,94.9z"/>
	<g class="st3">
		<path class="st9" d="M62.9,113.9c2.5,0,4.5-2,4.5-4.5V23.2c0-2.5-2-4.5-4.5-4.5H10.5c-2.5,0-4.5,2-4.5,4.5v86.2
			c0,2.5,2,4.5,4.5,4.5h64.4H62.9z M62.9,113.9"/>
		<path class="st10" d="M74.9,18.7H61.5c2.5,0,4.5,2,4.5,4.5v86.2c0,2.5-2,4.5-4.5,4.5h13.4c2.5,0,4.5-2,4.5-4.5V23.2
			C79.4,20.7,77.4,18.7,74.9,18.7L74.9,18.7z M74.9,18.7"/>
		<path class="st11" d="M76.9,118.4V32.2c0-2.5-2-4.5-4.5-4.5H39.3c-1.7,0-3.4,0.7-4.6,1.9L16.9,47.5c-1.2,1.2-1.9,2.9-1.9,4.6v66.3
			c0,2.5,2,4.5,4.5,4.5h52.9C74.9,122.9,76.9,120.9,76.9,118.4L76.9,118.4z M76.9,118.4"/>
		<path class="st12" d="M83.9,27.7H70.5c2.5,0,4.5,2,4.5,4.5v86.2c0,2.5-2,4.5-4.5,4.5h13.3c2.5,0,4.5-2,4.5-4.5V32.2
			C88.4,29.7,86.4,27.7,83.9,27.7L83.9,27.7z M83.9,27.7"/>
		<path class="st13" d="M110.7,97.8v-3.4c0-1.7-1.4-3.1-3.1-3.1c-1.3,0-2.5-0.9-2.9-2.1c-0.3-1-0.8-2-1.2-3
			c-0.6-1.2-0.4-2.6,0.6-3.5v0c1.2-1.2,1.2-3.1,0-4.3l-2.4-2.4c-1.2-1.2-3.1-1.2-4.3,0c-0.9,0.9-2.4,1.2-3.5,0.6c-1-0.5-2-0.9-3-1.2
			c-1.3-0.4-2.1-1.6-2.1-2.9c0-1.7-1.4-3.1-3.1-3.1h-3.4c-1.7,0-3.1,1.4-3.1,3.1c0,1.3-0.9,2.5-2.1,2.9c-1,0.3-2,0.8-3,1.2
			c-1.2,0.6-2.6,0.4-3.5-0.6h0c-1.2-1.2-3.1-1.2-4.3,0l-2.4,2.4c-1.2,1.2-1.2,3.1,0,4.3v0c0.9,0.9,1.2,2.4,0.6,3.5
			c-0.5,1-0.9,2-1.2,3c-0.4,1.3-1.6,2.1-2.9,2.1c-1.7,0-3.1,1.4-3.1,3.1v3.4c0,1.7,1.4,3.1,3.1,3.1c1.3,0,2.5,0.9,2.9,2.1
			c0.3,1,0.8,2,1.2,3c0.6,1.2,0.4,2.6-0.6,3.5c-1.2,1.2-1.2,3.1,0,4.3l2.4,2.4c1.2,1.2,3.1,1.2,4.3,0h0c0.9-0.9,2.4-1.2,3.5-0.6
			c1,0.5,2,0.9,3,1.2c1.3,0.4,2.1,1.6,2.1,2.9c0,1.7,1.4,3.1,3.1,3.1h3.4c1.7,0,3.1-1.4,3.1-3.1c0-1.3,0.9-2.5,2.1-2.9
			c1-0.3,2-0.8,3-1.2c1.2-0.6,2.6-0.4,3.5,0.6c1.2,1.2,3.1,1.2,4.3,0l2.4-2.4c1.2-1.2,1.2-3.1,0-4.3c-0.9-0.9-1.2-2.4-0.6-3.5
			c0.5-1,0.9-2,1.2-3c0.4-1.3,1.6-2.1,2.9-2.1C109.3,100.9,110.7,99.5,110.7,97.8L110.7,97.8z M110.7,97.8"/>
		<path class="st14" d="M99.2,96.2c0,8.5-6.9,15.3-15.3,15.3c-8.5,0-15.3-6.9-15.3-15.3c0-8.5,6.9-15.3,15.3-15.3
			C92.4,80.8,99.2,87.7,99.2,96.2L99.2,96.2z M99.2,96.2"/>
		<path class="st15" d="M83.9,80.8c-2.4,0-4.6,0.5-6.6,1.5c5.2,2.5,8.7,7.7,8.7,13.8c0,6.1-3.6,11.4-8.7,13.8c2,1,4.2,1.5,6.6,1.5
			c8.5,0,15.3-6.9,15.3-15.3C99.2,87.7,92.4,80.8,83.9,80.8L83.9,80.8z M83.9,80.8"/>
		<path class="st16" d="M83.9,111.5c4.7,0,9-2.2,11.8-5.5c-2.2-4.3-6.7-7.2-11.8-7.2c-5.1,0-9.6,2.9-11.8,7.2
			C74.9,109.3,79.1,111.5,83.9,111.5L83.9,111.5z M83.9,111.5"/>
		<path class="st17" d="M83.9,111.5c4.7,0,9-2.2,11.8-5.5c-1.9-3.7-5.6-6.4-9.9-7.1c-0.9,4.9-4.1,9-8.5,11.1
			C79.3,110.9,81.5,111.5,83.9,111.5L83.9,111.5z M83.9,111.5"/>
		<path class="st18" d="M89.6,94.4c0,3.1-2.5,5.7-5.7,5.7c-3.1,0-5.7-2.5-5.7-5.7c0-3.1,2.5-5.7,5.7-5.7
			C87,88.8,89.6,91.3,89.6,94.4L89.6,94.4z M89.6,94.4"/>
		<path class="st18" d="M84.1,88.8c1.2,2.2,1.9,4.7,1.9,7.4c0,1.3-0.2,2.5-0.5,3.7c2.3-0.7,4-2.9,4-5.4
			C89.6,91.4,87.1,88.9,84.1,88.8L84.1,88.8z M84.1,88.8"/>
		<path class="st19" d="M32.1,49.4c2.5,0,4.5-2,4.5-4.5V28.3c-0.7,0.3-1.3,0.8-1.9,1.3L16.9,47.5c-0.6,0.6-1,1.2-1.3,1.9L32.1,49.4
			L32.1,49.4z M32.1,49.4"/>
		<path class="st14" d="M77.2,39.9H51.1c-1.2,0-2.2,1-2.2,2.2v4.3c0,1.2,1,2.2,2.2,2.2h26.1c1.2,0,2.2-1,2.2-2.2v-4.3
			C79.4,40.9,78.4,39.9,77.2,39.9L77.2,39.9z M77.2,39.9"/>
		<path class="st15" d="M77.2,48.5c1.2,0,2.2-1,2.2-2.2v-4.3c0-1.2-1-2.2-2.2-2.2h-2.1v8.6L77.2,48.5L77.2,48.5z M77.2,48.5"/>
		<path class="st17" d="M48.9,77.1H24c-0.9,0-1.6-0.7-1.6-1.6c0-0.9,0.7-1.6,1.6-1.6h24.9c0.9,0,1.6,0.7,1.6,1.6
			C50.5,76.4,49.8,77.1,48.9,77.1L48.9,77.1z M48.9,77.1"/>
		<path class="st17" d="M48.9,87.7H24c-0.9,0-1.6-0.7-1.6-1.6c0-0.9,0.7-1.6,1.6-1.6h24.9c0.9,0,1.6,0.7,1.6,1.6
			C50.5,87,49.8,87.7,48.9,87.7L48.9,87.7z M48.9,87.7"/>
		<path class="st17" d="M48.9,98.3H24c-0.9,0-1.6-0.7-1.6-1.6c0-0.9,0.7-1.6,1.6-1.6h24.9c0.9,0,1.6,0.7,1.6,1.6
			C50.5,97.6,49.8,98.3,48.9,98.3L48.9,98.3z M48.9,98.3"/>
		<path class="st17" d="M36.6,108.9H24c-0.9,0-1.6-0.7-1.6-1.6s0.7-1.6,1.6-1.6h12.6c0.9,0,1.6,0.7,1.6,1.6S37.5,108.9,36.6,108.9
			L36.6,108.9z M36.6,108.9"/>
	</g>
	<g class="st3">
		<path class="st20" d="M107.2,95v7.9l9.4,9.4l6.3,6.3l6.3-6.3l9.4-9.4V95C129.1,101.4,116.7,101.4,107.2,95z"/>
		<polygon class="st21" points="129.2,161.8 138.6,137 129.2,125.9 129.2,149.7 		"/>
		<polygon class="st21" points="116.6,125.9 107.2,137 116.6,161.8 116.6,160.9 		"/>
		<path class="st22" d="M116.6,160.9c4.3-3.5,8.5-7.2,12.6-11.1v-23.8l-6.3-7.3l-6.3,7.3V160.9z"/>
		<path class="st23" d="M116.6,160.9v0.9l6.3,16.5l6.3-16.5v-12.1C125.1,153.7,120.9,157.4,116.6,160.9z"/>
		<polygon class="st24" points="116.6,125.9 116.6,112.3 107.2,102.9 97.8,112.3 107.2,137 		"/>
		<polygon class="st24" points="122.9,118.6 116.6,112.3 116.6,125.9 		"/>
		<polygon class="st24" points="129.2,125.9 138.6,137 148,112.3 138.6,102.9 129.2,112.3 		"/>
		<polygon class="st24" points="129.2,112.3 122.9,118.6 129.2,125.9 		"/>
		<path class="st25" d="M126.8,93.2c-0.5,0.1-0.9,0.1-1.4,0.2c-0.2,0-0.3,0-0.5,0c-0.4,0-0.7,0-1.1,0.1c-0.2,0-0.4,0-0.6,0
			c-0.1,0-0.2,0-0.4,0c-0.2,0-0.4,0-0.6,0c-0.2,0-0.4,0-0.6,0c-0.4,0-0.7,0-1.1-0.1c-0.2,0-0.3,0-0.5,0c-0.5-0.1-1.1-0.1-1.6-0.2
			c0,0,0,0-0.1,0c-0.5-0.1-1-0.2-1.5-0.3c-0.1,0-0.2-0.1-0.3-0.1c-0.4-0.1-0.8-0.2-1.2-0.3c-0.1,0-0.3-0.1-0.4-0.1
			c-0.4-0.1-0.8-0.2-1.2-0.4c-0.1,0-0.2,0-0.2-0.1c0,0,0,0,0,0c-2.3-0.8-4.4-1.9-6.4-3.2V95c9.5,6.4,21.9,6.4,31.4,0v-6.3
			c-3.4,2.3-7.4,3.9-11.7,4.5C126.9,93.2,126.8,93.2,126.8,93.2z"/>
		<path class="st26" d="M120.1,93.4c-0.5-0.1-1.1-0.1-1.6-0.2C119.1,93.2,119.6,93.3,120.1,93.4z"/>
		<path class="st26" d="M126.9,93.2c4.3-0.6,8.3-2.2,11.7-4.5v0C135,91.1,131,92.6,126.9,93.2z"/>
		<path class="st26" d="M122.9,93.5c0.1,0,0.2,0,0.4,0c-0.3,0-0.6,0-0.9,0C122.5,93.5,122.7,93.5,122.9,93.5z"/>
		<path class="st26" d="M116.6,92.8c-0.4-0.1-0.8-0.2-1.2-0.3C115.8,92.6,116.2,92.7,116.6,92.8z"/>
		<path class="st26" d="M121.7,93.5c-0.4,0-0.7,0-1.1-0.1C121,93.4,121.3,93.4,121.7,93.5z"/>
		<path class="st26" d="M115,92.4c-0.4-0.1-0.8-0.2-1.2-0.4C114.2,92.1,114.6,92.3,115,92.4z"/>
		<path class="st26" d="M118.5,93.1c-0.5-0.1-1-0.2-1.5-0.3C117.5,93,118,93.1,118.5,93.1z"/>
		<path class="st26" d="M126.8,93.2c-0.5,0.1-0.9,0.1-1.4,0.2C125.9,93.3,126.3,93.3,126.8,93.2z"/>
		<path class="st26" d="M124.9,93.4c-0.4,0-0.7,0-1.1,0.1C124.2,93.5,124.6,93.4,124.9,93.4z"/>
		<path class="st27" d="M117,92.9c-0.1,0-0.2-0.1-0.3-0.1C116.7,92.8,116.9,92.8,117,92.9z"/>
		<path class="st27" d="M115.4,92.5c-0.1,0-0.3-0.1-0.4-0.1C115.1,92.4,115.3,92.4,115.4,92.5z"/>
		<path class="st27" d="M120.6,93.4c-0.2,0-0.3,0-0.5,0C120.3,93.4,120.4,93.4,120.6,93.4z"/>
		<path class="st27" d="M126.9,93.2c0,0-0.1,0-0.1,0C126.8,93.2,126.9,93.2,126.9,93.2z"/>
		<path class="st27" d="M123.9,93.5c-0.2,0-0.4,0-0.6,0C123.5,93.5,123.7,93.5,123.9,93.5z"/>
		<path class="st27" d="M122.3,93.5c-0.2,0-0.4,0-0.6,0C121.9,93.5,122.1,93.5,122.3,93.5z"/>
		<path class="st27" d="M118.5,93.2C118.5,93.2,118.5,93.1,118.5,93.2C118.5,93.1,118.5,93.2,118.5,93.2z"/>
		<path class="st27" d="M113.6,91.9c0.1,0,0.2,0,0.2,0.1C113.7,92,113.7,91.9,113.6,91.9C113.6,91.9,113.6,91.9,113.6,91.9z"/>
		<path class="st27" d="M125.4,93.4c-0.2,0-0.3,0-0.5,0C125.1,93.4,125.2,93.4,125.4,93.4z"/>
		<path class="st28" d="M170.7,118.8l-13.2-3.3l3.1,31.4H148l3.1,12.6l-22,14.7v4.2H126v5.1c21-10,42-25.1,56.5-48.3v-1
			C182.6,126.8,177.7,120.5,170.7,118.8z"/>
		<path class="st28" d="M119.8,178.3h-3.1v-4.2l-22-14.7l3.1-12.6H85.2l3.1-31.4l-13.2,3.3c-7,1.7-11.9,8-11.9,15.2v60h18.8v-28.3
			h6.3V194h9.4c7.1-2.1,14.5-4.6,22-7.8V178.3z M113.5,187.7h-6.3v-6.3h6.3V187.7z"/>
		<polygon class="st28" points="116.6,174.1 116.6,178.3 119.8,178.3 122.9,178.3 		"/>
		<polygon class="st28" points="126,178.3 129.2,178.3 129.2,174.1 122.9,178.3 		"/>
		<path class="st29" d="M97.7,194h22v-7.8C112.2,189.4,104.8,191.9,97.7,194z"/>
		<path class="st29" d="M126,183.3V194h31.4v-28.3h6.3V194h18.8v-59C168,158.2,147.1,173.4,126,183.3z"/>
		<path class="st30" d="M119.8,178.3v7.9c2.1-0.9,4.2-1.8,6.3-2.8v-5.1h-3.1H119.8z"/>
		<path class="st30" d="M119.8,186.2v7.8h6.3v-10.6C123.9,184.3,121.8,185.3,119.8,186.2z"/>
		<rect x="107.2" y="181.4" class="st30" width="6.3" height="6.3"/>
		<rect x="82.1" y="165.7" class="st30" width="6.3" height="28.3"/>
		<rect x="157.4" y="165.7" class="st30" width="6.3" height="28.3"/>
		<polygon class="st31" points="107.2,137 107.2,137 97.8,112.3 88.4,115.5 85.2,146.9 97.8,146.9 94.6,159.4 116.6,174.1 
			116.6,161.8 		"/>
		<polygon class="st31" points="116.6,161.8 116.6,174.1 122.9,178.3 		"/>
		<polygon class="st31" points="107.2,137 97.8,112.3 107.2,137 		"/>
		<polygon class="st31" points="138.6,137 129.2,161.8 129.2,174.1 151.2,159.4 148,146.9 160.6,146.9 157.4,115.5 148,112.3 
			138.6,137 		"/>
		<polygon class="st31" points="122.9,178.3 129.2,174.1 129.2,161.8 		"/>
		<polygon class="st31" points="138.6,137 148,112.3 138.6,137 		"/>
	</g>
	<path class="st7" d="M149.7,69.5c0,0.4-0.1,0.9-0.1,1.3C149.6,70.4,149.7,69.9,149.7,69.5z"/>
	<path class="st7" d="M149.8,67.6c0,0.5,0,1.1,0,1.6C149.8,68.7,149.8,68.1,149.8,67.6z"/>
	<path class="st8" d="M149.7,69.2c0,0.1,0,0.2,0,0.3C149.7,69.4,149.7,69.3,149.7,69.2z"/>
	<path class="st32" d="M138.7,27.1L138.7,27.1c-1.7,0.6-3.4,1.2-5.2,1.6c0,0,0,0,0,0c2.2,4.5,3.3,9.4,3.3,14.5v3.1
		c2.2,0.4,3.8,2.2,3.8,4.5s-1.6,4.1-3.8,4.5v6.2c0,8-2.8,15.4-7.7,21.3c-1.9,2.3-4.1,4.4-6.6,6.1c-2.8,2-5.9,3.5-9.2,4.6
		c0.1,0,0.1,0,0.2,0.1c0.4,0.1,0.8,0.3,1.2,0.4c0.1,0,0.2,0.1,0.4,0.1c0.4,0.1,0.8,0.2,1.2,0.3c0.1,0,0.2,0.1,0.3,0.1
		c0.5,0.1,1,0.2,1.5,0.3c0,0,0,0,0.1,0c0.5,0.1,1,0.1,1.5,0.2c0.2,0,0.3,0,0.5,0c0.3,0,0.7,0.1,1,0.1c0.2,0,0.4,0,0.6,0
		c0.3,0,0.6,0,0.9,0c0.2,0,0.4,0,0.6,0c0.3,0,0.7,0,1-0.1c0.1,0,0.3,0,0.4,0c0.4,0,0.9-0.1,1.3-0.2c0,0,0.1,0,0.1,0
		c4-0.6,7.9-2.1,11.3-4.4c0.2-0.1,0.4-0.3,0.6-0.4c1.4-1,2.6-2,3.7-3.2c0,0,0,0,0,0c0.4-0.4,0.7-0.8,1.1-1.2c0,0,0-0.1,0.1-0.1
		c3.2-3.7,5.3-8.1,6.2-12.9c0,0,0-0.1,0-0.1c0.1-0.5,0.1-0.9,0.2-1.4c0-0.1,0-0.2,0-0.3c0-0.4,0.1-0.9,0.1-1.3c0-0.1,0-0.2,0-0.3
		c0-0.5,0-1,0-1.6v-4V45.4C145.2,39.9,141.5,33.7,138.7,27.1z"/>
	<path class="st33" d="M113.2,73.7h5.7c5.3,0,10.3-1.2,14.1-3.5L130,65c-2.9,1.7-6.9,2.6-11.1,2.6h-5.7V73.7z"/>
	<path class="st34" d="M136.1,46.3c0.3,0,0.5,0,0.8,0.1v-3.1c0-5.1-1.2-10.1-3.3-14.5c-3.6,0.9-7.4,1.3-11.1,1.3
		c-5.6,0-11.1-1-16.3-2.9c-2.8,6.6-6.5,12.7-11.1,18.3l0.2,18.3h0L95,45.4v18.3v4c0,9.5,4.8,17.9,12.2,22.8v0c1.9,1.3,4,2.3,6.2,3.1
		c3.4-1.1,6.5-2.6,9.2-4.6c2.5-1.7,4.7-3.8,6.6-6.1c4.8-5.9,7.7-13.3,7.7-21.3v-6.2c-0.2,0-0.5,0.1-0.8,0.1c-2.5,0-4.6-2-4.6-4.6
		C131.5,48.3,133.6,46.3,136.1,46.3z M108.7,55.4c-2.5,0-4.6-2-4.6-4.6c0-2.5,2-4.6,4.6-4.6s4.6,2,4.6,4.6
		C113.2,53.4,111.2,55.4,108.7,55.4z M133,70.2c-3.8,2.2-8.8,3.5-14.1,3.5h-5.7v-6.1h5.7c4.2,0,8.2-1,11.1-2.6L133,70.2z"/>
	<path class="st7" d="M149.6,71.1c-0.1,0.5-0.1,0.9-0.2,1.4C149.4,72,149.5,71.5,149.6,71.1z"/>
	<path class="st7" d="M149.3,72.6c-0.9,4.8-3,9.2-6.2,12.9C146.2,81.9,148.4,77.5,149.3,72.6z"/>
	<path class="st7" d="M143.1,85.6c-0.3,0.4-0.7,0.8-1.1,1.2C142.4,86.4,142.7,86,143.1,85.6z"/>
	<path class="st7" d="M137.6,90.4L137.6,90.4c1.6-1,3.1-2.3,4.4-3.6c-1.1,1.2-2.4,2.2-3.7,3.2C138,90.1,137.8,90.2,137.6,90.4z"/>
	<path class="st7" d="M116.3,94.3c-0.4-0.1-0.8-0.2-1.2-0.3C115.5,94.1,115.9,94.2,116.3,94.3z"/>
	<path class="st7" d="M118.1,94.7c-0.5-0.1-1-0.2-1.5-0.3C117.1,94.5,117.6,94.6,118.1,94.7z"/>
	<path class="st7" d="M114.7,93.9c-0.4-0.1-0.8-0.2-1.2-0.4C114,93.7,114.4,93.8,114.7,93.9z"/>
	<path class="st7" d="M121.2,95c-0.3,0-0.7,0-1-0.1C120.5,94.9,120.8,95,121.2,95z"/>
	<path class="st7" d="M126.3,94.7c4.2-0.6,8-2.1,11.3-4.3v0C134.2,92.7,130.3,94.2,126.3,94.7z"/>
	<path class="st7" d="M119.7,94.9c-0.5-0.1-1-0.1-1.5-0.2C118.7,94.8,119.2,94.8,119.7,94.9z"/>
	<path class="st7" d="M124.4,94.9c-0.3,0-0.7,0-1,0.1C123.7,95,124,95,124.4,94.9z"/>
	<path class="st7" d="M122.4,95c0.1,0,0.2,0,0.3,0c-0.3,0-0.6,0-0.9,0C122,95,122.2,95,122.4,95z"/>
	<path class="st7" d="M126.1,94.7c-0.4,0.1-0.9,0.1-1.3,0.2C125.2,94.9,125.7,94.8,126.1,94.7z"/>
	<path class="st8" d="M142,86.7C142,86.7,142,86.7,142,86.7C142,86.7,142,86.7,142,86.7z"/>
	<path class="st8" d="M143.1,85.5C143.1,85.5,143.1,85.5,143.1,85.5C143.1,85.5,143.1,85.5,143.1,85.5z"/>
	<path class="st8" d="M149.6,70.8c0,0.1,0,0.2,0,0.3C149.6,71,149.6,70.9,149.6,70.8z"/>
	<path class="st8" d="M149.3,72.4c0,0,0,0.1,0,0.1C149.3,72.5,149.3,72.5,149.3,72.4z"/>
	<path class="st8" d="M115.1,94c-0.1,0-0.2-0.1-0.4-0.1C114.9,94,115,94,115.1,94z"/>
	<path class="st8" d="M126.3,94.7c0,0-0.1,0-0.1,0C126.2,94.7,126.2,94.7,126.3,94.7z"/>
	<path class="st8" d="M113.4,93.5c0.1,0,0.2,0,0.2,0.1C113.5,93.5,113.4,93.5,113.4,93.5C113.4,93.5,113.4,93.5,113.4,93.5z"/>
	<path class="st8" d="M123.3,95c-0.2,0-0.4,0-0.6,0C122.9,95,123.1,95,123.3,95z"/>
	<path class="st8" d="M124.8,94.9c-0.1,0-0.3,0-0.4,0C124.5,94.9,124.6,94.9,124.8,94.9z"/>
	<path class="st8" d="M118.2,94.7C118.1,94.7,118.1,94.7,118.2,94.7C118.1,94.7,118.1,94.7,118.2,94.7z"/>
	<path class="st8" d="M121.8,95c-0.2,0-0.4,0-0.6,0C121.4,95,121.6,95,121.8,95z"/>
	<path class="st8" d="M116.6,94.4c-0.1,0-0.2-0.1-0.3-0.1C116.4,94.3,116.5,94.4,116.6,94.4z"/>
	<path class="st8" d="M120.2,94.9c-0.2,0-0.3,0-0.5,0C119.8,94.9,120,94.9,120.2,94.9z"/>
	<g class="st3">
		<path class="st9" d="M62.9,113.9c2.5,0,4.5-2,4.5-4.5V23.2c0-2.5-2-4.5-4.5-4.5H10.5c-2.5,0-4.5,2-4.5,4.5v86.2
			c0,2.5,2,4.5,4.5,4.5h64.4H62.9z M62.9,113.9"/>
		<path class="st10" d="M74.9,18.7H61.5c2.5,0,4.5,2,4.5,4.5v86.2c0,2.5-2,4.5-4.5,4.5h13.4c2.5,0,4.5-2,4.5-4.5V23.2
			C79.4,20.7,77.4,18.7,74.9,18.7L74.9,18.7z M74.9,18.7"/>
		<path class="st11" d="M76.9,118.4V32.2c0-2.5-2-4.5-4.5-4.5H39.3c-1.7,0-3.4,0.7-4.6,1.9L16.9,47.5c-1.2,1.2-1.9,2.9-1.9,4.6v66.3
			c0,2.5,2,4.5,4.5,4.5h52.9C74.9,122.9,76.9,120.9,76.9,118.4L76.9,118.4z M76.9,118.4"/>
		<path class="st12" d="M83.9,27.7H70.5c2.5,0,4.5,2,4.5,4.5v86.2c0,2.5-2,4.5-4.5,4.5h13.3c2.5,0,4.5-2,4.5-4.5V32.2
			C88.4,29.7,86.4,27.7,83.9,27.7L83.9,27.7z M83.9,27.7"/>
		<path class="st13" d="M110.7,97.8v-3.4c0-1.7-1.4-3.1-3.1-3.1c-1.3,0-2.5-0.9-2.9-2.1c-0.3-1-0.8-2-1.2-3
			c-0.6-1.2-0.4-2.6,0.6-3.5v0c1.2-1.2,1.2-3.1,0-4.3l-2.4-2.4c-1.2-1.2-3.1-1.2-4.3,0c-0.9,0.9-2.4,1.2-3.5,0.6c-1-0.5-2-0.9-3-1.2
			c-1.3-0.4-2.1-1.6-2.1-2.9c0-1.7-1.4-3.1-3.1-3.1h-3.4c-1.7,0-3.1,1.4-3.1,3.1c0,1.3-0.9,2.5-2.1,2.9c-1,0.3-2,0.8-3,1.2
			c-1.2,0.6-2.6,0.4-3.5-0.6h0c-1.2-1.2-3.1-1.2-4.3,0l-2.4,2.4c-1.2,1.2-1.2,3.1,0,4.3v0c0.9,0.9,1.2,2.4,0.6,3.5
			c-0.5,1-0.9,2-1.2,3c-0.4,1.3-1.6,2.1-2.9,2.1c-1.7,0-3.1,1.4-3.1,3.1v3.4c0,1.7,1.4,3.1,3.1,3.1c1.3,0,2.5,0.9,2.9,2.1
			c0.3,1,0.8,2,1.2,3c0.6,1.2,0.4,2.6-0.6,3.5c-1.2,1.2-1.2,3.1,0,4.3l2.4,2.4c1.2,1.2,3.1,1.2,4.3,0h0c0.9-0.9,2.4-1.2,3.5-0.6
			c1,0.5,2,0.9,3,1.2c1.3,0.4,2.1,1.6,2.1,2.9c0,1.7,1.4,3.1,3.1,3.1h3.4c1.7,0,3.1-1.4,3.1-3.1c0-1.3,0.9-2.5,2.1-2.9
			c1-0.3,2-0.8,3-1.2c1.2-0.6,2.6-0.4,3.5,0.6c1.2,1.2,3.1,1.2,4.3,0l2.4-2.4c1.2-1.2,1.2-3.1,0-4.3c-0.9-0.9-1.2-2.4-0.6-3.5
			c0.5-1,0.9-2,1.2-3c0.4-1.3,1.6-2.1,2.9-2.1C109.3,100.9,110.7,99.5,110.7,97.8L110.7,97.8z M110.7,97.8"/>
		<path class="st14" d="M99.2,96.2c0,8.5-6.9,15.3-15.3,15.3c-8.5,0-15.3-6.9-15.3-15.3c0-8.5,6.9-15.3,15.3-15.3
			C92.4,80.8,99.2,87.7,99.2,96.2L99.2,96.2z M99.2,96.2"/>
		<path class="st15" d="M83.9,80.8c-2.4,0-4.6,0.5-6.6,1.5c5.2,2.5,8.7,7.7,8.7,13.8c0,6.1-3.6,11.4-8.7,13.8c2,1,4.2,1.5,6.6,1.5
			c8.5,0,15.3-6.9,15.3-15.3C99.2,87.7,92.4,80.8,83.9,80.8L83.9,80.8z M83.9,80.8"/>
		<path class="st16" d="M83.9,111.5c4.7,0,9-2.2,11.8-5.5c-2.2-4.3-6.7-7.2-11.8-7.2c-5.1,0-9.6,2.9-11.8,7.2
			C74.9,109.3,79.1,111.5,83.9,111.5L83.9,111.5z M83.9,111.5"/>
		<path class="st17" d="M83.9,111.5c4.7,0,9-2.2,11.8-5.5c-1.9-3.7-5.6-6.4-9.9-7.1c-0.9,4.9-4.1,9-8.5,11.1
			C79.3,110.9,81.5,111.5,83.9,111.5L83.9,111.5z M83.9,111.5"/>
		<path class="st18" d="M89.6,94.4c0,3.1-2.5,5.7-5.7,5.7c-3.1,0-5.7-2.5-5.7-5.7c0-3.1,2.5-5.7,5.7-5.7
			C87,88.8,89.6,91.3,89.6,94.4L89.6,94.4z M89.6,94.4"/>
		<path class="st18" d="M84.1,88.8c1.2,2.2,1.9,4.7,1.9,7.4c0,1.3-0.2,2.5-0.5,3.7c2.3-0.7,4-2.9,4-5.4
			C89.6,91.4,87.1,88.9,84.1,88.8L84.1,88.8z M84.1,88.8"/>
		<path class="st19" d="M32.1,49.4c2.5,0,4.5-2,4.5-4.5V28.3c-0.7,0.3-1.3,0.8-1.9,1.3L16.9,47.5c-0.6,0.6-1,1.2-1.3,1.9L32.1,49.4
			L32.1,49.4z M32.1,49.4"/>
		<path class="st14" d="M77.2,39.9H51.1c-1.2,0-2.2,1-2.2,2.2v4.3c0,1.2,1,2.2,2.2,2.2h26.1c1.2,0,2.2-1,2.2-2.2v-4.3
			C79.4,40.9,78.4,39.9,77.2,39.9L77.2,39.9z M77.2,39.9"/>
		<path class="st15" d="M77.2,48.5c1.2,0,2.2-1,2.2-2.2v-4.3c0-1.2-1-2.2-2.2-2.2h-2.1v8.6L77.2,48.5L77.2,48.5z M77.2,48.5"/>
		<path class="st17" d="M48.9,77.1H24c-0.9,0-1.6-0.7-1.6-1.6c0-0.9,0.7-1.6,1.6-1.6h24.9c0.9,0,1.6,0.7,1.6,1.6
			C50.5,76.4,49.8,77.1,48.9,77.1L48.9,77.1z M48.9,77.1"/>
		<path class="st17" d="M48.9,87.7H24c-0.9,0-1.6-0.7-1.6-1.6c0-0.9,0.7-1.6,1.6-1.6h24.9c0.9,0,1.6,0.7,1.6,1.6
			C50.5,87,49.8,87.7,48.9,87.7L48.9,87.7z M48.9,87.7"/>
		<path class="st17" d="M48.9,98.3H24c-0.9,0-1.6-0.7-1.6-1.6c0-0.9,0.7-1.6,1.6-1.6h24.9c0.9,0,1.6,0.7,1.6,1.6
			C50.5,97.6,49.8,98.3,48.9,98.3L48.9,98.3z M48.9,98.3"/>
		<path class="st17" d="M36.6,108.9H24c-0.9,0-1.6-0.7-1.6-1.6s0.7-1.6,1.6-1.6h12.6c0.9,0,1.6,0.7,1.6,1.6S37.5,108.9,36.6,108.9
			L36.6,108.9z M36.6,108.9"/>
	</g>
	<g class="st3">
		<path class="st20" d="M107.2,95v7.9l9.4,9.4l6.3,6.3l6.3-6.3l9.4-9.4V95C129.1,101.4,116.7,101.4,107.2,95z"/>
		<polygon class="st21" points="129.2,161.8 138.6,137 129.2,125.9 129.2,149.7 		"/>
		<polygon class="st21" points="116.6,125.9 107.2,137 116.6,161.8 116.6,160.9 		"/>
		<path class="st22" d="M116.6,160.9c4.3-3.5,8.5-7.2,12.6-11.1v-23.8l-6.3-7.3l-6.3,7.3V160.9z"/>
		<path class="st23" d="M116.6,160.9v0.9l6.3,16.5l6.3-16.5v-12.1C125.1,153.7,120.9,157.4,116.6,160.9z"/>
		<polygon class="st24" points="116.6,125.9 116.6,112.3 107.2,102.9 97.8,112.3 107.2,137 		"/>
		<polygon class="st24" points="122.9,118.6 116.6,112.3 116.6,125.9 		"/>
		<polygon class="st24" points="129.2,125.9 138.6,137 148,112.3 138.6,102.9 129.2,112.3 		"/>
		<polygon class="st24" points="129.2,112.3 122.9,118.6 129.2,125.9 		"/>
		<path class="st25" d="M126.8,93.2c-0.5,0.1-0.9,0.1-1.4,0.2c-0.2,0-0.3,0-0.5,0c-0.4,0-0.7,0-1.1,0.1c-0.2,0-0.4,0-0.6,0
			c-0.1,0-0.2,0-0.4,0c-0.2,0-0.4,0-0.6,0c-0.2,0-0.4,0-0.6,0c-0.4,0-0.7,0-1.1-0.1c-0.2,0-0.3,0-0.5,0c-0.5-0.1-1.1-0.1-1.6-0.2
			c0,0,0,0-0.1,0c-0.5-0.1-1-0.2-1.5-0.3c-0.1,0-0.2-0.1-0.3-0.1c-0.4-0.1-0.8-0.2-1.2-0.3c-0.1,0-0.3-0.1-0.4-0.1
			c-0.4-0.1-0.8-0.2-1.2-0.4c-0.1,0-0.2,0-0.2-0.1c0,0,0,0,0,0c-2.3-0.8-4.4-1.9-6.4-3.2V95c9.5,6.4,21.9,6.4,31.4,0v-6.3
			c-3.4,2.3-7.4,3.9-11.7,4.5C126.9,93.2,126.8,93.2,126.8,93.2z"/>
		<path class="st26" d="M120.1,93.4c-0.5-0.1-1.1-0.1-1.6-0.2C119.1,93.2,119.6,93.3,120.1,93.4z"/>
		<path class="st26" d="M126.9,93.2c4.3-0.6,8.3-2.2,11.7-4.5v0C135,91.1,131,92.6,126.9,93.2z"/>
		<path class="st26" d="M122.9,93.5c0.1,0,0.2,0,0.4,0c-0.3,0-0.6,0-0.9,0C122.5,93.5,122.7,93.5,122.9,93.5z"/>
		<path class="st26" d="M116.6,92.8c-0.4-0.1-0.8-0.2-1.2-0.3C115.8,92.6,116.2,92.7,116.6,92.8z"/>
		<path class="st26" d="M121.7,93.5c-0.4,0-0.7,0-1.1-0.1C121,93.4,121.3,93.4,121.7,93.5z"/>
		<path class="st26" d="M115,92.4c-0.4-0.1-0.8-0.2-1.2-0.4C114.2,92.1,114.6,92.3,115,92.4z"/>
		<path class="st26" d="M118.5,93.1c-0.5-0.1-1-0.2-1.5-0.3C117.5,93,118,93.1,118.5,93.1z"/>
		<path class="st26" d="M126.8,93.2c-0.5,0.1-0.9,0.1-1.4,0.2C125.9,93.3,126.3,93.3,126.8,93.2z"/>
		<path class="st26" d="M124.9,93.4c-0.4,0-0.7,0-1.1,0.1C124.2,93.5,124.6,93.4,124.9,93.4z"/>
		<path class="st27" d="M117,92.9c-0.1,0-0.2-0.1-0.3-0.1C116.7,92.8,116.9,92.8,117,92.9z"/>
		<path class="st27" d="M115.4,92.5c-0.1,0-0.3-0.1-0.4-0.1C115.1,92.4,115.3,92.4,115.4,92.5z"/>
		<path class="st27" d="M120.6,93.4c-0.2,0-0.3,0-0.5,0C120.3,93.4,120.4,93.4,120.6,93.4z"/>
		<path class="st27" d="M126.9,93.2c0,0-0.1,0-0.1,0C126.8,93.2,126.9,93.2,126.9,93.2z"/>
		<path class="st27" d="M123.9,93.5c-0.2,0-0.4,0-0.6,0C123.5,93.5,123.7,93.5,123.9,93.5z"/>
		<path class="st27" d="M122.3,93.5c-0.2,0-0.4,0-0.6,0C121.9,93.5,122.1,93.5,122.3,93.5z"/>
		<path class="st27" d="M118.5,93.2C118.5,93.2,118.5,93.1,118.5,93.2C118.5,93.1,118.5,93.2,118.5,93.2z"/>
		<path class="st27" d="M113.6,91.9c0.1,0,0.2,0,0.2,0.1C113.7,92,113.7,91.9,113.6,91.9C113.6,91.9,113.6,91.9,113.6,91.9z"/>
		<path class="st27" d="M125.4,93.4c-0.2,0-0.3,0-0.5,0C125.1,93.4,125.2,93.4,125.4,93.4z"/>
		<path class="st28" d="M170.7,118.8l-13.2-3.3l3.1,31.4H148l3.1,12.6l-22,14.7v4.2H126v5.1c21-10,42-25.1,56.5-48.3v-1
			C182.6,126.8,177.7,120.5,170.7,118.8z"/>
		<path class="st28" d="M119.8,178.3h-3.1v-4.2l-22-14.7l3.1-12.6H85.2l3.1-31.4l-13.2,3.3c-7,1.7-11.9,8-11.9,15.2v60h18.8v-28.3
			h6.3V194h9.4c7.1-2.1,14.5-4.6,22-7.8V178.3z M113.5,187.7h-6.3v-6.3h6.3V187.7z"/>
		<polygon class="st28" points="116.6,174.1 116.6,178.3 119.8,178.3 122.9,178.3 		"/>
		<polygon class="st28" points="126,178.3 129.2,178.3 129.2,174.1 122.9,178.3 		"/>
		<path class="st29" d="M97.7,194h22v-7.8C112.2,189.4,104.8,191.9,97.7,194z"/>
		<path class="st29" d="M126,183.3V194h31.4v-28.3h6.3V194h18.8v-59C168,158.2,147.1,173.4,126,183.3z"/>
		<path class="st30" d="M119.8,178.3v7.9c2.1-0.9,4.2-1.8,6.3-2.8v-5.1h-3.1H119.8z"/>
		<path class="st30" d="M119.8,186.2v7.8h6.3v-10.6C123.9,184.3,121.8,185.3,119.8,186.2z"/>
		<rect x="107.2" y="181.4" class="st30" width="6.3" height="6.3"/>
		<rect x="82.1" y="165.7" class="st30" width="6.3" height="28.3"/>
		<rect x="157.4" y="165.7" class="st30" width="6.3" height="28.3"/>
		<polygon class="st31" points="107.2,137 107.2,137 97.8,112.3 88.4,115.5 85.2,146.9 97.8,146.9 94.6,159.4 116.6,174.1 
			116.6,161.8 		"/>
		<polygon class="st31" points="116.6,161.8 116.6,174.1 122.9,178.3 		"/>
		<polygon class="st31" points="107.2,137 97.8,112.3 107.2,137 		"/>
		<polygon class="st31" points="138.6,137 129.2,161.8 129.2,174.1 151.2,159.4 148,146.9 160.6,146.9 157.4,115.5 148,112.3 
			138.6,137 		"/>
		<polygon class="st31" points="122.9,178.3 129.2,174.1 129.2,161.8 		"/>
		<polygon class="st31" points="138.6,137 148,112.3 138.6,137 		"/>
	</g>
	<path class="st7" d="M149.7,69.5c0,0.4-0.1,0.9-0.1,1.3C149.6,70.4,149.7,69.9,149.7,69.5z"/>
	<path class="st7" d="M149.8,67.6c0,0.5,0,1.1,0,1.6C149.8,68.7,149.8,68.1,149.8,67.6z"/>
	<path class="st8" d="M149.7,69.2c0,0.1,0,0.2,0,0.3C149.7,69.4,149.7,69.3,149.7,69.2z"/>
	<path class="st32" d="M138.7,27.1L138.7,27.1c-1.7,0.6-3.4,1.2-5.2,1.6c0,0,0,0,0,0c2.2,4.5,3.3,9.4,3.3,14.5v3.1
		c2.2,0.4,3.8,2.2,3.8,4.5s-1.6,4.1-3.8,4.5v6.2c0,8-2.8,15.4-7.7,21.3c-1.9,2.3-4.1,4.4-6.6,6.1c-2.8,2-5.9,3.5-9.2,4.6
		c0.1,0,0.1,0,0.2,0.1c0.4,0.1,0.8,0.3,1.2,0.4c0.1,0,0.2,0.1,0.4,0.1c0.4,0.1,0.8,0.2,1.2,0.3c0.1,0,0.2,0.1,0.3,0.1
		c0.5,0.1,1,0.2,1.5,0.3c0,0,0,0,0.1,0c0.5,0.1,1,0.1,1.5,0.2c0.2,0,0.3,0,0.5,0c0.3,0,0.7,0.1,1,0.1c0.2,0,0.4,0,0.6,0
		c0.3,0,0.6,0,0.9,0c0.2,0,0.4,0,0.6,0c0.3,0,0.7,0,1-0.1c0.1,0,0.3,0,0.4,0c0.4,0,0.9-0.1,1.3-0.2c0,0,0.1,0,0.1,0
		c4-0.6,7.9-2.1,11.3-4.4c0.2-0.1,0.4-0.3,0.6-0.4c1.4-1,2.6-2,3.7-3.2c0,0,0,0,0,0c0.4-0.4,0.7-0.8,1.1-1.2c0,0,0-0.1,0.1-0.1
		c3.2-3.7,5.3-8.1,6.2-12.9c0,0,0-0.1,0-0.1c0.1-0.5,0.1-0.9,0.2-1.4c0-0.1,0-0.2,0-0.3c0-0.4,0.1-0.9,0.1-1.3c0-0.1,0-0.2,0-0.3
		c0-0.5,0-1,0-1.6v-4V45.4C145.2,39.9,141.5,33.7,138.7,27.1z"/>
	<path class="st33" d="M113.2,73.7h5.7c5.3,0,10.3-1.2,14.1-3.5L130,65c-2.9,1.7-6.9,2.6-11.1,2.6h-5.7V73.7z"/>
	<path class="st34" d="M136.1,46.3c0.3,0,0.5,0,0.8,0.1v-3.1c0-5.1-1.2-10.1-3.3-14.5c-3.6,0.9-7.4,1.3-11.1,1.3
		c-5.6,0-11.1-1-16.3-2.9c-2.8,6.6-6.5,12.7-11.1,18.3l0.2,18.3h0L95,45.4v18.3v4c0,9.5,4.8,17.9,12.2,22.8v0c1.9,1.3,4,2.3,6.2,3.1
		c3.4-1.1,6.5-2.6,9.2-4.6c2.5-1.7,4.7-3.8,6.6-6.1c4.8-5.9,7.7-13.3,7.7-21.3v-6.2c-0.2,0-0.5,0.1-0.8,0.1c-2.5,0-4.6-2-4.6-4.6
		C131.5,48.3,133.6,46.3,136.1,46.3z M108.7,55.4c-2.5,0-4.6-2-4.6-4.6c0-2.5,2-4.6,4.6-4.6s4.6,2,4.6,4.6
		C113.2,53.4,111.2,55.4,108.7,55.4z M133,70.2c-3.8,2.2-8.8,3.5-14.1,3.5h-5.7v-6.1h5.7c4.2,0,8.2-1,11.1-2.6L133,70.2z"/>
	<g class="st3">
		<defs>
			<rect id="SVGID_3_" x="-0.1" y="-0.1" width="246.1" height="157.2"/>
		</defs>
		<clipPath id="SVGID_4_">
			<use xlink:href="#SVGID_3_"  style="overflow:visible;"/>
		</clipPath>
		<rect x="-0.1" y="12.7" class="st35" width="246.1" height="182.7"/>
	</g>
	<rect x="-0.1" y="12.7" class="st36" width="246.1" height="182.7"/>
</g>
</svg>
