<?xml version="1.0" encoding="utf-8"?>
<!-- Generator: Adobe Illustrator 25.1.0, SVG Export Plug-In . SVG Version: 6.00 Build 0)  -->
<svg version="1.1" id="Layer_1" xmlns="http://www.w3.org/2000/svg" xmlns:xlink="http://www.w3.org/1999/xlink" x="0px" y="0px"
	 viewBox="0 0 246 157" style="enable-background:new 0 0 246 157;" xml:space="preserve">
<style type="text/css">
	.st0{clip-path:url(#SVGID_2_);}
	.st1{fill:#FFE07E;}
	.st2{fill:#FFD067;}
	.st3{fill:#F4FBFE;}
	.st4{fill:#E5F5FD;}
	.st5{fill:#B9CAE8;}
	.st6{fill:#CDE1F4;}
	.st7{fill:#C1D8F0;}
	.st8{fill:#4C81AB;}
	.st9{fill:#417194;}
	.st10{fill:#385E7E;}
	.st11{fill:#E28086;}
	.st12{fill:#F3C19F;}
	.st13{fill:#BFBFBD;}
	.st14{fill:#96583B;}
	.st15{fill:#904E2E;}
	.st16{fill:#E0E0DE;}
	.st17{fill:#EAA476;}
	.st18{fill:#FCCAA5;}
	.st19{fill:#FCC194;}
	.st20{fill:#3F4E63;}
	.st21{fill:#38465A;}
	.st22{fill:#23303D;}
	.st23{fill:#4E5E73;}
	.st24{fill:#E8AE87;}
	.st25{fill:#F07B22;}
	.st26{fill:#774421;}
	.st27{fill:#E47225;}
	.st28{fill:#59331A;}
	.st29{fill:#F8A469;}
	.st30{fill:#7B442B;}
	.st31{fill:#F6851F;}
	.st32{fill:#A05825;}
	.st33{opacity:0.15;clip-path:url(#SVGID_2_);fill:none;}
</style>
<g>
	<defs>
		<rect id="SVGID_1_" x="-0.1" y="-0.1" width="246.1" height="157.2"/>
	</defs>
	<clipPath id="SVGID_2_">
		<use xlink:href="#SVGID_1_"  style="overflow:visible;"/>
	</clipPath>
	<g class="st0">
		<path class="st1" d="M62.9,113.9c2.5,0,4.5-2,4.5-4.5V23.2c0-2.5-2-4.5-4.5-4.5H10.5c-2.5,0-4.5,2-4.5,4.5v86.2
			c0,2.5,2,4.5,4.5,4.5h64.4H62.9z M62.9,113.9"/>
		<path class="st2" d="M74.9,18.6H61.5c2.5,0,4.5,2,4.5,4.5v86.2c0,2.5-2,4.5-4.5,4.5h13.4c2.5,0,4.5-2,4.5-4.5V23.2
			C79.4,20.7,77.4,18.6,74.9,18.6L74.9,18.6z M74.9,18.6"/>
		<path class="st3" d="M76.9,118.3V32.2c0-2.5-2-4.5-4.5-4.5H39.3c-1.7,0-3.4,0.7-4.6,1.9L16.9,47.4C15.6,48.6,15,50.3,15,52v66.3
			c0,2.5,2,4.5,4.5,4.5h52.9C74.9,122.9,76.9,120.9,76.9,118.3L76.9,118.3z M76.9,118.3"/>
		<path class="st4" d="M83.9,27.7H70.5c2.5,0,4.5,2,4.5,4.5v86.2c0,2.5-2,4.5-4.5,4.5h13.3c2.5,0,4.5-2,4.5-4.5V32.2
			C88.4,29.7,86.4,27.7,83.9,27.7L83.9,27.7z M83.9,27.7"/>
		<path class="st5" d="M110.7,97.8v-3.4c0-1.7-1.4-3.1-3.1-3.1c-1.3,0-2.5-0.9-2.9-2.1c-0.3-1-0.8-2-1.2-3c-0.6-1.2-0.4-2.6,0.6-3.5
			v0c1.2-1.2,1.2-3.1,0-4.3l-2.4-2.4c-1.2-1.2-3.1-1.2-4.3,0c-0.9,0.9-2.4,1.2-3.5,0.6c-1-0.5-2-0.9-3-1.2c-1.3-0.4-2.1-1.6-2.1-2.9
			c0-1.7-1.4-3.1-3.1-3.1h-3.4c-1.7,0-3.1,1.4-3.1,3.1c0,1.3-0.9,2.5-2.1,2.9c-1,0.3-2,0.8-3,1.2c-1.2,0.6-2.6,0.4-3.5-0.6h0
			c-1.2-1.2-3.1-1.2-4.3,0l-2.4,2.4c-1.2,1.2-1.2,3.1,0,4.3v0c0.9,0.9,1.2,2.4,0.6,3.5c-0.5,1-0.9,2-1.2,3c-0.4,1.3-1.6,2.1-2.9,2.1
			c-1.7,0-3.1,1.4-3.1,3.1v3.4c0,1.7,1.4,3.1,3.1,3.1c1.3,0,2.5,0.9,2.9,2.1c0.3,1,0.8,2,1.2,3c0.6,1.2,0.4,2.6-0.6,3.5
			c-1.2,1.2-1.2,3.1,0,4.3l2.4,2.4c1.2,1.2,3.1,1.2,4.3,0h0c0.9-0.9,2.4-1.2,3.5-0.6c1,0.5,2,0.9,3,1.2c1.3,0.4,2.1,1.6,2.1,2.9
			c0,1.7,1.4,3.1,3.1,3.1h3.4c1.7,0,3.1-1.4,3.1-3.1c0-1.3,0.9-2.5,2.1-2.9c1-0.3,2-0.8,3-1.2c1.2-0.6,2.6-0.4,3.5,0.6
			c1.2,1.2,3.1,1.2,4.3,0l2.4-2.4c1.2-1.2,1.2-3.1,0-4.3c-0.9-0.9-1.2-2.4-0.6-3.5c0.5-1,0.9-2,1.2-3c0.4-1.3,1.6-2.1,2.9-2.1
			C109.3,100.8,110.7,99.5,110.7,97.8L110.7,97.8z M110.7,97.8"/>
		<path class="st6" d="M99.2,96.1c0,8.5-6.9,15.3-15.3,15.3c-8.5,0-15.3-6.9-15.3-15.3c0-8.5,6.9-15.3,15.3-15.3
			C92.4,80.8,99.2,87.6,99.2,96.1L99.2,96.1z M99.2,96.1"/>
		<path class="st7" d="M83.9,80.8c-2.4,0-4.6,0.5-6.6,1.5C82.4,84.7,86,90,86,96.1c0,6.1-3.6,11.4-8.7,13.8c2,1,4.2,1.5,6.6,1.5
			c8.5,0,15.3-6.9,15.3-15.3C99.2,87.6,92.4,80.8,83.9,80.8L83.9,80.8z M83.9,80.8"/>
		<path class="st8" d="M83.9,111.4c4.7,0,9-2.2,11.8-5.5c-2.2-4.3-6.7-7.2-11.8-7.2c-5.1,0-9.6,2.9-11.8,7.2
			C74.9,109.3,79.1,111.4,83.9,111.4L83.9,111.4z M83.9,111.4"/>
		<path class="st9" d="M83.9,111.4c4.7,0,9-2.2,11.8-5.5c-1.9-3.7-5.6-6.4-9.9-7.1c-0.9,4.9-4.1,9-8.5,11.1
			C79.3,110.9,81.5,111.4,83.9,111.4L83.9,111.4z M83.9,111.4"/>
		<path class="st10" d="M89.6,94.4c0,3.1-2.5,5.7-5.7,5.7c-3.1,0-5.7-2.5-5.7-5.7c0-3.1,2.5-5.7,5.7-5.7
			C87,88.7,89.6,91.3,89.6,94.4L89.6,94.4z M89.6,94.4"/>
		<path class="st10" d="M84.1,88.7c1.2,2.2,1.9,4.7,1.9,7.4c0,1.3-0.2,2.5-0.5,3.7c2.3-0.7,4-2.9,4-5.4
			C89.6,91.3,87.1,88.8,84.1,88.7L84.1,88.7z M84.1,88.7"/>
		<path class="st11" d="M32.1,49.3c2.5,0,4.5-2,4.5-4.5V28.2c-0.7,0.3-1.3,0.8-1.9,1.3L16.9,47.4c-0.6,0.6-1,1.2-1.3,1.9L32.1,49.3
			L32.1,49.3z M32.1,49.3"/>
		<path class="st6" d="M77.2,39.9H51.1c-1.2,0-2.2,1-2.2,2.2v4.3c0,1.2,1,2.2,2.2,2.2h26.1c1.2,0,2.2-1,2.2-2.2V42
			C79.4,40.8,78.4,39.9,77.2,39.9L77.2,39.9z M77.2,39.9"/>
		<path class="st7" d="M77.2,48.5c1.2,0,2.2-1,2.2-2.2V42c0-1.2-1-2.2-2.2-2.2h-2.1v8.6L77.2,48.5L77.2,48.5z M77.2,48.5"/>
		<path class="st9" d="M48.9,77.1H24c-0.9,0-1.6-0.7-1.6-1.6c0-0.9,0.7-1.6,1.6-1.6h24.9c0.9,0,1.6,0.7,1.6,1.6
			C50.5,76.3,49.8,77.1,48.9,77.1L48.9,77.1z M48.9,77.1"/>
		<path class="st9" d="M48.9,87.6H24c-0.9,0-1.6-0.7-1.6-1.6c0-0.9,0.7-1.6,1.6-1.6h24.9c0.9,0,1.6,0.7,1.6,1.6
			C50.5,86.9,49.8,87.6,48.9,87.6L48.9,87.6z M48.9,87.6"/>
		<path class="st9" d="M48.9,98.2H24c-0.9,0-1.6-0.7-1.6-1.6c0-0.9,0.7-1.6,1.6-1.6h24.9c0.9,0,1.6,0.7,1.6,1.6
			C50.5,97.5,49.8,98.2,48.9,98.2L48.9,98.2z M48.9,98.2"/>
		<path class="st9" d="M36.6,108.8H24c-0.9,0-1.6-0.7-1.6-1.6c0-0.9,0.7-1.6,1.6-1.6h12.6c0.9,0,1.6,0.7,1.6,1.6
			C38.2,108.1,37.5,108.8,36.6,108.8L36.6,108.8z M36.6,108.8"/>
	</g>
	<g class="st0">
		<g>
			<path class="st12" d="M107.1,95.4v8l9.5,9.5l6.3,6.3l6.3-6.3l9.5-9.5v-8C129.3,101.8,116.7,101.8,107.1,95.4z"/>
			<polygon class="st13" points="129.3,162.9 138.9,137.8 129.3,126.7 129.3,150.7 			"/>
			<polygon class="st13" points="116.7,126.7 107.1,137.8 116.7,162.9 116.7,161.9 			"/>
			<path class="st14" d="M116.7,161.9c4.3-3.5,8.6-7.3,12.7-11.2v-24l-6.3-7.4l-6.3,7.4V161.9z"/>
			<path class="st15" d="M116.7,161.9v0.9l6.3,16.6l6.3-16.6v-12.2C125.2,154.7,121,158.4,116.7,161.9z"/>
			<polygon class="st16" points="116.7,126.7 116.7,112.9 107.1,103.4 97.6,112.9 107.1,137.8 			"/>
			<polygon class="st16" points="123,119.3 116.7,112.9 116.7,126.7 			"/>
			<polygon class="st16" points="129.3,126.7 138.9,137.8 148.4,112.9 138.9,103.4 129.3,112.9 			"/>
			<polygon class="st16" points="129.3,112.9 123,119.3 129.3,126.7 			"/>
			<path class="st17" d="M126.9,93.6c-0.5,0.1-0.9,0.1-1.4,0.2c-0.2,0-0.3,0-0.5,0c-0.4,0-0.7,0-1.1,0.1c-0.2,0-0.4,0-0.6,0
				c-0.1,0-0.2,0-0.4,0c-0.2,0-0.4,0-0.6,0c-0.2,0-0.4,0-0.7,0c-0.4,0-0.7,0-1.1-0.1c-0.2,0-0.3,0-0.5,0c-0.5-0.1-1.1-0.1-1.6-0.2
				c0,0,0,0-0.1,0c-0.5-0.1-1-0.2-1.5-0.3c-0.1,0-0.2-0.1-0.3-0.1c-0.4-0.1-0.8-0.2-1.2-0.3c-0.1,0-0.3-0.1-0.4-0.1
				c-0.4-0.1-0.8-0.2-1.2-0.4c-0.1,0-0.2,0-0.2-0.1c0,0,0,0,0,0c-2.3-0.8-4.5-1.9-6.5-3.2v6.3c9.6,6.4,22.1,6.4,31.7,0v-6.3
				c-3.5,2.3-7.5,3.9-11.8,4.5C127,93.6,127,93.6,126.9,93.6z"/>
			<path class="st18" d="M120.2,93.7c-0.5-0.1-1.1-0.1-1.6-0.2C119.1,93.6,119.7,93.7,120.2,93.7z"/>
			<path class="st18" d="M127,93.6c4.3-0.6,8.3-2.2,11.8-4.5v0C135.3,91.5,131.2,93,127,93.6z"/>
			<path class="st18" d="M123,93.9c0.1,0,0.2,0,0.4,0c-0.3,0-0.6,0-1,0C122.6,93.9,122.8,93.9,123,93.9z"/>
			<path class="st18" d="M116.7,93.2c-0.4-0.1-0.8-0.2-1.2-0.3C115.8,93,116.3,93.1,116.7,93.2z"/>
			<path class="st18" d="M121.8,93.9c-0.4,0-0.7,0-1.1-0.1C121,93.8,121.4,93.8,121.8,93.9z"/>
			<path class="st18" d="M115,92.8c-0.4-0.1-0.8-0.2-1.2-0.4C114.2,92.5,114.6,92.6,115,92.8z"/>
			<path class="st18" d="M118.5,93.5c-0.5-0.1-1-0.2-1.5-0.3C117.5,93.4,118,93.5,118.5,93.5z"/>
			<path class="st18" d="M126.9,93.6c-0.5,0.1-0.9,0.1-1.4,0.2C126,93.7,126.5,93.7,126.9,93.6z"/>
			<path class="st18" d="M125.1,93.8c-0.4,0-0.7,0-1.1,0.1C124.3,93.8,124.7,93.8,125.1,93.8z"/>
			<path class="st19" d="M117,93.3c-0.1,0-0.2-0.1-0.3-0.1C116.8,93.2,116.9,93.2,117,93.3z"/>
			<path class="st19" d="M115.4,92.9c-0.1,0-0.3-0.1-0.4-0.1C115.2,92.8,115.3,92.8,115.4,92.9z"/>
			<path class="st19" d="M120.7,93.8c-0.2,0-0.3,0-0.5,0C120.4,93.8,120.5,93.8,120.7,93.8z"/>
			<path class="st19" d="M127,93.6c0,0-0.1,0-0.1,0C127,93.6,127,93.6,127,93.6z"/>
			<path class="st19" d="M124,93.9c-0.2,0-0.4,0-0.6,0C123.6,93.9,123.8,93.9,124,93.9z"/>
			<path class="st19" d="M122.4,93.9c-0.2,0-0.4,0-0.7,0C122,93.9,122.2,93.9,122.4,93.9z"/>
			<path class="st19" d="M118.6,93.5C118.6,93.5,118.6,93.5,118.6,93.5C118.6,93.5,118.6,93.5,118.6,93.5z"/>
			<path class="st19" d="M113.6,92.3c0.1,0,0.2,0,0.2,0.1C113.8,92.3,113.7,92.3,113.6,92.3C113.6,92.3,113.6,92.3,113.6,92.3z"/>
			<path class="st19" d="M125.5,93.8c-0.2,0-0.3,0-0.5,0C125.2,93.8,125.4,93.8,125.5,93.8z"/>
			<path class="st20" d="M171.2,119.4l-13.4-3.3l3.2,31.7h-12.7l3.2,12.7l-22.2,14.8v4.2h-3.2v5.1c21.2-10,42.4-25.4,57.1-48.8v-1
				C183.2,127.5,178.3,121.2,171.2,119.4z"/>
			<path class="st20" d="M119.8,179.5h-3.2v-4.2l-22.2-14.8l3.2-12.7H84.9l3.2-31.7l-13.4,3.3c-7.1,1.8-12,8.1-12,15.4v60.6h19
				v-28.5h6.3v28.5h9.5c7.1-2.1,14.7-4.7,22.2-7.9V179.5z M113.5,189h-6.3v-6.3h6.3V189z"/>
			<polygon class="st20" points="116.7,175.3 116.7,179.5 119.8,179.5 123,179.5 			"/>
			<polygon class="st20" points="126.2,179.5 129.3,179.5 129.3,175.3 123,179.5 			"/>
			<path class="st21" d="M97.6,195.4h22.2v-7.9C112.2,190.7,104.7,193.3,97.6,195.4z"/>
			<path class="st21" d="M126.2,184.6v10.7h31.7v-28.5h6.3v28.5h19v-59.5C168.6,159.2,147.4,174.6,126.2,184.6z"/>
			<path class="st22" d="M119.8,179.5v8c2.1-0.9,4.2-1.8,6.3-2.8v-5.1H123H119.8z"/>
			<path class="st22" d="M119.8,187.5v7.9h6.3v-10.7C124.1,185.6,121.9,186.6,119.8,187.5z"/>
			<rect x="107.1" y="182.7" class="st22" width="6.3" height="6.3"/>
			<rect x="81.8" y="166.8" class="st22" width="6.3" height="28.5"/>
			<rect x="157.9" y="166.8" class="st22" width="6.3" height="28.5"/>
			<polygon class="st23" points="107.1,137.8 107.1,137.8 97.6,112.9 88.1,116.1 84.9,147.8 97.6,147.8 94.5,160.5 116.7,175.3 
				116.7,162.9 			"/>
			<polygon class="st23" points="116.7,162.9 116.7,175.3 123,179.5 			"/>
			<polygon class="st23" points="107.1,137.8 97.6,112.9 107.1,137.8 			"/>
			<polygon class="st23" points="138.9,137.8 129.3,162.9 129.3,175.3 151.5,160.5 148.4,147.8 161,147.8 157.9,116.1 148.4,112.9 
				138.9,137.8 			"/>
			<polygon class="st23" points="123,179.5 129.3,175.3 129.3,162.9 			"/>
			<polygon class="st23" points="138.9,137.8 148.4,112.9 138.9,137.8 			"/>
		</g>
		<g>
			<path class="st17" d="M154.8,48.2h-3.2v19.4h3.2c5.4,0,9.7-4.3,9.7-9.7C164.5,52.6,160.1,48.2,154.8,48.2z"/>
			<path class="st17" d="M90.2,48.2H90c-5.4,0-9.7,4.4-9.7,9.7c0,5.4,4.4,9.7,9.7,9.7h3.2V48.2H90.2z"/>
			<path class="st18" d="M147.4,82.6c-0.5,0.9-1.1,1.7-1.7,2.6C146.3,84.3,146.9,83.5,147.4,82.6z"/>
			<path class="st18" d="M148.2,81.2c-0.2,0.4-0.5,0.9-0.7,1.3C147.7,82.1,148,81.7,148.2,81.2z"/>
			<path class="st18" d="M148.9,79.8c-0.2,0.4-0.4,0.9-0.6,1.3C148.5,80.7,148.7,80.3,148.9,79.8z"/>
			<path class="st18" d="M150,76.9c-0.2,0.5-0.3,0.9-0.5,1.4C149.7,77.9,149.9,77.4,150,76.9z"/>
			<path class="st18" d="M149.5,78.4c-0.2,0.5-0.4,0.9-0.6,1.3C149.1,79.3,149.3,78.9,149.5,78.4z"/>
			<path class="st18" d="M141.2,89.9c-0.2,0.2-0.5,0.4-0.7,0.6C140.7,90.3,141,90.1,141.2,89.9z"/>
			<path class="st18" d="M144.5,86.7c-0.2,0.2-0.4,0.5-0.6,0.7C144,87.2,144.2,86.9,144.5,86.7z"/>
			<path class="st18" d="M142.3,88.9c-0.2,0.2-0.4,0.4-0.6,0.6C141.9,89.3,142.1,89.1,142.3,88.9z"/>
			<path class="st18" d="M150.5,75.5c-0.1,0.5-0.3,0.9-0.4,1.4C150.2,76.4,150.3,75.9,150.5,75.5z"/>
			<path class="st18" d="M140,90.8c-0.3,0.2-0.6,0.4-0.9,0.6C139.5,91.3,139.7,91.1,140,90.8z"/>
			<path class="st18" d="M145.7,85.2c-0.3,0.4-0.6,0.8-0.9,1.1C145.1,85.9,145.4,85.5,145.7,85.2z"/>
			<path class="st18" d="M151.5,69.5c0,0.4-0.1,0.9-0.1,1.3C151.4,70.4,151.4,69.9,151.5,69.5z"/>
			<path class="st18" d="M143.4,87.9c-0.2,0.2-0.4,0.4-0.6,0.6C143,88.3,143.2,88.1,143.4,87.9z"/>
			<path class="st18" d="M151.1,72.5c-0.1,0.5-0.2,0.9-0.3,1.4C151,73.4,151,73,151.1,72.5z"/>
			<path class="st18" d="M151.3,71c-0.1,0.4-0.1,0.9-0.2,1.3C151.2,71.9,151.3,71.4,151.3,71z"/>
			<path class="st18" d="M138.6,91.9c0.1-0.1,0.2-0.1,0.3-0.2C138.8,91.8,138.7,91.8,138.6,91.9L138.6,91.9z"/>
			<path class="st18" d="M151.5,67.7c0,0.5,0,1,0,1.6C151.5,68.7,151.5,68.2,151.5,67.7z"/>
			<path class="st18" d="M150.8,74c-0.1,0.5-0.2,0.9-0.4,1.4C150.6,74.9,150.7,74.5,150.8,74z"/>
			<path class="st18" d="M127.3,96.4c-0.4,0.1-0.7,0.1-1.1,0.2C126.6,96.5,126.9,96.4,127.3,96.4z"/>
			<path class="st18" d="M121.1,96.8c-0.4,0-0.7,0-1.1-0.1C120.4,96.7,120.7,96.7,121.1,96.8z"/>
			<path class="st18" d="M125.7,96.6c-0.3,0-0.6,0.1-1,0.1C125.1,96.7,125.4,96.6,125.7,96.6z"/>
			<path class="st18" d="M130.4,95.7c-0.4,0.1-0.9,0.2-1.3,0.3C129.5,95.9,130,95.8,130.4,95.7z"/>
			<g>
				<path class="st12" d="M137,48.2c0.4,0,0.8,0.1,1.2,0.2V45c0-3.3-0.5-6.6-1.4-9.7h-32.1c-3.6,4.4-7.5,9-11.5,12.9v19.4
					c0,10.1,5.1,19,12.9,24.2c3.5,2.3,7.5,3.9,11.9,4.6c3.3-1.6,6.3-3.7,8.9-6.1c7-6.6,11.2-15.9,11.2-25.9v-6.6
					c-0.4,0.1-0.8,0.2-1.2,0.2c-2.7,0-4.9-2.2-4.9-4.9C132.1,50.4,134.3,48.2,137,48.2z M103,53.1c0-2.7,2.2-4.9,4.9-4.9
					c2.7,0,4.9,2.2,4.9,4.9c0,2.7-2.2,4.9-4.9,4.9C105.2,58,103,55.8,103,53.1z M133,74c-4.4,1.3-8.9,2-13.5,2h-6.8v-6.5h6.8
					c3.9,0,7.9-0.6,11.6-1.7L133,74z"/>
				<path class="st18" d="M119.6,96.7c-0.5,0-1-0.1-1.5-0.2c0,0,0,0,0,0C118.6,96.5,119.1,96.6,119.6,96.7z"/>
			</g>
			<path class="st18" d="M124.2,96.7c-0.3,0-0.6,0-0.9,0C123.6,96.8,123.9,96.7,124.2,96.7z"/>
			<path class="st18" d="M132,95.2c-0.5,0.2-0.9,0.3-1.4,0.5C131,95.5,131.5,95.3,132,95.2z"/>
			<path class="st18" d="M132,95.2c2.4-0.8,4.6-1.9,6.6-3.3v0C136.5,93.3,134.3,94.4,132,95.2z"/>
			<path class="st18" d="M128.9,96.1c-0.4,0.1-0.8,0.2-1.2,0.3C128.1,96.2,128.5,96.2,128.9,96.1z"/>
			<path class="st18" d="M122.4,96.8c0.1,0,0.1,0,0.2,0c-0.3,0-0.6,0-0.9,0C122,96.8,122.2,96.8,122.4,96.8z"/>
			<path class="st19" d="M139.2,91.5c-0.1,0.1-0.2,0.1-0.3,0.2C139,91.6,139.1,91.6,139.2,91.5z"/>
			<path class="st19" d="M141.4,89.7c0.1-0.1,0.2-0.2,0.3-0.2c-0.2,0.1-0.3,0.3-0.5,0.4C141.3,89.8,141.3,89.8,141.4,89.7z"/>
			<path class="st19" d="M140.5,90.5c-0.1,0.1-0.3,0.2-0.4,0.3C140.2,90.7,140.3,90.6,140.5,90.5z"/>
			<path class="st19" d="M150.9,73.9c0,0,0,0.1,0,0.1C150.8,73.9,150.9,73.9,150.9,73.9z"/>
			<path class="st19" d="M148.9,79.7C148.9,79.8,148.9,79.8,148.9,79.7C148.9,79.8,148.9,79.8,148.9,79.7z"/>
			<path class="st19" d="M150,76.9C150,76.9,150,76.9,150,76.9C150,76.9,150,76.9,150,76.9z"/>
			<path class="st19" d="M149.5,78.3C149.5,78.4,149.5,78.4,149.5,78.3C149.5,78.4,149.5,78.4,149.5,78.3z"/>
			<path class="st19" d="M150.5,75.4C150.5,75.4,150.5,75.4,150.5,75.4C150.5,75.4,150.5,75.4,150.5,75.4z"/>
			<path class="st19" d="M151.5,69.2c0,0.1,0,0.2,0,0.3C151.5,69.4,151.5,69.3,151.5,69.2z"/>
			<path class="st19" d="M151.2,72.3c0,0.1,0,0.1,0,0.2C151.1,72.4,151.1,72.4,151.2,72.3z"/>
			<path class="st19" d="M151.4,70.8c0,0.1,0,0.1,0,0.2C151.3,70.9,151.4,70.9,151.4,70.8z"/>
			<path class="st19" d="M145.7,85.1C145.7,85.1,145.7,85.2,145.7,85.1C145.7,85.2,145.7,85.1,145.7,85.1z"/>
			<path class="st19" d="M142.8,88.5c-0.2,0.2-0.3,0.3-0.5,0.5C142.5,88.8,142.6,88.6,142.8,88.5z"/>
			<path class="st19" d="M144.8,86.3c-0.1,0.1-0.2,0.3-0.3,0.4C144.6,86.6,144.7,86.4,144.8,86.3z"/>
			<path class="st19" d="M147.5,82.5C147.5,82.5,147.4,82.5,147.5,82.5C147.4,82.5,147.5,82.5,147.5,82.5z"/>
			<path class="st19" d="M143.8,87.4c-0.1,0.2-0.3,0.3-0.4,0.5C143.5,87.7,143.7,87.6,143.8,87.4z"/>
			<path class="st19" d="M148.2,81.1C148.2,81.2,148.2,81.2,148.2,81.1C148.2,81.2,148.2,81.2,148.2,81.1z"/>
			<path class="st19" d="M121.7,96.8c-0.2,0-0.4,0-0.6,0C121.3,96.8,121.5,96.8,121.7,96.8z"/>
			<path class="st19" d="M127.6,96.3c-0.1,0-0.2,0-0.3,0.1C127.4,96.4,127.5,96.3,127.6,96.3z"/>
			<path class="st19" d="M130.5,95.6c0,0-0.1,0-0.1,0C130.5,95.7,130.5,95.6,130.5,95.6z"/>
			<path class="st19" d="M120,96.7c-0.1,0-0.3,0-0.4,0C119.7,96.7,119.9,96.7,120,96.7z"/>
			<path class="st19" d="M123.3,96.8c-0.2,0-0.5,0-0.7,0C122.8,96.8,123.1,96.8,123.3,96.8z"/>
			<path class="st19" d="M132,95.2C132,95.2,132,95.2,132,95.2C132,95.2,132,95.2,132,95.2z"/>
			<path class="st19" d="M126.2,96.5c-0.2,0-0.3,0-0.5,0.1C125.9,96.6,126.1,96.6,126.2,96.5z"/>
			<path class="st19" d="M124.8,96.7c-0.2,0-0.4,0-0.6,0C124.4,96.7,124.6,96.7,124.8,96.7z"/>
			<path class="st19" d="M129.1,96c-0.1,0-0.1,0-0.2,0C128.9,96,129,96,129.1,96z"/>
			<path class="st24" d="M140,35.3c-1.8-2.2-3.5-4.4-5.1-6.5h-0.7h-4.4h-7.6h-8.6h-3.8c-1.6,2.1-3.3,4.2-5.1,6.5h32.1
				c0.9,3.1,1.4,6.4,1.4,9.7v3.4c2.1,0.5,3.6,2.4,3.6,4.7c0,2.3-1.5,4.2-3.6,4.7v6.6c0,10-4.2,19.3-11.2,25.9
				c-2.6,2.5-5.6,4.5-8.9,6.2c0.5,0.1,1,0.1,1.5,0.2c0.1,0,0.3,0,0.4,0c0.4,0,0.7,0.1,1.1,0.1c0.2,0,0.4,0,0.6,0c0.3,0,0.6,0,0.9,0
				c0.2,0,0.5,0,0.7,0c0.3,0,0.6,0,0.9,0c0.2,0,0.4,0,0.6,0c0.3,0,0.7-0.1,1-0.1c0.2,0,0.3,0,0.5-0.1c0.4,0,0.7-0.1,1.1-0.2
				c0.1,0,0.2,0,0.3-0.1c0.4-0.1,0.8-0.2,1.2-0.3c0.1,0,0.1,0,0.2,0c0.4-0.1,0.9-0.2,1.3-0.3c0,0,0.1,0,0.1,0
				c0.5-0.1,0.9-0.3,1.4-0.5c0,0,0,0,0,0c2.3-0.8,4.5-1.9,6.6-3.3c0.1-0.1,0.2-0.1,0.3-0.2c0.1-0.1,0.2-0.1,0.3-0.2
				c0.3-0.2,0.6-0.4,0.9-0.6c0.1-0.1,0.3-0.2,0.4-0.3c0.2-0.2,0.5-0.4,0.7-0.6c0.2-0.1,0.3-0.3,0.5-0.4c0.2-0.2,0.4-0.4,0.6-0.6
				c0.2-0.1,0.3-0.3,0.5-0.5c0.2-0.2,0.4-0.4,0.6-0.6c0.1-0.2,0.3-0.3,0.4-0.5c0.2-0.2,0.4-0.5,0.6-0.7c0.1-0.1,0.2-0.3,0.3-0.4
				c0.3-0.4,0.6-0.7,0.9-1.1c0,0,0,0,0,0c0.6-0.8,1.2-1.7,1.7-2.6c0,0,0,0,0-0.1c0.2-0.4,0.5-0.8,0.7-1.3c0,0,0-0.1,0-0.1
				c0.2-0.4,0.4-0.9,0.6-1.3c0,0,0-0.1,0-0.1c0.2-0.4,0.4-0.9,0.6-1.3c0,0,0,0,0-0.1c0.2-0.5,0.3-0.9,0.5-1.4c0,0,0,0,0-0.1
				c0.2-0.5,0.3-0.9,0.4-1.4c0,0,0,0,0-0.1c0.1-0.5,0.2-0.9,0.4-1.4c0,0,0-0.1,0-0.1c0.1-0.5,0.2-0.9,0.3-1.4c0-0.1,0-0.1,0-0.2
				c0.1-0.4,0.1-0.9,0.2-1.3c0-0.1,0-0.1,0-0.2c0-0.4,0.1-0.9,0.1-1.3c0-0.1,0-0.2,0-0.3c0-0.5,0-1,0-1.6V48.2
				C147.6,44.3,143.6,39.7,140,35.3z"/>
			<path class="st25" d="M93.5,25.9c-0.1,0.6-0.2,1.3-0.2,2C93.3,27.2,93.4,26.5,93.5,25.9C93.5,25.9,93.5,25.9,93.5,25.9z"/>
			<path class="st26" d="M104.8,35.3h-9.8h-1.7V45v3.2C97.2,44.3,101.2,39.7,104.8,35.3L104.8,35.3z"/>
			<path class="st25" d="M109.9,28.8c-1.6,2.1-3.3,4.2-5.1,6.5h0C106.6,33.1,108.3,30.9,109.9,28.8L109.9,28.8z"/>
			<path class="st27" d="M93.3,28.8c0-0.3,0-0.7,0-1C93.3,28.2,93.3,28.5,93.3,28.8z"/>
			<path class="st28" d="M106.1,28.8h-6.3c-0.5,0-1-0.1-1.5-0.1c-1.9-0.4-3.6-1.4-4.8-2.8c-0.1,0.6-0.2,1.3-0.2,2c0,0.3,0,0.6,0,1
				v6.5h1.7h9.8c1.8-2.2,3.5-4.4,5.1-6.5H106.1z"/>
			<path class="st27" d="M109.8,28.8c-1.6,2.1-3.3,4.2-5.1,6.5C106.6,33.1,108.3,30.9,109.8,28.8L109.8,28.8z"/>
			<path class="st29" d="M112.7,76h6.8c4.6,0,9.1-0.7,13.5-2l-1.9-6.2c-3.8,1.1-7.7,1.7-11.6,1.7h-6.8V76z"/>
			<circle class="st30" cx="107.8" cy="53.1" r="4.9"/>
			<path class="st30" d="M132.1,53.1c0,2.7,2.2,4.9,4.9,4.9c0.4,0,0.8-0.1,1.2-0.2v-9.4c-0.4-0.1-0.8-0.2-1.2-0.2
				C134.3,48.2,132.1,50.4,132.1,53.1z"/>
			<path class="st30" d="M141.8,53.1c0-2.3-1.5-4.2-3.6-4.7v9.4C140.3,57.3,141.8,55.4,141.8,53.1z"/>
			<path class="st31" d="M111.9,26L111.9,26c1-1.3,1.9-2.6,2.7-3.7h0C113.8,23.5,112.9,24.7,111.9,26z"/>
			<path class="st32" d="M102.8,23.5l-0.7-1.2l-2.9-4.7l-2.7-4.3c1-0.5,2.2-0.7,3.3-0.7c-4.5,0-8.1,3.6-8.1,8.1
				c0,1.9,0.7,3.7,1.8,5.1c0,0,0,0,0,0c1.2,1.4,2.9,2.5,4.8,2.8c0.5,0.1,1,0.1,1.5,0.1h6.3L102.8,23.5z"/>
			<path class="st32" d="M118.2,22.4l-1.7-2.7l-1.7-2.8l-0.6-1l-2-3.2h-8.6l2.1,3.4l2.3,3.7l1.7,2.7l2.3,3.7c1-1.3,1.9-2.6,2.7-3.7
				h0c-0.8,1.1-1.7,2.4-2.7,3.7l1.7,2.8h8.6L118.2,22.4z"/>
			<path class="st32" d="M149.5,20.9c-2.8-4.9-8-8.3-14.1-8.3c0.2,0,0.4,0.1,0.7,0.1l2,3.2l5.8,9.4c1,1.1,1.9,2.2,2.7,3.5h4.9
				C151.5,25.9,150.8,23.2,149.5,20.9z"/>
			<polygon class="st32" points="134.4,22.4 131.2,17.3 130.4,15.9 128.3,12.6 119.8,12.6 121.8,15.9 125.8,22.4 129.9,28.8 
				134.3,28.8 135,28.8 138.4,28.8 			"/>
			<path class="st26" d="M146.6,28.8c-0.8-1.2-1.7-2.4-2.7-3.5L138,16l-2-3.2c-0.2,0-0.4-0.1-0.7-0.1h-7l2,3.2l0.9,1.4l3.2,5.1
				l4,6.5H135c1.6,2.1,3.3,4.2,5.1,6.5c3.6,4.4,7.5,9,11.5,12.9V45V28.8H146.6z"/>
			<path class="st26" d="M111.9,26L111.9,26L111.9,26l-2.3-3.7l-1.7-2.7l-2.3-3.7l-2.1-3.4h-3.9c-1.1,0-2.3,0.3-3.3,0.7l2.7,4.3
				l2.9,4.7l0.7,1.2l3.3,5.3h3.8h0h0h3.8L111.9,26z"/>
			<polygon class="st26" points="125.8,22.4 121.8,15.9 119.8,12.6 112.2,12.6 114.2,15.9 114.8,16.9 116.5,19.7 118.2,22.4 
				122.2,28.8 129.9,28.8 			"/>
		</g>
	</g>
	<rect x="-0.1" y="12.6" class="st33" width="246.1" height="182.7"/>
</g>
</svg>
