<?xml version="1.0" encoding="utf-8"?>
<!-- Generator: Adobe Illustrator 25.1.0, SVG Export Plug-In . SVG Version: 6.00 Build 0)  -->
<svg version="1.1" id="Layer_1" xmlns="http://www.w3.org/2000/svg" xmlns:xlink="http://www.w3.org/1999/xlink" x="0px" y="0px"
	 viewBox="0 0 246 157" style="enable-background:new 0 0 246 157;" xml:space="preserve">
<style type="text/css">
	.st0{clip-path:url(#SVGID_2_);}
	.st1{fill:#AD736B;}
	.st2{fill:#BFBFBD;}
	.st3{fill:#96583B;}
	.st4{fill:#904E2E;}
	.st5{fill:#E0E0DE;}
	.st6{fill:#964C41;}
	.st7{fill:#FCCAA5;}
	.st8{fill:#FCC194;}
	.st9{fill:#3F4E63;}
	.st10{fill:#38465A;}
	.st11{fill:#23303D;}
	.st12{fill:#4E5E73;}
	.st13{fill:#9C5751;}
	.st14{fill:#512919;}
	.st15{fill:#88413A;}
	.st16{fill:#2D1A13;}
	.st17{fill:#3A1C15;}
	.st18{fill:#51302B;}
	.st19{fill:#F4FBFE;}
	.st20{fill:#E5F5FD;}
	.st21{fill:#E28086;}
	.st22{fill:#E8AE4C;}
	.st23{fill:#417194;}
	.st24{fill:#C1D8F0;}
	.st25{fill:#4C81AB;}
	.st26{fill:#385E7E;}
	.st27{clip-path:url(#SVGID_4_);fill:#417194;}
	.st28{clip-path:url(#SVGID_4_);fill:#B9CAE8;}
	.st29{opacity:0.15;clip-path:url(#SVGID_2_);fill:none;}
</style>
<g>
	<defs>
		<rect id="SVGID_1_" x="-0.1" y="-0.1" width="246.1" height="157.2"/>
	</defs>
	<clipPath id="SVGID_2_">
		<use xlink:href="#SVGID_1_"  style="overflow:visible;"/>
	</clipPath>
	<g class="st0">
		<g>
			<path class="st1" d="M107.3,97.4v7.9l9.4,9.4l6.3,6.3l6.3-6.3l9.4-9.4v-7.9C129.2,103.7,116.8,103.7,107.3,97.4z"/>
			<polygon class="st2" points="129.3,164.2 138.7,139.4 129.3,128.3 129.3,152.1 			"/>
			<polygon class="st2" points="116.7,128.3 107.3,139.4 116.7,164.2 116.7,163.2 			"/>
			<path class="st3" d="M116.7,163.2c4.3-3.5,8.5-7.2,12.6-11.1v-23.8L123,121l-6.3,7.3V163.2z"/>
			<path class="st4" d="M116.7,163.2v0.9l6.3,16.5l6.3-16.5v-12.1C125.2,156.1,121,159.8,116.7,163.2z"/>
			<polygon class="st5" points="116.7,128.3 116.7,114.7 107.3,105.3 97.9,114.7 107.3,139.4 			"/>
			<polygon class="st5" points="123,121 116.7,114.7 116.7,128.3 			"/>
			<polygon class="st5" points="129.3,128.3 138.7,139.4 148.1,114.7 138.7,105.3 129.3,114.7 			"/>
			<polygon class="st5" points="129.3,114.7 123,121 129.3,128.3 			"/>
			<path class="st6" d="M126.9,95.6c-0.5,0.1-0.9,0.1-1.4,0.2c-0.2,0-0.3,0-0.5,0c-0.4,0-0.7,0-1.1,0.1c-0.2,0-0.4,0-0.6,0
				c-0.1,0-0.2,0-0.4,0c-0.2,0-0.4,0-0.6,0c-0.2,0-0.4,0-0.6,0c-0.4,0-0.7,0-1.1-0.1c-0.2,0-0.3,0-0.5,0c-0.5-0.1-1.1-0.1-1.6-0.2
				c0,0,0,0-0.1,0c-0.5-0.1-1-0.2-1.5-0.3c-0.1,0-0.2-0.1-0.3-0.1c-0.4-0.1-0.8-0.2-1.2-0.3c-0.1,0-0.3-0.1-0.4-0.1
				c-0.4-0.1-0.8-0.2-1.2-0.4c-0.1,0-0.2,0-0.2-0.1c0,0,0,0,0,0c-2.3-0.8-4.4-1.9-6.4-3.2v6.3c9.5,6.4,21.9,6.4,31.4,0v-6.3
				c-3.4,2.3-7.4,3.9-11.7,4.5C127,95.6,126.9,95.6,126.9,95.6z"/>
			<path class="st7" d="M120.2,95.7c-0.5-0.1-1.1-0.1-1.6-0.2C119.2,95.6,119.7,95.7,120.2,95.7z"/>
			<path class="st7" d="M127,95.6c4.3-0.6,8.3-2.2,11.7-4.5v0C135.1,93.5,131.1,95,127,95.6z"/>
			<path class="st7" d="M123,95.9c0.1,0,0.2,0,0.4,0c-0.3,0-0.6,0-0.9,0C122.6,95.9,122.8,95.9,123,95.9z"/>
			<path class="st7" d="M116.7,95.2c-0.4-0.1-0.8-0.2-1.2-0.3C115.9,95,116.3,95.1,116.7,95.2z"/>
			<path class="st7" d="M121.8,95.8c-0.4,0-0.7,0-1.1-0.1C121.1,95.8,121.4,95.8,121.8,95.8z"/>
			<path class="st7" d="M115.1,94.8c-0.4-0.1-0.8-0.2-1.2-0.4C114.3,94.5,114.7,94.6,115.1,94.8z"/>
			<path class="st7" d="M118.6,95.5c-0.5-0.1-1-0.2-1.5-0.3C117.6,95.4,118.1,95.5,118.6,95.5z"/>
			<path class="st7" d="M126.9,95.6c-0.5,0.1-0.9,0.1-1.4,0.2C126,95.7,126.4,95.7,126.9,95.6z"/>
			<path class="st7" d="M125,95.8c-0.4,0-0.7,0-1.1,0.1C124.3,95.8,124.7,95.8,125,95.8z"/>
			<path class="st8" d="M117.1,95.3c-0.1,0-0.2-0.1-0.3-0.1C116.8,95.2,117,95.2,117.1,95.3z"/>
			<path class="st8" d="M115.5,94.9c-0.1,0-0.3-0.1-0.4-0.1C115.2,94.8,115.4,94.8,115.5,94.9z"/>
			<path class="st8" d="M120.7,95.8c-0.2,0-0.3,0-0.5,0C120.4,95.8,120.5,95.8,120.7,95.8z"/>
			<path class="st8" d="M127,95.6c0,0-0.1,0-0.1,0C126.9,95.6,127,95.6,127,95.6z"/>
			<path class="st8" d="M124,95.9c-0.2,0-0.4,0-0.6,0C123.6,95.9,123.8,95.9,124,95.9z"/>
			<path class="st8" d="M122.4,95.9c-0.2,0-0.4,0-0.6,0C122,95.9,122.2,95.9,122.4,95.9z"/>
			<path class="st8" d="M118.6,95.5C118.6,95.5,118.6,95.5,118.6,95.5C118.6,95.5,118.6,95.5,118.6,95.5z"/>
			<path class="st8" d="M113.7,94.3c0.1,0,0.2,0,0.2,0.1C113.8,94.4,113.8,94.3,113.7,94.3C113.7,94.3,113.7,94.3,113.7,94.3z"/>
			<path class="st8" d="M125.5,95.8c-0.2,0-0.3,0-0.5,0C125.2,95.8,125.3,95.8,125.5,95.8z"/>
			<path class="st9" d="M170.8,121.2l-13.2-3.3l3.1,31.4h-12.6l3.1,12.6l-22,14.7v4.2h-3.1v5.1c21-10,42-25.1,56.5-48.3v-1
				C182.7,129.2,177.8,122.9,170.8,121.2z"/>
			<path class="st9" d="M119.9,180.7h-3.1v-4.2l-22-14.7l3.1-12.6H85.3l3.1-31.4l-13.2,3.3c-7,1.7-11.9,8-11.9,15.2v60h18.8v-28.3
				h6.3v28.3h9.4c7.1-2.1,14.5-4.6,22-7.8V180.7z M113.6,190.1h-6.3v-6.3h6.3V190.1z"/>
			<polygon class="st9" points="116.7,176.5 116.7,180.7 119.9,180.7 123,180.7 			"/>
			<polygon class="st9" points="126.1,180.7 129.3,180.7 129.3,176.5 123,180.7 			"/>
			<path class="st10" d="M97.8,196.4h22v-7.8C112.3,191.7,104.9,194.3,97.8,196.4z"/>
			<path class="st10" d="M126.1,185.7v10.6h31.4v-28.3h6.3v28.3h18.8v-59C168.1,160.6,147.2,175.8,126.1,185.7z"/>
			<path class="st11" d="M119.9,180.7v7.9c2.1-0.9,4.2-1.8,6.3-2.8v-5.1H123H119.9z"/>
			<path class="st11" d="M119.9,188.5v7.8h6.3v-10.6C124,186.7,121.9,187.7,119.9,188.5z"/>
			<rect x="107.3" y="183.8" class="st11" width="6.3" height="6.3"/>
			<rect x="82.2" y="168.1" class="st11" width="6.3" height="28.3"/>
			<rect x="157.5" y="168.1" class="st11" width="6.3" height="28.3"/>
			<polygon class="st12" points="107.3,139.4 107.3,139.4 97.9,114.7 88.5,117.9 85.3,149.3 97.9,149.3 94.7,161.8 116.7,176.5 
				116.7,164.2 			"/>
			<polygon class="st12" points="116.7,164.2 116.7,176.5 123,180.7 			"/>
			<polygon class="st12" points="107.3,139.4 97.9,114.7 107.3,139.4 			"/>
			<polygon class="st12" points="138.7,139.4 129.3,164.2 129.3,176.5 151.3,161.8 148.1,149.3 160.7,149.3 157.5,117.9 
				148.1,114.7 138.7,139.4 			"/>
			<polygon class="st12" points="123,180.7 129.3,176.5 129.3,164.2 			"/>
			<polygon class="st12" points="138.7,139.4 148.1,114.7 138.7,139.4 			"/>
			<g>
				<path class="st6" d="M154.8,45.7h-3.1v18.8h3.1c5.2,0,9.4-4.2,9.4-9.4S160,45.7,154.8,45.7L154.8,45.7z M154.8,45.7"/>
				<g>
					<path class="st6" d="M92.1,45.7H92c-5.2,0-9.4,4.2-9.4,9.4s4.2,9.4,9.4,9.4h3.1V45.7H92.1z M92.1,45.7"/>
					<path class="st1" d="M151.6,42.5v28.3c0,15.2-12,27.7-27.2,28.2c-0.3,0-0.7,0-1,0c-15.6,0-28.3-12.7-28.3-28.3V42.5
						c0-14.1,10.4-26.1,24.4-28h0c8.1-1.1,16.3,1.3,22.4,6.7C148.1,26.6,151.6,34.4,151.6,42.5L151.6,42.5z M151.6,42.5"/>
					<path class="st13" d="M151.6,42.5v28.3c0,15.2-12,27.7-27.2,28.2c9.2-6.5,14.7-17,14.7-28.2V45.7c0-13.3-7.6-25.4-19.6-31.1
						c8.1-1.1,16.3,1.3,22.4,6.7C148.1,26.6,151.6,34.4,151.6,42.5L151.6,42.5z M151.6,42.5"/>
				</g>
				<path class="st14" d="M113.9,50.4c0,2.6-2.1,4.7-4.7,4.7s-4.7-2.1-4.7-4.7c0-2.6,2.1-4.7,4.7-4.7S113.9,47.8,113.9,50.4
					L113.9,50.4z M113.9,50.4"/>
				<path class="st14" d="M142.2,50.4c0,2.6-2.1,4.7-4.7,4.7s-4.7-2.1-4.7-4.7c0-2.6,2.1-4.7,4.7-4.7S142.2,47.8,142.2,50.4
					L142.2,50.4z M142.2,50.4"/>
				<path class="st15" d="M119.8,70.8h-5.8v6.3h5.8c5.5,0,10.6-1.3,14.6-3.6l-3.2-5.4C128.2,69.8,124.1,70.8,119.8,70.8L119.8,70.8z
					 M119.8,70.8"/>
				<path class="st16" d="M95.1,51.9V39.4c0-10.4,7-18.8,15.7-18.8l-0.6,2C107.2,33.6,102,43.7,95.1,51.9L95.1,51.9z M95.1,51.9"/>
				<path class="st16" d="M151.6,51.9V30.4c0-2.7-3.1-7.7-9.4-9.8V30C142.2,30,146.5,43.7,151.6,51.9L151.6,51.9z M151.6,51.9"/>
				<path class="st17" d="M142.2,30h-34.5c-6.9,0-12.6-5.6-12.6-12.6v-3.1H127c5.7,0,11.1,2.3,15.2,6.3V30z M142.2,30"/>
				<path class="st18" d="M103.6,14.3l10,15.7h7.4l-10-15.7H103.6z M103.6,14.3"/>
				<path class="st18" d="M119.3,14.3l10,15.7h7.4l-10-15.7H119.3z M119.3,14.3"/>
			</g>
		</g>
		<g>
			<path class="st19" d="M74.9,92.3H41.7c-0.7,0-1.4,0.2-2.1,0.5l-0.7,0.9v11.1c0,1.7-1.4,3.1-3.1,3.1h-10l-2,0.7
				c-0.3,0.7-0.5,1.4-0.5,2.1v61.7c0,2.8,2.3,5.1,5.1,5.1h46.5c2.8,0,5.1-2.3,5.1-5.1V97.4C80,94.6,77.7,92.3,74.9,92.3L74.9,92.3z
				 M74.9,92.3"/>
			<path class="st20" d="M85.2,92.3H73.7c2.8,0,5.1,2.3,5.1,5.1v74.9c0,2.8-2.3,5.1-5.1,5.1h11.5c2.8,0,5.1-2.3,5.1-5.1V97.4
				C90.3,94.6,88,92.3,85.2,92.3L85.2,92.3z M85.2,92.3"/>
			<path class="st21" d="M39.6,105.4V92.8c-0.5,0.2-1,0.6-1.5,1L24.8,107c-0.4,0.4-0.8,0.9-1,1.5h12.6
				C38.2,108.5,39.6,107.1,39.6,105.4L39.6,105.4z M39.6,105.4"/>
			<path class="st22" d="M41.3,134.6h-5.8c-1.1,0-2-0.9-2-2v-5.8c0-1.1,0.9-2,2-2h5.8c1.1,0,2,0.9,2,2v5.8
				C43.3,133.7,42.4,134.6,41.3,134.6L41.3,134.6z M41.3,134.6"/>
			<path class="st22" d="M41.3,150.9h-5.8c-1.1,0-2-0.9-2-2v-5.8c0-1.1,0.9-2,2-2h5.8c1.1,0,2,0.9,2,2v5.8
				C43.3,150,42.4,150.9,41.3,150.9L41.3,150.9z M41.3,150.9"/>
			<path class="st22" d="M41.3,167.2h-5.8c-1.1,0-2-0.9-2-2v-5.8c0-1.1,0.9-2,2-2h5.8c1.1,0,2,0.9,2,2v5.8
				C43.3,166.4,42.4,167.2,41.3,167.2L41.3,167.2z M41.3,167.2"/>
			<path class="st23" d="M80.2,128.3H51c-0.8,0-1.4-0.6-1.4-1.4c0-0.8,0.6-1.4,1.4-1.4h29.2c0.8,0,1.4,0.6,1.4,1.4
				C81.5,127.7,80.9,128.3,80.2,128.3L80.2,128.3z M80.2,128.3"/>
			<path class="st23" d="M80.2,134H51c-0.8,0-1.4-0.6-1.4-1.4c0-0.8,0.6-1.4,1.4-1.4h29.2c0.8,0,1.4,0.6,1.4,1.4
				C81.5,133.4,80.9,134,80.2,134L80.2,134z M80.2,134"/>
			<path class="st23" d="M77.8,144.5H51c-0.8,0-1.4-0.6-1.4-1.4c0-0.8,0.6-1.4,1.4-1.4h26.8c0.8,0,1.4,0.6,1.4,1.4
				C79.2,143.9,78.5,144.5,77.8,144.5L77.8,144.5z M77.8,144.5"/>
			<path class="st23" d="M75.1,150.2H51c-0.8,0-1.4-0.6-1.4-1.4c0-0.8,0.6-1.4,1.4-1.4h24c0.8,0,1.4,0.6,1.4,1.4
				C76.4,149.6,75.8,150.2,75.1,150.2L75.1,150.2z M75.1,150.2"/>
			<path class="st23" d="M70.1,160.6H51c-0.8,0-1.4-0.6-1.4-1.4s0.6-1.4,1.4-1.4h19c0.8,0,1.4,0.6,1.4,1.4S70.8,160.6,70.1,160.6
				L70.1,160.6z M70.1,160.6"/>
			<path class="st23" d="M67.3,166.3H51c-0.8,0-1.4-0.6-1.4-1.4c0-0.8,0.6-1.4,1.4-1.4h16.3c0.8,0,1.4,0.6,1.4,1.4
				C68.7,165.7,68.1,166.3,67.3,166.3L67.3,166.3z M67.3,166.3"/>
			<path class="st24" d="M78.7,109.3c0,5.8-4.7,10.5-10.5,10.5c-5.8,0-10.5-4.7-10.5-10.5c0-5.8,4.7-10.5,10.5-10.5
				C74,98.8,78.7,103.5,78.7,109.3L78.7,109.3z M78.7,109.3"/>
			<path class="st25" d="M68.2,111.8c-3.4,0-6.2,2.2-7.1,5.3c1.9,1.7,4.4,2.7,7.1,2.7c2.7,0,5.2-1,7.1-2.7
				C74.3,114,71.5,111.8,68.2,111.8L68.2,111.8z M68.2,111.8"/>
			<path class="st26" d="M71.9,109c0,2.1-1.7,3.7-3.7,3.7c-2.1,0-3.7-1.7-3.7-3.7c0-2.1,1.7-3.7,3.7-3.7
				C70.2,105.2,71.9,106.9,71.9,109L71.9,109z M71.9,109"/>
			<g>
				<defs>
					<rect id="SVGID_3_" x="23.2" y="92.3" width="78.4" height="90.2"/>
				</defs>
				<clipPath id="SVGID_4_">
					<use xlink:href="#SVGID_3_"  style="overflow:visible;"/>
				</clipPath>
				<path class="st27" d="M90.1,134.1l-0.9,0.3l-18,37.5l7.8,3.7l18-37.5l-0.2-0.8L90.1,134.1z M90.1,134.1"/>
				<path class="st27" d="M98.9,124.2c-2.2-1-4.7-0.1-5.8,2l-1.8,3.7l0.1,0.8l6.8,3.2l0.9-0.3l1.8-3.7
					C102,127.8,101.1,125.2,98.9,124.2L98.9,124.2z M98.9,124.2"/>
				<path class="st28" d="M78.2,176.8l-6.1,5.4c-0.7,0.6-1.7,0.1-1.6-0.8l0.4-8.1c0-0.5,0.2-1,0.4-1.4l7.8,3.7
					C78.9,176.1,78.6,176.5,78.2,176.8L78.2,176.8z M78.2,176.8"/>
			</g>
			<path class="st19" d="M89.2,134.4l2.1-4.4l7.8,3.7l-2.1,4.4L89.2,134.4z M89.2,134.4"/>
		</g>
	</g>
	<rect x="-0.1" y="12.6" class="st29" width="246.1" height="182.7"/>
</g>
</svg>
