<?xml version="1.0" encoding="utf-8"?>
<!-- Generator: Adobe Illustrator 25.1.0, SVG Export Plug-In . SVG Version: 6.00 Build 0)  -->
<svg version="1.1" id="Layer_1" xmlns="http://www.w3.org/2000/svg" xmlns:xlink="http://www.w3.org/1999/xlink" x="0px" y="0px"
	 viewBox="0 0 246 157" style="enable-background:new 0 0 246 157;" xml:space="preserve">
<style type="text/css">
	.st0{clip-path:url(#SVGID_2_);}
	.st1{fill:#FBA91C;}
	.st2{fill:#FCB432;}
	.st3{fill:#FFCB74;}
	.st4{fill:#F6A21D;}
	.st5{fill:#E0E0DE;}
	.st6{fill:#E5B558;}
	.st7{fill:#FAC2A5;}
	.st8{fill:#DE9A83;}
	.st9{fill:#3F4E63;}
	.st10{fill:#38465A;}
	.st11{fill:#2A384A;}
	.st12{fill:#EDAF94;}
	.st13{fill:#F8A469;}
	.st14{fill:#4E5E73;}
	.st15{fill:#D7D7D5;}
	.st16{fill:#FCCAA5;}
	.st17{fill:#FFD86A;}
	.st18{fill:#69CBDB;}
	.st19{fill:#5CC6D4;}
	.st20{fill:#F05446;}
	.st21{fill:#409BC2;}
	.st22{opacity:0.15;clip-path:url(#SVGID_2_);fill:none;}
</style>
<g>
	<defs>
		<rect id="SVGID_1_" x="-0.1" y="-0.1" width="246.1" height="157.2"/>
	</defs>
	<clipPath id="SVGID_2_">
		<use xlink:href="#SVGID_1_"  style="overflow:visible;"/>
	</clipPath>
	<g class="st0">
		<path class="st1" d="M111.6,120.9H27.9V46.5h21.7l6.2,6.2h55.8V120.9z M111.6,120.9"/>
		<rect x="27.9" y="68.2" class="st2" width="83.7" height="52.7"/>
		<rect x="37.2" y="77.5" class="st3" width="6.2" height="6.2"/>
		<rect x="37.2" y="89.9" class="st3" width="6.2" height="21.7"/>
		<path class="st4" d="M108.5,68.2L93,52.7H73.2L55.8,68.2H108.5z M108.5,68.2"/>
		<path class="st5" d="M49.6,68.2l27.9-24.8l24.8,24.8H49.6z M49.6,68.2"/>
		<path class="st6" d="M189.1,31c10.3,0,18.6,8.3,18.6,18.6v46.5c-10.3,0-18.6-8.3-18.6-18.6V31z M189.1,31"/>
		<path class="st7" d="M170.5,111.6V86.8h-24.8v24.8h-18.6v46.5h62v-46.5H170.5z M170.5,111.6"/>
		<path class="st8" d="M159.9,102.3c3.8,0,7.5-1.4,10.5-3.8V86.8h-24.8v11.7c3,2.4,6.7,3.8,10.5,3.8H159.9z M159.9,102.3"/>
		<path class="st5" d="M189.1,111.6h-12.4v27.9h-37.2v-27.9h-13.8c-6.6,0-12.5,4.2-14.6,10.4l-19.5,55.7c-1.9,5.2,0.4,10.9,5.3,13.4
			c2.6,1.3,5.7,1.5,8.4,0.5c2.8-1,5-3,6.2-5.7l13.3-31.8c-2.1,7.5-0.2,16.1,5.3,22.6v18.6h74.4v-68.2c0-4.1-1.6-8-4.5-11
			C197.1,113.2,193.2,111.6,189.1,111.6L189.1,111.6z M189.1,111.6"/>
		<path class="st9" d="M189.1,111.6h-12.4l-18.6,52.7l-18.6-52.7h-13.8c-6.6,0-12.5,4.2-14.6,10.4l-19.5,55.7
			c-1.9,5.2,0.4,10.9,5.3,13.4c2.6,1.3,5.7,1.5,8.4,0.5c2.8-1,5-3,6.2-5.7l13.3-31.6c-2.1,7.5-0.1,15.9,5.3,22.4v18.6h74.4v-68.2
			c0-4.1-1.6-8-4.5-11C197.1,113.2,193.2,111.6,189.1,111.6L189.1,111.6z M189.1,111.6"/>
		<path class="st10" d="M204.6,129.3c-15.9,36.8-44.6,56.8-61.3,65.9h61.3V129.3z M204.6,129.3"/>
		<path class="st11" d="M189.1,195.2h-6.2v-18.6c0-0.7,0.3-1.4,0.7-2c5.7-6.8,6.8-16.4,2.8-23.8l5.4-3c5.1,9.3,4,21.2-2.7,29.8
			V195.2z M189.1,195.2"/>
		<path class="st7" d="M186,46.5v21.7c0,15.4-12.5,27.9-27.9,27.9c-1.3,0-2.6-0.1-3.8-0.3h0c-13.8-1.9-24.1-13.7-24.1-27.6V46.5
			c0-13.7,11.1-24.8,24.8-24.8h6.2c0.6,0,1.2,0,1.8,0.1c12.1,0.9,21.8,10.3,22.9,22.4C185.9,45,186,45.7,186,46.5L186,46.5z
			 M186,46.5"/>
		<path class="st12" d="M186,46.5v21.7c0,15.4-12.5,27.9-27.9,27.9c-1.3,0-2.6-0.1-3.8-0.3c11.8-5.7,19.3-17.6,19.3-30.7V46.5
			c0-9-3.6-17.7-10-24.1c-0.2-0.2-0.4-0.4-0.6-0.6C175.9,22.7,186,33.5,186,46.5L186,46.5z M186,46.5"/>
		<path class="st12" d="M185.9,45.6c-4.5-3.8-7.6-8.9-9.3-14.6c-0.7,0-2.7,0-5.3,0c-12.5,0-22.6,10.1-22.6,22.6
			c0,11.3-5.7,21.8-15.1,28h0c-2.3-4.1-3.5-8.7-3.5-13.4V46.5c0-13.7,11.1-24.8,24.8-24.8h6.2c0.6,0,1.2,0,1.8,0.1
			c12.1,0.9,21.8,10.3,22.9,22.4C185.9,44.7,185.9,45.2,185.9,45.6L185.9,45.6z M185.9,45.6"/>
		<path class="st13" d="M158.1,80.6c-5.1,0-9.3-4.2-9.3-9.3h6.2c0,1.7,1.4,3.1,3.1,3.1c1.7,0,3.1-1.4,3.1-3.1h6.2
			C167.4,76.4,163.2,80.6,158.1,80.6L158.1,80.6z M158.1,80.6"/>
		<path class="st14" d="M139.5,111.6L124,124l12.4,9.3l-3.1,9.3l24.8,21.7L139.5,111.6z M139.5,111.6"/>
		<path class="st14" d="M176.7,111.6l15.5,12.4l-12.4,9.3l3.1,9.3l-24.8,21.7L176.7,111.6z M176.7,111.6"/>
		<rect x="155" y="164.3" class="st11" width="6.2" height="31"/>
		<rect x="142.6" y="170.4" class="st11" width="6.2" height="6.2"/>
		<path class="st8" d="M186,49.6h3.1c5.1,0,9.3,4.2,9.3,9.3s-4.2,9.3-9.3,9.3H186V49.6z M186,49.6"/>
		<path class="st15" d="M137.9,49.6h7.7c4.3,0,7.7,3.5,7.7,7.7s-3.5,7.7-7.7,7.7h-7.7c-4.3,0-7.7-3.5-7.7-7.7S133.6,49.6,137.9,49.6
			L137.9,49.6z M137.9,49.6"/>
		<path class="st15" d="M170.5,49.6h7.7c4.3,0,7.7,3.5,7.7,7.7s-3.5,7.7-7.7,7.7h-7.7c-4.3,0-7.7-3.5-7.7-7.7S166.2,49.6,170.5,49.6
			L170.5,49.6z M170.5,49.6"/>
		<path class="st9" d="M178.2,46.5h-7.7c-4.2,0-8,2.4-9.8,6.2h-5.3c-1.8-3.8-5.6-6.2-9.8-6.2h-7.7c-6,0-10.8,4.9-10.8,10.8
			s4.9,10.8,10.8,10.8h7.7c5.4,0,9.9-4,10.7-9.3h3.4c0.8,5.3,5.3,9.3,10.7,9.3h7.7c6,0,10.8-4.9,10.8-10.8S184.2,46.5,178.2,46.5
			L178.2,46.5z M145.7,62h-7.7c-2.6,0-4.6-2.1-4.6-4.6s2.1-4.6,4.6-4.6h7.7c2.6,0,4.6,2.1,4.6,4.6S148.2,62,145.7,62L145.7,62z
			 M178.2,62h-7.7c-2.6,0-4.6-2.1-4.6-4.6s2.1-4.6,4.6-4.6h7.7c2.6,0,4.6,2.1,4.6,4.6S180.8,62,178.2,62L178.2,62z M178.2,62"/>
		<path class="st14" d="M90.8,180.9l2.2-29.1h18.6v29.9c0,2.8-1.1,5.4-3.1,7.4c-2,2-4.6,3.1-7.4,3.1c-2.9,0-5.7-1.2-7.7-3.3
			C91.5,186.7,90.5,183.8,90.8,180.9L90.8,180.9z M90.8,180.9"/>
		<path class="st16" d="M100.3,106.7c-1.8,0.4-3.3,1.7-4,3.3c-0.8,1.7-0.7,3.6,0.1,5.2l2.8,5.7H88.1c-2.9,0-5.7-0.7-8.3-2l-3.1-1.5
			c-1.2-0.6-2.5-0.5-3.6,0.2c-1.1,0.7-1.8,1.9-1.8,3.2v8.7c0,2.3,1.3,4.5,3.4,5.5l5,2.5c2.6,1.3,5.4,2,8.3,2h23.5v-18.6l-4.2-10.6
			C106.2,107.5,103.2,105.9,100.3,106.7L100.3,106.7z M100.3,106.7"/>
		<rect x="93" y="139.5" class="st5" width="18.6" height="12.4"/>
		<path class="st10" d="M145.7,46.5h-7.7c-6,0-10.8,4.9-10.8,10.8s4.9,10.8,10.8,10.8h7.4c1.1-2.2,1.9-4.4,2.5-6.7
			c-0.7,0.4-1.4,0.5-2.1,0.5h-7.7c-2.6,0-4.6-2.1-4.6-4.6s2.1-4.6,4.6-4.6h7.7c1.1,0,2.2,0.4,3.1,1.2c0-0.1,0-0.2,0-0.3
			c0-2.1,0.3-4.3,0.9-6.3C148.4,46.8,147.1,46.5,145.7,46.5L145.7,46.5z M145.7,46.5"/>
		<path class="st17" d="M192.2,43.4v6.2H186l-1-0.5c-6-3-10.3-7.8-12.9-13.7c-0.6-1.4-1.2-2.9-1.6-4.4c-0.5,0-1.7,0-3.3,0
			c-0.6,0-1.3,0-1.9,0c-12.5,0-22.6,10.1-22.6,22.6c0,12.7-7.2,24.4-18.6,30.1V43.4c0-17.1,13.9-31,31-31h6.2
			C178.3,12.4,192.2,26.3,192.2,43.4L192.2,43.4z M192.2,43.4"/>
		<path class="st6" d="M178.9,18l-6.8,17.4c-0.6-1.4-1.2-2.9-1.6-4.4c-0.5,0-1.7,0-3.3,0l6.3-16.1C175.4,15.8,177.2,16.8,178.9,18
			L178.9,18z M178.9,18"/>
		<rect x="27.9" y="136.4" class="st18" width="49.6" height="52.7"/>
		<path class="st19" d="M77.5,153.8L42.3,189h35.2V153.8z M77.5,153.8"/>
		<rect x="27.9" y="136.4" class="st20" width="49.6" height="15.5"/>
		<rect x="37.2" y="130.2" class="st5" width="6.2" height="12.4"/>
		<rect x="62" y="130.2" class="st5" width="6.2" height="12.4"/>
		<rect x="37.2" y="161.2" class="st21" width="6.2" height="6.2"/>
		<rect x="49.6" y="161.2" class="st21" width="6.2" height="6.2"/>
		<rect x="62" y="161.2" class="st21" width="6.2" height="6.2"/>
		<rect x="37.2" y="173.5" class="st21" width="6.2" height="6.2"/>
		<rect x="49.6" y="173.5" class="st21" width="6.2" height="6.2"/>
		<rect x="62" y="173.5" class="st21" width="6.2" height="6.2"/>
		<rect x="27.9" y="151.9" class="st19" width="49.6" height="6.2"/>
	</g>
	<rect x="-0.1" y="12.6" class="st22" width="246.1" height="182.7"/>
</g>
</svg>
