<?xml version="1.0" encoding="utf-8"?>
<!-- Generator: Adobe Illustrator 25.1.0, SVG Export Plug-In . SVG Version: 6.00 Build 0)  -->
<svg version="1.1" id="Layer_1" xmlns="http://www.w3.org/2000/svg" xmlns:xlink="http://www.w3.org/1999/xlink" x="0px" y="0px"
	 viewBox="0 0 246 157" style="enable-background:new 0 0 246 157;" xml:space="preserve">
<style type="text/css">
	.st0{clip-path:url(#SVGID_2_);}
	.st1{fill:#FEDECA;}
	.st2{fill:#F1BEA0;}
	.st3{fill:#C7C7C5;}
	.st4{fill:#E0E0DE;}
	.st5{fill:#3F8ECC;}
	.st6{fill:#F4CBB6;}
	.st7{fill:#F68D48;}
	.st8{clip-path:url(#SVGID_4_);fill:#F68D48;}
	.st9{clip-path:url(#SVGID_4_);fill:#F8A16F;}
	.st10{fill:#F4A57D;}
	.st11{fill:#577384;}
	.st12{fill:#3F4E63;}
	.st13{fill:#49658E;}
	.st14{fill:#344663;}
	.st15{fill:#D7D7D5;}
	.st16{fill:#69CBDB;}
	.st17{fill:#4FB8E5;}
	.st18{fill:#FCCAA5;}
	.st19{fill:#FCC194;}
	.st20{fill:#F8A469;}
	.st21{fill:#2F3E51;}
	.st22{opacity:0.15;clip-path:url(#SVGID_2_);fill:none;}
</style>
<g>
	<defs>
		<rect id="SVGID_1_" x="-0.1" y="-0.1" width="246.1" height="157.2"/>
	</defs>
	<clipPath id="SVGID_2_">
		<use xlink:href="#SVGID_1_"  style="overflow:visible;"/>
	</clipPath>
	<g class="st0">
		<path class="st1" d="M194.6,123.1l-23.8-6.3l-8.7-4.2v-21h-31.5v21l-8.7,4.2l-13.4,3.3l-8,2.6c-6.5,2.1-10.9,8.2-10.9,15v32.7H55
			v25.2h135.6c8.7,0,15.8-7.1,15.8-15.8v-41.5C206.3,131.2,201.5,124.9,194.6,123.1L194.6,123.1z M194.6,123.1"/>
		<path class="st2" d="M162.2,100.3v-8.8h-31.5v8.8C140.5,105.4,152.3,105.4,162.2,100.3L162.2,100.3z M162.2,100.3"/>
		<path class="st3" d="M194.6,123.1l-23.8-6.3l-5.5-6.3l-18.9,12.6l-18.9-12.6l-5.5,6.3l-11.8,3.2h-1.6v59.9h34.7v15.8h47.3
			c8.7,0,15.8-7.1,15.8-15.8v-41.5C206.3,131.2,201.5,124.9,194.6,123.1L194.6,123.1z M194.6,123.1"/>
		<path class="st4" d="M129.7,137.6l16.7-14.6l-18.9-12.6l-5.5,6.3h0.1L129.7,137.6z M129.7,137.6"/>
		<path class="st4" d="M163.1,137.6l-16.7-14.6l18.9-12.6l5.5,6.3h-0.1L163.1,137.6z M163.1,137.6"/>
		<path class="st5" d="M146.4,123.1l-6.3,5.5v37.3l6.3,17.1l6.3-17.1v-37.3L146.4,123.1z M146.4,123.1"/>
		<path class="st2" d="M174.8,50.5h3.2c5.2,0,9.5,4.2,9.5,9.5s-4.2,9.5-9.5,9.5h-3.2V50.5z M174.8,50.5"/>
		<path class="st2" d="M118,50.5h-3.2c-5.2,0-9.4,4.2-9.5,9.5c0,5.2,4.2,9.4,9.5,9.5h3.3"/>
		<path class="st1" d="M174.8,47.4v22.1c0,15.7-12.7,28.4-28.4,28.4c-1.3,0-2.6-0.1-3.9-0.3h0c-14-1.9-24.5-13.9-24.5-28.1V47.4
			c0-15.7,12.7-28.4,28.4-28.4c0.4,0,0.7,0,1.1,0C162.7,19.6,174.8,32.1,174.8,47.4L174.8,47.4z M174.8,47.4"/>
		<path class="st6" d="M174.8,47.4v22.1c0,15.7-12.7,28.4-28.4,28.4c-1.3,0-2.6-0.1-3.9-0.3c12-5.8,19.7-17.9,19.6-31.3V47.4
			c0-11.3-5.5-21.9-14.7-28.4C162.7,19.6,174.8,32.1,174.8,47.4L174.8,47.4z M174.8,47.4"/>
		<path class="st7" d="M118,50.5V37.9c0-10.4,7.1-18.9,15.8-18.9l-0.6,2C130.1,32.1,124.9,42.2,118,50.5L118,50.5z M118,50.5"/>
		<g>
			<defs>
				<rect id="SVGID_3_" x="23.4" y="12.7" width="182.9" height="182.9"/>
			</defs>
			<clipPath id="SVGID_4_">
				<use xlink:href="#SVGID_3_"  style="overflow:visible;"/>
			</clipPath>
			<path class="st8" d="M174.8,50.5V28.9c0-3.1-1.4-6.1-3.9-8c-2.5-1.9-5.7-2.6-8.7-1.8v9.5C162.2,28.5,167.9,42.2,174.8,50.5
				L174.8,50.5z M174.8,50.5"/>
			<path class="st9" d="M162.2,19v9.5H118c0-3.9,1.5-7.7,4.1-10.6c0.2-0.2,0.3-0.4,0.5-0.5c3-3,7-4.6,11.1-4.6h13.2
				C152.7,12.7,158.1,15,162.2,19L162.2,19z M162.2,19"/>
		</g>
		<path class="st10" d="M143.6,78.9h-6.7v-6.3h6.7c3.8,0,7.7-0.6,11.3-1.7l1.8,6C152.5,78.3,148.1,78.9,143.6,78.9L143.6,78.9z
			 M143.6,78.9"/>
		<path class="st7" d="M136.1,12.7l12.5,15.8h8.1l-12.5-15.8H136.1z M136.1,12.7"/>
		<path class="st7" d="M141.5,28.5h-8.9l-10.4-10.6c0.2-0.2,0.3-0.4,0.5-0.5c1.3-1.3,2.9-2.4,4.6-3.2L141.5,28.5z M141.5,28.5"/>
		<path class="st11" d="M136.9,55.3c0,2.6-2.1,4.7-4.7,4.7s-4.7-2.1-4.7-4.7s2.1-4.7,4.7-4.7S136.9,52.7,136.9,55.3L136.9,55.3z
			 M136.9,55.3"/>
		<path class="st11" d="M165.3,55.3c0,2.6-2.1,4.7-4.7,4.7c-2.6,0-4.7-2.1-4.7-4.7s2.1-4.7,4.7-4.7
			C163.2,50.5,165.3,52.7,165.3,55.3L165.3,55.3z M165.3,55.3"/>
		<path class="st3" d="M108.6,119.9v0.1l0.5-0.1H108.6z M108.6,119.9"/>
		<path class="st12" d="M194.6,123.1l-23.8-6.3h-0.1L146.4,183L122,116.8H122l-11.8,3.2h-1.1l-0.5,0.1v50.3H55v25.2h135.6
			c8.7,0,15.8-7.1,15.8-15.8v-41.5C206.3,131.2,201.5,124.9,194.6,123.1L194.6,123.1z M194.6,123.1"/>
		<path class="st13" d="M108.6,145.1l12.6,3.2l-6.3,12.6l31.5,22.1l-23-62.6l-1.4-3.7l-8.7,2.3L108.6,145.1z M108.6,145.1"/>
		<path class="st13" d="M184.2,145.1l-12.6,3.2l6.3,12.6L146.4,183l23-62.6l1.4-3.7l8.7,2.3L184.2,145.1z M184.2,145.1"/>
		<rect x="143.3" y="179.8" class="st14" width="6.3" height="15.8"/>
		<rect x="143.3" y="173.5" class="st4" width="12.6" height="22.1"/>
		<path class="st4" d="M29.7,113.6h75.7c3.5,0,6.3,2.8,6.3,6.3v56.8c0,3.5-2.8,6.3-6.3,6.3H29.7c-3.5,0-6.3-2.8-6.3-6.3v-56.8
			C23.4,116.4,26.2,113.6,29.7,113.6L29.7,113.6z M29.7,113.6"/>
		<path class="st15" d="M109.3,115l-68,68h64.1c3.5,0,6.3-2.8,6.3-6.3v-56.8C111.7,118,110.8,116.2,109.3,115L109.3,115z M109.3,115
			"/>
		<rect x="36" y="132.5" class="st5" width="12.6" height="12.6"/>
		<rect x="61.3" y="132.5" class="st16" width="12.6" height="12.6"/>
		<rect x="86.5" y="132.5" class="st5" width="12.6" height="12.6"/>
		<rect x="36" y="157.7" class="st16" width="12.6" height="12.6"/>
		<rect x="61.3" y="157.7" class="st5" width="12.6" height="12.6"/>
		<rect x="86.5" y="157.7" class="st17" width="12.6" height="12.6"/>
		<path class="st18" d="M42.3,170.4h18.9c3.5,0,6.3,2.8,6.3,6.3v18.9H42.3c-3.5,0-6.3-2.8-6.3-6.3v-12.6
			C36,173.2,38.9,170.4,42.3,170.4L42.3,170.4z M42.3,170.4"/>
		<path class="st19" d="M36,183v6.3c0,3.5,2.8,6.3,6.3,6.3h25.2v-6.3H42.3C38.9,189.3,36,186.5,36,183L36,183z M36,183"/>
		<rect x="32.9" y="104.1" class="st3" width="6.3" height="18.9"/>
		<rect x="45.5" y="104.1" class="st3" width="6.3" height="18.9"/>
		<rect x="58.1" y="104.1" class="st3" width="6.3" height="18.9"/>
		<rect x="70.7" y="104.1" class="st3" width="6.3" height="18.9"/>
		<rect x="83.3" y="104.1" class="st3" width="6.3" height="18.9"/>
		<rect x="96" y="104.1" class="st3" width="6.3" height="18.9"/>
		<path class="st18" d="M143.3,195.6H99.1c-3.5,0-6.3-2.8-6.3-6.3c0-3.5,2.8-6.3,6.3-6.3h12.6c-3.5,0-6.3-2.8-6.3-6.3
			c0-3.5,2.8-6.3,6.3-6.3h9.5c5.7-3.8,13.1-3.6,18.6,0.5l3.5,2.6V195.6z M143.3,195.6"/>
		<path class="st20" d="M118,186.1h-9.5c-1.7,0-3.2-1.4-3.2-3.2c0-1.7,1.4-3.2,3.2-3.2h9.5c1.7,0,3.2,1.4,3.2,3.2
			C121.2,184.7,119.8,186.1,118,186.1L118,186.1z M118,186.1"/>
		<rect x="155.9" y="173.5" class="st12" width="28.4" height="22.1"/>
		<path class="st21" d="M184.2,176.7h-28.4v-6.3h22.1v-12.6h6.3V176.7z M184.2,176.7"/>
	</g>
	<rect x="-0.1" y="12.7" class="st22" width="246.1" height="182.7"/>
</g>
</svg>
