<?xml version="1.0" encoding="utf-8"?>
<!-- Generator: Adobe Illustrator 25.1.0, SVG Export Plug-In . SVG Version: 6.00 Build 0)  -->
<svg version="1.1" id="Layer_1" xmlns="http://www.w3.org/2000/svg" xmlns:xlink="http://www.w3.org/1999/xlink" x="0px" y="0px"
	 viewBox="0 0 246 157" style="enable-background:new 0 0 246 157;" xml:space="preserve">
<style type="text/css">
	.st0{clip-path:url(#SVGID_2_);}
	.st1{fill:#D6A989;}
	.st2{fill:#CC9675;}
	.st3{fill:#F4FBFE;}
	.st4{fill:#E5F5FD;}
	.st5{fill:#4C81AB;}
	.st6{fill:#417194;}
	.st7{fill:#C1D8F0;}
	.st8{fill:#385E7E;}
	.st9{fill:#95D3BD;}
	.st10{fill:#7BCAAE;}
	.st11{fill:#FCCAA5;}
	.st12{fill:#FBB784;}
	.st13{fill:#D7D7D5;}
	.st14{fill:#BFBFBD;}
	.st15{fill:#2F3E51;}
	.st16{fill:#2A384A;}
	.st17{fill:#FCC194;}
	.st18{fill:#F8A469;}
	.st19{fill:#3F4E63;}
	.st20{fill:#38465A;}
	.st21{fill:#7B442B;}
	.st22{fill:#EAD67F;}
	.st23{fill:#F4E6A7;}
	.st24{fill:#23303D;}
	.st25{opacity:0.15;clip-path:url(#SVGID_2_);fill:none;}
</style>
<g>
	<defs>
		<rect id="SVGID_1_" x="-0.1" y="-0.1" width="246.1" height="157.2"/>
	</defs>
	<clipPath id="SVGID_2_">
		<use xlink:href="#SVGID_1_"  style="overflow:visible;"/>
	</clipPath>
	<g class="st0">
		<path class="st1" d="M74.3,126.9V28.2c0-1.8-1.4-3.2-3.2-3.2H10.2c-3.9,0-7.1,3.2-7.1,7.1V123c0,3.9,3.2,7.1,7.1,7.1h60.9
			C72.9,130.2,74.3,128.7,74.3,126.9L74.3,126.9z M74.3,126.9"/>
		<path class="st2" d="M80.7,25H69.9c1.8,0,3.2,1.4,3.2,3.2v98.7c0,1.8-1.4,3.2-3.2,3.2h10.7c3.9,0,7.1-3.2,7.1-7.1V32.1
			C87.8,28.2,84.6,25,80.7,25L80.7,25z M80.7,25"/>
		<path class="st3" d="M74.3,33.1H13.5c-1.3,0-2.3,1-2.3,2.3v84.3c0,1.3,1,2.3,2.3,2.3h60.8V33.1z M74.3,33.1"/>
		<path class="st4" d="M77.4,33.1h-4.2V122h4.2c1.3,0,2.3-1,2.3-2.3V35.4C79.7,34.1,78.7,33.1,77.4,33.1L77.4,33.1z M77.4,33.1"/>
		<path class="st5" d="M47.9,15.2h-8.6c-1.7,0-3.2,1.4-3.2,3.2v2.3c0,0.7-0.6,1.3-1.3,1.3h-5.2c-1.7,0-3.1,1.4-3.1,3.1v8.1h24.1
			V17.9C50.6,16.4,49.4,15.2,47.9,15.2L47.9,15.2z M47.9,15.2"/>
		<path class="st6" d="M61.3,21.9h-5.2c-0.7,0-1.3-0.6-1.3-1.3v-2.3c0-1.7-1.4-3.2-3.2-3.2H47c1.5,0,2.7,1.2,2.7,2.7v15.2h14.7v-8.1
			C64.4,23.3,63,21.9,61.3,21.9L61.3,21.9z M61.3,21.9"/>
		<path class="st7" d="M41.9,71H24c-1.9,0-3.5-1.6-3.5-3.5V45.2c0-1.9,1.6-3.5,3.5-3.5h18c1.9,0,3.5,1.6,3.5,3.5v22.3
			C45.5,69.4,43.9,71,41.9,71L41.9,71z M41.9,71"/>
		<path class="st5" d="M33,59.7c-5.7,0-10.5,3.6-12.4,8.7C21,69.9,22.4,71,24,71h18c1.6,0,3-1.1,3.4-2.6
			C43.5,63.4,38.6,59.7,33,59.7L33,59.7z M33,59.7"/>
		<path class="st8" d="M38.6,55.5c0,3.1-2.5,5.6-5.6,5.6c-3.1,0-5.6-2.5-5.6-5.6c0-3.1,2.5-5.6,5.6-5.6
			C36.1,49.9,38.6,52.4,38.6,55.5L38.6,55.5z M38.6,55.5"/>
		<path class="st6" d="M70.5,81.1H20.6c-1,0-1.7-0.8-1.7-1.7c0-1,0.8-1.7,1.7-1.7h49.9c1,0,1.7,0.8,1.7,1.7
			C72.2,80.3,71.4,81.1,70.5,81.1L70.5,81.1z M70.5,81.1"/>
		<path class="st6" d="M70.5,90.7H20.6c-1,0-1.7-0.8-1.7-1.7c0-1,0.8-1.7,1.7-1.7h49.9c1,0,1.7,0.8,1.7,1.7
			C72.2,89.9,71.4,90.7,70.5,90.7L70.5,90.7z M70.5,90.7"/>
		<path class="st6" d="M50.5,100.3h-30c-1,0-1.7-0.8-1.7-1.7c0-1,0.8-1.7,1.7-1.7h30c1,0,1.7,0.8,1.7,1.7
			C52.3,99.5,51.5,100.3,50.5,100.3L50.5,100.3z M50.5,100.3"/>
		<path class="st6" d="M50.5,109.9h-30c-1,0-1.7-0.8-1.7-1.7c0-1,0.8-1.7,1.7-1.7h30c1,0,1.7,0.8,1.7,1.7
			C52.3,109.1,51.5,109.9,50.5,109.9L50.5,109.9z M50.5,109.9"/>
		<path class="st6" d="M70.5,66.1H54.2c-1,0-1.7-0.8-1.7-1.7c0-1,0.8-1.7,1.7-1.7h16.3c1,0,1.7,0.8,1.7,1.7
			C72.2,65.4,71.4,66.1,70.5,66.1L70.5,66.1z M70.5,66.1"/>
		<path class="st6" d="M70.5,57.9H54.2c-1,0-1.7-0.8-1.7-1.7c0-1,0.8-1.7,1.7-1.7h16.3c1,0,1.7,0.8,1.7,1.7
			C72.2,57.1,71.4,57.9,70.5,57.9L70.5,57.9z M70.5,57.9"/>
		<path class="st9" d="M87.5,108.1c0-5.3-2.1-10.1-5.4-13.6c-0.9-0.9-2.1-1.3-3.4-1.1c-8.8,1.5-15.5,9.1-15.5,18.3
			c0,5.9,2.8,11.2,7.1,14.6c1,0.8,2.3,1,3.5,0.6C81.8,124.3,87.5,116.8,87.5,108.1L87.5,108.1z M87.5,108.1"/>
		<path class="st10" d="M81.8,93.1c-1,0-2,0.1-3,0.2c4.2,3.4,6.9,8.6,6.9,14.4c0,9.2-6.7,16.8-15.5,18.3c3.2,2.6,7.2,4.1,11.6,4.1
			c10.2,0,18.5-8.3,18.5-18.5C100.3,101.4,92,93.1,81.8,93.1L81.8,93.1z M81.8,93.1"/>
		<path class="st3" d="M79.6,119.7c-0.7,0-1.4-0.2-2-0.7l-5.9-4.6c-0.8-0.6-0.9-1.7-0.3-2.4c0.6-0.8,1.7-0.9,2.4-0.3l5.8,4.5
			l10.3-11.9c0.6-0.7,1.7-0.8,2.4-0.2c0.7,0.6,0.8,1.7,0.2,2.4l-10.4,12.1C81.4,119.3,80.5,119.7,79.6,119.7L79.6,119.7z
			 M79.6,119.7"/>
	</g>
	<g class="st0">
		<path class="st11" d="M187.1,197.2v-57.5c0-8.5-5.7-15.9-13.9-18.1l-33-8.8V84.5h-37.5v28.2l-30.2,8.6c-8.1,2.3-13.6,9.7-13.6,18
			v57.8"/>
		<path class="st12" d="M121.4,109.6c7,0,13.8-2.8,18.8-7.7V84.5h-37.5v17.3C107.7,106.8,114.4,109.6,121.4,109.6L121.4,109.6z
			 M121.4,109.6"/>
		<path class="st13" d="M140.2,112.7l-18.8,9.4l-18.8-9.4l-30.2,8.6c-8.1,2.3-13.6,9.7-13.6,18v57.8h128.3v-57.5
			c0-8.5-5.7-15.9-13.9-18.1L140.2,112.7z M140.2,112.7"/>
		<rect x="118.3" y="122.1" class="st14" width="6.3" height="75.1"/>
		<g>
			<path class="st15" d="M187.1,139.6v57.5H58.9v-57.8c0-8.4,5.6-15.7,13.6-18l11-3.1l9.3-2.6l0.1,0l28.6,59.8l28.7-59.9l0,0
				l9.3,2.5l13.7,3.7C181.4,123.7,187.1,131.1,187.1,139.6L187.1,139.6z M187.1,139.6"/>
			<path class="st16" d="M187.1,139.6v57.5h-81.9c30.8-10.5,64.3-30.1,79.4-66.9C186.3,133.1,187.1,136.4,187.1,139.6L187.1,139.6z
				 M187.1,139.6"/>
		</g>
		<path class="st11" d="M149.6,46.1v12.8c0,6.7-0.7,13.3-2,19.8c-2.5,12.5-13.5,21.5-26.2,21.5c-12.7,0-23.7-9-26.2-21.5
			c-0.7-3.3-1.1-6.5-1.5-9.9c-0.3-3.3-0.5-6.6-0.5-10V46.1c0-15.5,12.6-28.2,28.2-28.2c0.3,0,0.5,0,0.8,0
			C137.5,18.3,149.6,30.8,149.6,46.1L149.6,46.1z M149.6,46.1"/>
		<path class="st17" d="M149.6,46.1v12.8c0,6.7-0.7,13.3-2,19.8c-1.5,7.5-6.1,13.9-12.7,17.8c-6.6,3.9-14.5,4.7-21.7,2.4
			c14.8-4.2,25-17.7,25-33.1V47c0-11.8-6.1-22.8-16-29.1C137.5,18.3,149.6,30.8,149.6,46.1L149.6,46.1z M149.6,46.1"/>
		<path class="st18" d="M121,78.3h-5.8V72h5.8c4.3,0,8.4-1,11.4-2.7l3.2,5.4C131.6,77,126.4,78.3,121,78.3L121,78.3z M121,78.3"/>
		<path class="st12" d="M93.3,50.1h-3.1c-5.2,0-9.4,4.2-9.4,9.4s4.2,9.4,9.4,9.4h3.6c-0.3-3.3-0.5-6.7-0.5-10V50.1z M93.3,50.1"/>
		<path class="st12" d="M152.7,50.1h-3.1v8.8c0,3.3-0.2,6.7-0.5,10h3.6c5.2,0,9.4-4.2,9.4-9.4S157.9,50.1,152.7,50.1L152.7,50.1z
			 M152.7,50.1"/>
		<path class="st19" d="M90.1,156.5l6.3-9.4H80.8l2.7-28.9l9.3-2.6l28.7,59.7L90.1,156.5z M90.1,156.5"/>
		<path class="st19" d="M146.5,147.1l6.3,12.5l-31.3,15.6l28.7-59.9l9.3,2.5l2.6,29.3H146.5z M146.5,147.1"/>
		<rect x="115.2" y="115.8" class="st20" width="12.5" height="12.5"/>
		<path class="st16" d="M115.2,115.8l-18.8-6.3v25l18.8-6.3V115.8z M115.2,115.8"/>
		<path class="st16" d="M127.7,115.8l18.8-6.3v25l-18.8-6.3V115.8z M127.7,115.8"/>
		<path class="st21" d="M107.4,58.6c-1.9,0-3.6-1.1-4.3-2.9c-0.7-1.8-0.3-3.8,1-5.1c1.3-1.3,3.4-1.7,5.1-1c1.8,0.7,2.9,2.4,2.9,4.3
			C112,56.5,109.9,58.6,107.4,58.6L107.4,58.6z M107.4,58.6"/>
		<path class="st21" d="M135.5,58.6c-1.9,0-3.6-1.1-4.3-2.9c-0.7-1.8-0.3-3.8,1-5.1c1.3-1.3,3.4-1.7,5.1-1c1.8,0.7,2.9,2.4,2.9,4.3
			C140.2,56.5,138.1,58.6,135.5,58.6L135.5,58.6z M135.5,58.6"/>
		<path class="st22" d="M93.3,50.1V37.6c0-10.4,7-18.8,15.6-18.8l-0.6,2C105.3,31.9,100.1,41.9,93.3,50.1L93.3,50.1z M93.3,50.1"/>
		<path class="st22" d="M149.6,50.1V28.6c0-3.1-1.4-6-3.9-7.9c-2.4-1.9-5.6-2.6-8.6-1.8v9.4C137.1,28.2,142.7,41.9,149.6,50.1
			L149.6,50.1z M149.6,50.1"/>
		<path class="st22" d="M137.1,18.8v9.4H93.3c0-3.8,1.4-7.4,3.9-10.3c0.2-0.3,0.5-0.5,0.7-0.8c2.9-2.9,6.9-4.6,11.1-4.6h13
			C127.6,12.6,133.1,14.8,137.1,18.8L137.1,18.8z M137.1,18.8"/>
		<path class="st23" d="M131.5,28.2h-8L111,12.6h7.9L131.5,28.2z M131.5,28.2"/>
		<path class="st23" d="M116.4,28.2h-8.9L97.1,17.9c0.2-0.3,0.5-0.5,0.7-0.8c1.3-1.3,2.8-2.3,4.4-3.1L116.4,28.2z M116.4,28.2"/>
		<rect x="105.8" y="178.4" class="st24" width="6.3" height="6.3"/>
		<rect x="159" y="169" class="st24" width="6.3" height="28.2"/>
		<rect x="118.3" y="175.3" class="st24" width="6.3" height="21.9"/>
		<rect x="77.6" y="169" class="st24" width="6.3" height="28.2"/>
	</g>
	<rect x="-0.1" y="12.6" class="st25" width="246.1" height="182.7"/>
</g>
</svg>
