<?xml version="1.0" encoding="utf-8"?>
<!-- Generator: Adobe Illustrator 25.1.0, SVG Export Plug-In . SVG Version: 6.00 Build 0)  -->
<svg version="1.1" id="Layer_1" xmlns="http://www.w3.org/2000/svg" xmlns:xlink="http://www.w3.org/1999/xlink" x="0px" y="0px"
	 viewBox="0 0 246 157" style="enable-background:new 0 0 246 157;" xml:space="preserve">
<style type="text/css">
	.st0{clip-path:url(#SVGID_2_);}
	.st1{fill:#F4FBFE;}
	.st2{fill:#E5F5FD;}
	.st3{fill:#E28086;}
	.st4{fill:#CDE1F4;}
	.st5{fill:#417194;}
	.st6{fill:#E8AE4C;}
	.st7{clip-path:url(#SVGID_4_);fill:#FFE07E;}
	.st8{clip-path:url(#SVGID_4_);fill:#FFD067;}
	.st9{fill:#E6A42E;}
	.st10{fill:#D7D7D5;}
	.st11{fill:#C7C7C5;}
	.st12{fill:#B1B1AF;}
	.st13{fill:#EFB68F;}
	.st14{fill:#E09C6F;}
	.st15{fill:#38465A;}
	.st16{fill:#BFBFBD;}
	.st17{fill:#96583B;}
	.st18{fill:#4E5E73;}
	.st19{fill:#23303D;}
	.st20{fill:#E0E0DE;}
	.st21{fill:#7B442B;}
	.st22{fill:#CE855D;}
	.st23{fill:#382924;}
	.st24{fill:#493B38;}
	.st25{fill:#3F4E63;}
	.st26{opacity:0.15;clip-path:url(#SVGID_2_);fill:none;}
</style>
<g>
	<defs>
		<rect id="SVGID_1_" x="-0.1" y="-0.1" width="246.1" height="157.2"/>
	</defs>
	<clipPath id="SVGID_2_">
		<use xlink:href="#SVGID_1_"  style="overflow:visible;"/>
	</clipPath>
	<g class="st0">
		<path class="st1" d="M69.6,23.5H31.7c-0.8,0-1.6,0.2-2.3,0.5c-0.3,0.1-0.5,0.5-0.5,0.8v12.6c0,1.9-1.6,3.5-3.5,3.5H12.8
			c-0.3,0-0.7,0.2-0.8,0.5c-0.3,0.7-0.5,1.5-0.5,2.3v68.1c0,3.1,2.5,5.6,5.6,5.6h52.5c3.1,0,5.6-2.5,5.6-5.6V29.1
			C75.2,26,72.7,23.5,69.6,23.5L69.6,23.5z M69.6,23.5"/>
		<path class="st2" d="M79.8,23.5h-12c3.1,0,5.6,2.5,5.6,5.6v82.8c0,3.1-2.5,5.6-5.6,5.6h12c3.1,0,5.6-2.5,5.6-5.6V29.1
			C85.4,26,82.9,23.5,79.8,23.5L79.8,23.5z M79.8,23.5"/>
		<path class="st3" d="M13.1,39.7l14.6-14.6c0.5-0.5,1-0.9,1.6-1.1v13.9c0,1.9-1.6,3.5-3.5,3.5H12C12.3,40.8,12.6,40.2,13.1,39.7
			L13.1,39.7z M13.1,39.7"/>
		<path class="st4" d="M71.6,41.4H42.5c-1,0-1.8-0.8-1.8-1.8V35c0-1,0.8-1.8,1.8-1.8h29.1c1,0,1.8,0.8,1.8,1.8v4.6
			C73.4,40.6,72.6,41.4,71.6,41.4L71.6,41.4z M71.6,41.4"/>
		<path class="st5" d="M58.5,59.2H22.2c-0.8,0-1.4-0.6-1.4-1.4c0-0.8,0.6-1.4,1.4-1.4h36.3c0.8,0,1.4,0.6,1.4,1.4
			C59.9,58.6,59.2,59.2,58.5,59.2L58.5,59.2z M58.5,59.2"/>
		<path class="st5" d="M58.5,69.2H22.2c-0.8,0-1.4-0.6-1.4-1.4s0.6-1.4,1.4-1.4h36.3c0.8,0,1.4,0.6,1.4,1.4S59.2,69.2,58.5,69.2
			L58.5,69.2z M58.5,69.2"/>
		<path class="st5" d="M58.5,79.1H22.2c-0.8,0-1.4-0.6-1.4-1.4c0-0.8,0.6-1.4,1.4-1.4h36.3c0.8,0,1.4,0.6,1.4,1.4
			C59.9,78.5,59.2,79.1,58.5,79.1L58.5,79.1z M58.5,79.1"/>
		<path class="st5" d="M58.5,89.1H22.2c-0.8,0-1.4-0.6-1.4-1.4c0-0.8,0.6-1.4,1.4-1.4h36.3c0.8,0,1.4,0.6,1.4,1.4
			C59.9,88.5,59.2,89.1,58.5,89.1L58.5,89.1z M58.5,89.1"/>
		<path class="st5" d="M40.4,103.7H22.2c-0.8,0-1.4-0.6-1.4-1.4c0-0.8,0.6-1.4,1.4-1.4h18.2c0.8,0,1.4,0.6,1.4,1.4
			C41.8,103.1,41.1,103.7,40.4,103.7L40.4,103.7z M40.4,103.7"/>
		<path class="st6" d="M91.4,106.7l-5.2-3.2c-0.5-0.3-1.2-0.3-1.7,0l-5.2,3.2c-1.1,0.7-2.4-0.1-2.4-1.4V84.8h16.9v20.6
			C93.9,106.6,92.5,107.4,91.4,106.7L91.4,106.7z M91.4,106.7"/>
		<g>
			<defs>
				<rect id="SVGID_3_" x="11.4" y="23.5" width="93" height="94"/>
			</defs>
			<clipPath id="SVGID_4_">
				<use xlink:href="#SVGID_3_"  style="overflow:visible;"/>
			</clipPath>
			<path class="st7" d="M82,92.4c6.6-3.4,11.1-10.2,11.1-18.1c0-7.8-4.5-14.6-11.1-18.1c-1.1,1.4-2.9,1.9-4.5,1.4
				c-2.7-0.8-5.4,1.2-5.4,4c-0.1,1.7-1.2,3.3-2.8,3.9c-2.6,0.9-3.6,4.1-2.1,6.4c1,1.4,1,3.3,0,4.8c-1.6,2.3-0.5,5.5,2.1,6.4
				c1.6,0.6,2.8,2.1,2.8,3.9c0.1,2.8,2.8,4.7,5.4,4C79.1,90.5,80.9,91,82,92.4L82,92.4z M82,92.4"/>
			<path class="st8" d="M103.6,76.7c-1-1.4-1-3.3,0-4.8c1.6-2.3,0.5-5.5-2.1-6.4c-1.6-0.6-2.8-2.1-2.8-3.9c-0.1-2.8-2.8-4.7-5.4-4
				c-1.7,0.5-3.5-0.1-4.6-1.5c-1.7-2.2-5-2.2-6.7,0c-0.2,0.3-0.5,0.6-0.8,0.8c6.6,3,11.1,9.6,11.1,17.3s-4.6,14.3-11.1,17.3
				c0.3,0.2,0.6,0.5,0.8,0.8c1.7,2.2,5,2.2,6.7,0c1.1-1.4,2.9-2,4.6-1.5c2.7,0.8,5.4-1.2,5.4-4c0.1-1.7,1.2-3.3,2.8-3.9
				C104.2,82.2,105.2,79,103.6,76.7L103.6,76.7z M103.6,76.7"/>
		</g>
		<path class="st6" d="M95.9,74.3c0,5.8-4.7,10.5-10.5,10.5c-5.8,0-10.5-4.7-10.5-10.5c0-5.8,4.7-10.5,10.5-10.5
			C91.2,63.9,95.9,68.5,95.9,74.3L95.9,74.3z M95.9,74.3"/>
		<path class="st9" d="M95.9,74.3c0-4.2-2.5-7.8-6.1-9.5c1.6,2.8,2.5,6,2.5,9.5c0,3.5-0.9,6.7-2.5,9.5
			C93.4,82.2,95.9,78.5,95.9,74.3L95.9,74.3z M95.9,74.3"/>
		<path class="st3" d="M13.1,39.7l14.6-14.6c0.5-0.5,1-0.9,1.6-1.1v13.9c0,1.9-1.6,3.5-3.5,3.5H12C12.3,40.8,12.6,40.2,13.1,39.7
			L13.1,39.7z M13.1,39.7"/>
	</g>
	<g class="st0">
		<path class="st10" d="M197.1,37"/>
		<path class="st11" d="M197.1,37"/>
		<path class="st12" d="M48.4,135.1"/>
		<path class="st12" d="M82.1,71.6"/>
		<path class="st13" d="M127.5,14.9c15.8,0,28.5,12.7,28.5,28.5v15.8c0,15.8-12.7,28.5-28.5,28.5S99,74.9,99,59.2V43.4
			C99,27.6,111.7,14.9,127.5,14.9L127.5,14.9z M127.5,14.9"/>
		<path class="st13" d="M146.4,103.5v-19h-38v19l19,72.7L146.4,103.5z M146.4,103.5"/>
		<path class="st14" d="M135.2,103.5c4.1,0,8.1-1.5,11.2-4.2V75h-38v24.2c3.1,2.7,7.1,4.2,11.2,4.2H135.2z M135.2,103.5"/>
		<path class="st15" d="M185.1,113.1l-26-6.5l-12.7-3.2l-19,6.3l-19-6.3l-12.7,3.2l-26,6.5c-7,1.8-12,8.1-12,15.3v57.2h139.2v-57.2
			C197.1,121.2,192.1,114.9,185.1,113.1L185.1,113.1z M185.1,113.1"/>
		<path class="st16" d="M108.5,103.5l19,72.7l19-72.7l-19,6.3L108.5,103.5z M108.5,103.5"/>
		<path class="st17" d="M133.8,152v-37.1l-6.3-5.1l-6.3,5.1V152l6.3,24.2L133.8,152z M133.8,152"/>
		<path class="st18" d="M102.2,131.9L99,144.6l28.5,31.6l-19-72.7l-12.7,3.2l-9.5,22.1L102.2,131.9z M102.2,131.9"/>
		<path class="st18" d="M152.8,131.9l3.2,12.7l-28.5,31.6l19-72.7l12.7,3.2l9.5,22.1L152.8,131.9z M152.8,131.9"/>
		<rect x="83.2" y="141.4" class="st19" width="6.3" height="38"/>
		<rect x="165.4" y="141.4" class="st19" width="6.3" height="38"/>
		<path class="st13" d="M178.1,147.7h19v28.5l-15.8,0l-19,2.7l-3.1-21.7L178.1,147.7z M178.1,147.7"/>
		<path class="st20" d="M162.2,178.9l-13.8,2.8l-3.9-23.5l14.6-0.9L162.2,178.9z M162.2,178.9"/>
		<path class="st15" d="M148.4,181.7l-62.1,13.5h-19c-5.2,0-9.5-4.2-9.5-9.5v-22.1l86.6-5.4L148.4,181.7z M148.4,181.7"/>
		<path class="st14" d="M155.9,43.4h3.2c5.2,0,9.5,4.2,9.5,9.5c0,5.2-4.2,9.5-9.5,9.5h-3.2V43.4z M155.9,43.4"/>
		<path class="st14" d="M99,43.4h-3.2c-5.2,0-9.5,4.3-9.5,9.5c0,5.2,4.3,9.5,9.5,9.5H99V43.4z M99,43.4"/>
		<path class="st21" d="M118,48.1c0,2.6-2.1,4.7-4.7,4.7c-2.6,0-4.7-2.1-4.7-4.7c0-2.6,2.1-4.7,4.7-4.7
			C115.9,43.4,118,45.5,118,48.1L118,48.1z M118,48.1"/>
		<path class="st21" d="M146.4,48.1c0,2.6-2.1,4.7-4.7,4.7c-2.6,0-4.7-2.1-4.7-4.7c0-2.6,2.1-4.7,4.7-4.7
			C144.3,43.4,146.4,45.5,146.4,48.1L146.4,48.1z M146.4,48.1"/>
		<path class="st22" d="M133.8,65.5h-12.7c-1,0-2-0.5-2.6-1.3c-0.6-0.8-0.8-1.9-0.4-2.8l6.3-19l6,2l-4.9,14.8h8.3V65.5z M133.8,65.5
			"/>
		<path class="st23" d="M153.8,27.5h-10.7c2.8,7.4,6.6,14.3,11.5,20.5c0.4,0.6,0.9,1.1,1.3,1.7V37C156,33.7,155.2,30.5,153.8,27.5
			L153.8,27.5z M153.8,27.5"/>
		<path class="st23" d="M99,49.7V27.9c0-3.1,1.4-6.1,3.9-8c2.5-1.9,5.7-2.6,8.7-1.9v9.5C111.7,27.5,105.9,41.4,99,49.7L99,49.7z
			 M99,49.7"/>
		<path class="st23" d="M135.2,97.1h-15.5c-6.8,0-13-4.1-15.7-10.3C100.7,79,99,70.6,99,62.1V43.4l5.5,17.3c1,2,2.9,3.5,5.1,4.1
			c2.2,0.6,4.5,0.2,6.4-1.1c1.3-0.9,2.8-1.3,4.4-1.3h14.2c1.6,0,3.1,0.5,4.4,1.3l0.6,0.4c1.8,1.2,4,1.6,6.1,1.1
			c2.1-0.5,4-1.8,5.1-3.7l5.2-18.2v18.8c0,8.5-1.7,16.9-5.1,24.7C148.2,93.1,142,97.1,135.2,97.1L135.2,97.1z M135.2,97.1"/>
		<path class="st13" d="M123.9,78.2H118v-6.3h5.9c4.3,0,8.5-1,11.5-2.7l3.2,5.5C134.6,76.9,129.4,78.2,123.9,78.2L123.9,78.2z
			 M123.9,78.2"/>
		<path class="st23" d="M155.9,27.5h-44.3v-9.5c4.1-4.1,9.5-6.3,15.3-6.3h13.2c4.2,0,8.2,1.7,11.2,4.6c0.2,0.2,0.4,0.5,0.7,0.7
			C154.5,19.9,155.9,23.7,155.9,27.5L155.9,27.5z M155.9,27.5"/>
		<path class="st24" d="M138.1,11.7L125,27.5h-8.2l13.1-15.8H138.1z M138.1,11.7"/>
		<path class="st24" d="M152,17.1l-10.3,10.5h-8.9l14.1-14.3c1.7,0.8,3.2,1.8,4.5,3.1C151.5,16.6,151.7,16.8,152,17.1L152,17.1z
			 M152,17.1"/>
		<path class="st20" d="M146.4,103.5l-19,6.3l14.3,11.5L146.4,103.5z M146.4,103.5"/>
		<path class="st20" d="M127.5,109.8l-19-6.3l4.6,17.8L127.5,109.8z M127.5,109.8"/>
		<path class="st13" d="M76.9,147.7h-19v28.5l15.8,0l19,2.7l3.1-21.7L76.9,147.7z M76.9,147.7"/>
		<path class="st25" d="M197.1,163.5v22.1c0,5.2-4.2,9.5-9.5,9.5h-19l-59.8-13l1.7-24L197.1,163.5z M197.1,163.5"/>
		<rect x="121.1" y="173" class="st19" width="6.3" height="6.3"/>
		<rect x="133.8" y="173" class="st19" width="6.3" height="6.3"/>
		<path class="st20" d="M108.7,182.2l-16-3.2l3.1-21.7l14.6,0.9L108.7,182.2z M108.7,182.2"/>
	</g>
	<rect x="-0.1" y="12.6" class="st26" width="246.1" height="182.7"/>
</g>
</svg>
