<?xml version="1.0" encoding="utf-8"?>
<!-- Generator: Adobe Illustrator 25.1.0, SVG Export Plug-In . SVG Version: 6.00 Build 0)  -->
<svg version="1.1" id="Layer_1" xmlns="http://www.w3.org/2000/svg" xmlns:xlink="http://www.w3.org/1999/xlink" x="0px" y="0px"
	 viewBox="0 0 300 300" style="enable-background:new 0 0 300 300;" xml:space="preserve">
<style type="text/css">
	.st0{fill:#D71F29;}
</style>
<path class="st0" d="M279.5,220.7h-3.2l-33.8-77.1h16.9h0c3,0,5.5-2.5,5.5-5.5s-2.5-5.5-5.5-5.5h0h-88.3c-2-7.7-8-13.7-15.7-15.7
	v-11.4c0-3-2.5-5.5-5.5-5.5s-5.5,2.5-5.5,5.5v11.4c-7.7,2-13.7,8-15.7,15.7H40.4h0c-3,0-5.5,2.5-5.5,5.5s2.5,5.5,5.5,5.5h0h16.9
	l-33.8,77.1h-3.2c-2.3,0-4,2-3.8,4.2c2.1,24.8,23,44.3,48.4,44.3c25.4,0,46.2-19.5,48.4-44.3c0.2-2.3-1.6-4.2-3.8-4.2h-3.2
	l-33.8-77.1h56.3c2,7.7,8,13.7,15.7,15.7v110.4c-13.2,2-24.1,10.9-28.9,22.9c-1.3,3.2,1.1,6.7,4.5,6.7h59.7c3.5,0,5.8-3.5,4.5-6.7
	c-4.8-12-15.7-20.9-28.9-22.9V159.3c7.7-2,13.7-8,15.7-15.7h56.3l-33.8,77.1h-3.2c-2.3,0-4,2-3.8,4.2c2.1,24.8,23,44.3,48.4,44.3
	c25.4,0,46.2-19.5,48.4-44.3C283.5,222.6,281.8,220.7,279.5,220.7z M34,220.7l30.8-70.2l30.8,70.2H34z M204.2,220.7l30.8-70.2
	l30.8,70.2H204.2z"/>
</svg>
